<svg xmlns="http://www.w3.org/2000/svg" xmlns:xlink="http://www.w3.org/1999/xlink" width="109.652" height="109.653" viewBox="0 0 109.652 109.653">
  <defs>
    <filter id="Path_874925" x="0" y="0" width="109.652" height="109.653" filterUnits="userSpaceOnUse">
      <feOffset dy="3" input="SourceAlpha"/>
      <feGaussianBlur stdDeviation="3" result="blur"/>
      <feFlood flood-opacity="0.161"/>
      <feComposite operator="in" in2="blur"/>
      <feComposite in="SourceGraphic"/>
    </filter>
  </defs>
  <g id="Group_1111649" data-name="Group 1111649" transform="translate(-740 -2474)">
    <g id="Group_1111422" data-name="Group 1111422" transform="translate(-270.73 -597)">
      <g transform="matrix(1, 0, 0, 1, 1010.73, 3071)" filter="url(#Path_874925)">
        <g id="Path_874925-2" data-name="Path 874925" transform="translate(9 6)" fill="#ffd63c">
          <path d="M 45.82614517211914 90.15280151367188 C 39.84149551391602 90.15280151367188 34.03665924072266 88.98104095458984 28.5728702545166 86.67005157470703 C 23.29473304748535 84.43759155273438 18.55415725708008 81.24130249023438 14.48283290863037 77.16998291015625 C 10.41150760650635 73.09866333007812 7.215232849121094 68.35809326171875 4.982757568359375 63.07994079589844 C 2.671770095825195 57.61616897583008 1.500007629394531 51.81131744384766 1.500007629394531 45.82666778564453 C 1.500007629394531 39.84149169921875 2.671770095825195 34.03665542602539 4.982757568359375 28.57286643981934 C 7.215232849121094 23.29472923278809 10.41150760650635 18.55415534973145 14.48283290863037 14.48283004760742 C 18.55415725708008 10.4115047454834 23.29473304748535 7.215229511260986 28.5728702545166 4.982754707336426 C 34.03665924072266 2.671766996383667 39.84149551391602 1.500004529953003 45.82614517211914 1.500004529953003 C 51.81079483032227 1.500004529953003 57.61564636230469 2.671766996383667 63.07942199707031 4.982754707336426 C 68.35756683349609 7.215229511260986 73.09814453125 10.4115047454834 77.16947174072266 14.48283004760742 C 81.24078369140625 18.55415534973145 84.43707275390625 23.29472923278809 86.66954803466797 28.57286643981934 C 88.98052978515625 34.03665542602539 90.15229797363281 39.84149169921875 90.15229797363281 45.82614135742188 C 90.15229797363281 51.81131744384766 88.98052978515625 57.61616897583008 86.66954803466797 63.07994079589844 C 84.43707275390625 68.35809326171875 81.24078369140625 73.09866333007812 77.16947174072266 77.16998291015625 C 73.09814453125 81.24130249023438 68.35756683349609 84.43759155273438 63.07942199707031 86.67005157470703 C 57.61564636230469 88.98104095458984 51.81079483032227 90.15280151367188 45.82614517211914 90.15280151367188 Z" stroke="none"/>
          <path d="M 45.82614517211914 3.000007629394531 C 40.04333114624023 3.000007629394531 34.43508911132812 4.131904602050781 29.15720367431641 6.364265441894531 C 24.05784606933594 8.521102905273438 19.47753143310547 11.60944366455078 15.54348754882812 15.54348754882812 C 11.60944366455078 19.47753143310547 8.521102905273438 24.05784606933594 6.3642578125 29.15720367431641 C 4.131904602050781 34.43508911132812 3 40.0433349609375 3 45.82667541503906 C 3 51.60948944091797 4.131904602050781 57.21773147583008 6.3642578125 62.49562072753906 C 8.521102905273438 67.59497833251953 11.60944366455078 72.17527770996094 15.54348754882812 76.10932922363281 C 19.47753143310547 80.04337310791016 24.05784606933594 83.13170623779297 29.15718841552734 85.28854370117188 C 34.43508911132812 87.52090454101562 40.04333114624023 88.65280151367188 45.82614517211914 88.65280151367188 C 51.60895919799805 88.65280151367188 57.21720123291016 87.52090454101562 62.49510192871094 85.28854370117188 C 67.59444427490234 83.13170623779297 72.17475891113281 80.04337310791016 76.10880279541016 76.10932922363281 C 80.0428466796875 72.17527770996094 83.13118743896484 67.59497833251953 85.28803253173828 62.49562072753906 C 87.5203857421875 57.21773147583008 88.65229034423828 51.60948944091797 88.65229034423828 45.82614898681641 C 88.65229034423828 40.0433349609375 87.5203857421875 34.43508911132812 85.28803253173828 29.15720367431641 C 83.13118743896484 24.05784606933594 80.0428466796875 19.47753143310547 76.10880279541016 15.54348754882812 C 72.17475891113281 11.60944366455078 67.59444427490234 8.521102905273438 62.49508666992188 6.364265441894531 C 57.21720123291016 4.131904602050781 51.60895919799805 3.000007629394531 45.82614517211914 3.000007629394531 M 45.82614517211914 7.62939453125e-06 C 71.13523101806641 7.62939453125e-06 91.65229034423828 20.51705932617188 91.65229034423828 45.82614898681641 L 91.65229034423828 45.82667541503906 C 91.65229034423828 71.13575744628906 71.13523101806641 91.65280151367188 45.82614517211914 91.65280151367188 C 20.51705932617188 91.65280151367188 0 71.13575744628906 0 45.82667541503906 L 0 45.82614898681641 C 0 20.51705932617188 20.51705932617188 7.62939453125e-06 45.82614517211914 7.62939453125e-06 Z" stroke="none" fill="#fff"/>
        </g>
      </g>
    </g>
    <g id="zanja" transform="translate(760.007 2492)">
      <g id="Group_1111648" data-name="Group 1111648" transform="translate(9.704 9.711)">
        <g id="Group_1111645" data-name="Group 1111645" transform="translate(2.117 0)">
          <path id="Path_900679" data-name="Path 900679" d="M48.375,42.7H37.859a1.017,1.017,0,0,1-1.015-1.015V17.015A1.017,1.017,0,0,1,37.859,16H48.375a1.017,1.017,0,0,1,1.015,1.015V41.689A1.017,1.017,0,0,1,48.375,42.7Z" transform="translate(-36.844 -16)" fill="#a9b0bb" fill-rule="evenodd"/>
          <path id="Path_900680" data-name="Path 900680" d="M64.96,41.569H71.8V58.89H64.96Z" transform="translate(-62.105 -38.973)" fill="#a4d4ff" fill-rule="evenodd"/>
        </g>
        <g id="Group_1111647" data-name="Group 1111647" transform="translate(0 18.333)">
          <path id="Path_900681" data-name="Path 900681" d="M64.741,246.528l-4.1-1.07-1.466,1.07-2.043,13.057a1.01,1.01,0,0,1-1,.858H52.966a1.017,1.017,0,0,0-1.015,1.015v4.927a1.017,1.017,0,0,1-1.015,1.015H41.674a1.017,1.017,0,0,1-1.015-1.015v-4.927a1.017,1.017,0,0,0-1.015-1.015H36.477a1.01,1.01,0,0,1-1-.858l-1.908-12.2a1.01,1.01,0,0,0-1-.858H17.015A1.017,1.017,0,0,0,16,247.544v22.34a1.017,1.017,0,0,0,1.015,1.015H63.726a1.017,1.017,0,0,0,1.015-1.015Z" transform="translate(-16 -240.491)" fill="#d5a889" fill-rule="evenodd"/>
          <path id="Path_900682" data-name="Path 900682" d="M378.648,202.578h-8.975a.508.508,0,0,1-.433-.772l2.618-4.289a2.027,2.027,0,0,1,3.431-.056Z" transform="translate(-333.302 -196.54)" fill="#d5a889" fill-rule="evenodd"/>
          <g id="Group_1111646" data-name="Group 1111646" transform="translate(28.392 0.829)">
            <path id="Path_900683" data-name="Path 900683" d="M420.593,209.915H412.07l2.665-4.366a1.749,1.749,0,0,1,2.96-.049Z" transform="translate(-400.244 -204.706)" fill="#937661" fill-rule="evenodd"/>
            <path id="Path_900684" data-name="Path 900684" d="M304.118,290.94a1.375,1.375,0,0,0,1.162-.238,1.982,1.982,0,0,0,.773-1.591,10.582,10.582,0,0,0-.49-2.867.2.2,0,0,0-.348-.093,10.582,10.582,0,0,0-1.858,2.238,1.981,1.981,0,0,0-.127,1.765A1.374,1.374,0,0,0,304.118,290.94Zm-6.51,8.883a1.375,1.375,0,0,0,1.162-.238,1.982,1.982,0,0,0,.773-1.591,10.583,10.583,0,0,0-.49-2.867.2.2,0,0,0-.348-.093,10.581,10.581,0,0,0-1.858,2.238,1.981,1.981,0,0,0-.126,1.765A1.374,1.374,0,0,0,297.608,299.823Zm-.962-8.093a1.374,1.374,0,0,0,1.162-.238,1.982,1.982,0,0,0,.773-1.591,10.581,10.581,0,0,0-.49-2.867.2.2,0,0,0-.348-.093,10.583,10.583,0,0,0-1.858,2.238,1.981,1.981,0,0,0-.126,1.765A1.374,1.374,0,0,0,296.647,291.73Z" transform="translate(-295.605 -277.821)" fill="#937661" fill-rule="evenodd"/>
          </g>
        </g>
      </g>
      <path id="Path_900685" data-name="Path 900685" d="M41.325,49a1.244,1.244,0,0,1-.476,1.056.619.619,0,0,1-.99-.264,1.25,1.25,0,0,1,.117-1.153,5.984,5.984,0,0,1,1.1-1.4A6.04,6.04,0,0,1,41.325,49Zm-.41-3.674c-.191.234-.429.478-.683.737A8.022,8.022,0,0,0,38.7,48.006a2.667,2.667,0,0,0-.137,2.376,2.1,2.1,0,0,0,1.35,1.179,1.946,1.946,0,0,0,.507.067,2.163,2.163,0,0,0,1.252-.413,2.664,2.664,0,0,0,1.069-2.126,8.008,8.008,0,0,0-.354-2.446c-.09-.351-.174-.683-.223-.981a.711.711,0,0,0-1.253-.335Zm-1.9-4.781a6,6,0,0,1,1.1-1.4,6.026,6.026,0,0,1,.251,1.764,1.248,1.248,0,0,1-.476,1.057.618.618,0,0,1-.99-.265A1.25,1.25,0,0,1,39.013,40.547Zm-.06,2.921a1.958,1.958,0,0,0,.507.067,2.159,2.159,0,0,0,1.252-.413A2.663,2.663,0,0,0,41.781,41a7.993,7.993,0,0,0-.353-2.445c-.09-.352-.174-.683-.224-.981a.711.711,0,0,0-1.252-.335c-.191.234-.43.478-.683.739a7.956,7.956,0,0,0-1.529,1.94A2.666,2.666,0,0,0,37.6,42.29,2.1,2.1,0,0,0,38.954,43.469Zm7.53-3.712a6.062,6.062,0,0,1,1.1-1.4,5.963,5.963,0,0,1,.251,1.764,1.243,1.243,0,0,1-.476,1.057.618.618,0,0,1-.989-.265A1.245,1.245,0,0,1,46.484,39.757Zm-.059,2.923a2,2,0,0,0,.507.066,2.167,2.167,0,0,0,1.252-.413,2.666,2.666,0,0,0,1.069-2.126,8.009,8.009,0,0,0-.354-2.445c-.089-.351-.175-.683-.223-.981a.711.711,0,0,0-1.252-.335c-.191.234-.431.478-.683.738a7.964,7.964,0,0,0-1.529,1.94,2.664,2.664,0,0,0-.137,2.376,2.1,2.1,0,0,0,1.35,1.18ZM15.386,28.917V26.009H20.8v2.908ZM20.8,21.679v2.908H15.386V21.679Zm-5.414-1.422V17.348H20.8v2.909ZM20.8,13.018v2.908H15.386V13.018Zm.711-1.422H14.675a.71.71,0,0,0-.711.711V29.628a.71.71,0,0,0,.711.711h6.836a.71.71,0,0,0,.711-.711V12.308A.711.711,0,0,0,21.511,11.6ZM56.964,47.724a.712.712,0,0,1-.655.984H54.886a.711.711,0,0,1,0-1.422H56.31A.709.709,0,0,1,56.964,47.724Zm0-6.958a.712.712,0,0,1-.655.984H54.886a.711.711,0,0,1,0-1.422H56.31A.708.708,0,0,1,56.964,40.767ZM14.843,48a.712.712,0,0,1-.711.711H12.71a.711.711,0,1,1,0-1.422h1.422A.711.711,0,0,1,14.843,48Zm0-6.958a.711.711,0,0,1-.711.711H12.71a.711.711,0,1,1,0-1.422h1.422A.711.711,0,0,1,14.843,41.04ZM20.529,48a.712.712,0,0,1-.711.711H18.4a.711.711,0,0,1,0-1.422h1.422A.711.711,0,0,1,20.529,48Zm0-6.958a.711.711,0,0,1-.711.711H18.4a.711.711,0,0,1,0-1.422h1.422A.711.711,0,0,1,20.529,41.04Zm5.686,0a.711.711,0,0,1-.711.711H24.083a.711.711,0,1,1,0-1.422H25.5A.71.71,0,0,1,26.215,41.04Zm0,6.958a.711.711,0,0,1-.711.711H24.083a.711.711,0,1,1,0-1.422H25.5A.71.71,0,0,1,26.215,48Zm-15.8,9.744H57.733V34.792H53.49L51.407,48.107a.711.711,0,0,1-.7.6H46.366v6.247a.712.712,0,0,1-.711.711H34.362a.711.711,0,0,1-.711-.711V48.708h-4.34a.711.711,0,0,1-.7-.6L26.527,34.792H10.414Zm2.116-47.32V33.371H23.656V10.422ZM53.194,30.086a1.022,1.022,0,0,1,.87-.5,1.034,1.034,0,0,1,.889.473l2.174,3.314H51.189Zm-6.757,3.285h3.086l2.029-3.323-.455-.694a1.316,1.316,0,0,0-2.231.037Zm12.715.711a.715.715,0,0,0-.115-.39l-2.9-4.415a2.453,2.453,0,0,0-2.059-1.114H54.04a2.455,2.455,0,0,0-1.607.635l-.147-.223a2.729,2.729,0,0,0-2.292-1.241h-.046a2.732,2.732,0,0,0-2.3,1.317l-3.089,5.061a.711.711,0,0,0,.606,1.081h6.881L50.1,47.286H45.655a.711.711,0,0,0-.711.711v6.247H35.073V48a.711.711,0,0,0-.711-.711H29.919L27.837,33.972a.711.711,0,0,0-.7-.6H25.078V9.711A.711.711,0,0,0,24.367,9H11.82a.711.711,0,0,0-.711.711v23.66H9.7a.71.71,0,0,0-.711.711V58.453a.71.71,0,0,0,.711.711H58.446a.712.712,0,0,0,.712-.711V34.082h0Z" transform="translate(0 0)" fill-rule="evenodd"/>
    </g>
  </g>
</svg>
