<svg xmlns="http://www.w3.org/2000/svg" xmlns:xlink="http://www.w3.org/1999/xlink" width="109.652" height="109.652" viewBox="0 0 109.652 109.652">
  <defs>
    <filter id="Path_874925" x="0" y="0" width="109.652" height="109.652" filterUnits="userSpaceOnUse">
      <feOffset dy="3" input="SourceAlpha"/>
      <feGaussianBlur stdDeviation="3" result="blur"/>
      <feFlood flood-opacity="0.161"/>
      <feComposite operator="in" in2="blur"/>
      <feComposite in="SourceGraphic"/>
    </filter>
  </defs>
  <g id="Group_1111730" data-name="Group 1111730" transform="translate(-14678.104 9550.152)">
    <g id="Group_1111729" data-name="Group 1111729">
      <g id="Group_1111443" data-name="Group 1111443" transform="translate(13667.373 -12621.152)">
        <g transform="matrix(1, 0, 0, 1, 1010.73, 3071)" filter="url(#Path_874925)">
          <g id="Path_874925-2" data-name="Path 874925" transform="translate(9 6)" fill="#ffd63c">
            <path d="M 45.82614517211914 90.15280151367188 C 39.84149551391602 90.15280151367188 34.03665924072266 88.98104095458984 28.5728702545166 86.67005157470703 C 23.29473304748535 84.43759155273438 18.55415725708008 81.24130249023438 14.48283290863037 77.16998291015625 C 10.41150760650635 73.09866333007812 7.215232849121094 68.35809326171875 4.982757568359375 63.07994079589844 C 2.671770095825195 57.61616897583008 1.500007629394531 51.81131744384766 1.500007629394531 45.82666778564453 C 1.500007629394531 39.84149169921875 2.671770095825195 34.03665542602539 4.982757568359375 28.57286643981934 C 7.215232849121094 23.29472923278809 10.41150760650635 18.55415534973145 14.48283290863037 14.48283004760742 C 18.55415725708008 10.4115047454834 23.29473304748535 7.215229511260986 28.5728702545166 4.982754707336426 C 34.03665924072266 2.671766996383667 39.84149551391602 1.500004529953003 45.82614517211914 1.500004529953003 C 51.81079483032227 1.500004529953003 57.61564636230469 2.671766996383667 63.07942199707031 4.982754707336426 C 68.35756683349609 7.215229511260986 73.09814453125 10.4115047454834 77.16947174072266 14.48283004760742 C 81.24078369140625 18.55415534973145 84.43707275390625 23.29472923278809 86.66954803466797 28.57286643981934 C 88.98052978515625 34.03665542602539 90.15229797363281 39.84149169921875 90.15229797363281 45.82614135742188 C 90.15229797363281 51.81131744384766 88.98052978515625 57.61616897583008 86.66954803466797 63.07994079589844 C 84.43707275390625 68.35809326171875 81.24078369140625 73.09866333007812 77.16947174072266 77.16998291015625 C 73.09814453125 81.24130249023438 68.35756683349609 84.43759155273438 63.07942199707031 86.67005157470703 C 57.61564636230469 88.98104095458984 51.81079483032227 90.15280151367188 45.82614517211914 90.15280151367188 Z" stroke="none"/>
            <path d="M 45.82614517211914 3.000007629394531 C 40.04333114624023 3.000007629394531 34.43508911132812 4.131904602050781 29.15720367431641 6.364265441894531 C 24.05784606933594 8.521102905273438 19.47753143310547 11.60944366455078 15.54348754882812 15.54348754882812 C 11.60944366455078 19.47753143310547 8.521102905273438 24.05784606933594 6.3642578125 29.15720367431641 C 4.131904602050781 34.43508911132812 3 40.0433349609375 3 45.82667541503906 C 3 51.60948944091797 4.131904602050781 57.21773147583008 6.3642578125 62.49562072753906 C 8.521102905273438 67.59497833251953 11.60944366455078 72.17527770996094 15.54348754882812 76.10932922363281 C 19.47753143310547 80.04337310791016 24.05784606933594 83.13170623779297 29.15718841552734 85.28854370117188 C 34.43508911132812 87.52090454101562 40.04333114624023 88.65280151367188 45.82614517211914 88.65280151367188 C 51.60895919799805 88.65280151367188 57.21720123291016 87.52090454101562 62.49510192871094 85.28854370117188 C 67.59444427490234 83.13170623779297 72.17475891113281 80.04337310791016 76.10880279541016 76.10932922363281 C 80.0428466796875 72.17527770996094 83.13118743896484 67.59497833251953 85.28803253173828 62.49562072753906 C 87.5203857421875 57.21773147583008 88.65229034423828 51.60948944091797 88.65229034423828 45.82614898681641 C 88.65229034423828 40.0433349609375 87.5203857421875 34.43508911132812 85.28803253173828 29.15720367431641 C 83.13118743896484 24.05784606933594 80.0428466796875 19.47753143310547 76.10880279541016 15.54348754882812 C 72.17475891113281 11.60944366455078 67.59444427490234 8.521102905273438 62.49508666992188 6.364265441894531 C 57.21720123291016 4.131904602050781 51.60895919799805 3.000007629394531 45.82614517211914 3.000007629394531 M 45.82614517211914 7.62939453125e-06 C 71.13523101806641 7.62939453125e-06 91.65229034423828 20.51705932617188 91.65229034423828 45.82614898681641 L 91.65229034423828 45.82667541503906 C 91.65229034423828 71.13575744628906 71.13523101806641 91.65280151367188 45.82614517211914 91.65280151367188 C 20.51705932617188 91.65280151367188 0 71.13575744628906 0 45.82667541503906 L 0 45.82614898681641 C 0 20.51705932617188 20.51705932617188 7.62939453125e-06 45.82614517211914 7.62939453125e-06 Z" stroke="none" fill="#fff"/>
          </g>
        </g>
      </g>
      <g id="peligroso" transform="translate(14707.104 -9524.152)">
        <g id="Group_1111713" data-name="Group 1111713" transform="translate(0.837 0.837)">
          <g id="Group_1111702" data-name="Group 1111702" transform="translate(4.185)">
            <path id="Path_900866" data-name="Path 900866" d="M19.391,2.674V6.022H6V2.674A1.679,1.679,0,0,1,7.674,1H17.717A1.679,1.679,0,0,1,19.391,2.674Z" transform="translate(-6 -1)" fill="#aab2bd"/>
          </g>
          <g id="Group_1111703" data-name="Group 1111703" transform="translate(4.185 5.022)">
            <path id="Path_900867" data-name="Path 900867" d="M6,7H19.391v3.348H6Z" transform="translate(-6 -7)" fill="#ccd1d9"/>
          </g>
          <g id="Group_1111704" data-name="Group 1111704" transform="translate(0 3.348)">
            <path id="Path_900868" data-name="Path 900868" d="M35.809,12.189a4.041,4.041,0,0,1,0,5.708l-.494.494V27.6L20.25,13.369H1l4.185-3.348H20.25L24.091,6.18a4.041,4.041,0,0,1,5.708,0Zm-5.515,6.2,3.348-3.348-6.7-6.7L23.6,11.7Z" transform="translate(-1 -5)" fill="#fcd770"/>
          </g>
          <g id="Group_1111705" data-name="Group 1111705" transform="translate(0 11.717)">
            <path id="Path_900869" data-name="Path 900869" d="M20.25,15H1V48.478a3.347,3.347,0,0,0,3.348,3.348H35.293l.022-22.6Z" transform="translate(-1 -15)" fill="#ffeaa7"/>
          </g>
          <g id="Group_1111706" data-name="Group 1111706" transform="translate(3.348 15.065)">
            <path id="Path_900870" data-name="Path 900870" d="M5,19H18.391v3.348H5Z" transform="translate(-5 -19)" fill="#ff826e"/>
          </g>
          <g id="Group_1111707" data-name="Group 1111707" transform="translate(25.108 28.456)">
            <path id="Path_900871" data-name="Path 900871" d="M31,35V55.087a1.679,1.679,0,0,0,1.674,1.674H51.087a1.679,1.679,0,0,0,1.674-1.674V35Z" transform="translate(-31 -35)" fill="#ccd1d9"/>
          </g>
          <g id="Group_1111708" data-name="Group 1111708" transform="translate(30.13 28.456)">
            <path id="Path_900872" data-name="Path 900872" d="M47.043,35V50.065a1.686,1.686,0,0,1-1.674,1.674A1.679,1.679,0,0,1,43.7,50.065V41.7a1.686,1.686,0,0,0-1.674-1.674A1.679,1.679,0,0,0,40.348,41.7v5.022a1.686,1.686,0,0,1-1.674,1.674A1.679,1.679,0,0,1,37,46.717V35H47.043Z" transform="translate(-37 -35)" fill="#4fc1e9"/>
          </g>
          <g id="Group_1111709" data-name="Group 1111709" transform="translate(3.348 21.761)">
            <path id="Path_900873" data-name="Path 900873" d="M30.108,28.674V33.7H26.761V50.434H6.674A1.679,1.679,0,0,1,5,48.761V28.674A1.679,1.679,0,0,1,6.674,27H28.434A1.679,1.679,0,0,1,30.108,28.674Zm-6.269,13.8a7.106,7.106,0,0,0-5.022-12.127H16.29a7.11,7.11,0,0,0-6.57,9.817,7.233,7.233,0,0,0,1.548,2.31l1.264,1.264v1.674a1.679,1.679,0,0,0,1.674,1.674h6.7a1.679,1.679,0,0,0,1.674-1.674V43.739Z" transform="translate(-5 -27)" fill="#f0d0b4"/>
          </g>
          <g id="Group_1111710" data-name="Group 1111710" transform="translate(7.533 25.108)">
            <path id="Path_900874" data-name="Path 900874" d="M20.043,47.739H15.022a1.679,1.679,0,0,1-1.674-1.674V44.391l-1.264-1.264a7.233,7.233,0,0,1-1.548-2.31A7.11,7.11,0,0,1,17.106,31h2.528a7.1,7.1,0,0,1,5.022,12.127l-1.264,1.264v1.674a1.679,1.679,0,0,1-1.674,1.674Z" transform="translate(-10 -31)" fill="#e6e9ed"/>
          </g>
          <g id="Group_1111711" data-name="Group 1111711" transform="translate(17.576 30.13)">
            <ellipse id="Ellipse_11819" data-name="Ellipse 11819" cx="2" cy="1.5" rx="2" ry="1.5" transform="translate(-0.413 -0.076)" fill="#969faa"/>
          </g>
          <g id="Group_1111712" data-name="Group 1111712" transform="translate(10.88 30.13)">
            <circle id="Ellipse_11820" data-name="Ellipse 11820" cx="1.5" cy="1.5" r="1.5" transform="translate(0.283 -0.076)" fill="#969faa"/>
          </g>
        </g>
        <g id="Group_1111714" data-name="Group 1111714" transform="translate(0)">
          <path id="Path_900875" data-name="Path 900875" d="M48.543,30.13V28.456H35.989V17.922l.245-.245a4.878,4.878,0,0,0,0-6.9l-6-6a4.878,4.878,0,0,0-6.9,0L19.74,8.369h-.49V2.511A2.514,2.514,0,0,0,16.739,0H6.7A2.514,2.514,0,0,0,4.185,2.511V8.8L0,12.152v33.88a4.189,4.189,0,0,0,4.185,4.185H25.262a2.507,2.507,0,0,0,2.357,1.675H46.032a2.514,2.514,0,0,0,2.511-2.511V43.437a4.192,4.192,0,0,0,3.348-4.1V30.13ZM35.989,33.478a2.514,2.514,0,0,0-2.511,2.511V41.01a.837.837,0,0,1-1.674,0V30.13h8.369V44.358a.837.837,0,0,1-1.674,0V35.989A2.514,2.514,0,0,0,35.989,33.478ZM21.761,30.13v.653a2.511,2.511,0,1,0,0,3.716v3.654l-.837.837v2.02a.837.837,0,0,1-.837.837H19.25V38.5H17.576v3.348H15.9V38.5H14.228v3.348h-.837a.837.837,0,0,1-.837-.837V38.99l-1.513-1.513a6.265,6.265,0,0,1,4.43-10.694h2.535a6.221,6.221,0,0,1,5.537,3.348Zm-.837,2.511a.837.837,0,1,1-.837-.837A.837.837,0,0,1,20.924,32.641Zm2.511-.837h1.674v9.889a2.507,2.507,0,0,1-1.674-2.357Zm1.674-2.312a7.89,7.89,0,0,0-7.1-4.383H15.472A7.939,7.939,0,0,0,9.858,38.66l1.023,1.023V41.01a2.514,2.514,0,0,0,2.511,2.511h6.7a2.506,2.506,0,0,0,2.4-1.829,4.188,4.188,0,0,0,2.617,1.743V45.2H5.859a.837.837,0,0,1-.837-.837V24.271a.838.838,0,0,1,.837-.837H27.619a.838.838,0,0,1,.837.837v4.185H25.108ZM20.433,10.043,24.517,5.96a3.2,3.2,0,0,1,4.531,0l6,6a3.2,3.2,0,0,1,0,4.531l-.736.736v7.611l-13.9-13.123H3.223l2.092-1.674H20.433ZM17.576,6.7V8.369H15.9V6.7ZM14.228,8.369H12.554V6.7h1.674Zm-3.348,0H9.206V6.7H10.88Zm-3.348,0H5.859V6.7H7.533ZM6.7,1.674H16.739a.838.838,0,0,1,.837.837V5.022H5.859V2.511A.838.838,0,0,1,6.7,1.674ZM1.674,46.032V13.391H19.754l14.56,13.751v1.314H30.13V24.271a2.514,2.514,0,0,0-2.511-2.511H5.859a2.514,2.514,0,0,0-2.511,2.511V44.358a2.514,2.514,0,0,0,2.511,2.511h19.25v1.673H4.185A2.514,2.514,0,0,1,1.674,46.032Zm45.2,3.348a.837.837,0,0,1-.837.837H27.619a.837.837,0,0,1-.837-.837V30.13H30.13V41.01a2.511,2.511,0,1,0,5.022,0V35.989a.837.837,0,0,1,1.674,0v8.369a2.511,2.511,0,1,0,5.022,0V30.13h5.022Zm3.348-10.043a2.507,2.507,0,0,1-1.674,2.357V31.8h1.674Z" transform="translate(0)"/>
          <path id="Path_900876" data-name="Path 900876" d="M39,15.465,31.117,7.586l-4.531,4.531L34.465,20ZM31.117,9.953l5.512,5.512-2.164,2.164-5.512-5.512Z" transform="translate(-4.335 -1.237)"/>
          <path id="Path_900877" data-name="Path 900877" d="M15.511,36a2.511,2.511,0,1,0,2.511,2.511A2.514,2.514,0,0,0,15.511,36Zm0,3.348a.837.837,0,1,1,.837-.837A.837.837,0,0,1,15.511,39.348Z" transform="translate(-2.12 -5.87)"/>
          <path id="Path_900878" data-name="Path 900878" d="M19.065,18H4v5.022H19.065Zm-1.674,3.348H5.674V19.674H17.391Z" transform="translate(-0.652 -2.935)"/>
        </g>
      </g>
    </g>
  </g>
</svg>
