<svg xmlns="http://www.w3.org/2000/svg" xmlns:xlink="http://www.w3.org/1999/xlink" width="109.652" height="109.653" viewBox="0 0 109.652 109.653">
  <defs>
    <filter id="Path_874925" x="0" y="0" width="109.652" height="109.653" filterUnits="userSpaceOnUse">
      <feOffset dy="3" input="SourceAlpha"/>
      <feGaussianBlur stdDeviation="3" result="blur"/>
      <feFlood flood-opacity="0.161"/>
      <feComposite operator="in" in2="blur"/>
      <feComposite in="SourceGraphic"/>
    </filter>
  </defs>
  <g id="Group_1111683" data-name="Group 1111683" transform="translate(-740 -1648)">
    <g id="Group_1111437" data-name="Group 1111437" transform="translate(-270.73 -1423)">
      <g transform="matrix(1, 0, 0, 1, 1010.73, 3071)" filter="url(#Path_874925)">
        <g id="Path_874925-2" data-name="Path 874925" transform="translate(9 6)" fill="#ffd63c">
          <path d="M 45.82614517211914 90.15280151367188 C 39.84149551391602 90.15280151367188 34.03665924072266 88.98104095458984 28.5728702545166 86.67005157470703 C 23.29473304748535 84.43759155273438 18.55415725708008 81.24130249023438 14.48283290863037 77.16998291015625 C 10.41150760650635 73.09866333007812 7.215232849121094 68.35809326171875 4.982757568359375 63.07994079589844 C 2.671770095825195 57.61616897583008 1.500007629394531 51.81131744384766 1.500007629394531 45.82666778564453 C 1.500007629394531 39.84149169921875 2.671770095825195 34.03665542602539 4.982757568359375 28.57286643981934 C 7.215232849121094 23.29472923278809 10.41150760650635 18.55415534973145 14.48283290863037 14.48283004760742 C 18.55415725708008 10.4115047454834 23.29473304748535 7.215229511260986 28.5728702545166 4.982754707336426 C 34.03665924072266 2.671766996383667 39.84149551391602 1.500004529953003 45.82614517211914 1.500004529953003 C 51.81079483032227 1.500004529953003 57.61564636230469 2.671766996383667 63.07942199707031 4.982754707336426 C 68.35756683349609 7.215229511260986 73.09814453125 10.4115047454834 77.16947174072266 14.48283004760742 C 81.24078369140625 18.55415534973145 84.43707275390625 23.29472923278809 86.66954803466797 28.57286643981934 C 88.98052978515625 34.03665542602539 90.15229797363281 39.84149169921875 90.15229797363281 45.82614135742188 C 90.15229797363281 51.81131744384766 88.98052978515625 57.61616897583008 86.66954803466797 63.07994079589844 C 84.43707275390625 68.35809326171875 81.24078369140625 73.09866333007812 77.16947174072266 77.16998291015625 C 73.09814453125 81.24130249023438 68.35756683349609 84.43759155273438 63.07942199707031 86.67005157470703 C 57.61564636230469 88.98104095458984 51.81079483032227 90.15280151367188 45.82614517211914 90.15280151367188 Z" stroke="none"/>
          <path d="M 45.82614517211914 3.000007629394531 C 40.04333114624023 3.000007629394531 34.43508911132812 4.131904602050781 29.15720367431641 6.364265441894531 C 24.05784606933594 8.521102905273438 19.47753143310547 11.60944366455078 15.54348754882812 15.54348754882812 C 11.60944366455078 19.47753143310547 8.521102905273438 24.05784606933594 6.3642578125 29.15720367431641 C 4.131904602050781 34.43508911132812 3 40.0433349609375 3 45.82667541503906 C 3 51.60948944091797 4.131904602050781 57.21773147583008 6.3642578125 62.49562072753906 C 8.521102905273438 67.59497833251953 11.60944366455078 72.17527770996094 15.54348754882812 76.10932922363281 C 19.47753143310547 80.04337310791016 24.05784606933594 83.13170623779297 29.15718841552734 85.28854370117188 C 34.43508911132812 87.52090454101562 40.04333114624023 88.65280151367188 45.82614517211914 88.65280151367188 C 51.60895919799805 88.65280151367188 57.21720123291016 87.52090454101562 62.49510192871094 85.28854370117188 C 67.59444427490234 83.13170623779297 72.17475891113281 80.04337310791016 76.10880279541016 76.10932922363281 C 80.0428466796875 72.17527770996094 83.13118743896484 67.59497833251953 85.28803253173828 62.49562072753906 C 87.5203857421875 57.21773147583008 88.65229034423828 51.60948944091797 88.65229034423828 45.82614898681641 C 88.65229034423828 40.0433349609375 87.5203857421875 34.43508911132812 85.28803253173828 29.15720367431641 C 83.13118743896484 24.05784606933594 80.0428466796875 19.47753143310547 76.10880279541016 15.54348754882812 C 72.17475891113281 11.60944366455078 67.59444427490234 8.521102905273438 62.49508666992188 6.364265441894531 C 57.21720123291016 4.131904602050781 51.60895919799805 3.000007629394531 45.82614517211914 3.000007629394531 M 45.82614517211914 7.62939453125e-06 C 71.13523101806641 7.62939453125e-06 91.65229034423828 20.51705932617188 91.65229034423828 45.82614898681641 L 91.65229034423828 45.82667541503906 C 91.65229034423828 71.13575744628906 71.13523101806641 91.65280151367188 45.82614517211914 91.65280151367188 C 20.51705932617188 91.65280151367188 0 71.13575744628906 0 45.82667541503906 L 0 45.82614898681641 C 0 20.51705932617188 20.51705932617188 7.62939453125e-06 45.82614517211914 7.62939453125e-06 Z" stroke="none" fill="#fff"/>
        </g>
      </g>
    </g>
    <g id="movimienot" transform="translate(746.908 1670)">
      <g id="Group_1111681" data-name="Group 1111681" transform="translate(21.948 0.853)">
        <path id="Path_900826" data-name="Path 900826" d="M77.028,81.682a2.17,2.17,0,0,0-1.015-.252H63.826a6.256,6.256,0,0,0-4.582-1.977c-1.145,1.793-8.886.572-8.886.572L49.033,78a4.955,4.955,0,0,0-2.873.106L33.128,71.851a2.181,2.181,0,0,0-2.943,1.1l15.359,9.7-.372,1.179-.958.438-.036.06L36.952,96.839a2.181,2.181,0,0,0,.868,3.018,3.315,3.315,0,0,0,1.789-1.362l7.535-10.585c-.321,2.947-.854,8.18-.854,10.47a86.892,86.892,0,0,0,2.448,18.74l-1.452,1.908,5.035,1.137v-15.59c0-1.727,1.137-2.564,2.12-2.1a.829.829,0,0,1,.577.369l11.5,17.084a2.153,2.153,0,0,0,.5.532c1.893,0,2.313-1.453,1.811-2.5L59.49,98.38c0-3.279-1.091-13.725-1.091-13.725H75.962C77.054,84.655,77.841,83.03,77.028,81.682Z" transform="translate(-30.008 -64.343)" fill="#fee97d"/>
        <path id="Path_900827" data-name="Path 900827" d="M211.836,138.811a5.388,5.388,0,0,0,4.648-2.61l-.091,0h-3.779l-2.723-.535-2.293,1.109A5.329,5.329,0,0,0,211.836,138.811Z" transform="translate(-187.248 -121.091)" fill="#ffd15b"/>
        <path id="Path_900828" data-name="Path 900828" d="M51.268,89.132l-2.876-.565a2.974,2.974,0,0,0-.742-.355l-3.775,1.825a.853.853,0,0,1-.74,0L28.8,83.162a2.215,2.215,0,0,0,1.1,2.86L44.162,92.86h0a6.822,6.822,0,0,1,1.573-1.054Z" transform="translate(-28.626 -74.559)" fill="#ffd15b"/>
        <path id="Path_900829" data-name="Path 900829" d="M284.3,159.994a2.225,2.225,0,0,1-2.2,1.836H264.9a.852.852,0,0,0-.849.93c.252,2.754.973,10.855,1,13.747a.849.849,0,0,0,.083.357l9.265,19.409c.5,1.051.637,2-.106,2.5a2,2,0,0,0,2.948-2.5l-9.346-19.581c0-3.279-1.091-12.588-1.091-12.588h16.42a2.248,2.248,0,0,0,2.239-2.131A2.179,2.179,0,0,0,284.3,159.994Z" transform="translate(-237.275 -142.655)" fill="#ffd15b"/>
        <path id="Path_900830" data-name="Path 900830" d="M105.055,168.461a6.824,6.824,0,0,0-1.33,1.617l.75,1.285a.851.851,0,0,1,.111.527c-.037.323-.1.908-.186,1.658a.852.852,0,0,1-.109.334L98.44,184.017a13.6,13.6,0,0,1-1.109,1.657,2.215,2.215,0,0,0,2.936-.882l6.389-11.066c.138-1.271.238-2.117.238-2.117Z" transform="translate(-89.519 -150.159)" fill="#ffd15b"/>
        <path id="Path_900831" data-name="Path 900831" d="M182.66,337.8v14.737a.853.853,0,0,1-.853.853h-3.046a1.137,1.137,0,0,0,.9,1.826h5.268V337.685a.852.852,0,0,1,.983-.845A1.784,1.784,0,0,0,182.66,337.8Z" transform="translate(-161.484 -298.704)" fill="#ffd15b"/>
        <path id="Path_900832" data-name="Path 900832" d="M189.6,7.811a5.564,5.564,0,0,0-1.84-.311c-3.338,0-6.044,2.9-6.044,7.08,0,5.866,2.916,8.366,6.044,8.366,3.022-.338,4.907-3.637,4.907-9.5C192.667,10.8,190.9,9.354,189.6,7.811Z" transform="translate(-164.308 -7.5)" fill="#fee97d"/>
        <path id="Path_900833" data-name="Path 900833" d="M236.715,10.231c1.3,1.544,1.931,4.126,1.931,6.769,0,5.866-2.5,8-3.77,8.366,3.128,0,6.044-2.5,6.044-8.366C240.919,13.621,239.153,11.082,236.715,10.231Z" transform="translate(-211.424 -9.92)" fill="#ffd15b"/>
      </g>
      <g id="Group_1111682" data-name="Group 1111682" transform="translate(21.092 0)">
        <path id="Trazado_900834" data-name="Trazado 900834" d="M181.112,17.151c-3.182,0-6.9-2.414-6.9-9.219,0-4.522,2.965-7.933,6.9-7.933s6.9,3.41,6.9,7.933C188.009,14.737,184.294,17.151,181.112,17.151Zm0-15.446c-2.96,0-5.192,2.677-5.192,6.227,0,5.54,2.682,7.513,5.192,7.513s5.192-1.974,5.192-7.513C186.3,4.383,184.072,1.706,181.112,1.706Z" transform="translate(-156.805 0)"/>
        <path id="Trazado_900835" data-name="Trazado 900835" d="M82.633,168.047a3.033,3.033,0,0,1-2.614-4.55l7.227-12.517a7.645,7.645,0,0,1,3.306-3.072l1.026-.5a.853.853,0,1,1,.742,1.535l-1.026.5a5.946,5.946,0,0,0-2.571,2.389L81.5,164.35a1.328,1.328,0,0,0,.529,1.838,1.367,1.367,0,0,0,1.8-.555l6.389-11.066a.853.853,0,0,1,1.477.853L85.3,166.486A3.085,3.085,0,0,1,82.633,168.047Z" transform="translate(-72.957 -130.575)"/>
        <path id="Trazado_900836" data-name="Trazado 900836" d="M41.715,72.544a.849.849,0,0,1-.472-.143,3.651,3.651,0,0,0-2.845-.159.853.853,0,0,1-.666-.03L24.7,65.961a1.328,1.328,0,0,0-1.793.668,1.367,1.367,0,0,0,.691,1.75l1.968.944a.853.853,0,0,1-.738,1.538l-1.968-.944a3.049,3.049,0,0,1-1.516-3.97,3.034,3.034,0,0,1,4.093-1.523L38.17,70.531a5.074,5.074,0,0,1,4.018.451.853.853,0,0,1-.474,1.563Z" transform="translate(-21.092 -56.831)"/>
        <path id="Trazado_900837" data-name="Trazado 900837" d="M249.832,146.612a.853.853,0,0,1-.848-.77c-.291-2.99-.606-5.675-.606-5.675a.853.853,0,0,1,.847-.952h16.426a1.367,1.367,0,0,0,1.38-1.279,1.328,1.328,0,0,0-1.327-1.378H253.516a.853.853,0,0,1-.661-.314,5.389,5.389,0,0,0-4.012-1.665h-3.779a.853.853,0,0,1,0-1.706h3.779a7.234,7.234,0,0,1,5.039,1.979H265.7A3.034,3.034,0,0,1,268.735,138a3.049,3.049,0,0,1-3.084,2.924h-15.47c.118,1.048.314,2.84.5,4.756a.853.853,0,0,1-.766.931Q249.873,146.612,249.832,146.612Z" transform="translate(-218.841 -117.765)"/>
        <path id="Trazado_900838" data-name="Trazado 900838" d="M178.289,294.655h-5.268a1.99,1.99,0,0,1-1.583-3.2l1.205-1.583c-.063-.26-.152-.641-.26-1.124a.853.853,0,0,1,1.665-.371c.208.933.345,1.468.347,1.475a.853.853,0,0,1-.147.729l-1.452,1.908a.284.284,0,0,0,.226.457h4.415V276.273a1.706,1.706,0,0,1,3.12-.953l11.5,17.084a1.14,1.14,0,0,0,1.975-1.128L184.687,271.7a.853.853,0,0,1-.083-.367c0-.784-.066-2.007-.2-3.636a.853.853,0,0,1,1.7-.135c.123,1.547.19,2.749.2,3.576l9.264,19.409a2.846,2.846,0,0,1-4.929,2.815l-11.5-17.084V293.8A.853.853,0,0,1,178.289,294.655Z" transform="translate(-153.981 -236.439)"/>
        <path id="Trazado_900839" data-name="Trazado 900839" d="M91.531,159.124a.853.853,0,0,1-.838-.7,80.8,80.8,0,0,1-1.439-14.1c0-3.006.878-10.788,1.064-12.4l-1.563-2.676L80.106,125.1a.853.853,0,1,1,.738-1.538l8.885,4.262a.853.853,0,0,1,.368.339l1.838,3.148a.853.853,0,0,1,.111.529c-.011.093-1.086,9.3-1.086,12.488a79.082,79.082,0,0,0,1.411,13.791.853.853,0,0,1-.839,1.008Z" transform="translate(-72.967 -109.435)"/>
        <path id="Trazado_900840" data-name="Trazado 900840" d="M260.99,455.619a.85.85,0,0,1-.6-.25l-2.764-2.764a.853.853,0,0,1,0-1.206l2.764-2.764a.853.853,0,1,1,1.206,1.206L259.432,452l2.161,2.161a.853.853,0,0,1-.6,1.456Z" transform="translate(-230.507 -397.403)"/>
        <path id="Trazado_900841" data-name="Trazado 900841" d="M412.226,455.619a.853.853,0,0,1-.6-1.456L413.784,452l-2.161-2.161a.853.853,0,1,1,1.206-1.206l2.764,2.764a.853.853,0,0,1,0,1.206l-2.764,2.764A.85.85,0,0,1,412.226,455.619Z" transform="translate(-366.997 -397.403)"/>
        <path id="Línea_564" data-name="Línea 564" d="M11.448-5.794H-6.647A.853.853,0,0,1-7.5-6.647.853.853,0,0,1-6.647-7.5H11.448a.853.853,0,0,1,.853.853A.853.853,0,0,1,11.448-5.794Z" transform="translate(35.503 61.246)"/>
        <path id="Trazado_900842" data-name="Trazado 900842" d="M422.42,80.569a.853.853,0,0,1-.6-1.456l2.161-2.161-2.161-2.161a.853.853,0,0,1,1.206-1.206l2.764,2.764a.853.853,0,0,1,0,1.206l-2.764,2.764A.85.85,0,0,1,422.42,80.569Z" transform="translate(-376.032 -64.998)"/>
        <path id="Línea_565" data-name="Línea 565" d="M2.489-5.794H-6.647A.853.853,0,0,1-7.5-6.647.853.853,0,0,1-6.647-7.5H2.489a.853.853,0,0,1,.853.853A.853.853,0,0,1,2.489-5.794Z" transform="translate(45.621 18.602)"/>
        <path id="Trazado_900843" data-name="Trazado 900843" d="M55.011,43.192a.853.853,0,0,1-.775-.5,29.09,29.09,0,0,1,0-24.335.853.853,0,1,1,1.55.713,27.386,27.386,0,0,0,0,22.91.853.853,0,0,1-.774,1.209Z" transform="translate(-48.104 -15.833)"/>
        <path id="Trazado_900844" data-name="Trazado 900844" d="M48.949,201.358a.852.852,0,0,1-.33-.066l-3.6-1.511a.853.853,0,1,1,.659-1.573l2.818,1.181,1.181-2.818a.853.853,0,0,1,1.573.659l-1.511,3.6a.853.853,0,0,1-.786.523Z" transform="translate(-41.83 -173.757)"/>
        <path id="Trazado_900845" data-name="Trazado 900845" d="M50.46,19.872a.853.853,0,0,1-.787-.523L48.492,16.53l-2.818,1.181a.853.853,0,0,1-.659-1.573l3.6-1.511a.853.853,0,0,1,1.116.457l1.511,3.6a.853.853,0,0,1-.786,1.183Z" transform="translate(-41.83 -12.905)"/>
        <path id="Línea_566" data-name="Línea 566" d="M-6.647,19.335a.853.853,0,0,1-.853-.853V-6.647A.853.853,0,0,1-6.647-7.5a.853.853,0,0,1,.853.853V18.482A.853.853,0,0,1-6.647,19.335Z" transform="translate(59.21 12.703)"/>
      </g>
    </g>
  </g>
</svg>
