<svg xmlns="http://www.w3.org/2000/svg" xmlns:xlink="http://www.w3.org/1999/xlink" width="109.652" height="109.652" viewBox="0 0 109.652 109.652">
  <defs>
    <filter id="Path_874925" x="0" y="0" width="109.652" height="109.652" filterUnits="userSpaceOnUse">
      <feOffset dy="3" input="SourceAlpha"/>
      <feGaussianBlur stdDeviation="3" result="blur"/>
      <feFlood flood-opacity="0.161"/>
      <feComposite operator="in" in2="blur"/>
      <feComposite in="SourceGraphic"/>
    </filter>
  </defs>
  <g id="Group_1111721" data-name="Group 1111721" transform="translate(-15795 9530)">
    <g id="Group_1111445" data-name="Group 1111445" transform="translate(14784.27 -12601)">
      <g transform="matrix(1, 0, 0, 1, 1010.73, 3071)" filter="url(#Path_874925)">
        <g id="Path_874925-2" data-name="Path 874925" transform="translate(9 6)" fill="#ffd63c">
          <path d="M 45.82614517211914 90.15280151367188 C 39.84149551391602 90.15280151367188 34.03665924072266 88.98104095458984 28.5728702545166 86.67005157470703 C 23.29473304748535 84.43759155273438 18.55415725708008 81.24130249023438 14.48283290863037 77.16998291015625 C 10.41150760650635 73.09866333007812 7.215232849121094 68.35809326171875 4.982757568359375 63.07994079589844 C 2.671770095825195 57.61616897583008 1.500007629394531 51.81131744384766 1.500007629394531 45.82666778564453 C 1.500007629394531 39.84149169921875 2.671770095825195 34.03665542602539 4.982757568359375 28.57286643981934 C 7.215232849121094 23.29472923278809 10.41150760650635 18.55415534973145 14.48283290863037 14.48283004760742 C 18.55415725708008 10.4115047454834 23.29473304748535 7.215229511260986 28.5728702545166 4.982754707336426 C 34.03665924072266 2.671766996383667 39.84149551391602 1.500004529953003 45.82614517211914 1.500004529953003 C 51.81079483032227 1.500004529953003 57.61564636230469 2.671766996383667 63.07942199707031 4.982754707336426 C 68.35756683349609 7.215229511260986 73.09814453125 10.4115047454834 77.16947174072266 14.48283004760742 C 81.24078369140625 18.55415534973145 84.43707275390625 23.29472923278809 86.66954803466797 28.57286643981934 C 88.98052978515625 34.03665542602539 90.15229797363281 39.84149169921875 90.15229797363281 45.82614135742188 C 90.15229797363281 51.81131744384766 88.98052978515625 57.61616897583008 86.66954803466797 63.07994079589844 C 84.43707275390625 68.35809326171875 81.24078369140625 73.09866333007812 77.16947174072266 77.16998291015625 C 73.09814453125 81.24130249023438 68.35756683349609 84.43759155273438 63.07942199707031 86.67005157470703 C 57.61564636230469 88.98104095458984 51.81079483032227 90.15280151367188 45.82614517211914 90.15280151367188 Z" stroke="none"/>
          <path d="M 45.82614517211914 3.000007629394531 C 40.04333114624023 3.000007629394531 34.43508911132812 4.131904602050781 29.15720367431641 6.364265441894531 C 24.05784606933594 8.521102905273438 19.47753143310547 11.60944366455078 15.54348754882812 15.54348754882812 C 11.60944366455078 19.47753143310547 8.521102905273438 24.05784606933594 6.3642578125 29.15720367431641 C 4.131904602050781 34.43508911132812 3 40.0433349609375 3 45.82667541503906 C 3 51.60948944091797 4.131904602050781 57.21773147583008 6.3642578125 62.49562072753906 C 8.521102905273438 67.59497833251953 11.60944366455078 72.17527770996094 15.54348754882812 76.10932922363281 C 19.47753143310547 80.04337310791016 24.05784606933594 83.13170623779297 29.15718841552734 85.28854370117188 C 34.43508911132812 87.52090454101562 40.04333114624023 88.65280151367188 45.82614517211914 88.65280151367188 C 51.60895919799805 88.65280151367188 57.21720123291016 87.52090454101562 62.49510192871094 85.28854370117188 C 67.59444427490234 83.13170623779297 72.17475891113281 80.04337310791016 76.10880279541016 76.10932922363281 C 80.0428466796875 72.17527770996094 83.13118743896484 67.59497833251953 85.28803253173828 62.49562072753906 C 87.5203857421875 57.21773147583008 88.65229034423828 51.60948944091797 88.65229034423828 45.82614898681641 C 88.65229034423828 40.0433349609375 87.5203857421875 34.43508911132812 85.28803253173828 29.15720367431641 C 83.13118743896484 24.05784606933594 80.0428466796875 19.47753143310547 76.10880279541016 15.54348754882812 C 72.17475891113281 11.60944366455078 67.59444427490234 8.521102905273438 62.49508666992188 6.364265441894531 C 57.21720123291016 4.131904602050781 51.60895919799805 3.000007629394531 45.82614517211914 3.000007629394531 M 45.82614517211914 7.62939453125e-06 C 71.13523101806641 7.62939453125e-06 91.65229034423828 20.51705932617188 91.65229034423828 45.82614898681641 L 91.65229034423828 45.82667541503906 C 91.65229034423828 71.13575744628906 71.13523101806641 91.65280151367188 45.82614517211914 91.65280151367188 C 20.51705932617188 91.65280151367188 0 71.13575744628906 0 45.82667541503906 L 0 45.82614898681641 C 0 20.51705932617188 20.51705932617188 7.62939453125e-06 45.82614517211914 7.62939453125e-06 Z" stroke="none" fill="#fff"/>
        </g>
      </g>
    </g>
    <g id="amenaza" transform="translate(15820.023 -9560.239)">
      <g id="Group_1111720" data-name="Group 1111720" transform="translate(0.912 57.168)">
        <g id="Group_1111718" data-name="Group 1111718" transform="translate(0 0)">
          <path id="Path_900887" data-name="Path 900887" d="M35.581,67.638,50.446,93.386a6.788,6.788,0,0,1-5.879,10.183H14.836A6.788,6.788,0,0,1,8.957,93.386L23.823,67.638a6.788,6.788,0,0,1,11.758,0Z" transform="translate(-8.041 -64.244)" fill="#fe646f" fill-rule="evenodd"/>
          <path id="Path_900888" data-name="Path 900888" d="M193.877,67.638l14.865,25.748a6.788,6.788,0,0,1-5.879,10.183H201.1a6.788,6.788,0,0,0,5.879-10.183L192.111,67.638a6.735,6.735,0,0,0-5-3.338,6.93,6.93,0,0,1,.883-.056A6.742,6.742,0,0,1,193.877,67.638Z" transform="translate(-166.337 -64.244)" fill="#fd4755" fill-rule="evenodd"/>
          <path id="Path_900889" data-name="Path 900889" d="M59.476,96.368l14.866,25.748a3.25,3.25,0,0,1-2.814,4.874H41.8a3.25,3.25,0,0,1-2.814-4.874L53.848,96.368a3.25,3.25,0,0,1,5.628,0Z" transform="translate(-35.001 -91.204)" fill="#ffe177" fill-rule="evenodd"/>
          <path id="Path_900890" data-name="Path 900890" d="M43.562,126.99H41.8a3.25,3.25,0,0,1-2.814-4.874L53.848,96.368a3.2,3.2,0,0,1,2.814-1.625,3.322,3.322,0,0,1,.883.118,3.2,3.2,0,0,0-1.931,1.507L40.748,122.116a3.25,3.25,0,0,0,2.814,4.875Z" transform="translate(-35.001 -91.204)" fill="#ffd064" fill-rule="evenodd"/>
          <path id="Path_900891" data-name="Path 900891" d="M180.564,179.743a1.859,1.859,0,1,1-1.859,1.859A1.859,1.859,0,0,1,180.564,179.743Zm0-1.944a1.451,1.451,0,0,1-1.45-1.4l-.367-10.157a1.451,1.451,0,0,1,1.45-1.5h.734a1.451,1.451,0,0,1,1.45,1.5l-.367,10.157a1.452,1.452,0,0,1-1.45,1.4Z" transform="translate(-158.903 -153.079)" fill="#fe646f" fill-rule="evenodd"/>
          <path id="Path_900892" data-name="Path 900892" d="M191.362,179.743a1.859,1.859,0,1,1-.442,3.665,1.859,1.859,0,0,0,0-3.612A1.859,1.859,0,0,1,191.362,179.743Zm0-1.944a1.451,1.451,0,0,1-.442-.069,1.452,1.452,0,0,0,1.009-1.33l.367-10.157a1.451,1.451,0,0,0-1.375-1.5l.075,0h.734a1.451,1.451,0,0,1,1.45,1.5l-.367,10.157A1.451,1.451,0,0,1,191.362,177.8Z" transform="translate(-169.7 -153.079)" fill="#fd4755" fill-rule="evenodd"/>
        </g>
        <g id="Group_1111719" data-name="Group 1111719" transform="translate(21.177 14.666)">
          <path id="Path_900893" data-name="Path 900893" d="M313.12,198.747h3.463a1.737,1.737,0,0,1,1.732,1.732v8.861h-6.926v-8.861A1.737,1.737,0,0,1,313.12,198.747Z" transform="translate(-297.368 -197.806)" fill="#685e68" fill-rule="evenodd"/>
          <path id="Path_900894" data-name="Path 900894" d="M336.158,198.747h2.321a1.737,1.737,0,0,1,1.732,1.732v8.861h-2.321v-8.861A1.737,1.737,0,0,0,336.158,198.747Z" transform="translate(-319.264 -197.806)" fill="#544854" fill-rule="evenodd"/>
          <circle id="Ellipse_11821" data-name="Ellipse 11821" cx="12.358" cy="12.358" r="12.358" transform="translate(0 17.475) rotate(-45)" fill="#837683"/>
          <path id="Path_900895" data-name="Path 900895" d="M332.4,234.736a12.358,12.358,0,0,1,0,24.717c-.391,0-.778-.019-1.16-.055a12.358,12.358,0,0,0,0-24.608C331.617,234.755,332,234.736,332.4,234.736Z" transform="translate(-314.912 -229.62)" fill="#685e68" fill-rule="evenodd"/>
        </g>
      </g>
      <path id="Path_900896" data-name="Path 900896" d="M47.988,62.831a.928.928,0,0,1,1.268-.34l1.646.95a.928.928,0,1,1-.928,1.607l-1.646-.95A.927.927,0,0,1,47.988,62.831Zm11.277,6.51a.929.929,0,0,1-1.268.34l-1.646-.95a.929.929,0,0,1,.928-1.608l1.646.951A.928.928,0,0,1,59.265,69.341ZM56.011,64.71a.929.929,0,0,1,.34-1.268L58,62.491a.928.928,0,1,1,.928,1.607l-1.646.95a.928.928,0,0,1-1.268-.339ZM54.554,60.5v1.9a.928.928,0,1,1-1.856,0V60.5a.928.928,0,1,1,1.856,0Zm-12.449,14v1.76a13.313,13.313,0,0,0-5.07,0v-1.76a.8.8,0,0,1,.8-.8H41.3A.8.8,0,0,1,42.105,74.506ZM51,89.309a11.43,11.43,0,1,1-11.43-11.43A11.444,11.444,0,0,1,51,89.309ZM7.706,95.564H27.852a13.063,13.063,0,0,1-.757-1.682H7.706a4.178,4.178,0,0,1-3.619-6.267L18.952,61.868a4.178,4.178,0,0,1,7.237,0l8.67,15.018c.107-.04.212-.079.32-.117V74.506a2.707,2.707,0,0,1,.028-.384L27.645,61.027a5.859,5.859,0,0,0-10.149,0L2.631,86.774a5.86,5.86,0,0,0,5.075,8.79Zm18.857-3.539a13.289,13.289,0,0,1,6.606-14.356L24.581,62.8a2.321,2.321,0,0,0-4.021,0L5.694,88.543a2.321,2.321,0,0,0,2.011,3.482ZM53.626,65.157a.929.929,0,0,0-.928.928,2.132,2.132,0,0,1-.542,1.645c-.909.842-3.1.673-5.229.511-2.642-.2-5.375-.413-7.006,1.1A4.057,4.057,0,0,0,38.7,71.847h-.865a2.65,2.65,0,0,0-1.525.481L29.253,60.1a7.716,7.716,0,0,0-13.366,0L1.022,85.846A7.716,7.716,0,0,0,7.706,97.42h21.35A13.284,13.284,0,1,0,43.962,76.768V74.506A2.662,2.662,0,0,0,41.3,71.847h-.717a2.084,2.084,0,0,1,.6-1.145c1.037-.96,3.358-.783,5.6-.61,2.523.193,5.13.393,6.633-1a3.909,3.909,0,0,0,1.137-3.008.929.929,0,0,0-.928-.928ZM39.57,95.9a6.6,6.6,0,0,1-6.587-6.587.928.928,0,1,0-1.856,0,8.454,8.454,0,0,0,8.443,8.444.928.928,0,0,0,0-1.857Zm-17-9.275a.931.931,0,1,1,.931-.931A.932.932,0,0,1,22.57,86.621Zm0-3.717a2.787,2.787,0,1,1-2.787,2.787A2.79,2.79,0,0,1,22.57,82.9Zm-.742-12.986a.473.473,0,0,1,.376-.16h.734a.524.524,0,0,1,.522.542l-.367,10.157a.523.523,0,0,1-1.045,0L21.682,70.3A.475.475,0,0,1,21.828,69.917Zm.742,12.9a2.37,2.37,0,0,1-2.377-2.294l-.367-10.156A2.38,2.38,0,0,1,22.2,67.9h.734a2.381,2.381,0,0,1,2.378,2.464l-.367,10.157a2.372,2.372,0,0,1-2.378,2.294Z" fill-rule="evenodd"/>
    </g>
  </g>
</svg>
