<svg xmlns="http://www.w3.org/2000/svg" xmlns:xlink="http://www.w3.org/1999/xlink" width="109.652" height="109.653" viewBox="0 0 109.652 109.653">
  <defs>
    <filter id="Path_874925" x="0" y="0" width="109.652" height="109.653" filterUnits="userSpaceOnUse">
      <feOffset dy="3" input="SourceAlpha"/>
      <feGaussianBlur stdDeviation="3" result="blur"/>
      <feFlood flood-opacity="0.161"/>
      <feComposite operator="in" in2="blur"/>
      <feComposite in="SourceGraphic"/>
    </filter>
  </defs>
  <g id="Group_1111686" data-name="Group 1111686" transform="translate(-1055 -1648)">
    <g id="Group_1111439" data-name="Group 1111439" transform="translate(44.27 -1423)">
      <g transform="matrix(1, 0, 0, 1, 1010.73, 3071)" filter="url(#Path_874925)">
        <g id="Path_874925-2" data-name="Path 874925" transform="translate(9 6)" fill="#ffd63c">
          <path d="M 45.82614517211914 90.15280151367188 C 39.84149551391602 90.15280151367188 34.03665924072266 88.98104095458984 28.5728702545166 86.67005157470703 C 23.29473304748535 84.43759155273438 18.55415725708008 81.24130249023438 14.48283290863037 77.16998291015625 C 10.41150760650635 73.09866333007812 7.215232849121094 68.35809326171875 4.982757568359375 63.07994079589844 C 2.671770095825195 57.61616897583008 1.500007629394531 51.81131744384766 1.500007629394531 45.82666778564453 C 1.500007629394531 39.84149169921875 2.671770095825195 34.03665542602539 4.982757568359375 28.57286643981934 C 7.215232849121094 23.29472923278809 10.41150760650635 18.55415534973145 14.48283290863037 14.48283004760742 C 18.55415725708008 10.4115047454834 23.29473304748535 7.215229511260986 28.5728702545166 4.982754707336426 C 34.03665924072266 2.671766996383667 39.84149551391602 1.500004529953003 45.82614517211914 1.500004529953003 C 51.81079483032227 1.500004529953003 57.61564636230469 2.671766996383667 63.07942199707031 4.982754707336426 C 68.35756683349609 7.215229511260986 73.09814453125 10.4115047454834 77.16947174072266 14.48283004760742 C 81.24078369140625 18.55415534973145 84.43707275390625 23.29472923278809 86.66954803466797 28.57286643981934 C 88.98052978515625 34.03665542602539 90.15229797363281 39.84149169921875 90.15229797363281 45.82614135742188 C 90.15229797363281 51.81131744384766 88.98052978515625 57.61616897583008 86.66954803466797 63.07994079589844 C 84.43707275390625 68.35809326171875 81.24078369140625 73.09866333007812 77.16947174072266 77.16998291015625 C 73.09814453125 81.24130249023438 68.35756683349609 84.43759155273438 63.07942199707031 86.67005157470703 C 57.61564636230469 88.98104095458984 51.81079483032227 90.15280151367188 45.82614517211914 90.15280151367188 Z" stroke="none"/>
          <path d="M 45.82614517211914 3.000007629394531 C 40.04333114624023 3.000007629394531 34.43508911132812 4.131904602050781 29.15720367431641 6.364265441894531 C 24.05784606933594 8.521102905273438 19.47753143310547 11.60944366455078 15.54348754882812 15.54348754882812 C 11.60944366455078 19.47753143310547 8.521102905273438 24.05784606933594 6.3642578125 29.15720367431641 C 4.131904602050781 34.43508911132812 3 40.0433349609375 3 45.82667541503906 C 3 51.60948944091797 4.131904602050781 57.21773147583008 6.3642578125 62.49562072753906 C 8.521102905273438 67.59497833251953 11.60944366455078 72.17527770996094 15.54348754882812 76.10932922363281 C 19.47753143310547 80.04337310791016 24.05784606933594 83.13170623779297 29.15718841552734 85.28854370117188 C 34.43508911132812 87.52090454101562 40.04333114624023 88.65280151367188 45.82614517211914 88.65280151367188 C 51.60895919799805 88.65280151367188 57.21720123291016 87.52090454101562 62.49510192871094 85.28854370117188 C 67.59444427490234 83.13170623779297 72.17475891113281 80.04337310791016 76.10880279541016 76.10932922363281 C 80.0428466796875 72.17527770996094 83.13118743896484 67.59497833251953 85.28803253173828 62.49562072753906 C 87.5203857421875 57.21773147583008 88.65229034423828 51.60948944091797 88.65229034423828 45.82614898681641 C 88.65229034423828 40.0433349609375 87.5203857421875 34.43508911132812 85.28803253173828 29.15720367431641 C 83.13118743896484 24.05784606933594 80.0428466796875 19.47753143310547 76.10880279541016 15.54348754882812 C 72.17475891113281 11.60944366455078 67.59444427490234 8.521102905273438 62.49508666992188 6.364265441894531 C 57.21720123291016 4.131904602050781 51.60895919799805 3.000007629394531 45.82614517211914 3.000007629394531 M 45.82614517211914 7.62939453125e-06 C 71.13523101806641 7.62939453125e-06 91.65229034423828 20.51705932617188 91.65229034423828 45.82614898681641 L 91.65229034423828 45.82667541503906 C 91.65229034423828 71.13575744628906 71.13523101806641 91.65280151367188 45.82614517211914 91.65280151367188 C 20.51705932617188 91.65280151367188 0 71.13575744628906 0 45.82667541503906 L 0 45.82614898681641 C 0 20.51705932617188 20.51705932617188 7.62939453125e-06 45.82614517211914 7.62939453125e-06 Z" stroke="none" fill="#fff"/>
        </g>
      </g>
    </g>
    <g id="biolog" transform="translate(1081 1643.929)">
      <g id="Group_1111684" data-name="Group 1111684" transform="translate(0.857 30.927)">
        <path id="Path_900834" data-name="Path 900834" d="M81.412,94.9,56.532,51.98l-3.689.893L27.893,96.088,29.6,99.052l.1-.372,4.216,1.083H78.607A3.242,3.242,0,0,0,81.412,94.9Z" transform="translate(-25.568 -50.336)" fill="#aa9ea9"/>
        <path id="Path_900835" data-name="Path 900835" d="M15.781,82.13,39.57,41.1l-1.091-1.882-.016-.028a3.242,3.242,0,0,0-5.609,0L7.957,82.13A3.242,3.242,0,0,0,10.762,87h7.824A3.242,3.242,0,0,1,15.781,82.13Z" transform="translate(-7.515 -37.571)" fill="#9b8e99"/>
        <path id="Path_900836" data-name="Path 900836" d="M91.655,115.053,67.919,74.11a.369.369,0,0,0-.637,0L43.5,115.307a.316.316,0,0,0,.258.478H91.234a.487.487,0,0,0,.422-.732Z" transform="translate(-39.355 -69.78)" fill="#fee97d"/>
        <path id="Path_900837" data-name="Path 900837" d="M67.919,74.11a.369.369,0,0,0-.637,0L43.5,115.307a.317.317,0,0,0,.258.478h3.428a3.225,3.225,0,0,1,.437-1.445L69.431,76.718Z" transform="translate(-39.355 -69.78)" fill="#fedf30"/>
      </g>
      <g id="Group_1111685" data-name="Group 1111685" transform="translate(0 30.071)">
        <path id="Path_900838" data-name="Path 900838" d="M57.441,75.057,41.678,47.867a.856.856,0,1,0-1.481.858L55.96,75.915A2.386,2.386,0,0,1,53.9,79.5H4.1a2.386,2.386,0,0,1-2.064-3.583l24.9-42.944a2.386,2.386,0,0,1,4.129,0l7.3,12.6a.856.856,0,1,0,1.481-.858l-7.3-12.6a4.1,4.1,0,0,0-7.09,0L.559,75.057A4.1,4.1,0,0,0,4.1,81.21H53.9a4.1,4.1,0,0,0,3.545-6.153Z" transform="translate(0 -30.071)"/>
        <path id="Path_900839" data-name="Path 900839" d="M50.7,164.26a.856.856,0,1,0-1.481-.858l-17.88,30.841a.856.856,0,0,0,.74,1.285H81.244a.856.856,0,0,0,.74-1.285L78.478,188.2a.856.856,0,1,0-1.481.858l2.761,4.762H33.565Z" transform="translate(-27.661 -147.812)"/>
        <path id="Path_900840" data-name="Path 900840" d="M210.439,62.074a.856.856,0,0,0-1.48,0l-4.873,8.406a.856.856,0,0,0,1.481.858L209.7,64.21l18.507,31.924a.856.856,0,0,0,1.481-.858Z" transform="translate(-180.699 -58.045)"/>
        <path id="Path_900841" data-name="Path 900841" d="M162.01,206.955a.856.856,0,0,0-.836-1.493,6.25,6.25,0,0,0-2.65,8.036,6.835,6.835,0,0,0-.51.911,6.257,6.257,0,0,0-5.148,7.871.856.856,0,1,0,1.649-.457,4.548,4.548,0,0,1,2.937-5.531,6.838,6.838,0,0,0,4.676,7.5l-.037.038a4.553,4.553,0,0,1-4.459,1.138.856.856,0,1,0-.473,1.645,6.265,6.265,0,0,0,6.137-1.566,6.329,6.329,0,0,0,.773-.929c.051,0,.1,0,.154,0,.1,0,.195,0,.292-.007a6.265,6.265,0,0,0,6.912,2.5.856.856,0,1,0-.473-1.645,4.554,4.554,0,0,1-4.459-1.138c-.024-.024-.047-.05-.071-.074a6.845,6.845,0,0,0,4.565-7.513,4.549,4.549,0,0,1,3.083,5.578.856.856,0,1,0,1.649.457,6.255,6.255,0,0,0-5.3-7.89,6.849,6.849,0,0,0-.5-.893,6.25,6.25,0,0,0-2.65-8.036.856.856,0,0,0-.836,1.493,4.546,4.546,0,0,1,2.189,5.092,6.825,6.825,0,0,0-8.808,0,4.547,4.547,0,0,1,2.189-5.092Zm-2.917,10.325a5.13,5.13,0,0,1,.145-1.207,4.547,4.547,0,0,1,3.879,6.217A5.14,5.14,0,0,1,159.092,217.28Zm6.369,4.98a4.547,4.547,0,0,1,3.753-6.176,5.128,5.128,0,0,1-3.753,6.176Zm-1.237-10.112a5.116,5.116,0,0,1,3.63,1.508,4.54,4.54,0,0,1-7.259,0A5.116,5.116,0,0,1,164.224,212.148Z" transform="translate(-135.224 -185.354)"/>
        <path id="Path_900842" data-name="Path 900842" d="M248.394,120.682v-.736a.856.856,0,1,0-1.711,0v.736a.856.856,0,1,0,1.711,0Z" transform="translate(-218.538 -108.935)"/>
        <path id="Path_900843" data-name="Path 900843" d="M80.7,405.483a.856.856,0,0,0,0,1.711h.949a.856.856,0,0,0,0-1.711Z" transform="translate(-70.731 -362.651)"/>
        <path id="Path_900844" data-name="Path 900844" d="M408.244,407.194a.856.856,0,0,0,0-1.711H407.3a.856.856,0,0,0,0,1.711Z" transform="translate(-360.068 -362.651)"/>
      </g>
    </g>
  </g>
</svg>
