<svg xmlns="http://www.w3.org/2000/svg" xmlns:xlink="http://www.w3.org/1999/xlink" width="109.652" height="109.653" viewBox="0 0 109.652 109.653">
  <defs>
    <filter id="Path_874925" x="0" y="0" width="109.652" height="109.653" filterUnits="userSpaceOnUse">
      <feOffset dy="3" input="SourceAlpha"/>
      <feGaussianBlur stdDeviation="3" result="blur"/>
      <feFlood flood-opacity="0.161"/>
      <feComposite operator="in" in2="blur"/>
      <feComposite in="SourceGraphic"/>
    </filter>
    <linearGradient id="linear-gradient" y1="0.501" x2="1" y2="0.501" gradientUnits="objectBoundingBox">
      <stop offset="0" stop-color="#b56647"/>
      <stop offset="1" stop-color="#4a2618"/>
    </linearGradient>
    <linearGradient id="linear-gradient-2" y1="0.5" x2="1" y2="0.5" gradientUnits="objectBoundingBox">
      <stop offset="0" stop-color="#2dff56"/>
      <stop offset="1" stop-color="#00a376"/>
    </linearGradient>
    <linearGradient id="linear-gradient-3" x1="0" y1="0.5" x2="1.001" y2="0.5" xlink:href="#linear-gradient-2"/>
    <linearGradient id="linear-gradient-4" y1="0.5" x2="0.999" y2="0.5" gradientUnits="objectBoundingBox">
      <stop offset="0" stop-color="#00a376"/>
      <stop offset="1" stop-color="#004825"/>
    </linearGradient>
    <linearGradient id="linear-gradient-5" x1="1" y1="0.498" x2="0.001" y2="0.498" xlink:href="#linear-gradient-4"/>
    <linearGradient id="linear-gradient-6" x1="0.5" y1="0.002" x2="0.5" y2="1.001" xlink:href="#linear-gradient-4"/>
    <linearGradient id="linear-gradient-7" x1="0.498" x2="0.498" y2="1" gradientUnits="objectBoundingBox">
      <stop offset="0" stop-color="#b56647"/>
      <stop offset="1" stop-color="#663422"/>
    </linearGradient>
  </defs>
  <g id="Group_1111658" data-name="Group 1111658" transform="translate(-1218 -3840)">
    <g id="Group_1111430" data-name="Group 1111430" transform="translate(207.27 769)">
      <g transform="matrix(1, 0, 0, 1, 1010.73, 3071)" filter="url(#Path_874925)">
        <g id="Path_874925-2" data-name="Path 874925" transform="translate(9 6)" fill="#ffd63c">
          <path d="M 45.82614517211914 90.15280151367188 C 39.84149551391602 90.15280151367188 34.03665924072266 88.98104095458984 28.5728702545166 86.67005157470703 C 23.29473304748535 84.43759155273438 18.55415725708008 81.24130249023438 14.48283290863037 77.16998291015625 C 10.41150760650635 73.09866333007812 7.215232849121094 68.35809326171875 4.982757568359375 63.07994079589844 C 2.671770095825195 57.61616897583008 1.500007629394531 51.81131744384766 1.500007629394531 45.82666778564453 C 1.500007629394531 39.84149169921875 2.671770095825195 34.03665542602539 4.982757568359375 28.57286643981934 C 7.215232849121094 23.29472923278809 10.41150760650635 18.55415534973145 14.48283290863037 14.48283004760742 C 18.55415725708008 10.4115047454834 23.29473304748535 7.215229511260986 28.5728702545166 4.982754707336426 C 34.03665924072266 2.671766996383667 39.84149551391602 1.500004529953003 45.82614517211914 1.500004529953003 C 51.81079483032227 1.500004529953003 57.61564636230469 2.671766996383667 63.07942199707031 4.982754707336426 C 68.35756683349609 7.215229511260986 73.09814453125 10.4115047454834 77.16947174072266 14.48283004760742 C 81.24078369140625 18.55415534973145 84.43707275390625 23.29472923278809 86.66954803466797 28.57286643981934 C 88.98052978515625 34.03665542602539 90.15229797363281 39.84149169921875 90.15229797363281 45.82614135742188 C 90.15229797363281 51.81131744384766 88.98052978515625 57.61616897583008 86.66954803466797 63.07994079589844 C 84.43707275390625 68.35809326171875 81.24078369140625 73.09866333007812 77.16947174072266 77.16998291015625 C 73.09814453125 81.24130249023438 68.35756683349609 84.43759155273438 63.07942199707031 86.67005157470703 C 57.61564636230469 88.98104095458984 51.81079483032227 90.15280151367188 45.82614517211914 90.15280151367188 Z" stroke="none"/>
          <path d="M 45.82614517211914 3.000007629394531 C 40.04333114624023 3.000007629394531 34.43508911132812 4.131904602050781 29.15720367431641 6.364265441894531 C 24.05784606933594 8.521102905273438 19.47753143310547 11.60944366455078 15.54348754882812 15.54348754882812 C 11.60944366455078 19.47753143310547 8.521102905273438 24.05784606933594 6.3642578125 29.15720367431641 C 4.131904602050781 34.43508911132812 3 40.0433349609375 3 45.82667541503906 C 3 51.60948944091797 4.131904602050781 57.21773147583008 6.3642578125 62.49562072753906 C 8.521102905273438 67.59497833251953 11.60944366455078 72.17527770996094 15.54348754882812 76.10932922363281 C 19.47753143310547 80.04337310791016 24.05784606933594 83.13170623779297 29.15718841552734 85.28854370117188 C 34.43508911132812 87.52090454101562 40.04333114624023 88.65280151367188 45.82614517211914 88.65280151367188 C 51.60895919799805 88.65280151367188 57.21720123291016 87.52090454101562 62.49510192871094 85.28854370117188 C 67.59444427490234 83.13170623779297 72.17475891113281 80.04337310791016 76.10880279541016 76.10932922363281 C 80.0428466796875 72.17527770996094 83.13118743896484 67.59497833251953 85.28803253173828 62.49562072753906 C 87.5203857421875 57.21773147583008 88.65229034423828 51.60948944091797 88.65229034423828 45.82614898681641 C 88.65229034423828 40.0433349609375 87.5203857421875 34.43508911132812 85.28803253173828 29.15720367431641 C 83.13118743896484 24.05784606933594 80.0428466796875 19.47753143310547 76.10880279541016 15.54348754882812 C 72.17475891113281 11.60944366455078 67.59444427490234 8.521102905273438 62.49508666992188 6.364265441894531 C 57.21720123291016 4.131904602050781 51.60895919799805 3.000007629394531 45.82614517211914 3.000007629394531 M 45.82614517211914 7.62939453125e-06 C 71.13523101806641 7.62939453125e-06 91.65229034423828 20.51705932617188 91.65229034423828 45.82614898681641 L 91.65229034423828 45.82667541503906 C 91.65229034423828 71.13575744628906 71.13523101806641 91.65280151367188 45.82614517211914 91.65280151367188 C 20.51705932617188 91.65280151367188 0 71.13575744628906 0 45.82667541503906 L 0 45.82614898681641 C 0 20.51705932617188 20.51705932617188 7.62939453125e-06 45.82614517211914 7.62939453125e-06 Z" stroke="none" fill="#fff"/>
        </g>
      </g>
    </g>
    <g id="reforestacion" transform="translate(1240.826 3859.826)">
      <g id="Layer_2" data-name="Layer 2">
        <path id="Path_900785" data-name="Path 900785" d="M47.3,30.71c-2.07-1.67-5.18-2.17-8.78-1.41a18,18,0,0,0-6.54,3l-.12.08-16.55,2a1,1,0,0,0-.88,1,17.57,17.57,0,0,0,35.14,0,6,6,0,0,0-2.27-4.67Z" fill="url(#linear-gradient)"/>
        <path id="Path_900786" data-name="Path 900786" d="M19.72,14.45a1,1,0,0,0-.42.72,8.37,8.37,0,0,0,13.19,7.57,1,1,0,0,0,.42-.73,8.37,8.37,0,0,0-13.19-7.56Z" fill="url(#linear-gradient-2)"/>
        <path id="Path_900787" data-name="Path 900787" d="M44.7,15.17a1,1,0,0,0-.42-.72A8.37,8.37,0,0,0,31.09,22a1,1,0,0,0,.42.73A8.37,8.37,0,0,0,44.7,15.17Z" fill="url(#linear-gradient-3)"/>
        <path id="Path_900788" data-name="Path 900788" d="M32,6A26,26,0,0,0,6.08,30L3,30l4,5,4-5H8.09a24,24,0,0,1,47.54-2.21l2-.35A26,26,0,0,0,32,6Z" fill="url(#linear-gradient-4)"/>
        <path id="Path_900789" data-name="Path 900789" d="M57,29l-4,5h2.91A24,24,0,0,1,8.37,36.21l-2,.35A26,26,0,0,0,57.92,34H61Z" fill="url(#linear-gradient-5)"/>
        <path id="Path_900790" data-name="Path 900790" d="M32,20.77A25.32,25.32,0,0,0,23.54,17,25.29,25.29,0,0,0,31,22.59v11h2v-11A25.28,25.28,0,0,0,40.46,17,25.12,25.12,0,0,0,32,20.77Z" fill="url(#linear-gradient-6)"/>
        <path id="Path_900791" data-name="Path 900791" d="M48.82,33.52c-1.51-1-3.3,1.4-7.89,1.6-7.66.32-8.7-4.38-15.45-5.82-7.17-1.53-11,2.14-11,6.13a17.57,17.57,0,0,0,35.14,0A2.15,2.15,0,0,0,48.82,33.52Z" fill="url(#linear-gradient-7)"/>
      </g>
      <g id="Layer_3" data-name="Layer 3">
        <path id="Path_900792" data-name="Path 900792" d="M25.48,29.3c-3.6-.76-6.71-.26-8.78,1.41a6,6,0,0,0-2.27,4.72,17.57,17.57,0,0,0,35.14,0,5.36,5.36,0,0,0,0-.55,6,6,0,0,0-2.24-4.17c-2.07-1.67-5.18-2.17-8.78-1.41A16.24,16.24,0,0,0,33,31.66v-8.1a8.42,8.42,0,0,0,3.38.73,8.29,8.29,0,0,0,4.15-1.1,8.4,8.4,0,0,0,4.17-8,1,1,0,0,0-.42-.72,8.33,8.33,0,0,0-12.28,3,8.33,8.33,0,0,0-12.28-3,1,1,0,0,0-.42.72,8.4,8.4,0,0,0,4.17,8,8.29,8.29,0,0,0,4.15,1.1A8.42,8.42,0,0,0,31,23.56v8.1a16.24,16.24,0,0,0-5.52-2.36ZM32,51A15.59,15.59,0,0,1,16.43,35.43,4,4,0,0,1,18,32.26,6.84,6.84,0,0,1,22.32,31a12.86,12.86,0,0,1,2.74.31A16.35,16.35,0,0,1,30.93,34c2.52,1.65,5.12,3.35,10.09,3.13a16.08,16.08,0,0,0,5.91-1.46l.63-.26A15.59,15.59,0,0,1,32,51Zm6.94-19.74c3-.64,5.51-.28,7.1,1a4.25,4.25,0,0,1,1,1.21,9.549,9.549,0,0,0-.89.35,14.12,14.12,0,0,1-5.22,1.3,12,12,0,0,1-7.06-1.65,14.64,14.64,0,0,1,5.07-2.21ZM36.26,15.73a6.38,6.38,0,0,1,6.47.09,6.34,6.34,0,0,1-8.46,6.1,29.3,29.3,0,0,0,2.49-1.6A19.72,19.72,0,0,0,40.46,17a19.45,19.45,0,0,0-4.68,1.61q-1.32.62-2.58,1.35a6.37,6.37,0,0,1,3.06-4.23Zm-11.8,5.72a6.37,6.37,0,0,1-3.19-5.63A6.34,6.34,0,0,1,30.8,20q-1.26-.73-2.58-1.35A19.45,19.45,0,0,0,23.54,17a19.72,19.72,0,0,0,3.7,3.29,29.3,29.3,0,0,0,2.49,1.6A6.37,6.37,0,0,1,24.46,21.45Z"/>
        <path id="Path_900793" data-name="Path 900793" d="M11,30H8.09a24,24,0,0,1,47.54-2.21l2-.35A26,26,0,0,0,6.08,30H3l4,5Z"/>
        <path id="Path_900794" data-name="Path 900794" d="M61,34l-4-5-4,5h2.91A24,24,0,0,1,8.37,36.21l-2,.35A26,26,0,0,0,57.92,34Z"/>
      </g>
    </g>
  </g>
</svg>
