<svg xmlns="http://www.w3.org/2000/svg" xmlns:xlink="http://www.w3.org/1999/xlink" width="109.652" height="109.652" viewBox="0 0 109.652 109.652">
  <defs>
    <filter id="Path_874925" x="0" y="0" width="109.652" height="109.652" filterUnits="userSpaceOnUse">
      <feOffset dy="3" input="SourceAlpha"/>
      <feGaussianBlur stdDeviation="3" result="blur"/>
      <feFlood flood-opacity="0.161"/>
      <feComposite operator="in" in2="blur"/>
      <feComposite in="SourceGraphic"/>
    </filter>
  </defs>
  <g id="Group_1111643" data-name="Group 1111643" transform="translate(-12226.174 9873.58)">
    <g id="Group_1111416" data-name="Group 1111416" transform="translate(11215.443 -12944.58)">
      <g transform="matrix(1, 0, 0, 1, 1010.73, 3071)" filter="url(#Path_874925)">
        <g id="Path_874925-2" data-name="Path 874925" transform="translate(9 6)" fill="#ffd63c">
          <path d="M 45.82614517211914 90.15280151367188 C 39.84149551391602 90.15280151367188 34.03665924072266 88.98104095458984 28.5728702545166 86.67005157470703 C 23.29473304748535 84.43759155273438 18.55415725708008 81.24130249023438 14.48283290863037 77.16998291015625 C 10.41150760650635 73.09866333007812 7.215232849121094 68.35809326171875 4.982757568359375 63.07994079589844 C 2.671770095825195 57.61616897583008 1.500007629394531 51.81131744384766 1.500007629394531 45.82666778564453 C 1.500007629394531 39.84149169921875 2.671770095825195 34.03665542602539 4.982757568359375 28.57286643981934 C 7.215232849121094 23.29472923278809 10.41150760650635 18.55415534973145 14.48283290863037 14.48283004760742 C 18.55415725708008 10.4115047454834 23.29473304748535 7.215229511260986 28.5728702545166 4.982754707336426 C 34.03665924072266 2.671766996383667 39.84149551391602 1.500004529953003 45.82614517211914 1.500004529953003 C 51.81079483032227 1.500004529953003 57.61564636230469 2.671766996383667 63.07942199707031 4.982754707336426 C 68.35756683349609 7.215229511260986 73.09814453125 10.4115047454834 77.16947174072266 14.48283004760742 C 81.24078369140625 18.55415534973145 84.43707275390625 23.29472923278809 86.66954803466797 28.57286643981934 C 88.98052978515625 34.03665542602539 90.15229797363281 39.84149169921875 90.15229797363281 45.82614135742188 C 90.15229797363281 51.81131744384766 88.98052978515625 57.61616897583008 86.66954803466797 63.07994079589844 C 84.43707275390625 68.35809326171875 81.24078369140625 73.09866333007812 77.16947174072266 77.16998291015625 C 73.09814453125 81.24130249023438 68.35756683349609 84.43759155273438 63.07942199707031 86.67005157470703 C 57.61564636230469 88.98104095458984 51.81079483032227 90.15280151367188 45.82614517211914 90.15280151367188 Z" stroke="none"/>
          <path d="M 45.82614517211914 3.000007629394531 C 40.04333114624023 3.000007629394531 34.43508911132812 4.131904602050781 29.15720367431641 6.364265441894531 C 24.05784606933594 8.521102905273438 19.47753143310547 11.60944366455078 15.54348754882812 15.54348754882812 C 11.60944366455078 19.47753143310547 8.521102905273438 24.05784606933594 6.3642578125 29.15720367431641 C 4.131904602050781 34.43508911132812 3 40.0433349609375 3 45.82667541503906 C 3 51.60948944091797 4.131904602050781 57.21773147583008 6.3642578125 62.49562072753906 C 8.521102905273438 67.59497833251953 11.60944366455078 72.17527770996094 15.54348754882812 76.10932922363281 C 19.47753143310547 80.04337310791016 24.05784606933594 83.13170623779297 29.15718841552734 85.28854370117188 C 34.43508911132812 87.52090454101562 40.04333114624023 88.65280151367188 45.82614517211914 88.65280151367188 C 51.60895919799805 88.65280151367188 57.21720123291016 87.52090454101562 62.49510192871094 85.28854370117188 C 67.59444427490234 83.13170623779297 72.17475891113281 80.04337310791016 76.10880279541016 76.10932922363281 C 80.0428466796875 72.17527770996094 83.13118743896484 67.59497833251953 85.28803253173828 62.49562072753906 C 87.5203857421875 57.21773147583008 88.65229034423828 51.60948944091797 88.65229034423828 45.82614898681641 C 88.65229034423828 40.0433349609375 87.5203857421875 34.43508911132812 85.28803253173828 29.15720367431641 C 83.13118743896484 24.05784606933594 80.0428466796875 19.47753143310547 76.10880279541016 15.54348754882812 C 72.17475891113281 11.60944366455078 67.59444427490234 8.521102905273438 62.49508666992188 6.364265441894531 C 57.21720123291016 4.131904602050781 51.60895919799805 3.000007629394531 45.82614517211914 3.000007629394531 M 45.82614517211914 7.62939453125e-06 C 71.13523101806641 7.62939453125e-06 91.65229034423828 20.51705932617188 91.65229034423828 45.82614898681641 L 91.65229034423828 45.82667541503906 C 91.65229034423828 71.13575744628906 71.13523101806641 91.65280151367188 45.82614517211914 91.65280151367188 C 20.51705932617188 91.65280151367188 0 71.13575744628906 0 45.82667541503906 L 0 45.82614898681641 C 0 20.51705932617188 20.51705932617188 7.62939453125e-06 45.82614517211914 7.62939453125e-06 Z" stroke="none" fill="#fff"/>
        </g>
      </g>
    </g>
    <g id="residual" transform="translate(12226.587 -9899.037)">
      <path id="Path_900634" data-name="Path 900634" d="M41.32,74.072v-13.7a4.335,4.335,0,0,1,2.8-4.225,5.11,5.11,0,0,1,3.726,0,4.331,4.331,0,0,1,2.8,4.225,1.16,1.16,0,0,1-2.321,0,2.128,2.128,0,0,0-1.341-2.1,2.832,2.832,0,0,0-2.006,0,2.128,2.128,0,0,0-1.341,2.1v13.7Z" transform="translate(-13.766 -4.376)" fill="#619bf7"/>
      <path id="Path_900635" data-name="Path 900635" d="M54.406,56.02a5.109,5.109,0,0,1,1.294.323,4.331,4.331,0,0,1,2.8,4.225,1.16,1.16,0,0,1-2.321,0,2.128,2.128,0,0,0-1.341-2.1,2.832,2.832,0,0,0-2.006,0,2.128,2.128,0,0,0-1.341,2.1v13.7H50.31v-13.7a4.33,4.33,0,0,1,2.8-4.225,5.1,5.1,0,0,1,1.294-.323Z" transform="translate(-21.618 -4.577)" fill="#8cb6fa"/>
      <path id="Path_900636" data-name="Path 900636" d="M79.032,90.4A4.069,4.069,0,0,1,83.1,94.471a16.622,16.622,0,0,0-8.139,0A4.072,4.072,0,0,1,79.032,90.4Z" transform="translate(-43.149 -34.607)" fill="#ffb703" fill-rule="evenodd"/>
      <path id="Path_900637" data-name="Path 900637" d="M308.767,134.661a.907.907,0,1,1-1.807,0v-6.123a3.34,3.34,0,0,1,1.947-3.246,3.207,3.207,0,0,1,2.585,0,3.338,3.338,0,0,1,1.947,3.246h-1.808a1.443,1.443,0,0,0-.814-1.417,1.591,1.591,0,0,0-1.238,0,1.443,1.443,0,0,0-.814,1.417Z" transform="translate(-245.793 -64.846)" fill="#619bf7"/>
      <g id="Group_1111642" data-name="Group 1111642" transform="translate(26.191 64.082)">
        <path id="Path_900638" data-name="Path 900638" d="M45.97,222.13H86.421v4.534a3.132,3.132,0,0,1-3.124,3.12H49.09a3.132,3.132,0,0,1-3.12-3.12Z" transform="translate(-44.019 -213.751)" fill="#e5bf8b" fill-rule="evenodd"/>
        <path id="Path_900639" data-name="Path 900639" d="M65.53,222.13h37.976v4.534a3.079,3.079,0,0,1-.223,1.151,3.355,3.355,0,0,1-.423.029H68.654c-2.78,0-3.124-1.406-3.124-3.124Z" transform="translate(-61.104 -213.751)" fill="#fff3b7" fill-rule="evenodd"/>
        <path id="Path_900640" data-name="Path 900640" d="M31.418,200.27H74.032a.872.872,0,0,1,.872.868v1.03a.872.872,0,0,1-.872.868H31.418a.871.871,0,0,1-.868-.868v-1.03A.871.871,0,0,1,31.418,200.27Z" transform="translate(-30.55 -194.657)" fill="#999" fill-rule="evenodd"/>
        <path id="Path_900641" data-name="Path 900641" d="M31.418,200.27H74.032a.872.872,0,0,1,.872.868v.512H30.55v-.512a.871.871,0,0,1,.868-.868Z" transform="translate(-30.55 -194.657)" fill="#b4b4b4" fill-rule="evenodd"/>
        <path id="Path_900642" data-name="Path 900642" d="M127.427,155.91h16.434a1.954,1.954,0,0,1,1.947,1.947v19.034a1.953,1.953,0,0,1-1.947,1.947H127.427a1.951,1.951,0,0,1-1.947-1.947V157.857A1.952,1.952,0,0,1,127.427,155.91Z" transform="translate(-113.468 -155.91)" fill="#619bf7" fill-rule="evenodd"/>
        <path id="Path_900643" data-name="Path 900643" d="M149.265,155.91h14.362a1.954,1.954,0,0,1,1.947,1.947v15.99a10.512,10.512,0,0,1-5.505.753,14.128,14.128,0,0,1-11.959-13.4,11.1,11.1,0,0,1,1.155-5.29Z" transform="translate(-133.231 -155.91)" fill="#8cb6fa" fill-rule="evenodd"/>
        <path id="Path_900644" data-name="Path 900644" d="M156.225,207.05a7.185,7.185,0,1,1-7.185,7.185A7.186,7.186,0,0,1,156.225,207.05Z" transform="translate(-134.047 -200.579)" fill="#ffec91" fill-rule="evenodd"/>
        <path id="Path_900645" data-name="Path 900645" d="M78.14,297.713V282.62h2.855v13.3H92.871v-6.4h2.855v6.4h11.869v-13.3h2.855v13.3h6.668v2.855H79.2A1.064,1.064,0,0,1,78.14,297.713Z" transform="translate(-72.118 -266.587)" fill="gray" fill-rule="evenodd"/>
        <path id="Path_900646" data-name="Path 900646" d="M89.51,282.62h1.417v13.3H102.8v-6.4h2.855v6.4h11.869v-13.3h2.855v13.3h6.668v1.267H90.572c-.585,0-1.062.029-1.062-.559Z" transform="translate(-82.05 -266.587)" fill="#989898" fill-rule="evenodd"/>
        <path id="Path_900647" data-name="Path 900647" d="M143.061,175.98h3.924a.4.4,0,0,1,.4.4V178.4a.4.4,0,0,1-.4.4h-3.924a.4.4,0,0,1-.4-.4v-2.023A.4.4,0,0,1,143.061,175.98Z" transform="translate(-128.474 -173.44)" fill="#ffec91" fill-rule="evenodd"/>
        <path id="Path_900648" data-name="Path 900648" d="M230.034,175.98H233.9a.431.431,0,0,1,.43.43v1.965a.431.431,0,0,1-.43.43h-3.863a.432.432,0,0,1-.434-.43V176.41A.432.432,0,0,1,230.034,175.98Z" transform="translate(-204.414 -173.44)" fill="#ffec91" fill-rule="evenodd"/>
        <path id="Path_900649" data-name="Path 900649" d="M387.793,330.36h8.737a1.606,1.606,0,0,1,1.6,1.6v12.956a1.6,1.6,0,0,1-1.6,1.6h-8.737a1.6,1.6,0,0,1-1.6-1.6V331.959A1.6,1.6,0,0,1,387.793,330.36Z" transform="translate(-341.19 -308.286)" fill="#c7dee3" fill-rule="evenodd"/>
        <path id="Path_900650" data-name="Path 900650" d="M398.13,390.37a2.523,2.523,0,0,1-3.978,0,2.526,2.526,0,0,1-3.981,0,2.526,2.526,0,0,1-3.981,0v6.962a1.6,1.6,0,0,0,1.6,1.6h8.737a1.6,1.6,0,0,0,1.6-1.6Z" transform="translate(-341.19 -360.703)" fill="gray" fill-rule="evenodd"/>
        <path id="Path_900651" data-name="Path 900651" d="M413.031,390.37a2.523,2.523,0,0,1-3.978,0,6.23,6.23,0,0,0-5.789.965c-.008.14-.014.28-.014.423,0,3.1,2.371,6.043,5.548,7.173h2.633a1.6,1.6,0,0,0,1.6-1.6Z" transform="translate(-356.091 -360.703)" fill="#a2a2a2" fill-rule="evenodd"/>
        <path id="Path_900652" data-name="Path 900652" d="M168.357,220.94a5.427,5.427,0,1,1-5.427,5.427A5.43,5.43,0,0,1,168.357,220.94Z" transform="translate(-146.18 -212.712)" fill="#fff" fill-rule="evenodd"/>
        <path id="Path_900653" data-name="Path 900653" d="M162.93,261.054a5.425,5.425,0,1,0,10.85,0c-2.629,1.646-2.672-1.492-6.155.025A4.62,4.62,0,0,1,162.93,261.054Z" transform="translate(-146.18 -247.398)" fill="#989898" fill-rule="evenodd"/>
      </g>
      <path id="Path_900654" data-name="Path 900654" d="M52.942,79.179c.043-.133.076-.266.108-.4a2.782,2.782,0,0,1-2.242-.391,2.905,2.905,0,0,0-2.919-.051,7.124,7.124,0,0,1-2.221.671,4.743,4.743,0,0,1-1.984-.248,4.8,4.8,0,0,0,9.208.567.334.334,0,0,0,.018-.051l0-.008c0-.014.01-.033.014-.047v-.008l.008-.018Zm-9.355-1.818a3.71,3.71,0,0,0,1.963.395,6.089,6.089,0,0,0,1.836-.574,3.967,3.967,0,0,1,3.988.082,1.715,1.715,0,0,0,1.775.115,4.8,4.8,0,0,0-9.562-.018Zm6.072,6.3a6.063,6.063,0,0,1-2.948-.089l0,0c-.022,0-.039-.011-.057-.014l-.025-.008-.018-.008a5.961,5.961,0,0,1-1.4-.628l-.047-.029h0l-.057-.035,0,0a6.049,6.049,0,0,1-1.065-.868l-.014-.014L44,81.939a6.052,6.052,0,1,1,5.7,1.715l-.029,0ZM34.825,61.019a.633.633,0,1,1,1.267,0v.606a.633.633,0,1,1-1.267,0Zm1.033,5.61a.633.633,0,1,1,1.267,0v.606a.633.633,0,1,1-1.267,0Zm-2.794.039a.631.631,0,1,1,1.263,0v.606a.631.631,0,1,1-1.263,0Zm3.609-4.612a.633.633,0,0,1,1.267,0v.61a.633.633,0,0,1-1.267,0Zm-.907,1.932a.633.633,0,0,1,1.267,0v.606a.633.633,0,1,1-1.267,0Zm-1.65.969a.631.631,0,0,1,1.263,0v.61a.631.631,0,1,1-1.263,0Zm-.653-2.231a.631.631,0,1,1,1.263,0v.606a.631.631,0,1,1-1.263,0Zm32.532,4.845a.633.633,0,1,1,1.267,0v.459a.633.633,0,0,1-1.267,0Zm0-2.094a.633.633,0,0,1,1.267,0v.459a.633.633,0,1,1-1.267,0ZM82.5,95.048a3.161,3.161,0,0,1-3.289-.356.261.261,0,0,1-.039-.029l-.018-.018-.061.047a3.149,3.149,0,0,1-3.859,0l-.061-.047-.061.047h0a3.161,3.161,0,0,1-3.289.356v5.664a.968.968,0,0,0,.968.968h8.737a.96.96,0,0,0,.682-.283.972.972,0,0,0,.287-.685V95.048ZM71.826,93.515a1.6,1.6,0,0,0,.2.18,1.9,1.9,0,0,0,2.311,0h0a1.9,1.9,0,0,0,.326-.326.771.771,0,0,1,.119-.121.632.632,0,0,1,.886.115,1.815,1.815,0,0,0,.334.334,1.908,1.908,0,0,0,2.314,0,1.965,1.965,0,0,0,.33-.326.629.629,0,0,1,1-.006,1.786,1.786,0,0,0,.3.313.193.193,0,0,0,.029.022,1.908,1.908,0,0,0,2.314,0,2.407,2.407,0,0,0,.2-.18V87.756a.981.981,0,0,0-.969-.969H72.8a.974.974,0,0,0-.968.969v5.76Zm.969-7.994h8.737a2.242,2.242,0,0,1,2.235,2.235v12.956a2.242,2.242,0,0,1-2.235,2.235H72.795a2.242,2.242,0,0,1-2.235-2.235V96.905H33.275a1.7,1.7,0,0,1-1.7-1.7V80.747h-.315A3.759,3.759,0,0,1,27.511,77v-3.9h-.452a1.508,1.508,0,0,1-1.5-1.5v-1.03a1.506,1.506,0,0,1,1.363-1.5V55.991a5.189,5.189,0,0,1,.835-2.927,5.038,5.038,0,0,1,2.364-1.883,5.581,5.581,0,0,1,1.03-.3,5.719,5.719,0,0,1,1.069-.1,5.831,5.831,0,0,1,2.1.4,4.911,4.911,0,0,1,3.175,4.265,4.71,4.71,0,0,1,3.092,4.42.632.632,0,0,1-.631.631.574.574,0,0,1-.176-.025,18.026,18.026,0,0,0-3.895-.485,14.861,14.861,0,0,0-3.906.487.629.629,0,0,1-.771-.448.647.647,0,0,1-.022-.162A4.72,4.72,0,0,1,33.9,55.6a1.527,1.527,0,0,0-.211-.563,1.441,1.441,0,0,0-.7-.563,1.85,1.85,0,0,0-.362-.1,2.353,2.353,0,0,0-.814,0,1.981,1.981,0,0,0-.362.1,1.432,1.432,0,0,0-.692.563,1.744,1.744,0,0,0-.248.954V69.06h7.062V66.03a2.583,2.583,0,0,1,2.579-2.579H56.589a2.583,2.583,0,0,1,2.579,2.579v3.03h1.367V63.691a4.44,4.44,0,0,1,.6-2.307,3.773,3.773,0,0,1,1.732-1.517,3.852,3.852,0,0,1,.757-.244,3.813,3.813,0,0,1,1.575,0,3.852,3.852,0,0,1,.757.244,3.773,3.773,0,0,1,1.732,1.517,4.425,4.425,0,0,1,.6,2.307.634.634,0,0,1-.635.635H65.841a.634.634,0,0,1-.635-.635,1.126,1.126,0,0,0-.125-.559.657.657,0,0,0-.3-.28.719.719,0,0,0-.168-.053,1.015,1.015,0,0,0-.2-.018,1.109,1.109,0,0,0-.2.018.723.723,0,0,0-.168.053.641.641,0,0,0-.3.28,1.13,1.13,0,0,0-.125.559V69.06h6.065a1.5,1.5,0,0,1,1.062.445v0a1.5,1.5,0,0,1,.442,1.062v1.03a1.508,1.508,0,0,1-1.5,1.5h-.448V77a3.759,3.759,0,0,1-3.756,3.752h-.315V92.784h5.406V87.756a2.242,2.242,0,0,1,2.233-2.235ZM70.56,95.639V94.049H64.523a.633.633,0,0,1-.631-.635V80.747H62.3V93.415a.631.631,0,0,1-.631.635H49.8a.634.634,0,0,1-.635-.635V87.644H47.574v5.771a.633.633,0,0,1-.631.635H35.066a.634.634,0,0,1-.635-.635V80.747H32.845V95.208a.445.445,0,0,0,.125.3.439.439,0,0,0,.3.125ZM51.812,65.987h3.863a1.067,1.067,0,0,1,1.065,1.065v1.965a1.067,1.067,0,0,1-1.065,1.065H51.812a1.067,1.067,0,0,1-1.065-1.065V67.052a1.061,1.061,0,0,1,.313-.753,1.074,1.074,0,0,1,.753-.313Zm3.662,1.267H52.013v1.564h3.461Zm-14.7-1.267H44.7a1.031,1.031,0,0,1,.728.3h0a1.03,1.03,0,0,1,.3.731v2.023a1.03,1.03,0,0,1-.3.731c-.018.018-.039.035-.057.051a1.033,1.033,0,0,1-.674.254H40.778a1.041,1.041,0,0,1-1.036-1.036V67.023a1.041,1.041,0,0,1,1.036-1.036Zm3.695,1.267H41.008v1.564h3.464ZM35.7,80.747V92.784H46.31v-5.14H40.152a2.583,2.583,0,0,1-2.579-2.579V80.747Zm14.731,6.9v5.14H61.037V80.747H59.165v4.319a2.583,2.583,0,0,1-2.579,2.579ZM48.369,69.918a7.824,7.824,0,1,1-5.527,2.292A7.785,7.785,0,0,1,48.369,69.918ZM53,73.1a6.553,6.553,0,1,0,1.92,4.634A6.551,6.551,0,0,0,53,73.1Zm6.162-2.776v1.5H69.673a.242.242,0,0,0,.168-.072.229.229,0,0,0,.068-.164v-1.03a.229.229,0,0,0-.068-.164v0a.232.232,0,0,0-.168-.068H59.165Zm0,2.766v6.391H65.47A2.5,2.5,0,0,0,67.959,77v-3.9ZM37.572,79.484V73.093H28.778V77a2.5,2.5,0,0,0,2.485,2.489h6.309Zm0-7.654v-1.5H27.059a.233.233,0,0,0-.164.072.229.229,0,0,0-.068.164v1.03a.229.229,0,0,0,.068.164.233.233,0,0,0,.164.072H37.572Zm19.014-7.116H40.151a1.315,1.315,0,0,0-1.312,1.316V85.064a1.315,1.315,0,0,0,1.312,1.316H56.585A1.322,1.322,0,0,0,57.9,85.064V66.03a1.322,1.322,0,0,0-1.311-1.316ZM61.8,69.062h.545V63.693a2.381,2.381,0,0,1,.294-1.187,1.954,1.954,0,0,1,.9-.811,2.361,2.361,0,0,1,.426-.133,2.148,2.148,0,0,1,.892,0,2.361,2.361,0,0,1,.426.133,1.953,1.953,0,0,1,.9.811,2.193,2.193,0,0,1,.219.555h.571a2.872,2.872,0,0,0-.366-1.026,2.527,2.527,0,0,0-1.155-1.011,2.756,2.756,0,0,0-.51-.164,2.592,2.592,0,0,0-.531-.054,2.505,2.505,0,0,0-.528.054,2.887,2.887,0,0,0-.51.164,2.534,2.534,0,0,0-1.155,1.011,3.183,3.183,0,0,0-.416,1.658v5.369Zm-25.914-13.9c.1,0,.2,0,.3.01a3.7,3.7,0,0,0-.571-1.435,3.769,3.769,0,0,0-1.761-1.384,4.377,4.377,0,0,0-.8-.233,4.631,4.631,0,0,0-1.67,0,4.3,4.3,0,0,0-.8.233,3.786,3.786,0,0,0-1.779,1.406,3.977,3.977,0,0,0-.62,2.231v13.07h1.054V55.991a3,3,0,0,1,.448-1.632A2.7,2.7,0,0,1,30.983,53.3a2.971,2.971,0,0,1,.6-.172,3.537,3.537,0,0,1,.635-.061,3.5,3.5,0,0,1,.631.061,2.9,2.9,0,0,1,.6.172,2.693,2.693,0,0,1,1.291,1.054,2.74,2.74,0,0,1,.362.868A4.6,4.6,0,0,1,35.883,55.162Zm2.428,2.271a3.435,3.435,0,0,0-5.767,1.615,16.139,16.139,0,0,1,3.339-.319,18.469,18.469,0,0,1,3.339.337,3.4,3.4,0,0,0-.911-1.632Z"/>
    </g>
  </g>
</svg>
