<svg xmlns="http://www.w3.org/2000/svg" xmlns:xlink="http://www.w3.org/1999/xlink" width="109.652" height="109.652" viewBox="0 0 109.652 109.652">
  <defs>
    <filter id="Path_874925" x="0" y="0" width="109.652" height="109.652" filterUnits="userSpaceOnUse">
      <feOffset dy="3" input="SourceAlpha"/>
      <feGaussianBlur stdDeviation="3" result="blur"/>
      <feFlood flood-opacity="0.161"/>
      <feComposite operator="in" in2="blur"/>
      <feComposite in="SourceGraphic"/>
    </filter>
  </defs>
  <g id="Group_1111717" data-name="Group 1111717" transform="translate(-15474 9530)">
    <g id="Group_1111444" data-name="Group 1111444" transform="translate(14463.27 -12601)">
      <g transform="matrix(1, 0, 0, 1, 1010.73, 3071)" filter="url(#Path_874925)">
        <g id="Path_874925-2" data-name="Path 874925" transform="translate(9 6)" fill="#ffd63c">
          <path d="M 45.82614517211914 90.15280151367188 C 39.84149551391602 90.15280151367188 34.03665924072266 88.98104095458984 28.5728702545166 86.67005157470703 C 23.29473304748535 84.43759155273438 18.55415725708008 81.24130249023438 14.48283290863037 77.16998291015625 C 10.41150760650635 73.09866333007812 7.215232849121094 68.35809326171875 4.982757568359375 63.07994079589844 C 2.671770095825195 57.61616897583008 1.500007629394531 51.81131744384766 1.500007629394531 45.82666778564453 C 1.500007629394531 39.84149169921875 2.671770095825195 34.03665542602539 4.982757568359375 28.57286643981934 C 7.215232849121094 23.29472923278809 10.41150760650635 18.55415534973145 14.48283290863037 14.48283004760742 C 18.55415725708008 10.4115047454834 23.29473304748535 7.215229511260986 28.5728702545166 4.982754707336426 C 34.03665924072266 2.671766996383667 39.84149551391602 1.500004529953003 45.82614517211914 1.500004529953003 C 51.81079483032227 1.500004529953003 57.61564636230469 2.671766996383667 63.07942199707031 4.982754707336426 C 68.35756683349609 7.215229511260986 73.09814453125 10.4115047454834 77.16947174072266 14.48283004760742 C 81.24078369140625 18.55415534973145 84.43707275390625 23.29472923278809 86.66954803466797 28.57286643981934 C 88.98052978515625 34.03665542602539 90.15229797363281 39.84149169921875 90.15229797363281 45.82614135742188 C 90.15229797363281 51.81131744384766 88.98052978515625 57.61616897583008 86.66954803466797 63.07994079589844 C 84.43707275390625 68.35809326171875 81.24078369140625 73.09866333007812 77.16947174072266 77.16998291015625 C 73.09814453125 81.24130249023438 68.35756683349609 84.43759155273438 63.07942199707031 86.67005157470703 C 57.61564636230469 88.98104095458984 51.81079483032227 90.15280151367188 45.82614517211914 90.15280151367188 Z" stroke="none"/>
          <path d="M 45.82614517211914 3.000007629394531 C 40.04333114624023 3.000007629394531 34.43508911132812 4.131904602050781 29.15720367431641 6.364265441894531 C 24.05784606933594 8.521102905273438 19.47753143310547 11.60944366455078 15.54348754882812 15.54348754882812 C 11.60944366455078 19.47753143310547 8.521102905273438 24.05784606933594 6.3642578125 29.15720367431641 C 4.131904602050781 34.43508911132812 3 40.0433349609375 3 45.82667541503906 C 3 51.60948944091797 4.131904602050781 57.21773147583008 6.3642578125 62.49562072753906 C 8.521102905273438 67.59497833251953 11.60944366455078 72.17527770996094 15.54348754882812 76.10932922363281 C 19.47753143310547 80.04337310791016 24.05784606933594 83.13170623779297 29.15718841552734 85.28854370117188 C 34.43508911132812 87.52090454101562 40.04333114624023 88.65280151367188 45.82614517211914 88.65280151367188 C 51.60895919799805 88.65280151367188 57.21720123291016 87.52090454101562 62.49510192871094 85.28854370117188 C 67.59444427490234 83.13170623779297 72.17475891113281 80.04337310791016 76.10880279541016 76.10932922363281 C 80.0428466796875 72.17527770996094 83.13118743896484 67.59497833251953 85.28803253173828 62.49562072753906 C 87.5203857421875 57.21773147583008 88.65229034423828 51.60948944091797 88.65229034423828 45.82614898681641 C 88.65229034423828 40.0433349609375 87.5203857421875 34.43508911132812 85.28803253173828 29.15720367431641 C 83.13118743896484 24.05784606933594 80.0428466796875 19.47753143310547 76.10880279541016 15.54348754882812 C 72.17475891113281 11.60944366455078 67.59444427490234 8.521102905273438 62.49508666992188 6.364265441894531 C 57.21720123291016 4.131904602050781 51.60895919799805 3.000007629394531 45.82614517211914 3.000007629394531 M 45.82614517211914 7.62939453125e-06 C 71.13523101806641 7.62939453125e-06 91.65229034423828 20.51705932617188 91.65229034423828 45.82614898681641 L 91.65229034423828 45.82667541503906 C 91.65229034423828 71.13575744628906 71.13523101806641 91.65280151367188 45.82614517211914 91.65280151367188 C 20.51705932617188 91.65280151367188 0 71.13575744628906 0 45.82667541503906 L 0 45.82614898681641 C 0 20.51705932617188 20.51705932617188 7.62939453125e-06 45.82614517211914 7.62939453125e-06 Z" stroke="none" fill="#fff"/>
        </g>
      </g>
    </g>
    <g id="miedo" transform="translate(15504.002 -9503)">
      <path id="Path_900879" data-name="Path 900879" d="M100.778,354.926l-1.35-5.7a8.256,8.256,0,0,0-6.76-6.254L89.2,342.43a3.4,3.4,0,0,1-2.871-3.354H77.732a3.4,3.4,0,0,1-2.871,3.354l-3.471.542a8.256,8.256,0,0,0-6.76,6.254l-1.35,5.7Z" transform="translate(-57.125 -306.088)" fill="#6d92ac"/>
      <path id="Path_900880" data-name="Path 900880" d="M195.529,341.949a7.9,7.9,0,0,0,11.761,0l0,0a3.392,3.392,0,0,1-1.586-2.87h-8.592a3.392,3.392,0,0,1-1.587,2.87Z" transform="translate(-176.506 -306.089)" fill="#ffd0c7"/>
      <path id="Path_900881" data-name="Path 900881" d="M165.23,79.072a10.761,10.761,0,1,0-18.158,0Z" transform="translate(-131.247 -56.448)" fill="#c68a65"/>
      <path id="Path_900882" data-name="Path 900882" d="M180.839,152.149c-.026-.04-.052-.081-.079-.121a17.434,17.434,0,0,1-11.6-4.471,10.867,10.867,0,0,0-6.474,4.594v5.384a9.079,9.079,0,0,0,9.079,9.079h0a9.079,9.079,0,0,0,9.079-9.079Z" transform="translate(-146.857 -133.201)" fill="#ffd0c7"/>
      <path id="Path_900883" data-name="Path 900883" d="M341.938,272.03h0a5.278,5.278,0,0,1-7.185-2.964l-6.687-18.206,6.573-3.065,9.648,16.825A5.278,5.278,0,0,1,341.938,272.03Z" transform="translate(-296.15 -223.688)" fill="#6d92ac"/>
      <path id="Path_900884" data-name="Path 900884" d="M326.17,152.43l.468-5.353a4.714,4.714,0,0,0-1.43-3.81l-1.149-1.1a2.356,2.356,0,0,0-3.752.672h0a2.356,2.356,0,0,0-.085,1.857l1.234,3.277-.2,2.256a8.533,8.533,0,0,0,.688,4.174h0Z" transform="translate(-288.935 -127.738)" fill="#ffd0c7"/>
      <path id="Path_900885" data-name="Path 900885" d="M13.049,272.03h0a5.278,5.278,0,0,0,7.186-2.964l6.687-18.206L20.349,247.8,10.7,264.62A5.278,5.278,0,0,0,13.049,272.03Z" transform="translate(-9.029 -223.688)" fill="#6d92ac"/>
      <path id="Path_900886" data-name="Path 900886" d="M124.73,152.43l-.468-5.353a4.714,4.714,0,0,1,1.43-3.81l1.149-1.1a2.356,2.356,0,0,1,3.752.672h0a2.356,2.356,0,0,1,.085,1.857l-1.234,3.277.2,2.256a8.532,8.532,0,0,1-.688,4.174h0Z" transform="translate(-112.158 -127.738)" fill="#ffd0c7"/>
      <path id="Trazado_900887" data-name="Trazado 900887" d="M196.134,143.851a.98.98,0,0,1-.116-.007,18.325,18.325,0,0,1-9.737-4.24,9.791,9.791,0,0,0-2.822,1.374.973.973,0,1,1-1.12-1.591,11.725,11.725,0,0,1,3.956-1.8.973.973,0,0,1,.883.221,16.4,16.4,0,0,0,9.069,4.107.973.973,0,0,1-.113,1.939Z" transform="translate(-164.229 -124.173)"/>
      <path id="Trazado_900888" data-name="Trazado 900888" d="M175.522,295.785A10,10,0,0,1,167,291.061a.973.973,0,0,1,1.649-1.033,8.109,8.109,0,0,0,13.747.007.973.973,0,0,1,1.648,1.034A10.005,10.005,0,0,1,175.522,295.785Z" transform="translate(-150.618 -261.4)"/>
      <path id="Trazado_900889" data-name="Trazado 900889" d="M159.7,63.115a.973.973,0,0,1-.953-.782,9.791,9.791,0,0,0-19.187-.043.973.973,0,1,1-1.906-.39,11.737,11.737,0,0,1,23,.052.974.974,0,0,1-.955,1.164Z" transform="translate(-124.249 -47.42)"/>
      <path id="Trazado_900890" data-name="Trazado 900890" d="M138.661,334.9a.973.973,0,0,1-.149-1.934l3.37-.526a2.41,2.41,0,0,0,2.048-2.393.973.973,0,1,1,1.946,0,4.346,4.346,0,0,1-3.694,4.315l-3.37.526A.98.98,0,0,1,138.661,334.9Z" transform="translate(-124.296 -297.062)"/>
      <path id="Trazado_900891" data-name="Trazado 900891" d="M297.369,334.9a.98.98,0,0,1-.151-.012l-3.364-.525a4.346,4.346,0,0,1-3.694-4.315.973.973,0,1,1,1.946,0,2.41,2.41,0,0,0,2.048,2.393l3.363.525a.973.973,0,0,1-.149,1.934Z" transform="translate(-261.933 -297.062)"/>
      <path id="Trazado_900892" data-name="Trazado 900892" d="M192.409,363.168a8.887,8.887,0,0,1-6.6-2.948.973.973,0,1,1,1.448-1.3,6.927,6.927,0,0,0,10.313,0,.973.973,0,1,1,1.448,1.3A8.887,8.887,0,0,1,192.409,363.168Z" transform="translate(-167.506 -323.71)"/>
      <g id="Group_1111715" data-name="Group 1111715" transform="translate(26.684 22.107)">
        <path id="Línea_564" data-name="Línea 564" d="M-8.108-7.643a.969.969,0,0,1-.4-.085l-.922-.413a.973.973,0,0,1-.49-1.286.973.973,0,0,1,1.286-.49l.922.413a.973.973,0,0,1,.49,1.286A.973.973,0,0,1-8.108-7.643Z" transform="translate(10.002 10.002)"/>
      </g>
      <g id="Group_1111716" data-name="Group 1111716" transform="translate(20.255 22.107)">
        <path id="Línea_565" data-name="Línea 565" d="M-9.029-7.643a.973.973,0,0,1-.888-.575A.973.973,0,0,1-9.427-9.5l.922-.413a.973.973,0,0,1,1.286.49.973.973,0,0,1-.49,1.286l-.922.413A.97.97,0,0,1-9.029-7.643Z" transform="translate(10.002 10.002)"/>
      </g>
      <path id="Trazado_900893" data-name="Trazado 900893" d="M330.677,264.467a6.245,6.245,0,0,1-5.867-4.094l-6.687-18.206a.973.973,0,0,1,.5-1.217l6.573-3.065a.973.973,0,0,1,1.255.4l3.71,6.47a.973.973,0,0,1-1.688.968l-3.265-5.694-4.952,2.309,6.379,17.367a4.306,4.306,0,1,0,7.777-3.626l-1.582-2.76a.973.973,0,0,1,1.688-.968l1.582,2.76a6.249,6.249,0,0,1-5.424,9.36Z" transform="translate(-287.121 -214.659)"/>
      <path id="Trazado_900894" data-name="Trazado 900894" d="M312.931,146.345a.973.973,0,0,1-.891-.582,9.532,9.532,0,0,1-.766-4.65l.178-2.036-1.156-3.07a3.343,3.343,0,0,1,.12-2.624,3.328,3.328,0,0,1,5.3-.949l1.149,1.1a5.661,5.661,0,0,1,1.726,4.6l-.468,5.353a.973.973,0,0,1-.558.8l-4.223,1.969A.973.973,0,0,1,312.931,146.345Zm.485-12.894a1.383,1.383,0,0,0-1.3,1.871l1.234,3.277a.973.973,0,0,1,.059.428l-.2,2.256a7.582,7.582,0,0,0,.269,2.759l2.752-1.283.419-4.794a3.724,3.724,0,0,0-1.135-3.024l-1.149-1.1A1.371,1.371,0,0,0,313.416,133.451Z" transform="translate(-279.919 -118.711)"/>
      <path id="Trazado_900895" data-name="Trazado 900895" d="M6.274,264.47h0a6.2,6.2,0,0,1-2.638-.587,6.251,6.251,0,0,1-2.781-8.775L10.5,238.282a.973.973,0,0,1,1.255-.4l6.573,3.065a.973.973,0,0,1,.5,1.217l-6.687,18.206A6.277,6.277,0,0,1,6.274,264.47Zm5.472-24.444-9.2,16.05a4.309,4.309,0,0,0,3.731,6.449,4.324,4.324,0,0,0,4.045-2.823L16.7,242.335Z" transform="translate(-0.027 -214.659)"/>
      <path id="Trazado_900896" data-name="Trazado 900896" d="M119.923,146.345a.973.973,0,0,1-.411-.091l-4.223-1.969a.973.973,0,0,1-.558-.8l-.468-5.353a5.661,5.661,0,0,1,1.726-4.6l1.149-1.1a3.328,3.328,0,0,1,5.3.949,3.343,3.343,0,0,1,.12,2.624l-1.156,3.07.178,2.036a9.532,9.532,0,0,1-.766,4.65.973.973,0,0,1-.891.582Zm-3.3-3.587,2.752,1.283a7.582,7.582,0,0,0,.269-2.759l-.2-2.256a.973.973,0,0,1,.059-.428l1.234-3.277a1.383,1.383,0,0,0-1.3-1.87,1.371,1.371,0,0,0-.953.386l-1.149,1.1a3.724,3.724,0,0,0-1.135,3.024Z" transform="translate(-103.128 -118.711)"/>
      <path id="Trazado_900897" data-name="Trazado 900897" d="M234.145,273.221a.97.97,0,0,1-.688-.285,1.218,1.218,0,0,0-1.722,0,.973.973,0,0,1-1.376-1.376,3.163,3.163,0,0,1,4.474,0,.973.973,0,0,1-.688,1.661Z" transform="translate(-207.693 -244.304)"/>
      <path id="Trazado_900898" data-name="Trazado 900898" d="M423.2,104.856a.973.973,0,0,1-.482-1.818l3.531-2.01-1.575-.91a.973.973,0,0,1,.068-1.721l4.828-2.3a.973.973,0,1,1,.837,1.757l-3.157,1.5,1.443.833a.973.973,0,0,1-.005,1.688l-5.005,2.85A.968.968,0,0,1,423.2,104.856Z" transform="translate(-381.151 -86.663)"/>
      <path id="Trazado_900899" data-name="Trazado 900899" d="M384.862,10.883A.973.973,0,0,1,384.1,9.3l2.529-3.18-1.8-.258a.973.973,0,0,1-.577-1.623L387.877.313a.973.973,0,1,1,1.43,1.319L386.937,4.2l1.649.236a.973.973,0,0,1,.624,1.569l-3.585,4.508A.971.971,0,0,1,384.862,10.883Z" transform="translate(-346.544 0)"/>
      <path id="Trazado_900900" data-name="Trazado 900900" d="M7.758,104.856a.968.968,0,0,1-.48-.128l-5.005-2.85a.973.973,0,0,1-.005-1.688l1.443-.833-3.157-1.5A.973.973,0,0,1,1.389,96.1l4.828,2.3a.973.973,0,0,1,.068,1.721l-1.575.91,3.531,2.01a.973.973,0,0,1-.482,1.818Z" transform="translate(0 -86.663)"/>
      <path id="Trazado_900901" data-name="Trazado 900901" d="M74.475,10.883a.971.971,0,0,1-.762-.367L70.128,6.008a.973.973,0,0,1,.624-1.569L72.4,4.2,70.03,1.632A.973.973,0,1,1,71.46.313l3.625,3.931a.973.973,0,0,1-.577,1.623l-1.8.258L75.236,9.3a.973.973,0,0,1-.761,1.578Z" transform="translate(-62.986 0)"/>
      <path id="Línea_566" data-name="Línea 566" transform="translate(44.386 34.369)"/>
      <path id="Línea_567" data-name="Línea 567" d="M28.472-8.054h-37.5A.973.973,0,0,1-10-9.027.973.973,0,0,1-9.027-10h37.5a.973.973,0,0,1,.973.973A.973.973,0,0,1,28.472-8.054Z" transform="translate(15.181 57.865)"/>
    </g>
  </g>
</svg>
