<svg xmlns="http://www.w3.org/2000/svg" xmlns:xlink="http://www.w3.org/1999/xlink" width="109.652" height="109.652" viewBox="0 0 109.652 109.652">
  <defs>
    <filter id="Path_874925" x="0" y="0" width="109.652" height="109.652" filterUnits="userSpaceOnUse">
      <feOffset dy="3" input="SourceAlpha"/>
      <feGaussianBlur stdDeviation="3" result="blur"/>
      <feFlood flood-opacity="0.161"/>
      <feComposite operator="in" in2="blur"/>
      <feComposite in="SourceGraphic"/>
    </filter>
  </defs>
  <g id="Group_1111699" data-name="Group 1111699" transform="translate(-15474 9968)">
    <g id="Group_1111441" data-name="Group 1111441" transform="translate(14463.27 -13039)">
      <g transform="matrix(1, 0, 0, 1, 1010.73, 3071)" filter="url(#Path_874925)">
        <g id="Path_874925-2" data-name="Path 874925" transform="translate(9 6)" fill="#ffd63c">
          <path d="M 45.82614517211914 90.15280151367188 C 39.84149551391602 90.15280151367188 34.03665924072266 88.98104095458984 28.5728702545166 86.67005157470703 C 23.29473304748535 84.43759155273438 18.55415725708008 81.24130249023438 14.48283290863037 77.16998291015625 C 10.41150760650635 73.09866333007812 7.215232849121094 68.35809326171875 4.982757568359375 63.07994079589844 C 2.671770095825195 57.61616897583008 1.500007629394531 51.81131744384766 1.500007629394531 45.82666778564453 C 1.500007629394531 39.84149169921875 2.671770095825195 34.03665542602539 4.982757568359375 28.57286643981934 C 7.215232849121094 23.29472923278809 10.41150760650635 18.55415534973145 14.48283290863037 14.48283004760742 C 18.55415725708008 10.4115047454834 23.29473304748535 7.215229511260986 28.5728702545166 4.982754707336426 C 34.03665924072266 2.671766996383667 39.84149551391602 1.500004529953003 45.82614517211914 1.500004529953003 C 51.81079483032227 1.500004529953003 57.61564636230469 2.671766996383667 63.07942199707031 4.982754707336426 C 68.35756683349609 7.215229511260986 73.09814453125 10.4115047454834 77.16947174072266 14.48283004760742 C 81.24078369140625 18.55415534973145 84.43707275390625 23.29472923278809 86.66954803466797 28.57286643981934 C 88.98052978515625 34.03665542602539 90.15229797363281 39.84149169921875 90.15229797363281 45.82614135742188 C 90.15229797363281 51.81131744384766 88.98052978515625 57.61616897583008 86.66954803466797 63.07994079589844 C 84.43707275390625 68.35809326171875 81.24078369140625 73.09866333007812 77.16947174072266 77.16998291015625 C 73.09814453125 81.24130249023438 68.35756683349609 84.43759155273438 63.07942199707031 86.67005157470703 C 57.61564636230469 88.98104095458984 51.81079483032227 90.15280151367188 45.82614517211914 90.15280151367188 Z" stroke="none"/>
          <path d="M 45.82614517211914 3.000007629394531 C 40.04333114624023 3.000007629394531 34.43508911132812 4.131904602050781 29.15720367431641 6.364265441894531 C 24.05784606933594 8.521102905273438 19.47753143310547 11.60944366455078 15.54348754882812 15.54348754882812 C 11.60944366455078 19.47753143310547 8.521102905273438 24.05784606933594 6.3642578125 29.15720367431641 C 4.131904602050781 34.43508911132812 3 40.0433349609375 3 45.82667541503906 C 3 51.60948944091797 4.131904602050781 57.21773147583008 6.3642578125 62.49562072753906 C 8.521102905273438 67.59497833251953 11.60944366455078 72.17527770996094 15.54348754882812 76.10932922363281 C 19.47753143310547 80.04337310791016 24.05784606933594 83.13170623779297 29.15718841552734 85.28854370117188 C 34.43508911132812 87.52090454101562 40.04333114624023 88.65280151367188 45.82614517211914 88.65280151367188 C 51.60895919799805 88.65280151367188 57.21720123291016 87.52090454101562 62.49510192871094 85.28854370117188 C 67.59444427490234 83.13170623779297 72.17475891113281 80.04337310791016 76.10880279541016 76.10932922363281 C 80.0428466796875 72.17527770996094 83.13118743896484 67.59497833251953 85.28803253173828 62.49562072753906 C 87.5203857421875 57.21773147583008 88.65229034423828 51.60948944091797 88.65229034423828 45.82614898681641 C 88.65229034423828 40.0433349609375 87.5203857421875 34.43508911132812 85.28803253173828 29.15720367431641 C 83.13118743896484 24.05784606933594 80.0428466796875 19.47753143310547 76.10880279541016 15.54348754882812 C 72.17475891113281 11.60944366455078 67.59444427490234 8.521102905273438 62.49508666992188 6.364265441894531 C 57.21720123291016 4.131904602050781 51.60895919799805 3.000007629394531 45.82614517211914 3.000007629394531 M 45.82614517211914 7.62939453125e-06 C 71.13523101806641 7.62939453125e-06 91.65229034423828 20.51705932617188 91.65229034423828 45.82614898681641 L 91.65229034423828 45.82667541503906 C 91.65229034423828 71.13575744628906 71.13523101806641 91.65280151367188 45.82614517211914 91.65280151367188 C 20.51705932617188 91.65280151367188 0 71.13575744628906 0 45.82667541503906 L 0 45.82614898681641 C 0 20.51705932617188 20.51705932617188 7.62939453125e-06 45.82614517211914 7.62939453125e-06 Z" stroke="none" fill="#fff"/>
        </g>
      </g>
    </g>
    <g id="vibracion" transform="translate(15502 -9943)">
      <g id="Group_1111697" data-name="Group 1111697" transform="translate(10.174 1)">
        <g id="Group_1111689" data-name="Group 1111689">
          <path id="Path_900852" data-name="Path 900852" d="M12,1H45.359V51.873H12Z" transform="translate(-12 -1)" fill="#e6e9ed"/>
        </g>
        <g id="Group_1111690" data-name="Group 1111690" transform="translate(3.336 27.521)">
          <path id="Path_900853" data-name="Path 900853" d="M41.62,37.995a2.664,2.664,0,0,0-.217-.317,7.174,7.174,0,0,0-2.677-2.327,7.293,7.293,0,0,0-2.193-.684L31.846,34l-2.5,4.17-1.985-2.485a3.853,3.853,0,0,1,.317,1.651c0,1.668,0,4.17-3.336,5.838a4.615,4.615,0,0,0-1.668-2.068c-1.484-1.176-3.336-2.1-3.336-3.77a4.28,4.28,0,0,1,.409-1.868A7.174,7.174,0,0,0,16,41.764v5.579h6.672V57.352H36.016V47.344h6.672V41.764a7.2,7.2,0,0,0-1.067-3.77Z" transform="translate(-16 -34)" fill="#b4dd7f"/>
        </g>
        <g id="Group_1111691" data-name="Group 1111691" transform="translate(5.004 5.004)">
          <path id="Path_900854" data-name="Path 900854" d="M20.077,30.985a2.935,2.935,0,0,1,.375-.567A5.754,5.754,0,0,1,18,26.182a4.161,4.161,0,0,1,2.5-4.17V15.757a8.757,8.757,0,1,1,17.514,0v.417a6.381,6.381,0,0,1,1.668,4.17c0,2.5-1.576,4.345-.834,5.838.834,1.668,3.336,2.5,3.336,5a4.317,4.317,0,0,1-.45,2.01,7.174,7.174,0,0,0-2.677-2.327,7.293,7.293,0,0,0-2.193-.684l-4.687-.667V27.282a5.813,5.813,0,0,0,3.336-5.271V16.174H31.852a9.96,9.96,0,0,1-5.513-1.668l-2.5,1.668v5.838a5.8,5.8,0,0,0,1.71,4.128,5.728,5.728,0,0,0,1.626,1.143v.008a3.487,3.487,0,0,1-.7,2.36A5.418,5.418,0,0,1,27.691,31.2a3.853,3.853,0,0,1,.317,1.651c0,1.668,0,4.17-3.336,5.838A4.615,4.615,0,0,0,23,36.623c-1.484-1.176-3.336-2.1-3.336-3.77a4.28,4.28,0,0,1,.409-1.868Z" transform="translate(-18 -7)" fill="#656d78"/>
        </g>
        <g id="Group_1111692" data-name="Group 1111692" transform="translate(23.352 40.865)">
          <path id="Path_900855" data-name="Path 900855" d="M40,50h5V60.008H40Z" transform="translate(-40 -50)" fill="#f0d0b4"/>
        </g>
        <g id="Group_1111693" data-name="Group 1111693" transform="translate(5.004 40.865)">
          <path id="Path_900856" data-name="Path 900856" d="M18,50h5V60.008H18Z" transform="translate(-18 -50)" fill="#f0d0b4"/>
        </g>
        <g id="Group_1111694" data-name="Group 1111694" transform="translate(13.477 25.286)">
          <path id="Path_900857" data-name="Path 900857" d="M33.864,31.328v2.227l-2.5,4.17L29.378,35.24a5.418,5.418,0,0,0-1.218-1.551,3.487,3.487,0,0,0,.7-2.36V31.32a5.8,5.8,0,0,0,5,0Z" transform="translate(-28.16 -31.32)" fill="#f0d0b4"/>
        </g>
        <g id="Group_1111695" data-name="Group 1111695" transform="translate(10.842 12.51)">
          <path id="Path_900858" data-name="Path 900858" d="M36.676,17.668v5.838a5.813,5.813,0,0,1-3.336,5.271,5.852,5.852,0,0,1-6.63-1.143A5.8,5.8,0,0,1,25,23.506V17.668L27.5,16a9.96,9.96,0,0,0,5.513,1.668Z" transform="translate(-25 -16)" fill="#f0d0b4"/>
        </g>
        <g id="Group_1111696" data-name="Group 1111696" transform="translate(14.178 19.182)">
          <path id="Path_900859" data-name="Path 900859" d="M34,24v.834a2.5,2.5,0,0,1-5,0V24Z" transform="translate(-29 -24)" fill="#ef7385"/>
        </g>
      </g>
      <g id="Group_1111698" data-name="Group 1111698" transform="translate(1 1)">
        <path id="Path_900860" data-name="Path 900860" d="M44.367,51.039V1H42.7V51.039H39.363V42.7h1.668V36.288a7.993,7.993,0,0,0-1.171-4.179,5.384,5.384,0,0,0,.337-1.92,5.3,5.3,0,0,0-2.185-3.962,5.651,5.651,0,0,1-1.238-1.414c-.249-.5-.053-1.167.284-2.222a10.309,10.309,0,0,0,.638-3.243,7.206,7.206,0,0,0-1.668-4.486v-.1a9.591,9.591,0,1,0-19.182,0v5.73a5.079,5.079,0,0,0-2.5,4.694A6.07,6.07,0,0,0,16.473,29.5a7.985,7.985,0,0,0-3.8,6.788V42.7h1.668v8.34H11.008V1H9.34V51.039H1v1.668H52.707V51.039Zm-6.672,0H34.359V42.7H37.7Zm1.668-10.008h-5V36.224a2.171,2.171,0,0,1,1.207-1.952L34.82,32.78a3.832,3.832,0,0,0-2.128,3.444V51.039H21.016V37.86c.013.033.032.065.043.1l.3.912.86-.43a6.121,6.121,0,0,0,3.772-5.488l.957,1.2,2.835-4.724,4.138.591a6.336,6.336,0,0,1,5.439,6.272ZM26.854,26.02a5.009,5.009,0,0,1-5-5V15.624L23.531,14.5a10.726,10.726,0,0,0,5.5,1.509h2.831v5A5.009,5.009,0,0,1,26.854,26.02Zm0,1.668a6.632,6.632,0,0,0,1.668-.219v.822l-1.766,2.943-1.192-1.489a5.041,5.041,0,0,0-.843-1.186,3.886,3.886,0,0,0,.365-1.117,6.62,6.62,0,0,0,1.767.246Zm-8.91-5.88.57-.19V14.761a7.923,7.923,0,0,1,15.846,0v.762l.244.244a5.511,5.511,0,0,1,1.424,3.58,8.854,8.854,0,0,1-.559,2.735c-.387,1.208-.751,2.348-.188,3.476a6.914,6.914,0,0,0,1.595,1.89c.887.825,1.654,1.538,1.654,2.741,0,.093-.022.172-.027.261a8.009,8.009,0,0,0-4.343-2.085l-3.97-.567V26.785a6.671,6.671,0,0,0,3.336-5.77V14.344h-4.5a9.066,9.066,0,0,1-5.046-1.528l-.462-.309-3.336,2.224v6.284A6.671,6.671,0,0,0,23.5,26.772a2.194,2.194,0,0,1-.464,1.319l-.537.59.564.564a3.154,3.154,0,0,1,1.293,2.614c0,1.477,0,3.283-2.148,4.678a9.215,9.215,0,0,0-2.443-2.263c-1.3-.937-2.082-1.565-2.082-2.415a3.483,3.483,0,0,1,.2-1.2,17.926,17.926,0,0,0,3.677,1.981l.586-1.562c-1.705-.639-6.131-2.944-6.131-5.89a3.358,3.358,0,0,1,1.932-3.378Zm-3.6,14.481a6.318,6.318,0,0,1,1.684-4.282c.083,1.671,1.5,2.706,2.756,3.618.188.137.378.274.564.414v4.993h-5ZM16.012,42.7h3.336v8.34H16.012Z" transform="translate(-1 -1)"/>
        <path id="Path_900861" data-name="Path 900861" d="M58.867,23.016a7.516,7.516,0,0,1,0-10.616l-1.179-1.179a9.185,9.185,0,0,0,0,12.974Z" transform="translate(-9.966 -2.697)"/>
        <path id="Path_900862" data-name="Path 900862" d="M60.711,22.306l1.179-1.179a4.17,4.17,0,0,1,0-5.9L60.711,14.05a5.837,5.837,0,0,0,0,8.256Z" transform="translate(-10.629 -3.167)"/>
        <path id="Path_900863" data-name="Path 900863" d="M4.364,23.016,5.543,24.2a9.185,9.185,0,0,0,0-12.974L4.364,12.4A7.516,7.516,0,0,1,4.364,23.016Z" transform="translate(-1.558 -2.697)"/>
        <path id="Path_900864" data-name="Path 900864" d="M2.714,22.306a5.8,5.8,0,0,0,1.711-4.128A5.8,5.8,0,0,0,2.714,14.05L1.535,15.229a4.147,4.147,0,0,1,1.222,2.949,4.147,4.147,0,0,1-1.222,2.949Z" transform="translate(-1.089 -3.167)"/>
        <path id="Path_900865" data-name="Path 900865" d="M28,24.668a3.336,3.336,0,0,0,6.672,0V23H28Zm5,0a1.668,1.668,0,0,1-3.336,0Z" transform="translate(-5.482 -4.652)"/>
      </g>
    </g>
  </g>
</svg>
