<svg xmlns="http://www.w3.org/2000/svg" xmlns:xlink="http://www.w3.org/1999/xlink" width="109.652" height="109.653" viewBox="0 0 109.652 109.653">
  <defs>
    <filter id="Path_874925" x="0" y="0" width="109.652" height="109.653" filterUnits="userSpaceOnUse">
      <feOffset dy="3" input="SourceAlpha"/>
      <feGaussianBlur stdDeviation="3" result="blur"/>
      <feFlood flood-opacity="0.161"/>
      <feComposite operator="in" in2="blur"/>
      <feComposite in="SourceGraphic"/>
    </filter>
  </defs>
  <g id="Group_1111634" data-name="Group 1111634" transform="translate(-740 -1743)">
    <g id="Group_1111412" data-name="Group 1111412" transform="translate(-270.73 -1328)">
      <g transform="matrix(1, 0, 0, 1, 1010.73, 3071)" filter="url(#Path_874925)">
        <g id="Path_874925-2" data-name="Path 874925" transform="translate(9 6)" fill="#ffd63c">
          <path d="M 45.82614517211914 90.15280151367188 C 39.84149551391602 90.15280151367188 34.03665924072266 88.98104095458984 28.5728702545166 86.67005157470703 C 23.29473304748535 84.43759155273438 18.55415725708008 81.24130249023438 14.48283290863037 77.16998291015625 C 10.41150760650635 73.09866333007812 7.215232849121094 68.35809326171875 4.982757568359375 63.07994079589844 C 2.671770095825195 57.61616897583008 1.500007629394531 51.81131744384766 1.500007629394531 45.82666778564453 C 1.500007629394531 39.84149169921875 2.671770095825195 34.03665542602539 4.982757568359375 28.57286643981934 C 7.215232849121094 23.29472923278809 10.41150760650635 18.55415534973145 14.48283290863037 14.48283004760742 C 18.55415725708008 10.4115047454834 23.29473304748535 7.215229511260986 28.5728702545166 4.982754707336426 C 34.03665924072266 2.671766996383667 39.84149551391602 1.500004529953003 45.82614517211914 1.500004529953003 C 51.81079483032227 1.500004529953003 57.61564636230469 2.671766996383667 63.07942199707031 4.982754707336426 C 68.35756683349609 7.215229511260986 73.09814453125 10.4115047454834 77.16947174072266 14.48283004760742 C 81.24078369140625 18.55415534973145 84.43707275390625 23.29472923278809 86.66954803466797 28.57286643981934 C 88.98052978515625 34.03665542602539 90.15229797363281 39.84149169921875 90.15229797363281 45.82614135742188 C 90.15229797363281 51.81131744384766 88.98052978515625 57.61616897583008 86.66954803466797 63.07994079589844 C 84.43707275390625 68.35809326171875 81.24078369140625 73.09866333007812 77.16947174072266 77.16998291015625 C 73.09814453125 81.24130249023438 68.35756683349609 84.43759155273438 63.07942199707031 86.67005157470703 C 57.61564636230469 88.98104095458984 51.81079483032227 90.15280151367188 45.82614517211914 90.15280151367188 Z" stroke="none"/>
          <path d="M 45.82614517211914 3.000007629394531 C 40.04333114624023 3.000007629394531 34.43508911132812 4.131904602050781 29.15720367431641 6.364265441894531 C 24.05784606933594 8.521102905273438 19.47753143310547 11.60944366455078 15.54348754882812 15.54348754882812 C 11.60944366455078 19.47753143310547 8.521102905273438 24.05784606933594 6.3642578125 29.15720367431641 C 4.131904602050781 34.43508911132812 3 40.0433349609375 3 45.82667541503906 C 3 51.60948944091797 4.131904602050781 57.21773147583008 6.3642578125 62.49562072753906 C 8.521102905273438 67.59497833251953 11.60944366455078 72.17527770996094 15.54348754882812 76.10932922363281 C 19.47753143310547 80.04337310791016 24.05784606933594 83.13170623779297 29.15718841552734 85.28854370117188 C 34.43508911132812 87.52090454101562 40.04333114624023 88.65280151367188 45.82614517211914 88.65280151367188 C 51.60895919799805 88.65280151367188 57.21720123291016 87.52090454101562 62.49510192871094 85.28854370117188 C 67.59444427490234 83.13170623779297 72.17475891113281 80.04337310791016 76.10880279541016 76.10932922363281 C 80.0428466796875 72.17527770996094 83.13118743896484 67.59497833251953 85.28803253173828 62.49562072753906 C 87.5203857421875 57.21773147583008 88.65229034423828 51.60948944091797 88.65229034423828 45.82614898681641 C 88.65229034423828 40.0433349609375 87.5203857421875 34.43508911132812 85.28803253173828 29.15720367431641 C 83.13118743896484 24.05784606933594 80.0428466796875 19.47753143310547 76.10880279541016 15.54348754882812 C 72.17475891113281 11.60944366455078 67.59444427490234 8.521102905273438 62.49508666992188 6.364265441894531 C 57.21720123291016 4.131904602050781 51.60895919799805 3.000007629394531 45.82614517211914 3.000007629394531 M 45.82614517211914 7.62939453125e-06 C 71.13523101806641 7.62939453125e-06 91.65229034423828 20.51705932617188 91.65229034423828 45.82614898681641 L 91.65229034423828 45.82667541503906 C 91.65229034423828 71.13575744628906 71.13523101806641 91.65280151367188 45.82614517211914 91.65280151367188 C 20.51705932617188 91.65280151367188 0 71.13575744628906 0 45.82667541503906 L 0 45.82614898681641 C 0 20.51705932617188 20.51705932617188 7.62939453125e-06 45.82614517211914 7.62939453125e-06 Z" stroke="none" fill="#fff"/>
        </g>
      </g>
    </g>
    <g id="seguridad" transform="translate(768 1769.5)">
      <path id="Path_900584" data-name="Path 900584" d="M86.352,284.11l-10.511,7.034-3.133-.176-.123-1.233a4,4,0,0,0-3.422-3.567L58.051,285.2a21.471,21.471,0,0,1-5.176-2.4,11.429,11.429,0,0,0-5.589-1.519l-5.65-.047v13.812L57.63,301.1a4.347,4.347,0,0,0,1.859.123l.011,0L75.6,298.9a7.127,7.127,0,0,0,3.38-1.515l10.407-9.359a2.485,2.485,0,0,0-3.036-3.92Zm0,0" transform="translate(-37.266 -251.267)" fill="#fae0c1"/>
      <path id="Path_900585" data-name="Path 900585" d="M89.792,312.524a2.478,2.478,0,0,0-.227-.286l-10.584,7.772a7.124,7.124,0,0,1-3.38,1.514l-16.1,2.321-.011,0a4.353,4.353,0,0,1-1.859-.124l-15.993-6.056V322.8l15.993,6.056a4.347,4.347,0,0,0,1.859.123l.011,0,16.1-2.321a7.126,7.126,0,0,0,3.38-1.515l10.407-9.359A2.485,2.485,0,0,0,89.792,312.524Zm0,0" transform="translate(-37.266 -279.017)" fill="#efd0af"/>
      <path id="Path_900586" data-name="Path 900586" d="M15.219,266.743H8.575a1.087,1.087,0,0,1-1.087-1.087V245.372a1.087,1.087,0,0,1,1.087-1.087h6.644a1.087,1.087,0,0,1,1.087,1.087v20.284A1.087,1.087,0,0,1,15.219,266.743Zm0,0" transform="translate(-6.702 -218.196)" fill="#f43b45"/>
      <path id="Path_900587" data-name="Path 900587" d="M46.751,244.285H42.719v22.458h4.033a1.087,1.087,0,0,0,1.087-1.087V245.372A1.087,1.087,0,0,0,46.751,244.285Zm0,0" transform="translate(-38.235 -218.196)" fill="#cf3735"/>
      <path id="Path_900588" data-name="Path 900588" d="M148.543,15.017a7.69,7.69,0,0,1-4.71-6.432.76.76,0,0,0-.763-.69l-7.983.047h-.162l-7.983.047a.765.765,0,0,0-.756.711,7.691,7.691,0,0,1-4.641,6.479,1.1,1.1,0,0,0-.658,1.125c.367,3.5,2.5,15.436,14.135,20.8a.361.361,0,0,0,.155.034.367.367,0,0,0,.155-.035c11.57-5.5,13.565-17.458,13.89-20.967A1.1,1.1,0,0,0,148.543,15.017Zm0,0" transform="translate(-108.192 -6.618)" fill="#75cff2"/>
      <path id="Path_900589" data-name="Path 900589" d="M248.307,15.017a7.69,7.69,0,0,1-4.71-6.432.76.76,0,0,0-.763-.69l-4.395.026a7.69,7.69,0,0,0,4.734,7.094,1.109,1.109,0,0,1,.684,1.123c-.3,3.253-2.039,13.767-11.513,19.667a23.949,23.949,0,0,0,2.442,1.3.369.369,0,0,0,.155.033.361.361,0,0,0,.155-.035c11.57-5.5,13.565-17.458,13.891-20.967A1.1,1.1,0,0,0,248.307,15.017Zm0,0" transform="translate(-207.956 -6.618)" fill="#53b4e4"/>
      <path id="Path_900590" data-name="Path 900590" d="M161.678,59.111c-7.961-4.321-10.27-12.335-10.932-16.268a.421.421,0,0,1,.191-.428,10.29,10.29,0,0,0,4.455-5.851.423.423,0,0,1,.4-.3l11.9-.07a.422.422,0,0,1,.407.3,10.291,10.291,0,0,0,4.524,5.8.42.42,0,0,1,.2.426c-.615,3.94-2.829,11.982-10.74,16.4A.426.426,0,0,1,161.678,59.111Zm0,0" transform="translate(-134.918 -31.945)" fill="#e1e0de"/>
      <path id="Path_900591" data-name="Path 900591" d="M245.525,42.288a10.293,10.293,0,0,1-4.524-5.8.422.422,0,0,0-.407-.3l-4.8.028a10.29,10.29,0,0,0,4.6,6.069.419.419,0,0,1,.2.424c-.55,3.522-2.378,10.321-8.41,14.877a20.135,20.135,0,0,0,2.389,1.522.426.426,0,0,0,.409,0c7.911-4.413,10.125-12.455,10.74-16.4A.42.42,0,0,0,245.525,42.288Zm0,0" transform="translate(-207.812 -31.945)" fill="#d6d6d6"/>
      <path id="Path_900592" data-name="Path 900592" d="M33.071,393.666a2,2,0,1,1-2-2A2,2,0,0,1,33.071,393.666Zm0,0" transform="translate(-26.022 -350.109)" fill="#ededed"/>
      <path id="Path_900593" data-name="Path 900593" d="M217.1,99.711a.8.8,0,0,0,1.2-.136l5.24-7.908a.787.787,0,1,0-1.312-.87L217.5,97.923l-2.624-2.491a.787.787,0,0,0-1.084,1.142Zm0,0" transform="translate(-191.131 -80.504)"/>
      <path id="Path_900594" data-name="Path 900594" d="M127.991,31.215a1.166,1.166,0,0,0,.483.105h.007a1.152,1.152,0,0,0,.488-.112c11.971-5.693,14-17.977,14.336-21.606a1.882,1.882,0,0,0-1.161-1.92,6.88,6.88,0,0,1-4.228-5.774A1.555,1.555,0,0,0,136.373.5h-.009L120.235.595A1.542,1.542,0,0,0,118.7,2.032a6.881,6.881,0,0,1-4.166,5.816,1.875,1.875,0,0,0-1.132,1.93C113.781,13.4,115.954,25.662,127.991,31.215ZM115.153,9.295a8.448,8.448,0,0,0,5.115-7.126l16.081-.094a8.45,8.45,0,0,0,5.19,7.062.317.317,0,0,1,.2.321c-.316,3.4-2.2,14.869-13.266,20.243-11.125-5.243-13.147-16.689-13.5-20.086A.31.31,0,0,1,115.153,9.295Zm0,0" transform="translate(-101.489)"/>
      <path id="Path_900595" data-name="Path 900595" d="M143.841,38.986a.83.83,0,0,0,.966.553.788.788,0,0,0,.553-.966c-.2-.739-.369-1.488-.5-2.23a11.071,11.071,0,0,0,4.5-5.9l11.369-.067a11.071,11.071,0,0,0,4.573,5.85c-.123.744-.283,1.5-.476,2.237a.787.787,0,1,0,1.524.395c.226-.871.409-1.755.545-2.627a1.2,1.2,0,0,0-.567-1.221,9.5,9.5,0,0,1-4.178-5.356A1.217,1.217,0,0,0,161,28.8h-.007l-11.9.07a1.218,1.218,0,0,0-1.154.868,9.5,9.5,0,0,1-4.115,5.4,1.2,1.2,0,0,0-.553,1.228C143.412,37.237,143.606,38.118,143.841,38.986Zm0,0" transform="translate(-128.212 -25.327)"/>
      <path id="Path_900596" data-name="Path 900596" d="M179.5,147.594a.787.787,0,0,0-1.028.427,19.829,19.829,0,0,1-8.562,9.968,19.837,19.837,0,0,1-8.685-9.883.787.787,0,0,0-1.449.617,21.356,21.356,0,0,0,9.559,10.747,1.205,1.205,0,0,0,1.168-.007,21.349,21.349,0,0,0,9.426-10.841A.786.786,0,0,0,179.5,147.594Zm0,0" transform="translate(-142.944 -131.6)"/>
      <path id="Path_900597" data-name="Path 900597" d="M24.371,384.273a2.785,2.785,0,1,0,2.786,2.785A2.789,2.789,0,0,0,24.371,384.273Zm0,4a1.211,1.211,0,1,1,1.211-1.211A1.212,1.212,0,0,1,24.371,388.27Zm0,0" transform="translate(-19.32 -343.491)"/>
      <path id="Path_900598" data-name="Path 900598" d="M53.178,244.654a3.279,3.279,0,0,0-4.529-.876l-10.292,6.888-2.2-.123-.056-.563a4.778,4.778,0,0,0-4.095-4.268l-.041,0-11.089-.972c-.375-.059-1.576-.4-4.876-2.3a12.246,12.246,0,0,0-5.611-1.614v-2.06a1.876,1.876,0,0,0-1.874-1.874H1.874A1.877,1.877,0,0,0,0,238.765v20.284a1.877,1.877,0,0,0,1.874,1.874H8.518a1.877,1.877,0,0,0,1.874-1.874v-.559l9.694,3.671a5.421,5.421,0,0,0,2.256.166l16.107-2.322.012,0a7.919,7.919,0,0,0,3.753-1.681l.029-.025,10.4-9.356A3.279,3.279,0,0,0,53.178,244.654ZM51.6,247.767,41.2,257.113a6.343,6.343,0,0,1-2.987,1.334l-16.095,2.32-.014,0H22.1a3.535,3.535,0,0,1-1.491-.1l-10.218-3.869v-8.991a.787.787,0,0,0-1.574,0v11.233a.3.3,0,0,1-.3.3H1.874a.3.3,0,0,1-.3-.3V238.765a.3.3,0,0,1,.3-.3H8.518a.3.3,0,0,1,.3.3v5.5a.787.787,0,0,0,1.574,0V242.4a10.663,10.663,0,0,1,4.827,1.4c3.98,2.283,5.092,2.44,5.457,2.492l.041,0,11.091.972a3.208,3.208,0,0,1,2.73,2.862l.042.419-14.848.917-.03,0a1.794,1.794,0,0,1-1.225-.641.787.787,0,0,0-1.209,1.008,3.409,3.409,0,0,0,2.294,1.2c.486.051,15.884-.959,15.884-.959l3.087.173a.785.785,0,0,0,.482-.132l10.512-7.035a1.7,1.7,0,0,1,2.07,2.682Zm0,0" transform="translate(0 -211.578)"/>
    </g>
  </g>
</svg>
