<svg xmlns="http://www.w3.org/2000/svg" xmlns:xlink="http://www.w3.org/1999/xlink" width="109.652" height="109.653" viewBox="0 0 109.652 109.653">
  <defs>
    <filter id="Path_874925" x="0" y="0" width="109.652" height="109.653" filterUnits="userSpaceOnUse">
      <feOffset dy="3" input="SourceAlpha"/>
      <feGaussianBlur stdDeviation="3" result="blur"/>
      <feFlood flood-opacity="0.161"/>
      <feComposite operator="in" in2="blur"/>
      <feComposite in="SourceGraphic"/>
    </filter>
  </defs>
  <g id="Group_1111490" data-name="Group 1111490" transform="translate(-325 -1367)">
    <g id="Group_1111211" data-name="Group 1111211" transform="translate(-685.73 -1704)">
      <g transform="matrix(1, 0, 0, 1, 1010.73, 3071)" filter="url(#Path_874925)">
        <g id="Path_874925-2" data-name="Path 874925" transform="translate(9 6)" fill="#ffd63c">
          <path d="M 45.82614517211914 90.15280151367188 C 39.84149551391602 90.15280151367188 34.03665924072266 88.98104095458984 28.5728702545166 86.67005157470703 C 23.29473304748535 84.43759155273438 18.55415725708008 81.24130249023438 14.48283290863037 77.16998291015625 C 10.41150760650635 73.09866333007812 7.215232849121094 68.35809326171875 4.982757568359375 63.07994079589844 C 2.671770095825195 57.61616897583008 1.500007629394531 51.81131744384766 1.500007629394531 45.82666778564453 C 1.500007629394531 39.84149169921875 2.671770095825195 34.03665542602539 4.982757568359375 28.57286643981934 C 7.215232849121094 23.29472923278809 10.41150760650635 18.55415534973145 14.48283290863037 14.48283004760742 C 18.55415725708008 10.4115047454834 23.29473304748535 7.215229511260986 28.5728702545166 4.982754707336426 C 34.03665924072266 2.671766996383667 39.84149551391602 1.500004529953003 45.82614517211914 1.500004529953003 C 51.81079483032227 1.500004529953003 57.61564636230469 2.671766996383667 63.07942199707031 4.982754707336426 C 68.35756683349609 7.215229511260986 73.09814453125 10.4115047454834 77.16947174072266 14.48283004760742 C 81.24078369140625 18.55415534973145 84.43707275390625 23.29472923278809 86.66954803466797 28.57286643981934 C 88.98052978515625 34.03665542602539 90.15229797363281 39.84149169921875 90.15229797363281 45.82614135742188 C 90.15229797363281 51.81131744384766 88.98052978515625 57.61616897583008 86.66954803466797 63.07994079589844 C 84.43707275390625 68.35809326171875 81.24078369140625 73.09866333007812 77.16947174072266 77.16998291015625 C 73.09814453125 81.24130249023438 68.35756683349609 84.43759155273438 63.07942199707031 86.67005157470703 C 57.61564636230469 88.98104095458984 51.81079483032227 90.15280151367188 45.82614517211914 90.15280151367188 Z" stroke="none"/>
          <path d="M 45.82614517211914 3.000007629394531 C 40.04333114624023 3.000007629394531 34.43508911132812 4.131904602050781 29.15720367431641 6.364265441894531 C 24.05784606933594 8.521102905273438 19.47753143310547 11.60944366455078 15.54348754882812 15.54348754882812 C 11.60944366455078 19.47753143310547 8.521102905273438 24.05784606933594 6.3642578125 29.15720367431641 C 4.131904602050781 34.43508911132812 3 40.0433349609375 3 45.82667541503906 C 3 51.60948944091797 4.131904602050781 57.21773147583008 6.3642578125 62.49562072753906 C 8.521102905273438 67.59497833251953 11.60944366455078 72.17527770996094 15.54348754882812 76.10932922363281 C 19.47753143310547 80.04337310791016 24.05784606933594 83.13170623779297 29.15718841552734 85.28854370117188 C 34.43508911132812 87.52090454101562 40.04333114624023 88.65280151367188 45.82614517211914 88.65280151367188 C 51.60895919799805 88.65280151367188 57.21720123291016 87.52090454101562 62.49510192871094 85.28854370117188 C 67.59444427490234 83.13170623779297 72.17475891113281 80.04337310791016 76.10880279541016 76.10932922363281 C 80.0428466796875 72.17527770996094 83.13118743896484 67.59497833251953 85.28803253173828 62.49562072753906 C 87.5203857421875 57.21773147583008 88.65229034423828 51.60948944091797 88.65229034423828 45.82614898681641 C 88.65229034423828 40.0433349609375 87.5203857421875 34.43508911132812 85.28803253173828 29.15720367431641 C 83.13118743896484 24.05784606933594 80.0428466796875 19.47753143310547 76.10880279541016 15.54348754882812 C 72.17475891113281 11.60944366455078 67.59444427490234 8.521102905273438 62.49508666992188 6.364265441894531 C 57.21720123291016 4.131904602050781 51.60895919799805 3.000007629394531 45.82614517211914 3.000007629394531 M 45.82614517211914 7.62939453125e-06 C 71.13523101806641 7.62939453125e-06 91.65229034423828 20.51705932617188 91.65229034423828 45.82614898681641 L 91.65229034423828 45.82667541503906 C 91.65229034423828 71.13575744628906 71.13523101806641 91.65280151367188 45.82614517211914 91.65280151367188 C 20.51705932617188 91.65280151367188 0 71.13575744628906 0 45.82667541503906 L 0 45.82614898681641 C 0 20.51705932617188 20.51705932617188 7.62939453125e-06 45.82614517211914 7.62939453125e-06 Z" stroke="none" fill="#fff"/>
        </g>
      </g>
    </g>
    <g id="derechos-animales" transform="translate(353.01 1380.472)">
      <g id="Group_1111488" data-name="Group 1111488" transform="translate(0.791 13.327)">
        <path id="Path_900313" data-name="Path 900313" d="M19.446,160.632l-.648-1.981a2.612,2.612,0,0,1,1.656-3.289h0a2.612,2.612,0,0,1,3.281,1.587l5.806,16-4.727,1.968Z" transform="translate(-17.478 -140.814)" fill="#ffac9b"/>
        <path id="Path_900314" data-name="Path 900314" d="M19.431,225.7V221.09a3.054,3.054,0,0,0-1.051-2.305l-6.043-5.251a3.055,3.055,0,0,1-.945-1.509L7.571,197.868a2.038,2.038,0,0,1,1.507-2.516h0a2.038,2.038,0,0,1,2.376,1.292l4.288,11.846,8.373,6.368v12.067H20.653A1.221,1.221,0,0,1,19.431,225.7Z" transform="translate(-7.5 -176.615)" fill="#ffdece"/>
        <path id="Path_900315" data-name="Path 900315" d="M58.807,298.244l-.9-2.481a2.63,2.63,0,0,0-1.076,4.756l6.033,4.133a1.568,1.568,0,0,0,2.195-.43h0l1.06-.415Z" transform="translate(-50.565 -266.369)" fill="#ffcdbc"/>
        <path id="Path_900316" data-name="Path 900316" d="M76.848,291.893h0a2.632,2.632,0,0,1,3.505-.664l8.415,5.249a3.054,3.054,0,0,1,1.438,2.591v11.982a1.221,1.221,0,0,1-1.221,1.221H85.606l-2.119-12.458-6.029-4.192A2.632,2.632,0,0,1,76.848,291.893Z" transform="translate(-68.991 -261.963)" fill="#ffdece"/>
        <path id="Path_900317" data-name="Path 900317" d="M94.237,296.483l-8.415-5.249a2.631,2.631,0,0,0-3.372.5c.066.034.132.07.2.11l8.415,5.249a3.054,3.054,0,0,1,1.438,2.591v11.493a1.22,1.22,0,0,1-.692,1.1h2.646a1.221,1.221,0,0,0,1.221-1.221V299.074A3.054,3.054,0,0,0,94.237,296.483Z" transform="translate(-74.46 -261.967)" fill="#ffcdbc"/>
        <path id="Path_900318" data-name="Path 900318" d="M401.428,160.632l.648-1.981a2.612,2.612,0,0,0-1.656-3.289h0a2.612,2.612,0,0,0-3.281,1.587l-5.806,16,4.727,1.968Z" transform="translate(-350.415 -140.814)" fill="#ffac9b"/>
        <path id="Path_900319" data-name="Path 900319" d="M353.325,225.7v-4.614a3.054,3.054,0,0,1,1.051-2.305l6.043-5.251a3.054,3.054,0,0,0,.945-1.509l3.821-14.156a2.038,2.038,0,0,0-1.507-2.516h0a2.038,2.038,0,0,0-2.376,1.292l-4.288,11.846-8.373,6.368v12.067H352.1A1.221,1.221,0,0,0,353.325,225.7Z" transform="translate(-312.275 -176.614)" fill="#ffdece"/>
        <path id="Path_900320" data-name="Path 900320" d="M365.888,298.244l.9-2.481a2.63,2.63,0,0,1,1.076,4.756l-6.033,4.133a1.568,1.568,0,0,1-2.195-.43h0l-1.06-.415Z" transform="translate(-321.149 -266.369)" fill="#ffcdbc"/>
        <path id="Path_900321" data-name="Path 900321" d="M318.855,291.893h0a2.632,2.632,0,0,0-3.505-.664l-8.415,5.249a3.054,3.054,0,0,0-1.437,2.591v11.982a1.221,1.221,0,0,0,1.221,1.221H310.1l2.119-12.458,6.029-4.192A2.632,2.632,0,0,0,318.855,291.893Z" transform="translate(-273.73 -261.963)" fill="#ffdece"/>
        <path id="Path_900322" data-name="Path 900322" d="M152.078,34.385c0,7.7-5.173,13.829-12.87,13.829-.443,0-.882.086-1.314.045a13.937,13.937,0,0,1,0-27.75c.433-.041.871.045,1.314.045C146.9,20.556,152.078,26.688,152.078,34.385Z" transform="translate(-112.717 -20.449)" fill="#bbec6c"/>
        <path id="Path_900323" data-name="Path 900323" d="M244.984,20.027c-.443,0-.882.022-1.314.062a13.936,13.936,0,0,1,0,27.748c.433.041.871.062,1.314.062a13.936,13.936,0,0,0,0-27.872Z" transform="translate(-218.494 -20.027)" fill="#97d729"/>
        <path id="Path_900324" data-name="Path 900324" d="M321.519,120.111a2.967,2.967,0,0,0,1.2,2.524,1.607,1.607,0,0,0,.906.164c1.164,0,1.042-1.144,1.042-2.688s.122-2.688-1.042-2.688a1.607,1.607,0,0,0-.906.164A2.968,2.968,0,0,0,321.519,120.111Z" transform="translate(-288.044 -107.04)" fill="#fe5694"/>
        <path id="Path_900325" data-name="Path 900325" d="M333.7,116.424a1.685,1.685,0,0,0-.906.271,3.25,3.25,0,0,1,0,5.047,1.685,1.685,0,0,0,.906.271c1.164,0,2.108-1.251,2.108-2.794S334.864,116.424,333.7,116.424Z" transform="translate(-298.117 -106.148)" fill="#fe0364"/>
        <path id="Path_900326" data-name="Path 900326" d="M269.29,73.173a2.968,2.968,0,0,0,1.2,2.524,1.607,1.607,0,0,0,.906.164c1.164,0,1.042-1.144,1.042-2.688s.122-2.688-1.042-2.688a1.607,1.607,0,0,0-.906.164A2.968,2.968,0,0,0,269.29,73.173Z" transform="translate(-241.383 -65.106)" fill="#fe5694"/>
        <path id="Path_900327" data-name="Path 900327" d="M281.471,69.486a1.685,1.685,0,0,0-.906.271,3.25,3.25,0,0,1,0,5.047,1.685,1.685,0,0,0,.906.271c1.164,0,2.108-1.251,2.108-2.794S282.635,69.486,281.471,69.486Z" transform="translate(-251.456 -64.214)" fill="#fe0364"/>
        <path id="Path_900328" data-name="Path 900328" d="M203.16,73.173a2.968,2.968,0,0,0,1.2,2.524,1.607,1.607,0,0,0,.906.164c1.164,0,1.042-1.144,1.042-2.688s.122-2.688-1.042-2.688a1.607,1.607,0,0,0-.906.164A2.968,2.968,0,0,0,203.16,73.173Z" transform="translate(-182.302 -65.106)" fill="#fe5694"/>
        <path id="Path_900329" data-name="Path 900329" d="M215.341,69.486a1.685,1.685,0,0,0-.906.271,3.25,3.25,0,0,1,0,5.047,1.685,1.685,0,0,0,.906.271c1.164,0,2.108-1.251,2.108-2.794S216.505,69.486,215.341,69.486Z" transform="translate(-192.375 -64.214)" fill="#fe0364"/>
        <path id="Path_900330" data-name="Path 900330" d="M150.931,120.11a2.968,2.968,0,0,0,1.2,2.524,1.607,1.607,0,0,0,.906.164c1.164,0,1.042-1.144,1.042-2.688s.122-2.688-1.042-2.688a1.607,1.607,0,0,0-.906.164A2.968,2.968,0,0,0,150.931,120.11Z" transform="translate(-135.641 -107.04)" fill="#fe5694"/>
        <path id="Path_900331" data-name="Path 900331" d="M163.112,116.424a1.685,1.685,0,0,0-.906.271,3.25,3.25,0,0,1,0,5.047,1.685,1.685,0,0,0,.906.271c1.164,0,2.108-1.251,2.108-2.794S164.276,116.424,163.112,116.424Z" transform="translate(-145.714 -106.148)" fill="#fe0364"/>
        <path id="Path_900332" data-name="Path 900332" d="M202.7,143.9a2.754,2.754,0,0,1,2.2,1.621l.622,1.322a3.93,3.93,0,0,0,1.92,2.007h0c1.43.585,1.289,1.372.61,2.76h0c-.528,1.078-1.034,1.593-2.214,1.371l.044-.1c-.372-.07-.735.194-1.11.149a17.349,17.349,0,0,0-5.271.172h0a2.67,2.67,0,0,1-2.891-1.451h0A2.67,2.67,0,0,1,198,148.1h0a3.727,3.727,0,0,0,1.961-1.862l.622-1.322a2.337,2.337,0,0,1,.783-.926c.384-.266.847-.093,1.333-.093Z" transform="translate(-176.213 -130.644)" fill="#fe5694"/>
        <g id="Group_1111487" data-name="Group 1111487" transform="translate(25.158 12.93)">
          <path id="Path_900333" data-name="Path 900333" d="M249.532,145.85h0a3.727,3.727,0,0,1-1.961-1.862l-.622-1.322a2.337,2.337,0,0,0-3.449-.925,2.336,2.336,0,0,1,.784.925l.622,1.322a3.728,3.728,0,0,0,1.961,1.862h0a2.67,2.67,0,0,1,1.387,3.645h0a2.666,2.666,0,0,1-1.347,1.279q.563.068,1.122.172h0a2.67,2.67,0,0,0,2.891-1.451h0A2.67,2.67,0,0,0,249.532,145.85Z" transform="translate(-243.5 -141.323)" fill="#fe0364"/>
        </g>
      </g>
      <g id="Group_1111489" data-name="Group 1111489" transform="translate(-0.009 12.528)">
        <path id="Trazado_900334" data-name="Trazado 900334" d="M21.665,163.754a.8.8,0,0,1-.752-.527l-4.62-12.734a1.812,1.812,0,0,0-3.426,1.181.8.8,0,1,1-1.52.5,3.411,3.411,0,0,1,6.449-2.223l4.62,12.734a.8.8,0,0,1-.752,1.072Z" transform="translate(-9.986 -133.286)"/>
        <path id="Trazado_900335" data-name="Trazado 900335" d="M395.756,163.754a.8.8,0,0,1-.752-1.072l4.62-12.734a3.411,3.411,0,0,1,6.449,2.223l-.235.72a.8.8,0,0,1-1.52-.5l.235-.72a1.812,1.812,0,0,0-3.426-1.181l-4.62,12.734A.8.8,0,0,1,395.756,163.754Z" transform="translate(-352.852 -133.286)"/>
        <path id="Trazado_900336" data-name="Trazado 900336" d="M8.33,200.646a.8.8,0,0,1-.752-.528l-3.584-9.9a1.238,1.238,0,0,0-2.36.744l1.7,6.292a.8.8,0,0,1-1.544.417l-1.7-6.292A2.837,2.837,0,0,1,5.5,189.671l3.584,9.9a.8.8,0,0,1-.752,1.072Z" transform="translate(0.009 -169.115)"/>
        <path id="Trazado_900337" data-name="Trazado 900337" d="M43.229,306.421h-6.84a2.023,2.023,0,0,1-2.021-2.021v-4.614a2.254,2.254,0,0,0-.776-1.7l-6.043-5.251a3.841,3.841,0,0,1-1.193-1.9l-1.215-4.5a.8.8,0,0,1,1.544-.417l1.215,4.5a2.247,2.247,0,0,0,.7,1.114l6.043,5.251a3.852,3.852,0,0,1,1.326,2.909V304.4a.423.423,0,0,0,.422.422h6.84a.422.422,0,0,0,.422-.422V292.418a2.241,2.241,0,0,0-1.061-1.913l-8.415-5.249a1.842,1.842,0,0,0-2.44.462,1.832,1.832,0,0,0,.425,2.6l6.029,4.192a.8.8,0,0,1-.913,1.313l-6.029-4.192a3.431,3.431,0,0,1-.8-4.863,3.45,3.45,0,0,1,4.57-.865l8.415,5.249a3.831,3.831,0,0,1,1.814,3.269V304.4A2.023,2.023,0,0,1,43.229,306.421Z" transform="translate(-22.436 -254.512)"/>
        <path id="Trazado_900338" data-name="Trazado 900338" d="M306.858,221.024h-6.84A2.023,2.023,0,0,1,298,219v-5.154a.8.8,0,1,1,1.6,0V219a.422.422,0,0,0,.422.422h6.84a.422.422,0,0,0,.422-.422v-4.614a3.852,3.852,0,0,1,1.326-2.909l6.043-5.251a2.247,2.247,0,0,0,.7-1.114l3.821-14.156a1.238,1.238,0,0,0-2.36-.744l-3.584,9.9a.8.8,0,0,1-1.5-.544l3.585-9.9a2.837,2.837,0,0,1,5.407,1.7l-3.821,14.156a3.841,3.841,0,0,1-1.193,1.9l-6.043,5.251a2.254,2.254,0,0,0-.776,1.7V219A2.023,2.023,0,0,1,306.858,221.024Z" transform="translate(-266.229 -169.115)"/>
        <path id="Trazado_900339" data-name="Trazado 900339" d="M298.8,296.561a.8.8,0,0,1-.8-.8v-3.343a3.831,3.831,0,0,1,1.814-3.269l8.415-5.249a3.45,3.45,0,0,1,4.57.865,3.431,3.431,0,0,1-.8,4.863l-6.029,4.192a.8.8,0,1,1-.913-1.313l6.029-4.192a1.832,1.832,0,0,0,.425-2.6,1.842,1.842,0,0,0-2.44-.462l-8.415,5.249a2.241,2.241,0,0,0-1.061,1.913v3.343A.8.8,0,0,1,298.8,296.561Z" transform="translate(-266.229 -254.512)"/>
        <path id="Elipse_11770" data-name="Elipse 11770" d="M7.235-7.5A14.735,14.735,0,1,1-7.5,7.235,14.752,14.752,0,0,1,7.235-7.5Zm0,27.872A13.136,13.136,0,1,0-5.9,7.235,13.151,13.151,0,0,0,7.235,20.372Z" transform="translate(20.056 7.5)"/>
        <path id="Elipse_11771" data-name="Elipse 11771" d="M-4.592-7.5c1.6,0,2.908,1.612,2.908,3.594S-2.989-.312-4.592-.312-7.5-1.924-7.5-3.906-6.2-7.5-4.592-7.5Zm0,5.589c.709,0,1.309-.914,1.309-1.995S-3.883-5.9-4.592-5.9-5.9-4.987-5.9-3.906-5.3-1.911-4.592-1.911Z" transform="translate(40.976 17.776)"/>
        <path id="Elipse_11772" data-name="Elipse 11772" d="M-4.592-7.5c1.6,0,2.908,1.612,2.908,3.594S-2.989-.312-4.592-.312-7.5-1.924-7.5-3.906-6.2-7.5-4.592-7.5Zm0,5.589c.709,0,1.309-.914,1.309-1.995S-3.883-5.9-4.592-5.9-5.9-4.987-5.9-3.906-5.3-1.911-4.592-1.911Z" transform="translate(28.359 12.772)"/>
        <path id="Elipse_11773" data-name="Elipse 11773" d="M-4.592-7.5c1.6,0,2.908,1.612,2.908,3.594S-2.989-.312-4.592-.312-7.5-1.924-7.5-3.906-6.2-7.5-4.592-7.5Zm0,5.589c.709,0,1.309-.914,1.309-1.995S-3.883-5.9-4.592-5.9-5.9-4.987-5.9-3.906-5.3-1.911-4.592-1.911Z" transform="translate(35.408 12.772)"/>
        <path id="Elipse_11774" data-name="Elipse 11774" d="M-4.592-7.5c1.6,0,2.908,1.612,2.908,3.594S-2.989-.312-4.592-.312-7.5-1.924-7.5-3.906-6.2-7.5-4.592-7.5Zm0,5.589c.709,0,1.309-.914,1.309-1.995S-3.883-5.9-4.592-5.9-5.9-4.987-5.9-3.906-5.3-1.911-4.592-1.911Z" transform="translate(22.791 17.776)"/>
        <path id="Trazado_900340" data-name="Trazado 900340" d="M199.7,145.092a3.446,3.446,0,0,1-.635-.059,16.6,16.6,0,0,0-2.792-.281.8.8,0,1,1,.025-1.6,18.2,18.2,0,0,1,3.062.308,1.876,1.876,0,0,0,2.025-1.016,1.871,1.871,0,0,0-.972-2.554,4.516,4.516,0,0,1-2.381-2.262l-.622-1.322a1.54,1.54,0,0,0-2.787,0L194,137.629a4.515,4.515,0,0,1-2.381,2.262,1.871,1.871,0,0,0-.972,2.554,1.876,1.876,0,0,0,2.025,1.016.8.8,0,1,1,.295,1.572,3.47,3.47,0,0,1-1.954-6.622,2.92,2.92,0,0,0,1.54-1.463l.622-1.322a3.139,3.139,0,0,1,5.68,0l.622,1.322a2.921,2.921,0,0,0,1.54,1.463,3.47,3.47,0,0,1-1.318,6.681Z" transform="translate(-168.727 -120.894)"/>
      </g>
    </g>
  </g>
</svg>
