<svg xmlns="http://www.w3.org/2000/svg" xmlns:xlink="http://www.w3.org/1999/xlink" width="109.652" height="109.652" viewBox="0 0 109.652 109.652">
  <defs>
    <filter id="Path_874925" x="0" y="0" width="109.652" height="109.652" filterUnits="userSpaceOnUse">
      <feOffset dy="3" input="SourceAlpha"/>
      <feGaussianBlur stdDeviation="3" result="blur"/>
      <feFlood flood-opacity="0.161"/>
      <feComposite operator="in" in2="blur"/>
      <feComposite in="SourceGraphic"/>
    </filter>
  </defs>
  <g id="Group_1111482" data-name="Group 1111482" transform="translate(3714.596 10553.09)">
    <g id="Group_1111213" data-name="Group 1111213" transform="translate(-4725.326 -13624.09)">
      <g transform="matrix(1, 0, 0, 1, 1010.73, 3071)" filter="url(#Path_874925)">
        <g id="Path_874925-2" data-name="Path 874925" transform="translate(9 6)" fill="#ffd63c">
          <path d="M 45.82614517211914 90.15280151367188 C 39.84149551391602 90.15280151367188 34.03665924072266 88.98104095458984 28.5728702545166 86.67005157470703 C 23.29473304748535 84.43759155273438 18.55415725708008 81.24130249023438 14.48283290863037 77.16998291015625 C 10.41150760650635 73.09866333007812 7.215232849121094 68.35809326171875 4.982757568359375 63.07994079589844 C 2.671770095825195 57.61616897583008 1.500007629394531 51.81131744384766 1.500007629394531 45.82666778564453 C 1.500007629394531 39.84149169921875 2.671770095825195 34.03665542602539 4.982757568359375 28.57286643981934 C 7.215232849121094 23.29472923278809 10.41150760650635 18.55415534973145 14.48283290863037 14.48283004760742 C 18.55415725708008 10.4115047454834 23.29473304748535 7.215229511260986 28.5728702545166 4.982754707336426 C 34.03665924072266 2.671766996383667 39.84149551391602 1.500004529953003 45.82614517211914 1.500004529953003 C 51.81079483032227 1.500004529953003 57.61564636230469 2.671766996383667 63.07942199707031 4.982754707336426 C 68.35756683349609 7.215229511260986 73.09814453125 10.4115047454834 77.16947174072266 14.48283004760742 C 81.24078369140625 18.55415534973145 84.43707275390625 23.29472923278809 86.66954803466797 28.57286643981934 C 88.98052978515625 34.03665542602539 90.15229797363281 39.84149169921875 90.15229797363281 45.82614135742188 C 90.15229797363281 51.81131744384766 88.98052978515625 57.61616897583008 86.66954803466797 63.07994079589844 C 84.43707275390625 68.35809326171875 81.24078369140625 73.09866333007812 77.16947174072266 77.16998291015625 C 73.09814453125 81.24130249023438 68.35756683349609 84.43759155273438 63.07942199707031 86.67005157470703 C 57.61564636230469 88.98104095458984 51.81079483032227 90.15280151367188 45.82614517211914 90.15280151367188 Z" stroke="none"/>
          <path d="M 45.82614517211914 3.000007629394531 C 40.04333114624023 3.000007629394531 34.43508911132812 4.131904602050781 29.15720367431641 6.364265441894531 C 24.05784606933594 8.521102905273438 19.47753143310547 11.60944366455078 15.54348754882812 15.54348754882812 C 11.60944366455078 19.47753143310547 8.521102905273438 24.05784606933594 6.3642578125 29.15720367431641 C 4.131904602050781 34.43508911132812 3 40.0433349609375 3 45.82667541503906 C 3 51.60948944091797 4.131904602050781 57.21773147583008 6.3642578125 62.49562072753906 C 8.521102905273438 67.59497833251953 11.60944366455078 72.17527770996094 15.54348754882812 76.10932922363281 C 19.47753143310547 80.04337310791016 24.05784606933594 83.13170623779297 29.15718841552734 85.28854370117188 C 34.43508911132812 87.52090454101562 40.04333114624023 88.65280151367188 45.82614517211914 88.65280151367188 C 51.60895919799805 88.65280151367188 57.21720123291016 87.52090454101562 62.49510192871094 85.28854370117188 C 67.59444427490234 83.13170623779297 72.17475891113281 80.04337310791016 76.10880279541016 76.10932922363281 C 80.0428466796875 72.17527770996094 83.13118743896484 67.59497833251953 85.28803253173828 62.49562072753906 C 87.5203857421875 57.21773147583008 88.65229034423828 51.60948944091797 88.65229034423828 45.82614898681641 C 88.65229034423828 40.0433349609375 87.5203857421875 34.43508911132812 85.28803253173828 29.15720367431641 C 83.13118743896484 24.05784606933594 80.0428466796875 19.47753143310547 76.10880279541016 15.54348754882812 C 72.17475891113281 11.60944366455078 67.59444427490234 8.521102905273438 62.49508666992188 6.364265441894531 C 57.21720123291016 4.131904602050781 51.60895919799805 3.000007629394531 45.82614517211914 3.000007629394531 M 45.82614517211914 7.62939453125e-06 C 71.13523101806641 7.62939453125e-06 91.65229034423828 20.51705932617188 91.65229034423828 45.82614898681641 L 91.65229034423828 45.82667541503906 C 91.65229034423828 71.13575744628906 71.13523101806641 91.65280151367188 45.82614517211914 91.65280151367188 C 20.51705932617188 91.65280151367188 0 71.13575744628906 0 45.82667541503906 L 0 45.82614898681641 C 0 20.51705932617188 20.51705932617188 7.62939453125e-06 45.82614517211914 7.62939453125e-06 Z" stroke="none" fill="#fff"/>
        </g>
      </g>
    </g>
    <g id="v2" transform="translate(-3686.71 -10562.755)">
      <g id="Group_1111458" data-name="Group 1111458" transform="translate(35.433 44.284)">
        <path id="Path_900273" data-name="Path 900273" d="M332.158,82.808a1.5,1.5,0,0,0-2.813.885l-.162,3.076a9.2,9.2,0,0,1,4.748-1.687Z" transform="translate(-329.183 -82.023)" fill="#2b4d66" fill-rule="evenodd"/>
      </g>
      <g id="Group_1111459" data-name="Group 1111459" transform="translate(41.405 44.284)">
        <path id="Path_900274" data-name="Path 900274" d="M386.433,82.808l-1.773,2.273a9.214,9.214,0,0,1,4.748,1.687l-.162-3.076a1.5,1.5,0,0,0-2.813-.885Z" transform="translate(-384.66 -82.023)" fill="#2b4d66" fill-rule="evenodd"/>
      </g>
      <g id="Group_1111460" data-name="Group 1111460" transform="translate(1.029 40.539)">
        <path id="Path_900275" data-name="Path 900275" d="M14.566,47.436c-1.257-.809-3.454.912-4.632,2.664a2.249,2.249,0,0,0,.613,3.112l.082.055a2.25,2.25,0,0,0,3.03-.665C15.244,50.246,15.824,48.248,14.566,47.436Z" transform="translate(-9.556 -47.23)" fill="#365e7d" fill-rule="evenodd"/>
      </g>
      <g id="Group_1111461" data-name="Group 1111461" transform="translate(35.592 73.978)">
        <path id="Path_900276" data-name="Path 900276" d="M336.75,357.891a19.4,19.4,0,0,1-6.094.961l.549,7.22h4.815Z" transform="translate(-330.656 -357.891)" fill="#d0cee7" fill-rule="evenodd"/>
      </g>
      <g id="Group_1111462" data-name="Group 1111462" transform="translate(3.741 51.363)">
        <path id="Path_900277" data-name="Path 900277" d="M50.641,147.789c-2.5,1.318-12.837,11.1-15.886,13.057.043,4.29.244,7.748.586,12.267l.415,5.468h4.815l.494-6.048a7.174,7.174,0,0,0,.964.064H57.006l.452,5.984h4.815l.65-7.256c.308-.037,1.8.082,3.683.037A19.4,19.4,0,0,0,72.7,170.4c2.038-.763,3.579-2.106,3.585-4.44l0-.842c-4.324-6.109-7.528-15.465-16.429-17.308C59.932,147.771,52.767,147.789,50.641,147.789Z" transform="translate(-34.755 -147.785)" fill="#dddaec" fill-rule="evenodd"/>
      </g>
      <g id="Group_1111463" data-name="Group 1111463" transform="translate(46.553 48.941)">
        <path id="Path_900278" data-name="Path 900278" d="M436.988,126.4a3.983,3.983,0,0,0-4.5-.711c0,2.029.621,3.039,1.185,4.793.223.684.807,1.177,2.153,1.474,2.069-.345,4.04-1.547,4.357-3.048C440.491,127.436,439.514,129.044,436.988,126.4Z" transform="translate(-432.484 -125.291)" fill="#2b4d66" fill-rule="evenodd"/>
      </g>
      <g id="Group_1111464" data-name="Group 1111464" transform="translate(27.273 48.941)">
        <path id="Path_900279" data-name="Path 900279" d="M256.618,126.4a6.731,6.731,0,0,1-1.675,1.34c-1.276.674-1.745.085-1.517,1.169.317,1.5,2.3,2.664,4.367,3.009,1.241-.7,3.738-4.2,3.329-6.228A3.984,3.984,0,0,0,256.618,126.4Z" transform="translate(-253.371 -125.291)" fill="#2b4d66" fill-rule="evenodd"/>
      </g>
      <g id="Group_1111465" data-name="Group 1111465" transform="translate(3.735 51.367)">
        <path id="Path_900280" data-name="Path 900280" d="M46.107,147.824A11.41,11.41,0,0,0,34.7,159.237c0,.561,0,1.111.006,1.645,1.227.662,6.03,2.664,7.885-1.388,3-6.552,9-.549,8-11.669Z" transform="translate(-34.698 -147.824)" fill="#365e7d" fill-rule="evenodd"/>
      </g>
      <g id="Group_1111466" data-name="Group 1111466" transform="translate(36.141 82.159)">
        <path id="Path_900281" data-name="Path 900281" d="M335.759,433.9l.162,2.13a1.232,1.232,0,0,0,1.193,1.193h3.451c1.254,0,1.486-.915.983-1.733l-.973-1.59h-4.815Z" transform="translate(-335.759 -433.895)" fill="#365e7d" fill-rule="evenodd"/>
      </g>
      <g id="Group_1111467" data-name="Group 1111467" transform="translate(26.444 82.159)">
        <path id="Path_900282" data-name="Path 900282" d="M245.667,433.9l.162,2.13a1.234,1.234,0,0,0,1.193,1.193h3.454c1.251,0,1.483-.915.983-1.733l-.977-1.59h-4.815Z" transform="translate(-245.667 -433.895)" fill="#365e7d" fill-rule="evenodd"/>
      </g>
      <g id="Group_1111468" data-name="Group 1111468" transform="translate(14.235 76.175)">
        <path id="Path_900283" data-name="Path 900283" d="M132.245,378.3l.455,5.984h4.815l.534-5.984Z" transform="translate(-132.245 -378.303)" fill="#d0cee7" fill-rule="evenodd"/>
      </g>
      <g id="Group_1111469" data-name="Group 1111469" transform="translate(14.69 82.159)">
        <path id="Path_900284" data-name="Path 900284" d="M141.284,433.9h-4.815l.162,2.13a1.232,1.232,0,0,0,1.193,1.193h3.451c1.254,0,1.486-.915.983-1.733Z" transform="translate(-136.469 -433.895)" fill="#365e7d" fill-rule="evenodd"/>
      </g>
      <g id="Group_1111470" data-name="Group 1111470" transform="translate(12.533 63.488)">
        <path id="Path_900285" data-name="Path 900285" d="M120.915,262.108a3.769,3.769,0,0,0-3.552.992,3.276,3.276,0,0,0,.388,4.9c1.242,1.019,3.073,1.2,4.119-.421a5.065,5.065,0,0,1,1.828-1.739c1.178-.668,2.273-.8,2.737-2.185A2.382,2.382,0,0,0,122.672,261C122,261.562,121.763,262.291,120.915,262.108Z" transform="translate(-116.436 -260.434)" fill="#365e7d" fill-rule="evenodd"/>
      </g>
      <g id="Group_1111471" data-name="Group 1111471" transform="translate(26.38 57.79)">
        <path id="Path_900286" data-name="Path 900286" d="M245.612,215.792c-2.819,3.75,6.374,8.779,8.141,1.678-.049-.043-.1-.085-.146-.131-2.734-2.447-3.311-4.385-2.609-5.822l-.156-1.983c-.052-.677-.162-1.355-.259-2.035C244,207.471,248.337,212.17,245.612,215.792Z" transform="translate(-245.079 -207.498)" fill="#365e7d" fill-rule="evenodd"/>
      </g>
      <g id="Group_1111472" data-name="Group 1111472" transform="translate(4.742 82.159)">
        <path id="Path_900287" data-name="Path 900287" d="M48.868,433.9H44.053l.162,2.13a1.232,1.232,0,0,0,1.193,1.193h3.454c1.251,0,1.483-.915.98-1.733Z" transform="translate(-44.053 -433.895)" fill="#365e7d" fill-rule="evenodd"/>
      </g>
      <g id="Group_1111473" data-name="Group 1111473" transform="translate(31.695 47.324)">
        <path id="Path_900288" data-name="Path 900288" d="M303.543,110.261a9.258,9.258,0,0,0-8.809,6.414,6.148,6.148,0,0,0-.284,1.828,14.393,14.393,0,0,0,.189,2.225c.1.68.208,1.358.259,2.035l.082,1.044.073.94c1.953-2.191,15-1.883,16.954.235l.223-2.911c.1-1.34.412-2.383.415-3.528a5.779,5.779,0,0,0-.293-1.868,9.257,9.257,0,0,0-8.809-6.414Z" transform="translate(-294.449 -110.261)" fill="#f9f6f6" fill-rule="evenodd"/>
      </g>
      <g id="Group_1111474" data-name="Group 1111474" transform="translate(32.027 58.725)">
        <path id="Path_900289" data-name="Path 900289" d="M314.759,219.5c-1.831-4.324-14.891-4.446-16.954-.235-.7,1.437-.125,3.375,2.609,5.822l.147.131a10.66,10.66,0,0,0,1.571,1.132,7.988,7.988,0,0,0,5.419,1.071,8.549,8.549,0,0,0,3.228-1.269,10.831,10.831,0,0,0,1.394-1.065C314.756,222.778,315.357,220.914,314.759,219.5Z" transform="translate(-297.532 -216.179)" fill="#d09080" fill-rule="evenodd"/>
      </g>
      <g id="Group_1111475" data-name="Group 1111475" transform="translate(41.255 47.333)">
        <path id="Path_900290" data-name="Path 900290" d="M388.568,112.352a9.209,9.209,0,0,0-5.3-2,9.313,9.313,0,0,1,5.5,5.807,5.947,5.947,0,0,1,.293,1.868c-.006,1.144-.317,2.188-.418,3.528l-.091,1.217a4.776,4.776,0,0,1,2.716,2.292l.223-2.911c.1-1.34.412-2.383.415-3.528a5.779,5.779,0,0,0-.293-1.868A9.248,9.248,0,0,0,388.568,112.352Z" transform="translate(-383.271 -110.347)" fill="#dddaec" fill-rule="evenodd"/>
      </g>
      <g id="Group_1111476" data-name="Group 1111476" transform="translate(33.789 59.753)">
        <path id="Path_900291" data-name="Path 900291" d="M325.531,229.806a13.587,13.587,0,0,1-1.465,1.51,11.06,11.06,0,0,1-1.394,1.065,8.612,8.612,0,0,1-3.231,1.269,8.01,8.01,0,0,1-5.419-1.071l-.119-.073a14.822,14.822,0,0,0,1.12,1.1l.147.131a10.662,10.662,0,0,0,1.571,1.132,7.988,7.988,0,0,0,5.419,1.071,8.549,8.549,0,0,0,3.228-1.269,10.831,10.831,0,0,0,1.394-1.065c2.582-2.307,3.183-4.171,2.585-5.587a4.776,4.776,0,0,0-2.716-2.292,2.706,2.706,0,0,1,.208,1.2A5.084,5.084,0,0,1,325.531,229.806Z" transform="translate(-313.902 -225.729)" fill="#ce775f" fill-rule="evenodd"/>
      </g>
      <g id="Group_1111477" data-name="Group 1111477" transform="translate(33.703 67.762)">
        <path id="Path_900292" data-name="Path 900292" d="M321.451,302.346a7.987,7.987,0,0,1-5.419-1.071,10.65,10.65,0,0,1-1.571-1.132,5.171,5.171,0,0,1-1.352,2.545c.027.021.052.046.076.067,2.243,1.974,5.88,2.383,10.634,1.764a4.113,4.113,0,0,0,.857-2.6l0-.842A8.546,8.546,0,0,1,321.451,302.346Z" transform="translate(-313.109 -300.143)" fill="#d0cee7" fill-rule="evenodd"/>
      </g>
      <g id="Group_1111478" data-name="Group 1111478" transform="translate(29.898 57.79)">
        <path id="Path_900293" data-name="Path 900293" d="M279.745,207.5a8.042,8.042,0,0,0-1.986.2c.235,1.608.348,3.158.473,4.779-.3,2.225-.174,4.373,3.332,7.54a5.171,5.171,0,0,0,1.352-2.545l-.146-.131a14.846,14.846,0,0,1-1.12-1.1c-1.764-1.935-2.081-3.506-1.489-4.721l-.073-.94L280,209.534C279.952,208.856,279.842,208.179,279.745,207.5Z" transform="translate(-277.758 -207.498)" fill="#2b4d66" fill-rule="evenodd"/>
      </g>
      <g id="Group_1111479" data-name="Group 1111479" transform="translate(24.611 51.364)">
        <path id="Path_900294" data-name="Path 900294" d="M235.725,152a7.873,7.873,0,0,1-2.115-.662,3.793,3.793,0,0,1-2.252-2.347c-.229-1.083.241-.494,1.517-1.169.034-.018-2.212-.024-4.193-.024-.577,5.163,5.035,5.212,5.245,6.625a8.04,8.04,0,0,1,1.986-.2A14.389,14.389,0,0,1,235.725,152Z" transform="translate(-228.641 -147.794)" fill="#d0cee7" fill-rule="evenodd"/>
      </g>
      <g id="Group_1111481" data-name="Group 1111481" transform="translate(0 39.732)">
        <path id="Path_900295" data-name="Path 900295" d="M339.271,174.059a.807.807,0,0,0-.807.807v.619a.807.807,0,0,0,1.615,0v-.619A.807.807,0,0,0,339.271,174.059Z" transform="translate(-302.032 -159.6)"/>
        <path id="Path_900296" data-name="Path 900296" d="M405.3,174.059a.807.807,0,0,0-.807.807v.619a.807.807,0,1,0,1.615,0v-.619A.807.807,0,0,0,405.3,174.059Z" transform="translate(-360.949 -159.6)"/>
        <path id="Path_900297" data-name="Path 900297" d="M347.039,252.246a.807.807,0,0,0-.807.807v1.306a.807.807,0,0,0,1.615,0v-1.306A.807.807,0,0,0,347.039,252.246Z" transform="translate(-308.964 -229.371)"/>
        <path id="Path_900298" data-name="Path 900298" d="M397.527,255.168a.807.807,0,0,0,.807-.807v-1.306a.807.807,0,1,0-1.615,0v1.306A.807.807,0,0,0,397.527,255.168Z" transform="translate(-354.017 -229.372)"/>
        <g id="Group_1111480" data-name="Group 1111480" transform="translate(0 0)">
          <path id="Path_900299" data-name="Path 900299" d="M119.3,253.452a3.109,3.109,0,0,0-3.824.2,5.491,5.491,0,0,0-.582.582c-.343.383-.366.38-.487.353a4.567,4.567,0,0,0-4.332,1.251,4.063,4.063,0,0,0-.84,4.263,4.4,4.4,0,0,0,3.53,2.739q.169.017.335.016a3.253,3.253,0,0,0,2.77-1.572,4.768,4.768,0,0,1,2.329-1.864,3.678,3.678,0,0,0,2.324-2.243A3.185,3.185,0,0,0,119.3,253.452Zm-.309,3.214c-.231.691-.618.894-1.47,1.289a6.28,6.28,0,0,0-3.007,2.453,1.617,1.617,0,0,1-1.591.824,2.822,2.822,0,0,1-2.187-1.73,2.417,2.417,0,0,1,.559-2.606,2.754,2.754,0,0,1,2.057-.809,3.382,3.382,0,0,1,.715.076h0a2,2,0,0,0,2.031-.853,4.086,4.086,0,0,1,.415-.421,1.512,1.512,0,0,1,1.879-.1A1.583,1.583,0,0,1,118.992,256.667Z" transform="translate(-97.227 -229.945)"/>
          <path id="Path_900300" data-name="Path 900300" d="M54.931,51.5A1.313,1.313,0,0,0,54,50.977a4.109,4.109,0,0,1-2.359-1.487,4.748,4.748,0,0,0-4.716-1.16L46.8,45.909a2.3,2.3,0,0,0-4.256-1.337l-1.52,1.949c-.075,0-.149,0-.224,0s-.155,0-.233,0l-1.521-1.95a2.3,2.3,0,0,0-4.255,1.34l-.127,2.422a4.755,4.755,0,0,0-4.725,1.158,6.4,6.4,0,0,1-1.271,1.068H15.144A12.238,12.238,0,0,0,3.615,58.739,11.593,11.593,0,0,1,2.539,47.62a3.013,3.013,0,0,0,.723.089,3.09,3.09,0,0,0,.6-.058A3.031,3.031,0,0,0,5.8,46.361c1.354-2.013,1.916-3.639,1.67-4.832a2.24,2.24,0,0,0-1-1.463C4.649,38.891,2.02,41.05.737,42.958l0,0a3.06,3.06,0,0,0,.384,3.862A13.459,13.459,0,0,0,3.094,60.768a12.252,12.252,0,0,0-.166,2.011c0,.555,0,1.093.007,1.618q0,.033,0,.066c.041,4.354.244,7.8.586,12.289l.577,7.6a2.032,2.032,0,0,0,2,1.94H9.551a1.926,1.926,0,0,0,1.823-.915,2.019,2.019,0,0,0-.155-2.047l-.836-1.365.407-4.983q.112,0,.225,0h2.472l.559,7.367a2.032,2.032,0,0,0,2,1.94H19.5a1.929,1.929,0,0,0,1.826-.916,2.018,2.018,0,0,0-.155-2.046l-.834-1.362.446-4.983h4.465l.4,5.242c0,.008,0,.016,0,.023l.159,2.105a2.037,2.037,0,0,0,2,1.937h3.454a1.928,1.928,0,0,0,1.822-.914,2.023,2.023,0,0,0-.152-2.049l-.836-1.362.56-6.248.109,0c.53.017,1.253.041,2.089.038l.653,8.591a2.032,2.032,0,0,0,2,1.94h3.451a1.929,1.929,0,0,0,1.826-.916,2.018,2.018,0,0,0-.155-2.046l-.834-1.362.662-7.432a7.031,7.031,0,0,0,2.108-1.35,4.9,4.9,0,0,0,1.523-3.643l0-.414a11.877,11.877,0,0,0,1.127-.894c2.526-2.259,3.5-4.35,2.9-6.214-.007-.022-.016-.043-.023-.065s.008-.052.01-.079l.156-1.986c.042-.529.119-1.058.2-1.619.1-.659.195-1.328.234-2.007,1.941-.489,3.971-1.723,4.355-3.539A1.56,1.56,0,0,0,54.931,51.5ZM2.078,43.858c1.189-1.767,2.931-2.815,3.523-2.435a.618.618,0,0,1,.29.431c.07.341.071,1.375-1.429,3.606a1.437,1.437,0,0,1-2.385-1.6Zm41.736,1.708c.358-.457.718-.508.836-.461a.809.809,0,0,0,.111.035c.125.03.393.279.425.856l.082,1.561a10.039,10.039,0,0,0-2.366-.82ZM36.4,46c.032-.579.3-.828.426-.858a.84.84,0,0,1,.2-.048,1.044,1.044,0,0,1,.747.474l.914,1.172-.07.017a10.028,10.028,0,0,0-2.3.807Zm-5.3,4.61a3.034,3.034,0,0,1,2.291-.856A10.047,10.047,0,0,0,31.22,53.49a6.922,6.922,0,0,0-.257,1.081,4.058,4.058,0,0,1-2.814-2.065A5.821,5.821,0,0,0,31.1,50.607Zm3.036,17.415a3.237,3.237,0,0,1-2.58,2.477,4.36,4.36,0,0,1-4.067-1.9,1.7,1.7,0,0,1,.066-2.033,7.433,7.433,0,0,0,1.193-4.922c-.017-1.213-.005-1.979.434-2.422a3.2,3.2,0,0,1,2.059-.613c.023.19.045.382.06.582l.188,2.445c-.036.084-.069.168-.1.255C30.791,63.719,31.714,65.779,34.139,68.023ZM9.965,84.587a.648.648,0,0,1-.413.088H6.1a.435.435,0,0,1-.388-.447l-.1-1.261H9.105l.738,1.206a.575.575,0,0,1,.121.415Zm9.947,0a.651.651,0,0,1-.416.089H16.045a.435.435,0,0,1-.388-.447l-.1-1.261h3.492l.738,1.206A.574.574,0,0,1,19.912,84.586Zm-1.145-3.234H15.438l-.331-4.369h4.051Zm12.9,3.235c-.012.018-.125.088-.414.088H27.8a.438.438,0,0,1-.388-.447l-.1-1.262h3.492l.739,1.2A.579.579,0,0,1,31.667,84.587Zm9.7,0a.651.651,0,0,1-.416.089H37.5a.436.436,0,0,1-.388-.447l-.1-1.261H40.5l.738,1.206a.576.576,0,0,1,.121.414Zm-1.146-3.234H36.889l-.429-5.636a21.481,21.481,0,0,0,4.314-.613Zm3.216-9.33A5.815,5.815,0,0,1,41.474,73.2a.8.8,0,0,0-.143.054,18.73,18.73,0,0,1-5.709.879.824.824,0,0,0-.092,0h-.009c-1.1.024-2.063-.008-2.714-.029a8.338,8.338,0,0,0-.991-.006.807.807,0,0,0-.712.73l-.584,6.521H27.193l-.4-5.238a.807.807,0,0,0-.805-.746H14.371c-.064-.011-3.355,0-3.355,0a6.389,6.389,0,0,1-.856-.057.807.807,0,0,0-.913.734l-.434,5.306H5.491L5.132,76.63c-.307-4.027-.5-7.2-.566-10.956a9.32,9.32,0,0,0,3.188.637,5.54,5.54,0,0,0,1.763-.271,4.735,4.735,0,0,0,2.842-2.667,5.871,5.871,0,0,1,1.581-2.162.807.807,0,0,0-1.023-1.249A7.439,7.439,0,0,0,10.892,62.7a3.143,3.143,0,0,1-1.887,1.809,6.654,6.654,0,0,1-4.459-.586c0-.374,0-.754,0-1.144a10.615,10.615,0,0,1,10.6-10.605H18.88c.322,4.975-1.033,5.555-1.944,5.945a.807.807,0,1,0,.635,1.485c1.973-.844,3.228-2.462,2.926-7.429h5.969a2.864,2.864,0,0,0,.073.55c.382,1.809,2.377,3.017,4.376,3.5.022.263.055.523.092.782a4.421,4.421,0,0,0-2.966,1.079c-.939.947-.921,2.286-.9,3.581a5.959,5.959,0,0,1-.869,3.929,3.306,3.306,0,0,0-.164,3.828,5.964,5.964,0,0,0,4.962,2.722,5,5,0,0,0,.728-.052,4.641,4.641,0,0,0,3.666-3,9.218,9.218,0,0,0,5.328,1.777,8.779,8.779,0,0,0,3.639-.808,3.225,3.225,0,0,1-.994,1.951Zm5.418-13.986c-.083.562-.168,1.144-.214,1.727l-.019.245a11.6,11.6,0,0,0-5.881-1.98.807.807,0,1,0-.168,1.606c3.186.333,5.541,1.465,6,2.882.484,1.5-1.059,3.28-2.438,4.514A10.266,10.266,0,0,1,44.87,68c-.021.012-.041.025-.06.038-3.041,1.939-6.448,1.6-9.363-1.007C33.4,65.2,32.532,63.6,32.929,62.4c.034-.1.085-.194.128-.293.68-1.269,2.942-2.238,5.925-2.506A.807.807,0,1,0,38.837,58a11.8,11.8,0,0,0-5.861,1.866l-.061-.791c-.047-.627-.136-1.177-.221-1.708a6.526,6.526,0,0,1,.062-3.379,8.451,8.451,0,0,1,16.085,0A8.874,8.874,0,0,1,48.851,58.035ZM50.629,54.6a6.536,6.536,0,0,0-.25-1.114A10.061,10.061,0,0,0,48.2,49.75a3.024,3.024,0,0,1,2.272.856,5.826,5.826,0,0,0,2.955,1.9A4.125,4.125,0,0,1,50.629,54.6Z" transform="translate(0 -39.732)"/>
        </g>
      </g>
    </g>
  </g>
</svg>
