<svg xmlns="http://www.w3.org/2000/svg" xmlns:xlink="http://www.w3.org/1999/xlink" width="109.652" height="109.652" viewBox="0 0 109.652 109.652">
  <defs>
    <filter id="Path_874925" x="0" y="0" width="109.652" height="109.652" filterUnits="userSpaceOnUse">
      <feOffset dy="3" input="SourceAlpha"/>
      <feGaussianBlur stdDeviation="3" result="blur"/>
      <feFlood flood-opacity="0.161"/>
      <feComposite operator="in" in2="blur"/>
      <feComposite in="SourceGraphic"/>
    </filter>
  </defs>
  <g id="Group_1111641" data-name="Group 1111641" transform="translate(-11890 9874)">
    <g id="Group_1111415" data-name="Group 1111415" transform="translate(10879.27 -12945)">
      <g transform="matrix(1, 0, 0, 1, 1010.73, 3071)" filter="url(#Path_874925)">
        <g id="Path_874925-2" data-name="Path 874925" transform="translate(9 6)" fill="#ffd63c">
          <path d="M 45.82614517211914 90.15280151367188 C 39.84149551391602 90.15280151367188 34.03665924072266 88.98104095458984 28.5728702545166 86.67005157470703 C 23.29473304748535 84.43759155273438 18.55415725708008 81.24130249023438 14.48283290863037 77.16998291015625 C 10.41150760650635 73.09866333007812 7.215232849121094 68.35809326171875 4.982757568359375 63.07994079589844 C 2.671770095825195 57.61616897583008 1.500007629394531 51.81131744384766 1.500007629394531 45.82666778564453 C 1.500007629394531 39.84149169921875 2.671770095825195 34.03665542602539 4.982757568359375 28.57286643981934 C 7.215232849121094 23.29472923278809 10.41150760650635 18.55415534973145 14.48283290863037 14.48283004760742 C 18.55415725708008 10.4115047454834 23.29473304748535 7.215229511260986 28.5728702545166 4.982754707336426 C 34.03665924072266 2.671766996383667 39.84149551391602 1.500004529953003 45.82614517211914 1.500004529953003 C 51.81079483032227 1.500004529953003 57.61564636230469 2.671766996383667 63.07942199707031 4.982754707336426 C 68.35756683349609 7.215229511260986 73.09814453125 10.4115047454834 77.16947174072266 14.48283004760742 C 81.24078369140625 18.55415534973145 84.43707275390625 23.29472923278809 86.66954803466797 28.57286643981934 C 88.98052978515625 34.03665542602539 90.15229797363281 39.84149169921875 90.15229797363281 45.82614135742188 C 90.15229797363281 51.81131744384766 88.98052978515625 57.61616897583008 86.66954803466797 63.07994079589844 C 84.43707275390625 68.35809326171875 81.24078369140625 73.09866333007812 77.16947174072266 77.16998291015625 C 73.09814453125 81.24130249023438 68.35756683349609 84.43759155273438 63.07942199707031 86.67005157470703 C 57.61564636230469 88.98104095458984 51.81079483032227 90.15280151367188 45.82614517211914 90.15280151367188 Z" stroke="none"/>
          <path d="M 45.82614517211914 3.000007629394531 C 40.04333114624023 3.000007629394531 34.43508911132812 4.131904602050781 29.15720367431641 6.364265441894531 C 24.05784606933594 8.521102905273438 19.47753143310547 11.60944366455078 15.54348754882812 15.54348754882812 C 11.60944366455078 19.47753143310547 8.521102905273438 24.05784606933594 6.3642578125 29.15720367431641 C 4.131904602050781 34.43508911132812 3 40.0433349609375 3 45.82667541503906 C 3 51.60948944091797 4.131904602050781 57.21773147583008 6.3642578125 62.49562072753906 C 8.521102905273438 67.59497833251953 11.60944366455078 72.17527770996094 15.54348754882812 76.10932922363281 C 19.47753143310547 80.04337310791016 24.05784606933594 83.13170623779297 29.15718841552734 85.28854370117188 C 34.43508911132812 87.52090454101562 40.04333114624023 88.65280151367188 45.82614517211914 88.65280151367188 C 51.60895919799805 88.65280151367188 57.21720123291016 87.52090454101562 62.49510192871094 85.28854370117188 C 67.59444427490234 83.13170623779297 72.17475891113281 80.04337310791016 76.10880279541016 76.10932922363281 C 80.0428466796875 72.17527770996094 83.13118743896484 67.59497833251953 85.28803253173828 62.49562072753906 C 87.5203857421875 57.21773147583008 88.65229034423828 51.60948944091797 88.65229034423828 45.82614898681641 C 88.65229034423828 40.0433349609375 87.5203857421875 34.43508911132812 85.28803253173828 29.15720367431641 C 83.13118743896484 24.05784606933594 80.0428466796875 19.47753143310547 76.10880279541016 15.54348754882812 C 72.17475891113281 11.60944366455078 67.59444427490234 8.521102905273438 62.49508666992188 6.364265441894531 C 57.21720123291016 4.131904602050781 51.60895919799805 3.000007629394531 45.82614517211914 3.000007629394531 M 45.82614517211914 7.62939453125e-06 C 71.13523101806641 7.62939453125e-06 91.65229034423828 20.51705932617188 91.65229034423828 45.82614898681641 L 91.65229034423828 45.82667541503906 C 91.65229034423828 71.13575744628906 71.13523101806641 91.65280151367188 45.82614517211914 91.65280151367188 C 20.51705932617188 91.65280151367188 0 71.13575744628906 0 45.82667541503906 L 0 45.82614898681641 C 0 20.51705932617188 20.51705932617188 7.62939453125e-06 45.82614517211914 7.62939453125e-06 Z" stroke="none" fill="#fff"/>
        </g>
      </g>
    </g>
    <g id="_x31_9_Save_Water" transform="translate(11918 -9857.635)">
      <g id="Group_1111639" data-name="Group 1111639" transform="translate(0.556 11.188)">
        <path id="Path_900620" data-name="Path 900620" d="M453.178,258.361v.858a.62.62,0,0,0,.62.62h4.3a.62.62,0,0,0,.62-.62v-.858a.62.62,0,0,0-.62-.62h-4.3A.62.62,0,0,0,453.178,258.361Z" transform="translate(-406.748 -232.674)" fill="#fff"/>
        <path id="Path_900621" data-name="Path 900621" d="M416.6,186.563v2.748h-4.136v-1.194a2.591,2.591,0,0,0-2.588-2.588h-2.908v-4.136h4.462A5.172,5.172,0,0,1,416.6,186.563Z" transform="translate(-365.333 -164.241)" fill="#9ec33b"/>
        <path id="Path_900622" data-name="Path 900622" d="M375.471,163v5.175a1.546,1.546,0,0,1-1.548,1.548h-2.1a19.318,19.318,0,0,0,0-8.271h2.1A1.546,1.546,0,0,1,375.471,163Z" transform="translate(-333.831 -146.364)" fill="#fccd43"/>
        <path id="Path_900623" data-name="Path 900623" d="M375.471,176.38v5.175a1.546,1.546,0,0,1-1.548,1.548h-2.1Z" transform="translate(-333.831 -159.748)" opacity="0.1"/>
        <path id="Path_900624" data-name="Path 900624" d="M43.8,35.186A19.214,19.214,0,0,1,24.582,54.408c-.439,0-.878-.016-1.306-.048A19.214,19.214,0,0,1,5.36,35.186a18.371,18.371,0,0,1,.1-1.878A19.22,19.22,0,0,1,43.8,35.186Z" transform="translate(-5.36 -15.97)" fill="#70c6ec"/>
        <path id="Path_900625" data-name="Path 900625" d="M90.414,104.627A19.229,19.229,0,0,1,59.7,109.492L88.142,83.7a19.226,19.226,0,0,1,2.272,20.928Z" transform="translate(-54.066 -76.676)" opacity="0.1"/>
        <g id="Group_1111637" data-name="Group 1111637" transform="translate(0 0)">
          <path id="Path_900626" data-name="Path 900626" d="M189.34,222.512c.005.661-.106,1.386-.137,2.073a19.179,19.179,0,0,1-13.874,5.914c-.439,0-.878-.016-1.306-.048a6.775,6.775,0,0,1,.413-2.766,2.361,2.361,0,0,1,.555-.952,5.125,5.125,0,0,1,1.269-.645c.428-.206.846-.619.772-1.09a1.4,1.4,0,0,0-.428-.693q-1.182-1.27-2.359-2.539a1.9,1.9,0,0,1-.693-1.4,1.771,1.771,0,0,1,.984-1.137,11.362,11.362,0,0,1,5.02-1.523,8.478,8.478,0,0,1-.227-2.75,2.838,2.838,0,0,1,1.465-2.222,4.145,4.145,0,0,1,1.566-.28,6.187,6.187,0,0,1,2.3.175,2.112,2.112,0,0,1,1.492,1.613c.106.91-.592,1.8-.365,2.687.2.777,1.01,1.19,1.64,1.682A5.082,5.082,0,0,1,189.34,222.512Z" transform="translate(-156.107 -192.06)" fill="#fff"/>
          <path id="Path_900627" data-name="Path 900627" d="M148.094,18.025q-.016,1.714-.042,3.427a1.553,1.553,0,0,1-.407,1.264c-.354.275-.846.19-1.291.233a2.28,2.28,0,0,0-2,1.83,3.1,3.1,0,0,1-.164.8c-.524,1.095-2.412.3-3.306,1.121s-.016,2.348-.4,3.491a1.614,1.614,0,0,1-3,.148,3.555,3.555,0,0,0-.418-.947c-.5-.582-1.476-.27-2.169-.6a1.919,1.919,0,0,1-.6-2.444c.344-.862.989-1.576,1.3-2.449a6.04,6.04,0,0,0,.212-2.465,5.581,5.581,0,0,0-2.29-4.533,19.232,19.232,0,0,1,14.583,1.122Z" transform="translate(-120.224 -15.967)" fill="#fff"/>
          <path id="Path_900628" data-name="Path 900628" d="M13.924,199.048a2.891,2.891,0,0,1-.666,1.508.185.185,0,0,1-.032.032A19.183,19.183,0,0,1,5.36,185.079a18.371,18.371,0,0,1,.1-1.878,3.124,3.124,0,0,1,2.475,2.116c.063.249.1.545.312.682a.77.77,0,0,0,.434.1,6.4,6.4,0,0,0,2.121-.317,1.52,1.52,0,0,1,.815-.132c.45.1.682.587.815,1.026a10.239,10.239,0,0,1,.444,3.121,1.364,1.364,0,0,1-.339,1.047,2.977,2.977,0,0,1-.915.344,2.048,2.048,0,0,0-.857,2.666,8.462,8.462,0,0,0,1.9,2.449A3.784,3.784,0,0,1,13.924,199.048Z" transform="translate(-5.36 -165.862)" fill="#fff"/>
        </g>
        <g id="Group_1111638" data-name="Group 1111638" transform="translate(46.451 31.626)">
          <path id="Path_900629" data-name="Path 900629" d="M468.763,324.381a1.456,1.456,0,1,1-2.913,0A13.945,13.945,0,0,1,467.309,321,13.969,13.969,0,0,1,468.763,324.381Z" transform="translate(-464.557 -320.997)" fill="#70c6ec"/>
          <path id="Path_900630" data-name="Path 900630" d="M458.879,414.256a2.749,2.749,0,1,1-5.5,0c0-1.519,2.754-6.387,2.754-6.387S458.879,412.737,458.879,414.256Z" transform="translate(-453.38 -398.862)" fill="#70c6ec"/>
        </g>
      </g>
      <g id="Group_1111640" data-name="Group 1111640" transform="translate(0 10.635)">
        <path id="Path_900631" data-name="Path 900631" d="M52.383,35.8V33.509a5.729,5.729,0,0,0-5.723-5.723H45.625V23.878h2.707a.553.553,0,0,0,0-1.106h-6.52a.553.553,0,1,0,0,1.106H44.52v3.908H42.748a2.1,2.1,0,0,0-2.1-2.068H38.989a19.643,19.643,0,0,0-10.31-12.966l-.03-.014h0a19.5,19.5,0,0,0-8.868-2.1A19.772,19.772,0,1,0,39,35.1H40.65a2.1,2.1,0,0,0,2.1-2.068h2.359a2.037,2.037,0,0,1,2.035,2.035V35.8a1.173,1.173,0,0,0-.705,1.074v.858a1.174,1.174,0,0,0,1.173,1.173h4.3a1.174,1.174,0,0,0,1.173-1.173v-.858A1.173,1.173,0,0,0,52.383,35.8ZM27.871,13.594q-.016,1.536-.038,3.073c-.013,1.149-.295.867-1.19.952a2.835,2.835,0,0,0-2.5,2.287,3.5,3.5,0,0,1-.118.66c-.309.646-2.153,0-3.182.954-1.146,1.057-.219,2.739-.551,3.72a1.113,1.113,0,0,1-.953.72c-1.108.053-1.046-1.161-1.52-1.7-.678-.793-1.8-.476-2.352-.743-.509-.242-.579-1.1-.326-1.74.324-.812.971-1.523,1.3-2.467a6.545,6.545,0,0,0,.243-2.689,6.026,6.026,0,0,0-1.741-4.232,18.61,18.61,0,0,1,4.834-.646,18.4,18.4,0,0,1,8.091,1.853Zm-14.144-.838a4.966,4.966,0,0,1,1.857,3.94,5.584,5.584,0,0,1-.182,2.243c-.281.8-.92,1.505-1.289,2.43a2.447,2.447,0,0,0,.878,3.144c.761.366,1.706.134,1.992.469.176.2.457,2.178,2.411,2.081a2.212,2.212,0,0,0,1.945-1.47c.418-1.235-.342-2.712.253-3.262.776-.716,3.309.422,3.611-2.028a1.725,1.725,0,0,1,1.536-1.583c1.332-.126,2.177-.146,2.2-2.04q.017-1.255.031-2.509A18.651,18.651,0,0,1,34.329,42.1a5.594,5.594,0,0,0-2.116-4.8c-.594-.464-1.3-.834-1.445-1.384-.17-.661.5-1.587.378-2.617a2.647,2.647,0,0,0-1.862-2.069,7.936,7.936,0,0,0-4.27.127,3.349,3.349,0,0,0-1.782,2.648,7.413,7.413,0,0,0,.119,2.329A11.95,11.95,0,0,0,18.7,37.885c-1.516.9-1.671,2.019-.414,3.384,2.344,2.534,2.62,2.768,2.647,2.942.05.321-.642.587-.853.672a2.455,2.455,0,0,0-1.718,1.742,7.62,7.62,0,0,0-.454,2.34A18.5,18.5,0,0,1,9.2,45.775c.986-1.629.348-3.14-.934-4.527a8.208,8.208,0,0,1-1.8-2.276c-.267-.678-.127-1.7.538-1.947s1.587-.215,1.61-1.9a10.748,10.748,0,0,0-.468-3.289c-.412-1.368-1.184-1.653-2.33-1.26a6.214,6.214,0,0,1-2.063.293,3.427,3.427,0,0,0-2.5-2.736A18.61,18.61,0,0,1,13.727,12.756ZM1.151,29.277c1.9.81,1.144,1.962,1.984,2.509.673.448,2.372,0,3.088-.176.473-.162.64-.226.873.548a9.632,9.632,0,0,1,.421,2.952c-.012.86-.211.623-.895.881a2.583,2.583,0,0,0-1.177,3.386A8.782,8.782,0,0,0,7.457,42c.894.968,1.485,1.98.845,3.119A18.7,18.7,0,0,1,1.151,29.277ZM19.018,49.045A6.482,6.482,0,0,1,19.406,47c.267-.733.433-.828,1.09-1.092.883-.354,1.682-.928,1.534-1.87-.094-.6-.3-.682-2.927-3.52-.729-.792-.8-1.11.163-1.682a10.812,10.812,0,0,1,4.774-1.449.553.553,0,0,0,.51-.657,8.085,8.085,0,0,1-.223-2.567,2.322,2.322,0,0,1,1.152-1.8,7.139,7.139,0,0,1,3.45-.083,1.587,1.587,0,0,1,1.12,1.154c.087.752-.627,1.69-.351,2.761.257.995,1.182,1.47,1.834,1.979,1.856,1.457,1.731,3.134,1.588,5.289A18.525,18.525,0,0,1,19.78,49.073c-.256,0-.508-.017-.762-.028ZM41.645,32.995a1,1,0,0,1-1,1H39.228a19.6,19.6,0,0,0-.005-7.166H40.65a1,1,0,0,1,1,1v5.175Zm3.461-1.073H42.751v-3.03H46.66a4.622,4.622,0,0,1,4.617,4.617V35.7h-3.03v-.64A3.144,3.144,0,0,0,45.107,31.922Zm6.872,5.811a.067.067,0,0,1-.067.067h-4.3a.067.067,0,0,1-.067-.067v-.858a.067.067,0,0,1,.067-.067h4.3a.067.067,0,0,1,.067.067Z" transform="translate(0 -10.635)"/>
        <path id="Path_900632" data-name="Path 900632" d="M464.563,319.6a12.367,12.367,0,0,0-1.525-3.655.553.553,0,0,0-.481-.281h0a.553.553,0,0,0-.481.281c-.359.634-1.53,2.774-1.53,3.655a2.009,2.009,0,1,0,4.018,0Zm-2.913,0a8.6,8.6,0,0,1,.9-2.216,8.615,8.615,0,0,1,.9,2.216.9.9,0,1,1-1.807,0Z" transform="translate(-412.795 -284.04)"/>
        <path id="Path_900633" data-name="Path 900633" d="M451.381,402.534h0a.553.553,0,0,0-.481.281c-.289.511-2.825,5.041-2.825,6.659a3.3,3.3,0,1,0,6.6,0c0-1.618-2.528-6.147-2.816-6.659A.554.554,0,0,0,451.381,402.534Zm0,9.141a2.2,2.2,0,0,1-2.2-2.2c0-.855,1.2-3.379,2.2-5.238.994,1.86,2.193,4.383,2.193,5.238A2.2,2.2,0,0,1,451.381,411.675Z" transform="translate(-401.617 -361.902)"/>
      </g>
    </g>
  </g>
</svg>
