<svg xmlns="http://www.w3.org/2000/svg" xmlns:xlink="http://www.w3.org/1999/xlink" width="109.652" height="109.653" viewBox="0 0 109.652 109.653">
  <defs>
    <filter id="Path_874925" x="0" y="0" width="109.652" height="109.653" filterUnits="userSpaceOnUse">
      <feOffset dy="3" input="SourceAlpha"/>
      <feGaussianBlur stdDeviation="3" result="blur"/>
      <feFlood flood-opacity="0.161"/>
      <feComposite operator="in" in2="blur"/>
      <feComposite in="SourceGraphic"/>
    </filter>
  </defs>
  <g id="Group_1111589" data-name="Group 1111589" transform="translate(-430 -1555)">
    <g id="Group_1111211" data-name="Group 1111211" transform="translate(-580.73 -1516)">
      <g transform="matrix(1, 0, 0, 1, 1010.73, 3071)" filter="url(#Path_874925)">
        <g id="Path_874925-2" data-name="Path 874925" transform="translate(9 6)" fill="#ffd63c">
          <path d="M 45.82614517211914 90.15280151367188 C 39.84149551391602 90.15280151367188 34.03665924072266 88.98104095458984 28.5728702545166 86.67005157470703 C 23.29473304748535 84.43759155273438 18.55415725708008 81.24130249023438 14.48283290863037 77.16998291015625 C 10.41150760650635 73.09866333007812 7.215232849121094 68.35809326171875 4.982757568359375 63.07994079589844 C 2.671770095825195 57.61616897583008 1.500007629394531 51.81131744384766 1.500007629394531 45.82666778564453 C 1.500007629394531 39.84149169921875 2.671770095825195 34.03665542602539 4.982757568359375 28.57286643981934 C 7.215232849121094 23.29472923278809 10.41150760650635 18.55415534973145 14.48283290863037 14.48283004760742 C 18.55415725708008 10.4115047454834 23.29473304748535 7.215229511260986 28.5728702545166 4.982754707336426 C 34.03665924072266 2.671766996383667 39.84149551391602 1.500004529953003 45.82614517211914 1.500004529953003 C 51.81079483032227 1.500004529953003 57.61564636230469 2.671766996383667 63.07942199707031 4.982754707336426 C 68.35756683349609 7.215229511260986 73.09814453125 10.4115047454834 77.16947174072266 14.48283004760742 C 81.24078369140625 18.55415534973145 84.43707275390625 23.29472923278809 86.66954803466797 28.57286643981934 C 88.98052978515625 34.03665542602539 90.15229797363281 39.84149169921875 90.15229797363281 45.82614135742188 C 90.15229797363281 51.81131744384766 88.98052978515625 57.61616897583008 86.66954803466797 63.07994079589844 C 84.43707275390625 68.35809326171875 81.24078369140625 73.09866333007812 77.16947174072266 77.16998291015625 C 73.09814453125 81.24130249023438 68.35756683349609 84.43759155273438 63.07942199707031 86.67005157470703 C 57.61564636230469 88.98104095458984 51.81079483032227 90.15280151367188 45.82614517211914 90.15280151367188 Z" stroke="none"/>
          <path d="M 45.82614517211914 3.000007629394531 C 40.04333114624023 3.000007629394531 34.43508911132812 4.131904602050781 29.15720367431641 6.364265441894531 C 24.05784606933594 8.521102905273438 19.47753143310547 11.60944366455078 15.54348754882812 15.54348754882812 C 11.60944366455078 19.47753143310547 8.521102905273438 24.05784606933594 6.3642578125 29.15720367431641 C 4.131904602050781 34.43508911132812 3 40.0433349609375 3 45.82667541503906 C 3 51.60948944091797 4.131904602050781 57.21773147583008 6.3642578125 62.49562072753906 C 8.521102905273438 67.59497833251953 11.60944366455078 72.17527770996094 15.54348754882812 76.10932922363281 C 19.47753143310547 80.04337310791016 24.05784606933594 83.13170623779297 29.15718841552734 85.28854370117188 C 34.43508911132812 87.52090454101562 40.04333114624023 88.65280151367188 45.82614517211914 88.65280151367188 C 51.60895919799805 88.65280151367188 57.21720123291016 87.52090454101562 62.49510192871094 85.28854370117188 C 67.59444427490234 83.13170623779297 72.17475891113281 80.04337310791016 76.10880279541016 76.10932922363281 C 80.0428466796875 72.17527770996094 83.13118743896484 67.59497833251953 85.28803253173828 62.49562072753906 C 87.5203857421875 57.21773147583008 88.65229034423828 51.60948944091797 88.65229034423828 45.82614898681641 C 88.65229034423828 40.0433349609375 87.5203857421875 34.43508911132812 85.28803253173828 29.15720367431641 C 83.13118743896484 24.05784606933594 80.0428466796875 19.47753143310547 76.10880279541016 15.54348754882812 C 72.17475891113281 11.60944366455078 67.59444427490234 8.521102905273438 62.49508666992188 6.364265441894531 C 57.21720123291016 4.131904602050781 51.60895919799805 3.000007629394531 45.82614517211914 3.000007629394531 M 45.82614517211914 7.62939453125e-06 C 71.13523101806641 7.62939453125e-06 91.65229034423828 20.51705932617188 91.65229034423828 45.82614898681641 L 91.65229034423828 45.82667541503906 C 91.65229034423828 71.13575744628906 71.13523101806641 91.65280151367188 45.82614517211914 91.65280151367188 C 20.51705932617188 91.65280151367188 0 71.13575744628906 0 45.82667541503906 L 0 45.82614898681641 C 0 20.51705932617188 20.51705932617188 7.62939453125e-06 45.82614517211914 7.62939453125e-06 Z" stroke="none" fill="#fff"/>
        </g>
      </g>
    </g>
    <g id="buscar" transform="translate(459 1580)">
      <g id="Group_1111567" data-name="Group 1111567" transform="translate(3.884 0.795)">
        <g id="Group_1111561" data-name="Group 1111561" transform="translate(0.324)">
          <g id="Group_1111553" data-name="Group 1111553" transform="translate(14.508)">
            <g id="Group_1111551" data-name="Group 1111551">
              <path id="Path_900482" data-name="Path 900482" d="M205.637,20.888h-2.261a1.266,1.266,0,0,1-1.2-.869,10.349,10.349,0,0,0-.562-1.347,1.165,1.165,0,0,1,.214-1.35h0a2.509,2.509,0,0,0,.131-3.447,2.464,2.464,0,0,0-3.566-.086h0a1.267,1.267,0,0,1-1.461.232,10.332,10.332,0,0,0-1.284-.531,1.265,1.265,0,0,1-.869-1.2V9.963A2.463,2.463,0,0,0,192.319,7.5h0a2.463,2.463,0,0,0-2.464,2.463v2.33a1.265,1.265,0,0,1-.869,1.2,10.342,10.342,0,0,0-1.284.531,1.267,1.267,0,0,1-1.461-.232h0a2.463,2.463,0,0,0-3.484,0h0a2.463,2.463,0,0,0,0,3.484h0a1.267,1.267,0,0,1,.232,1.461,10.349,10.349,0,0,0-.531,1.284,1.265,1.265,0,0,1-1.2.869H179a2.509,2.509,0,0,0-2.53,2.344,2.464,2.464,0,0,0,2.461,2.583h2.331a1.265,1.265,0,0,1,1.2.869,10.361,10.361,0,0,0,.531,1.285,1.267,1.267,0,0,1-.232,1.461h0a2.463,2.463,0,0,0,0,3.484h0a2.463,2.463,0,0,0,3.484,0h0a1.267,1.267,0,0,1,1.461-.232,10.346,10.346,0,0,0,1.284.531,1.265,1.265,0,0,1,.869,1.2v2.33a2.463,2.463,0,0,0,2.463,2.463h0a2.463,2.463,0,0,0,2.464-2.463V34.409a1.266,1.266,0,0,1,.869-1.2,10.333,10.333,0,0,0,1.284-.531,1.267,1.267,0,0,1,1.461.232h0a2.463,2.463,0,0,0,3.484,0h0a2.463,2.463,0,0,0,0-3.484h0a1.267,1.267,0,0,1-.232-1.461,10.329,10.329,0,0,0,.531-1.285,1.265,1.265,0,0,1,1.2-.869h2.331a2.464,2.464,0,0,0,2.461-2.583A2.509,2.509,0,0,0,205.637,20.888Z" transform="translate(-176.468 -7.5)" fill="#fcb44d"/>
              <path id="Path_900483" data-name="Path 900483" d="M309.435,23.232a2.464,2.464,0,0,1-2.462,2.582h-2.33a1.265,1.265,0,0,0-1.2.869,10.264,10.264,0,0,1-.531,1.284,1.282,1.282,0,0,0-.136.574,1.251,1.251,0,0,0,.367.887,2.463,2.463,0,0,1-3.483,3.484,1.27,1.27,0,0,0-1.462-.232,10.279,10.279,0,0,1-1.284.531,1.267,1.267,0,0,0-.868,1.2v2.33a2.464,2.464,0,0,1-4.928,0v-2.33a1.267,1.267,0,0,0-.868-1.2c-.17-.057-.339-.119-.5-.186a10.958,10.958,0,0,0,1.369-20.66.574.574,0,0,0,0-.073V9.963a2.464,2.464,0,0,1,4.928,0v2.33a1.265,1.265,0,0,0,.868,1.2,10.263,10.263,0,0,1,1.284.531,1.3,1.3,0,0,0,.573.135,1.258,1.258,0,0,0,.89-.367,2.462,2.462,0,0,1,3.565.087,2.4,2.4,0,0,1,.625,1.629,2.577,2.577,0,0,1-.755,1.818,1.161,1.161,0,0,0-.214,1.349,10.413,10.413,0,0,1,.562,1.346,1.265,1.265,0,0,0,1.2.87h2.26A2.51,2.51,0,0,1,309.435,23.232Z" transform="translate(-277.735 -7.5)" fill="#fb9927"/>
            </g>
            <g id="Group_1111552" data-name="Group 1111552" transform="translate(11.421 9.671)">
              <circle id="Ellipse_11785" data-name="Ellipse 11785" cx="2.985" cy="2.985" r="2.985" transform="translate(0 0)" fill="#fee7c9"/>
              <path id="Path_900484" data-name="Path 900484" d="M302.026,101.672a2.985,2.985,0,0,1-4.557,2.537,2.576,2.576,0,0,0,0-5.075,2.986,2.986,0,0,1,4.558,2.538Z" transform="translate(-296.055 -98.686)" fill="#ffd496"/>
            </g>
          </g>
          <g id="Group_1111560" data-name="Group 1111560" transform="translate(0 12.287)">
            <g id="Group_1111557" data-name="Group 1111557">
              <g id="Group_1111556" data-name="Group 1111556" transform="translate(22.194 21.606)">
                <g id="Group_1111554" data-name="Group 1111554" transform="translate(0 0)">
                  <rect id="Rectangle_404799" data-name="Rectangle 404799" width="3.858" height="9.303" transform="translate(0 2.728) rotate(-45)" fill="#e1dde1"/>
                </g>
                <g id="Group_1111555" data-name="Group 1111555" transform="translate(3.202 3.201)">
                  <path id="Path_900485" data-name="Path 900485" d="M294.446,367.677,284.3,357.535a1.015,1.015,0,0,0-1.435,0l-3.448,3.448a1.015,1.015,0,0,0,0,1.435l10.142,10.142a1.015,1.015,0,0,0,1.435,0l3.448-3.448A1.015,1.015,0,0,0,294.446,367.677Z" transform="translate(-279.124 -357.238)" fill="#629bd5"/>
                  <path id="Path_900486" data-name="Path 900486" d="M296.939,357.537l10.142,10.142a1.014,1.014,0,0,1,0,1.435l-2.246,2.246a1.015,1.015,0,0,0,0-1.435l-10.142-10.142a1.015,1.015,0,0,0-1.435,0l2.246-2.246A1.014,1.014,0,0,1,296.939,357.537Z" transform="translate(-291.76 -357.24)" fill="#4089cd"/>
                  <path id="Path_900487" data-name="Path 900487" d="M286.86,360.091l-2.555-2.555a1.015,1.015,0,0,0-1.435,0l-3.448,3.448a1.015,1.015,0,0,0,0,1.435l2.555,2.555Z" transform="translate(-279.125 -357.239)" fill="#72f4c3"/>
                  <path id="Path_900488" data-name="Path 900488" d="M299.52,360.091l-2.555-2.555a1.015,1.015,0,0,0-1.435,0l-2.243,2.243a1.015,1.015,0,0,1,1.432,0l2.555,2.555Z" transform="translate(-291.785 -357.239)" fill="#23f1a8"/>
                </g>
              </g>
              <circle id="Ellipse_11786" data-name="Ellipse 11786" cx="14.457" cy="14.457" r="14.457" transform="translate(0 0)" fill="#629bd5"/>
              <path id="Path_900489" data-name="Path 900489" d="M72.348,123.5h-.01a14.465,14.465,0,0,0-14.643,7.117,8.5,8.5,0,0,0,14.774-5.745c0-.1,0-.2-.006-.3a14.459,14.459,0,0,1-4.017,27.582,14.458,14.458,0,0,0,3.9-28.65Z" transform="translate(-55.783 -123.345)" fill="#4089cd"/>
            </g>
            <g id="Group_1111559" data-name="Group 1111559" transform="translate(3.596 3.595)">
              <g id="Group_1111558" data-name="Group 1111558">
                <circle id="Ellipse_11787" data-name="Ellipse 11787" cx="10.862" cy="10.862" r="10.862" transform="translate(0 0.001)" fill="#ffd496"/>
                <path id="Path_900490" data-name="Path 900490" d="M95.138,157.246a10.859,10.859,0,0,0-9.592,5.763,8.51,8.51,0,0,0,11.519-5.593A10.934,10.934,0,0,0,95.138,157.246Z" transform="translate(-84.277 -157.245)" fill="#fcc16d"/>
                <path id="Path_900491" data-name="Path 900491" d="M167.793,168.1a10.87,10.87,0,0,1-13.123,10.625,10.864,10.864,0,0,0,0-21.252A10.87,10.87,0,0,1,167.793,168.1Z" transform="translate(-146.069 -157.24)" fill="#fcc16d"/>
              </g>
            </g>
          </g>
        </g>
        <g id="Group_1111566" data-name="Group 1111566" transform="translate(0 1.827)">
          <g id="Group_1111562" data-name="Group 1111562">
            <circle id="Ellipse_11788" data-name="Ellipse 11788" cx="8.504" cy="8.504" r="8.504" transform="translate(0 0)" fill="#fcb44d"/>
            <path id="Path_900492" data-name="Path 900492" d="M109.374,33.234a8.511,8.511,0,0,1-10.395,8.293,8.507,8.507,0,0,0,0-16.587,8.511,8.511,0,0,1,10.395,8.294Z" transform="translate(-92.365 -24.729)" fill="#fb9927"/>
          </g>
          <g id="Group_1111565" data-name="Group 1111565" transform="translate(6.008 6.008)">
            <g id="Group_1111564" data-name="Group 1111564">
              <g id="Group_1111563" data-name="Group 1111563">
                <circle id="Ellipse_11789" data-name="Ellipse 11789" cx="2.497" cy="2.497" r="2.497" fill="#ffd496"/>
              </g>
            </g>
          </g>
        </g>
      </g>
      <g id="Group_1111588" data-name="Group 1111588">
        <g id="Group_1111581" data-name="Group 1111581" transform="translate(3.413 0)">
          <g id="Group_1111570" data-name="Group 1111570" transform="translate(19.823)">
            <g id="Group_1111568" data-name="Group 1111568">
              <path id="Trazado_900493" data-name="Trazado 900493" d="M230.41,33.294a3.241,3.241,0,0,1-2.565-1.249.8.8,0,0,1,1.252-.982,1.668,1.668,0,0,0,2.982-1.028V27.7a2.061,2.061,0,0,1,1.41-1.95,9.574,9.574,0,0,0,1.186-.49,2.063,2.063,0,0,1,2.376.382,1.668,1.668,0,1,0,2.359-2.359,2.063,2.063,0,0,1-.382-2.376,9.566,9.566,0,0,0,.49-1.186,2.061,2.061,0,0,1,1.95-1.41h2.33a1.668,1.668,0,0,0,1.666-1.75,1.723,1.723,0,0,0-1.736-1.586h-2.261a2.061,2.061,0,0,1-1.95-1.41A9.59,9.59,0,0,0,239,12.325a1.958,1.958,0,0,1,.362-2.269,1.723,1.723,0,0,0,.106-2.349,1.668,1.668,0,0,0-2.415-.059,2.063,2.063,0,0,1-2.376.382,9.575,9.575,0,0,0-1.186-.49,2.061,2.061,0,0,1-1.41-1.95V3.259a1.668,1.668,0,1,0-3.336,0v2.33a2.061,2.061,0,0,1-1.41,1.95,9.581,9.581,0,0,0-1.186.49,2.063,2.063,0,0,1-2.376-.382,1.668,1.668,0,0,0-2.359,2.359,2.063,2.063,0,0,1,.382,2.376,9.591,9.591,0,0,0-.49,1.186,2.082,2.082,0,0,1-1.1,1.224.8.8,0,0,1-.665-1.445.485.485,0,0,0,.254-.286,11.19,11.19,0,0,1,.572-1.383.473.473,0,0,0-.081-.546A3.259,3.259,0,1,1,224.9,6.523a.473.473,0,0,0,.546.081,11.179,11.179,0,0,1,1.383-.572.471.471,0,0,0,.327-.443V3.259a3.259,3.259,0,1,1,6.518,0v2.33a.471.471,0,0,0,.327.443,11.171,11.171,0,0,1,1.383.572.473.473,0,0,0,.546-.081,3.259,3.259,0,0,1,4.717.113,3.29,3.29,0,0,1-.157,4.545.37.37,0,0,0-.065.429,11.186,11.186,0,0,1,.605,1.45.472.472,0,0,0,.443.327h2.261a3.29,3.29,0,0,1,3.325,3.1,3.259,3.259,0,0,1-3.255,3.415h-2.33a.472.472,0,0,0-.443.327,11.163,11.163,0,0,1-.572,1.383.473.473,0,0,0,.081.546,3.259,3.259,0,1,1-4.609,4.609.473.473,0,0,0-.546-.081,11.17,11.17,0,0,1-1.383.572.472.472,0,0,0-.327.443v2.33A3.263,3.263,0,0,1,230.41,33.294Z" transform="translate(-219.078 0)"/>
            </g>
            <g id="Group_1111569" data-name="Group 1111569" transform="translate(6.106 9.671)">
              <path id="Elipse_11790" data-name="Elipse 11790" d="M-3.719-7.5A3.785,3.785,0,0,1,.061-3.719,3.785,3.785,0,0,1-3.719.061,3.785,3.785,0,0,1-7.5-3.719,3.785,3.785,0,0,1-3.719-7.5Zm0,5.97a2.192,2.192,0,0,0,2.19-2.19,2.192,2.192,0,0,0-2.19-2.19,2.192,2.192,0,0,0-2.19,2.19A2.192,2.192,0,0,0-3.719-1.53Z" transform="translate(7.5 7.5)"/>
            </g>
            <path id="Línea_564" data-name="Línea 564" d="M-6.7-5.127a.794.794,0,0,1-.613-.287.8.8,0,0,1,.1-1.12l.942-.782a.8.8,0,0,1,1.12.1.8.8,0,0,1-.1,1.12L-6.2-5.31A.792.792,0,0,1-6.7-5.127Z" transform="translate(18.266 26.795)"/>
            <path id="Línea_565" data-name="Línea 565" d="M-6.707-4.809a.792.792,0,0,1-.347-.08.8.8,0,0,1-.368-1.063l.535-1.1a.8.8,0,0,1,1.063-.368.8.8,0,0,1,.368,1.063l-.535,1.1A.8.8,0,0,1-6.707-4.809Z" transform="translate(22.423 27.886)"/>
            <path id="Línea_566" data-name="Línea 566" d="M-6.194-4.755a.8.8,0,0,1-.728-.473l-.512-1.156a.8.8,0,0,1,.4-1.05.8.8,0,0,1,1.05.4l.512,1.156a.8.8,0,0,1-.4,1.05A.793.793,0,0,1-6.194-4.755Z" transform="translate(24.076 17.833)"/>
          </g>
          <g id="Group_1111580" data-name="Group 1111580" transform="translate(0 12.431)">
            <g id="Group_1111574" data-name="Group 1111574">
              <g id="Group_1111573" data-name="Group 1111573" transform="translate(23.659 22.874)">
                <g id="Group_1111571" data-name="Group 1111571" transform="translate(0 0)">
                  <path id="Línea_567" data-name="Línea 567" d="M-4.414-3.619a.793.793,0,0,1-.562-.233l-2.29-2.29a.8.8,0,0,1,0-1.125.8.8,0,0,1,1.125,0l2.29,2.29a.8.8,0,0,1,0,1.125A.793.793,0,0,1-4.414-3.619Z" transform="translate(7.5 10.279)"/>
                  <path id="Línea_568" data-name="Línea 568" d="M-4.346-3.551a.793.793,0,0,1-.562-.233L-7.267-6.142a.8.8,0,0,1,0-1.125.8.8,0,0,1,1.125,0l2.358,2.358a.8.8,0,0,1,0,1.125A.793.793,0,0,1-4.346-3.551Z" transform="translate(10.177 7.5)"/>
                </g>
                <g id="Group_1111572" data-name="Group 1111572" transform="translate(1.737 1.788)">
                  <path id="Línea_569" data-name="Línea 569" d="M-6.7-1.026a.793.793,0,0,1-.562-.233.8.8,0,0,1,0-1.125l4.883-4.883a.8.8,0,0,1,1.125,0,.8.8,0,0,1,0,1.125L-6.142-1.259A.793.793,0,0,1-6.7-1.026Z" transform="translate(10.352 10.352)"/>
                  <path id="Trazado_900494" data-name="Trazado 900494" d="M283.576,366.949a1.8,1.8,0,0,1-1.28-.53l-3.194-3.194a.8.8,0,0,1,1.125-1.125l3.194,3.194a.247.247,0,0,0,.31,0l3.448-3.448a.219.219,0,0,0,0-.31l-10.142-10.142a.247.247,0,0,0-.31,0l-3.448,3.448a.247.247,0,0,0,0,.31l4.46,4.46a.8.8,0,1,1-1.125,1.125l-4.46-4.46a1.81,1.81,0,0,1,0-2.56l3.448-3.448a1.81,1.81,0,0,1,2.56,0L288.3,360.411a1.812,1.812,0,0,1,0,2.56l-3.448,3.448A1.8,1.8,0,0,1,283.576,366.949Z" transform="translate(-271.624 -349.739)"/>
                </g>
              </g>
              <path id="Trazado_900495" data-name="Trazado 900495" d="M47.43,189.918h-.046A15.253,15.253,0,0,1,35.74,164.866a.8.8,0,1,1,1.219,1.023,13.662,13.662,0,1,0,24.132,8.818A13.534,13.534,0,0,0,58.3,166.4a.8.8,0,1,1,1.266-.964,15.112,15.112,0,0,1,3.113,9.279A15.271,15.271,0,0,1,47.43,189.918Z" transform="translate(-32.176 -159.557)"/>
              <path id="Trazado_900496" data-name="Trazado 900496" d="M195.63,121.85a.792.792,0,0,1-.5-.176,13.62,13.62,0,0,0-6.629-2.885.8.8,0,1,1,.224-1.575,15.212,15.212,0,0,1,7.4,3.221.8.8,0,0,1-.5,1.415Z" transform="translate(-171.31 -117.206)"/>
            </g>
            <g id="Group_1111579" data-name="Group 1111579" transform="translate(3.596 3.456)">
              <g id="Group_1111575" data-name="Group 1111575">
                <path id="XMLID_00000122695654143758985980000015346156666696198313_" d="M-6.7-5.9a.79.79,0,0,1-.8-.789V-6.7a.8.8,0,0,1,.8-.8.8.8,0,0,1,.8.8A.8.8,0,0,1-6.7-5.9Z" transform="translate(15.164 22.45)"/>
                <path id="Trazado_900497" data-name="Trazado 900497" d="M76.03,197.822a.8.8,0,0,1-.125-.01,11.658,11.658,0,0,1-6.162-20,.8.8,0,0,1,1.091,1.158,10.067,10.067,0,0,0,5.319,17.271.8.8,0,0,1-.123,1.581Z" transform="translate(-66.077 -174.646)"/>
                <path id="Trazado_900498" data-name="Trazado 900498" d="M173.695,172.946a.8.8,0,0,1-.131-1.58,10.067,10.067,0,0,0-1.394-19.988.8.8,0,1,1,.044-1.59,11.658,11.658,0,0,1,1.613,23.147A.8.8,0,0,1,173.695,172.946Z" transform="translate(-160.227 -149.787)"/>
              </g>
              <g id="Group_1111576" data-name="Group 1111576" transform="translate(7.986 5.949)">
                <path id="Elipse_11791" data-name="Elipse 11791" d="M-4.894-7.5A2.609,2.609,0,0,1-2.288-4.894,2.609,2.609,0,0,1-4.894-2.288,2.609,2.609,0,0,1-7.5-4.894,2.609,2.609,0,0,1-4.894-7.5Zm0,3.622A1.016,1.016,0,0,0-3.878-4.894,1.016,1.016,0,0,0-4.894-5.909,1.016,1.016,0,0,0-5.909-4.894,1.016,1.016,0,0,0-4.894-3.878Z" transform="translate(9.341 9.341)"/>
                <path id="Línea_570" data-name="Línea 570" d="M-6.7-4.176a.8.8,0,0,1-.8-.8V-6.7a.8.8,0,0,1,.8-.8.8.8,0,0,1,.8.8v1.733A.8.8,0,0,1-6.7-4.176Z" transform="translate(11.152 13.07)"/>
                <path id="Línea_571" data-name="Línea 571" d="M-5.979-5.909H-6.7a.8.8,0,0,1-.8-.8.8.8,0,0,1,.8-.8h.725a.8.8,0,0,1,.8.8A.8.8,0,0,1-5.979-5.909Z" transform="translate(10.789 14.803)"/>
                <path id="Línea_572" data-name="Línea 572" d="M-6.7-4.176a.8.8,0,0,1-.8-.8V-6.7a.8.8,0,0,1,.8-.8.8.8,0,0,1,.8.8v1.733A.8.8,0,0,1-6.7-4.176Z" transform="translate(11.152 7.5)"/>
                <path id="Línea_573" data-name="Línea 573" d="M-5.979-5.909H-6.7a.8.8,0,0,1-.8-.8.8.8,0,0,1,.8-.8h.725a.8.8,0,0,1,.8.8A.8.8,0,0,1-5.979-5.909Z" transform="translate(10.789 7.5)"/>
                <path id="Línea_574" data-name="Línea 574" d="M-4.971-5.909H-6.7a.8.8,0,0,1-.8-.8.8.8,0,0,1,.8-.8h1.733a.8.8,0,0,1,.8.8A.8.8,0,0,1-4.971-5.909Z" transform="translate(7.5 11.152)"/>
                <path id="Línea_575" data-name="Línea 575" d="M-6.7-5.184a.8.8,0,0,1-.8-.8V-6.7a.8.8,0,0,1,.8-.8.8.8,0,0,1,.8.8v.725A.8.8,0,0,1-6.7-5.184Z" transform="translate(7.5 10.789)"/>
                <path id="Línea_576" data-name="Línea 576" d="M-4.971-5.909H-6.7a.8.8,0,0,1-.8-.8.8.8,0,0,1,.8-.8h1.733a.8.8,0,0,1,.8.8A.8.8,0,0,1-4.971-5.909Z" transform="translate(13.07 11.152)"/>
                <path id="Línea_577" data-name="Línea 577" d="M-6.7-5.184a.8.8,0,0,1-.8-.8V-6.7a.8.8,0,0,1,.8-.8.8.8,0,0,1,.8.8v.725A.8.8,0,0,1-6.7-5.184Z" transform="translate(14.804 10.789)"/>
              </g>
              <g id="Group_1111577" data-name="Group 1111577" transform="translate(0.156 7.789)">
                <path id="Trazado_900499" data-name="Trazado 900499" d="M68.9,228.443a2.61,2.61,0,0,1-.8-.126.8.8,0,0,1,.486-1.515,1.016,1.016,0,0,0,.619-1.934.98.98,0,0,0-.459-.037.8.8,0,1,1-.25-1.571,2.607,2.607,0,1,1,.4,5.183Z" transform="translate(-67.548 -223.229)"/>
                <path id="Línea_578" data-name="Línea 578" d="M-5.056-5.381A.8.8,0,0,1-5.3-5.42l-1.651-.529a.8.8,0,0,1-.515-1,.8.8,0,0,1,1-.515l1.651.529a.8.8,0,0,1,.515,1A.8.8,0,0,1-5.056-5.381Z" transform="translate(9.881 9.899)"/>
                <path id="Línea_579" data-name="Línea 579" d="M-6.706-5.22a.8.8,0,0,1-.243-.038.8.8,0,0,1-.515-1l.221-.691a.8.8,0,0,1,1-.515.8.8,0,0,1,.515,1l-.221.691A.8.8,0,0,1-6.706-5.22Z" transform="translate(11.421 10.083)"/>
              </g>
              <g id="Group_1111578" data-name="Group 1111578" transform="translate(14.496 12.537)">
                <path id="Elipse_11792" data-name="Elipse 11792" d="M-4.894-7.5A2.609,2.609,0,0,1-2.288-4.894,2.609,2.609,0,0,1-4.894-2.288,2.609,2.609,0,0,1-7.5-4.894,2.609,2.609,0,0,1-4.894-7.5Zm0,3.622A1.016,1.016,0,0,0-3.878-4.894,1.016,1.016,0,0,0-4.894-5.909,1.016,1.016,0,0,0-5.909-4.894,1.016,1.016,0,0,0-4.894-3.878Z" transform="translate(9.357 9.357)"/>
                <path id="Línea_580" data-name="Línea 580" d="M-6.591-4.18a.8.8,0,0,1-.793-.743L-7.5-6.652A.8.8,0,0,1-6.757-7.5a.8.8,0,0,1,.846.741l.114,1.73a.8.8,0,0,1-.741.846Z" transform="translate(10.927 7.524)"/>
                <path id="Línea_581" data-name="Línea 581" d="M-6.706-5.861A.8.8,0,0,1-7.5-6.6a.8.8,0,0,1,.741-.846l.724-.048a.8.8,0,0,1,.846.741.8.8,0,0,1-.741.846l-.724.048Z" transform="translate(10.565 7.5)"/>
                <path id="Línea_582" data-name="Línea 582" d="M-6.706-5.8A.8.8,0,0,1-7.5-6.538a.8.8,0,0,1,.741-.846l1.73-.114a.8.8,0,0,1,.846.741.8.8,0,0,1-.741.846l-1.73.114Z" transform="translate(7.524 11.294)"/>
                <path id="Línea_583" data-name="Línea 583" d="M-6.658-5.186a.8.8,0,0,1-.793-.743L-7.5-6.652A.8.8,0,0,1-6.757-7.5a.8.8,0,0,1,.846.741l.048.724a.8.8,0,0,1-.741.846Z" transform="translate(7.5 11.047)"/>
              </g>
              <path id="XMLID_00000150061827999915725450000004181366364214382230_" d="M-6.7-5.9a.79.79,0,0,1-.8-.789V-6.7a.8.8,0,0,1,.8-.8.8.8,0,0,1,.8.8A.8.8,0,0,1-6.7-5.9Z" transform="translate(25.987 15.707)"/>
              <path id="XMLID_00000095319707368158453760000000576509856314543279_" d="M-6.7-5.9a.79.79,0,0,1-.8-.789V-6.7a.8.8,0,0,1,.8-.8.8.8,0,0,1,.8.8A.8.8,0,0,1-6.7-5.9Z" transform="translate(18.154 25.819)"/>
              <path id="XMLID_00000080891189045946304600000004377324198252718239_" d="M-6.7-5.9a.79.79,0,0,1-.8-.789V-6.7a.8.8,0,0,1,.8-.8.8.8,0,0,1,.8.8A.8.8,0,0,1-6.7-5.9Z" transform="translate(19.138 10.902)"/>
              <path id="XMLID_00000127739001778005594220000006229836101721739451_" d="M-6.7-5.9a.79.79,0,0,1-.8-.789V-6.7a.8.8,0,0,1,.8-.8.8.8,0,0,1,.8.8A.8.8,0,0,1-6.7-5.9Z" transform="translate(12.085 13.442)"/>
              <path id="XMLID_00000105425161797842042690000016137671951956506554_" d="M-6.7-5.9a.79.79,0,0,1-.8-.789V-6.7a.8.8,0,0,1,.8-.8.8.8,0,0,1,.8.8A.8.8,0,0,1-6.7-5.9Z" transform="translate(12.318 22.383)"/>
            </g>
          </g>
        </g>
        <g id="Group_1111587" data-name="Group 1111587">
          <g id="Group_1111582" data-name="Group 1111582" transform="translate(3.089 1.827)">
            <path id="Elipse_11793" data-name="Elipse 11793" d="M1.8-7.5a9.31,9.31,0,0,1,9.3,9.3,9.31,9.31,0,0,1-9.3,9.3A9.31,9.31,0,0,1-7.5,1.8,9.31,9.31,0,0,1,1.8-7.5Zm0,17.009A7.709,7.709,0,1,0-5.909,1.8,7.718,7.718,0,0,0,1.8,9.509Z" transform="translate(7.5 7.5)"/>
          </g>
          <g id="Group_1111586" data-name="Group 1111586">
            <g id="Group_1111585" data-name="Group 1111585">
              <g id="Group_1111583" data-name="Group 1111583">
                <path id="Línea_584" data-name="Línea 584" d="M-4.9-4.1a.793.793,0,0,1-.562-.233L-7.267-6.142a.8.8,0,0,1,0-1.125.8.8,0,0,1,1.125,0l1.809,1.809a.8.8,0,0,1,0,1.125A.793.793,0,0,1-4.9-4.1Z" transform="translate(15.518 14.257)"/>
                <path id="Trazado_900500" data-name="Trazado 900500"/>
                <path id="Línea_585" data-name="Línea 585" d="M-6.7-4.075a.793.793,0,0,1-.562-.233.8.8,0,0,1,0-1.125l1.834-1.834a.8.8,0,0,1,1.125,0,.8.8,0,0,1,0,1.125L-6.142-4.308A.793.793,0,0,1-6.7-4.075Z" transform="translate(15.494 19.598)"/>
                <path id="Línea_586" data-name="Línea 586" d="M-6.7-4.1a.793.793,0,0,1-.562-.233.8.8,0,0,1,0-1.125l1.809-1.809a.8.8,0,0,1,1.125,0,.8.8,0,0,1,0,1.125L-6.142-4.333A.793.793,0,0,1-6.7-4.1Z" transform="translate(20.859 14.257)"/>
              </g>
              <g id="Group_1111584" data-name="Group 1111584" transform="translate(6.558 5.297)">
                <path id="Elipse_11794" data-name="Elipse 11794" d="M-4.208-7.5A3.3,3.3,0,0,1-.916-4.208,3.3,3.3,0,0,1-4.208-.916,3.3,3.3,0,0,1-7.5-4.208,3.3,3.3,0,0,1-4.208-7.5Zm0,4.993a1.7,1.7,0,0,0,1.7-1.7,1.7,1.7,0,0,0-1.7-1.7,1.7,1.7,0,0,0-1.7,1.7A1.7,1.7,0,0,0-4.208-2.507Z" transform="translate(10.038 10.038)"/>
                <path id="Línea_587" data-name="Línea 587" d="M-6.7-3.519a.8.8,0,0,1-.8-.8V-6.7a.8.8,0,0,1,.8-.8.8.8,0,0,1,.8.8v2.39A.8.8,0,0,1-6.7-3.519Z" transform="translate(12.535 15.18)"/>
                <path id="Línea_588" data-name="Línea 588" d="M-5.7-5.909h-1a.8.8,0,0,1-.8-.8.8.8,0,0,1,.8-.8h1a.8.8,0,0,1,.8.8A.8.8,0,0,1-5.7-5.909Z" transform="translate(12.035 17.57)"/>
                <path id="Línea_589" data-name="Línea 589" d="M-6.7-3.519a.8.8,0,0,1-.8-.8V-6.7a.8.8,0,0,1,.8-.8.8.8,0,0,1,.8.8v2.39A.8.8,0,0,1-6.7-3.519Z" transform="translate(12.535 7.5)"/>
                <path id="Línea_590" data-name="Línea 590" d="M-5.7-5.909h-1a.8.8,0,0,1-.8-.8.8.8,0,0,1,.8-.8h1a.8.8,0,0,1,.8.8A.8.8,0,0,1-5.7-5.909Z" transform="translate(12.035 7.5)"/>
                <path id="Línea_591" data-name="Línea 591" d="M-4.315-5.909H-6.7a.8.8,0,0,1-.8-.8.8.8,0,0,1,.8-.8h2.39a.8.8,0,0,1,.8.8A.8.8,0,0,1-4.315-5.909Z" transform="translate(7.5 12.535)"/>
                <path id="Línea_592" data-name="Línea 592" d="M-6.7-4.909a.8.8,0,0,1-.8-.8v-1a.8.8,0,0,1,.8-.8.8.8,0,0,1,.8.8v1A.8.8,0,0,1-6.7-4.909Z" transform="translate(7.5 12.035)"/>
                <path id="Línea_593" data-name="Línea 593" d="M-4.315-5.909H-6.7a.8.8,0,0,1-.8-.8.8.8,0,0,1,.8-.8h2.39a.8.8,0,0,1,.8.8A.8.8,0,0,1-4.315-5.909Z" transform="translate(15.18 12.535)"/>
                <path id="Línea_594" data-name="Línea 594" d="M-6.7-4.909a.8.8,0,0,1-.8-.8v-1a.8.8,0,0,1,.8-.8.8.8,0,0,1,.8.8v1A.8.8,0,0,1-6.7-4.909Z" transform="translate(17.57 12.035)"/>
              </g>
            </g>
          </g>
        </g>
      </g>
    </g>
  </g>
</svg>
