<svg xmlns="http://www.w3.org/2000/svg" xmlns:xlink="http://www.w3.org/1999/xlink" width="109.652" height="109.653" viewBox="0 0 109.652 109.653">
  <defs>
    <filter id="Path_874925" x="0" y="0" width="109.652" height="109.653" filterUnits="userSpaceOnUse">
      <feOffset dy="3" input="SourceAlpha"/>
      <feGaussianBlur stdDeviation="3" result="blur"/>
      <feFlood flood-opacity="0.161"/>
      <feComposite operator="in" in2="blur"/>
      <feComposite in="SourceGraphic"/>
    </filter>
  </defs>
  <g id="Group_1111680" data-name="Group 1111680" transform="translate(-424 -1648)">
    <g id="Group_1111438" data-name="Group 1111438" transform="translate(-586.73 -1423)">
      <g transform="matrix(1, 0, 0, 1, 1010.73, 3071)" filter="url(#Path_874925)">
        <g id="Path_874925-2" data-name="Path 874925" transform="translate(9 6)" fill="#ffd63c">
          <path d="M 45.82614517211914 90.15280151367188 C 39.84149551391602 90.15280151367188 34.03665924072266 88.98104095458984 28.5728702545166 86.67005157470703 C 23.29473304748535 84.43759155273438 18.55415725708008 81.24130249023438 14.48283290863037 77.16998291015625 C 10.41150760650635 73.09866333007812 7.215232849121094 68.35809326171875 4.982757568359375 63.07994079589844 C 2.671770095825195 57.61616897583008 1.500007629394531 51.81131744384766 1.500007629394531 45.82666778564453 C 1.500007629394531 39.84149169921875 2.671770095825195 34.03665542602539 4.982757568359375 28.57286643981934 C 7.215232849121094 23.29472923278809 10.41150760650635 18.55415534973145 14.48283290863037 14.48283004760742 C 18.55415725708008 10.4115047454834 23.29473304748535 7.215229511260986 28.5728702545166 4.982754707336426 C 34.03665924072266 2.671766996383667 39.84149551391602 1.500004529953003 45.82614517211914 1.500004529953003 C 51.81079483032227 1.500004529953003 57.61564636230469 2.671766996383667 63.07942199707031 4.982754707336426 C 68.35756683349609 7.215229511260986 73.09814453125 10.4115047454834 77.16947174072266 14.48283004760742 C 81.24078369140625 18.55415534973145 84.43707275390625 23.29472923278809 86.66954803466797 28.57286643981934 C 88.98052978515625 34.03665542602539 90.15229797363281 39.84149169921875 90.15229797363281 45.82614135742188 C 90.15229797363281 51.81131744384766 88.98052978515625 57.61616897583008 86.66954803466797 63.07994079589844 C 84.43707275390625 68.35809326171875 81.24078369140625 73.09866333007812 77.16947174072266 77.16998291015625 C 73.09814453125 81.24130249023438 68.35756683349609 84.43759155273438 63.07942199707031 86.67005157470703 C 57.61564636230469 88.98104095458984 51.81079483032227 90.15280151367188 45.82614517211914 90.15280151367188 Z" stroke="none"/>
          <path d="M 45.82614517211914 3.000007629394531 C 40.04333114624023 3.000007629394531 34.43508911132812 4.131904602050781 29.15720367431641 6.364265441894531 C 24.05784606933594 8.521102905273438 19.47753143310547 11.60944366455078 15.54348754882812 15.54348754882812 C 11.60944366455078 19.47753143310547 8.521102905273438 24.05784606933594 6.3642578125 29.15720367431641 C 4.131904602050781 34.43508911132812 3 40.0433349609375 3 45.82667541503906 C 3 51.60948944091797 4.131904602050781 57.21773147583008 6.3642578125 62.49562072753906 C 8.521102905273438 67.59497833251953 11.60944366455078 72.17527770996094 15.54348754882812 76.10932922363281 C 19.47753143310547 80.04337310791016 24.05784606933594 83.13170623779297 29.15718841552734 85.28854370117188 C 34.43508911132812 87.52090454101562 40.04333114624023 88.65280151367188 45.82614517211914 88.65280151367188 C 51.60895919799805 88.65280151367188 57.21720123291016 87.52090454101562 62.49510192871094 85.28854370117188 C 67.59444427490234 83.13170623779297 72.17475891113281 80.04337310791016 76.10880279541016 76.10932922363281 C 80.0428466796875 72.17527770996094 83.13118743896484 67.59497833251953 85.28803253173828 62.49562072753906 C 87.5203857421875 57.21773147583008 88.65229034423828 51.60948944091797 88.65229034423828 45.82614898681641 C 88.65229034423828 40.0433349609375 87.5203857421875 34.43508911132812 85.28803253173828 29.15720367431641 C 83.13118743896484 24.05784606933594 80.0428466796875 19.47753143310547 76.10880279541016 15.54348754882812 C 72.17475891113281 11.60944366455078 67.59444427490234 8.521102905273438 62.49508666992188 6.364265441894531 C 57.21720123291016 4.131904602050781 51.60895919799805 3.000007629394531 45.82614517211914 3.000007629394531 M 45.82614517211914 7.62939453125e-06 C 71.13523101806641 7.62939453125e-06 91.65229034423828 20.51705932617188 91.65229034423828 45.82614898681641 L 91.65229034423828 45.82667541503906 C 91.65229034423828 71.13575744628906 71.13523101806641 91.65280151367188 45.82614517211914 91.65280151367188 C 20.51705932617188 91.65280151367188 0 71.13575744628906 0 45.82667541503906 L 0 45.82614898681641 C 0 20.51705932617188 20.51705932617188 7.62939453125e-06 45.82614517211914 7.62939453125e-06 Z" stroke="none" fill="#fff"/>
        </g>
      </g>
    </g>
    <g id="ingenieria" transform="translate(450 1671)">
      <g id="Group_1111678" data-name="Group 1111678" transform="translate(1.899 1.899)">
        <g id="Group_1111659" data-name="Group 1111659" transform="translate(0 7.194)">
          <ellipse id="Ellipse_11814" data-name="Ellipse 11814" cx="1.5" cy="2" rx="1.5" ry="2" transform="translate(0.101 -0.339)" fill="#fcd770"/>
        </g>
        <g id="Group_1111660" data-name="Group 1111660" transform="translate(28.776 3.597)">
          <circle id="Ellipse_11815" data-name="Ellipse 11815" cx="1.5" cy="1.5" r="1.5" transform="translate(0.324 0.258)" fill="#fcd770"/>
        </g>
        <g id="Group_1111661" data-name="Group 1111661" transform="translate(12.59)">
          <circle id="Ellipse_11816" data-name="Ellipse 11816" cx="2" cy="2" r="2" transform="translate(-0.489 -0.146)" fill="#fcd770"/>
        </g>
        <g id="Group_1111662" data-name="Group 1111662" transform="translate(0 26.078)">
          <path id="Path_900795" data-name="Path 900795" d="M30.776,37.295H8.295a.513.513,0,0,1-.117-.009A6.276,6.276,0,0,1,2,31V52.582a6.29,6.29,0,0,0,6.295,6.295h24.28V37.295Z" transform="translate(-2 -31)" fill="#e6e9ed"/>
        </g>
        <g id="Group_1111663" data-name="Group 1111663" transform="translate(14.388 44.963)">
          <path id="Path_900796" data-name="Path 900796" d="M18,60.993V52H30.751a2.552,2.552,0,0,0,.629,1.007,2.691,2.691,0,0,0,1.906.791h.9v7.194Z" transform="translate(-18 -52)" fill="#fcd770"/>
        </g>
        <g id="Group_1111664" data-name="Group 1111664" transform="translate(17.985 35.97)">
          <path id="Path_900797" data-name="Path 900797" d="M22,42h5.4v8.993H22Z" transform="translate(-22 -42)" fill="#5cd6b3"/>
        </g>
        <g id="Group_1111665" data-name="Group 1111665" transform="translate(10.791 23.381)">
          <circle id="Ellipse_11817" data-name="Ellipse 11817" cx="3.5" cy="3.5" r="3.5" transform="translate(0.31 0.474)" fill="#f0d0b4"/>
        </g>
        <g id="Group_1111666" data-name="Group 1111666" transform="translate(0 19.784)">
          <path id="Path_900798" data-name="Path 900798" d="M5.6,32.993l4.038.674c.063.189.144.378.225.558L8.178,36.581A6.291,6.291,0,0,1,8.295,24h.027l-.836.836L9.86,28.164c-.081.18-.162.369-.225.558L5.6,29.4Z" transform="translate(-2 -24)" fill="#f0d0b4"/>
        </g>
        <g id="Group_1111667" data-name="Group 1111667" transform="translate(20.917 19.784)">
          <path id="Path_900799" data-name="Path 900799" d="M33.12,33.505V36.59H26.951L25.26,34.225c.081-.18.162-.369.225-.558l4.038-.674V29.4l-4.038-.674c-.063-.189-.144-.378-.225-.558l2.374-3.327L26.8,24H33.12Z" transform="translate(-25.26 -24)" fill="#f0d0b4"/>
        </g>
        <g id="Group_1111668" data-name="Group 1111668" transform="translate(3.597 16.187)">
          <path id="Path_900800" data-name="Path 900800" d="M25.01,36.187H8.7a.513.513,0,0,1-.117-.009l1.682-2.356c-.081-.18-.162-.369-.225-.558L6,32.59v-3.6l4.038-.674c.063-.189.144-.378.225-.558L7.888,24.433l.836-.836,1.709-1.709,3.327,2.374c.18-.081.369-.162.558-.225L14.993,20h3.6l.674,4.038c.189.063.378.144.558.225l3.327-2.374L24.857,23.6l.836.836L23.32,27.761c.081.18.162.369.225.558l4.038.674v3.6l-4.038.674c-.063.189-.144.378-.225.558Zm-8.219-1.8a3.6,3.6,0,1,0-3.6-3.6A3.6,3.6,0,0,0,16.791,34.388Z" transform="translate(-6 -20)" fill="#fcd770"/>
        </g>
        <g id="Group_1111669" data-name="Group 1111669" transform="translate(36.87 35.97)">
          <path id="Path_900801" data-name="Path 900801" d="M56.489,42V59.985H43V52.791h4.784a7.589,7.589,0,0,0,6.439-3.57,15.815,15.815,0,0,0,1.691-3.444A11.97,11.97,0,0,0,56.489,42Z" transform="translate(-43 -42)" fill="#ff826e"/>
        </g>
        <g id="Group_1111670" data-name="Group 1111670" transform="translate(32.373 28.848)">
          <path id="Path_900802" data-name="Path 900802" d="M55.985,40.3v.9a11.97,11.97,0,0,1-.576,3.777,15.815,15.815,0,0,1-1.691,3.444,7.589,7.589,0,0,1-6.439,3.57H38V46.6h4.5V43.315a8.443,8.443,0,0,1,.063-1.07,9.468,9.468,0,0,1,.656-2.545,9.347,9.347,0,0,1,1.34-2.275,9.9,9.9,0,0,1,.71-.791,9.133,9.133,0,0,1,1.87-1.448L48.791,38.5l5.3-4.424a11.51,11.51,0,0,1,1.9,6.223Z" transform="translate(-38 -34.08)" fill="#ff826e"/>
        </g>
        <g id="Group_1111671" data-name="Group 1111671" transform="translate(28.776 29.289)">
          <path id="Path_900803" data-name="Path 900803" d="M34,34.57l10.153,2.9a9.348,9.348,0,0,0-1.34,2.275,9.468,9.468,0,0,0-.656,2.545L35.8,40.478V37.654H34Z" transform="translate(-34 -34.57)" fill="#ff826e"/>
        </g>
        <g id="Group_1111672" data-name="Group 1111672" transform="translate(41.51 27.877)">
          <path id="Path_900804" data-name="Path 900804" d="M55.111,33.971l-5.3,4.424L48.16,35.077a7.523,7.523,0,0,1,.755-.4,8.393,8.393,0,0,1,1.457-.558L54.311,33a6.575,6.575,0,0,1,.8.971Z" transform="translate(-48.16 -33)" fill="#fc6e51"/>
        </g>
        <g id="Group_1111673" data-name="Group 1111673" transform="translate(26.978 41.366)">
          <path id="Path_900805" data-name="Path 900805" d="M37.4,48v5.4H34.7a2.691,2.691,0,0,1-1.906-.791,2.552,2.552,0,0,1-.629-1.007A2.493,2.493,0,0,1,32,50.7,2.694,2.694,0,0,1,34.7,48h2.7Z" transform="translate(-32 -48)" fill="#f0d0b4"/>
        </g>
        <g id="Group_1111674" data-name="Group 1111674" transform="translate(46.761 13.489)">
          <path id="Path_900806" data-name="Path 900806" d="M61.194,17v1.214a10.8,10.8,0,0,1-5.072,9.154l-1.655,1.025L54,25.093l1.16-1.16A2.164,2.164,0,0,0,55.8,22.4,1.812,1.812,0,0,0,54,20.6V17Z" transform="translate(-54 -17)" fill="#656d78"/>
        </g>
        <g id="Group_1111675" data-name="Group 1111675" transform="translate(38.227 4.495)">
          <path id="Path_900807" data-name="Path 900807" d="M60.238,15.192v.8H53.044v-2.7a.9.9,0,0,0-.9-.9H44.51a8.094,8.094,0,0,1,15.728,2.8Z" transform="translate(-44.51 -6.999)" fill="#ffeaa7"/>
        </g>
        <g id="Group_1111676" data-name="Group 1111676" transform="translate(34.172 9.892)">
          <path id="Path_900808" data-name="Path 900808" d="M52.59,13.9v2.7H40.9a.9.9,0,0,1-.9-.9V13.9a.9.9,0,0,1,.9-.9H51.69A.9.9,0,0,1,52.59,13.9Z" transform="translate(-40 -13)" fill="#fcd770"/>
        </g>
        <g id="Group_1111677" data-name="Group 1111677" transform="translate(35.97 13.489)">
          <path id="Path_900809" data-name="Path 900809" d="M53.259,28.394l.432,2.995-3.939,1.124a8.393,8.393,0,0,0-1.457.558V27.791h-.9a3.592,3.592,0,0,1-3.6-3.6H42A13.838,13.838,0,0,1,43.8,17h8.993v3.6a1.812,1.812,0,0,1,1.8,1.8,2.164,2.164,0,0,1-.638,1.538l-1.16,1.16Z" transform="translate(-42 -17)" fill="#f0d0b4"/>
        </g>
      </g>
      <g id="Group_1111679" data-name="Group 1111679" transform="translate(1 1)">
        <ellipse id="Ellipse_11818" data-name="Ellipse 11818" cx="0.5" cy="1" rx="0.5" ry="1" transform="translate(40 16.754)"/>
        <path id="Path_900810" data-name="Path 900810" d="M49.989,6.27A9.043,9.043,0,0,0,39.525,11.4H36.97a1.8,1.8,0,0,0-1.8,1.8v1.8a1.8,1.8,0,0,0,1.8,1.8H38.2a16.031,16.031,0,0,0-1.232,6.295v.9H38.86a4.5,4.5,0,0,0,4.405,3.6v3.84A10.318,10.318,0,0,0,40.9,33.174c-.129.129-.244.268-.365.4l-8.959-2.56V21.288H24.726L22.742,19.3,19.5,21.615l-.655-3.924H13.728l-.656,3.925-3.24-2.311-2,2A7.2,7.2,0,0,0,1,28.482V50.064a7.2,7.2,0,0,0,7.194,7.194H33.373V50.064h4.5v7.194H53.157V37.475A11.948,11.948,0,0,0,50.413,29.9L50.1,27.741l1.155-.721a11.628,11.628,0,0,0,5.494-9.914V15.1A8.966,8.966,0,0,0,49.989,6.27Zm-.422,1.748a7.258,7.258,0,0,1,5.384,6.976H49.56v-1.8a1.8,1.8,0,0,0-1.8-1.8H41.529A7.27,7.27,0,0,1,49.567,8.018Zm-12.6,5.177H47.761v1.8H36.97Zm8.093,14.388h1.8v-1.8h-3.6a2.7,2.7,0,0,1-2.7-2.7v-.9H38.795a13.573,13.573,0,0,1,1.4-5.4h7.571v3.6h.9a.9.9,0,0,1,.9.9,1.259,1.259,0,0,1-.372.9l-1.48,1.48.852,5.964-3.188.911c-.105.03-.2.076-.308.11Zm.8,4.689,2.861-.817-3.364,2.8-.752-1.5A8.475,8.475,0,0,1,45.865,32.272Zm-6.482,2.845a10.2,10.2,0,0,0-1.271,3.163l-4.739-1.354V33.878h-1.8v-.992Zm-9.607,11.35a1.8,1.8,0,0,1,1.8-1.8h1.8v3.6h-1.8A1.8,1.8,0,0,1,29.776,46.467Zm3.6-3.6V38.8l4.516,1.29c-.005.133-.02.266-.02.4V42.87ZM26.25,23.087h3.526V33.878h-4.81L24.052,32.6l3.925-.656V26.822l-3.925-.656ZM10.027,21.653l3.129,2.232.47-.212a4.97,4.97,0,0,1,.471-.192l.513-.171.64-3.821h2.075l.638,3.821.513.171a4.875,4.875,0,0,1,.471.192l.47.212,3.129-2.232,1.468,1.468-2.232,3.128.211.47a5.015,5.015,0,0,1,.192.471l.17.515,3.822.638v2.075l-3.822.638-.17.515a5.014,5.014,0,0,1-.192.471l-.211.47.974,1.363H9.817l.973-1.363-.211-.47a5.015,5.015,0,0,1-.192-.471l-.17-.515L6.4,30.418V28.344l3.822-.638.17-.515a5.015,5.015,0,0,1,.192-.471l.211-.47L8.558,23.121ZM6.521,23.361l2,2.8L4.6,26.821v5.119l3.925.656-.893,1.251A5.39,5.39,0,0,1,6.521,23.361ZM2.8,50.064V33.225a7.172,7.172,0,0,0,5.4,2.451H31.575V42.87a3.6,3.6,0,0,0-3.6,3.6h-1.8V37.475H18.985v8.993h-3.6V55.46H8.194a5.4,5.4,0,0,1-5.4-5.4Zm21.582-3.6h-3.6V39.273h3.6Zm7.194,8.993H17.187V48.266H28.478a3.585,3.585,0,0,0,3.1,1.8Zm19.784,0H39.668v-5.4h3.887a8.437,8.437,0,0,0,7.2-3.989q.328-.525.606-1.027Zm0-17.086a11.775,11.775,0,0,1-2.13,6.748,6.652,6.652,0,0,1-5.673,3.144H35.172v-3.6h8.437a1.787,1.787,0,0,0,1.609-.994l2.45-4.9-1.609-.8-2.45,4.9H39.668V40.487a8.488,8.488,0,0,1,2.5-6.042,8.366,8.366,0,0,1,.888-.766l1.708,3.415,5.372-4.477a10.775,10.775,0,0,1,1.219,4.858Zm-1.052-12.88-.479.3L49.614,24.3l.845-.844a3.05,3.05,0,0,0,.9-2.172,2.7,2.7,0,0,0-1.8-2.544V16.792h5.4v.314a9.837,9.837,0,0,1-4.649,8.388Z" transform="translate(-1 -1.504)"/>
        <path id="Path_900811" data-name="Path 900811" d="M29,57h1.8v1.8H29Z" transform="translate(-3.821 -6.642)"/>
        <path id="Path_900812" data-name="Path 900812" d="M25,57h1.8v1.8H25Z" transform="translate(-3.418 -6.642)"/>
        <path id="Path_900813" data-name="Path 900813" d="M21,57h1.8v1.8H21Z" transform="translate(-3.015 -6.642)"/>
        <path id="Path_900814" data-name="Path 900814" d="M9,47h8.993v1.8H9Z" transform="translate(-1.806 -5.634)"/>
        <path id="Path_900815" data-name="Path 900815" d="M9,43h8.993v1.8H9Z" transform="translate(-1.806 -5.231)"/>
        <path id="Path_900816" data-name="Path 900816" d="M9,51h5.4v1.8H9Z" transform="translate(-1.806 -6.037)"/>
        <path id="Path_900817" data-name="Path 900817" d="M9,55h5.4v1.8H9Z" transform="translate(-1.806 -6.44)"/>
        <path id="Path_900818" data-name="Path 900818" d="M16.8,6.23v9.158h1.8V6.23a2.7,2.7,0,1,0-1.8,0ZM17.7,2.8a.9.9,0,1,1-.9.9A.9.9,0,0,1,17.7,2.8Z" transform="translate(-2.41 -1)"/>
        <path id="Path_900819" data-name="Path 900819" d="M3.7,14.4A2.694,2.694,0,0,0,6.23,12.6h5.561v3.6h1.8V10.8H6.23A2.693,2.693,0,1,0,3.7,14.4Zm0-3.6a.9.9,0,1,1-.9.9A.9.9,0,0,1,3.7,10.8Z" transform="translate(-1 -1.806)"/>
        <path id="Path_900820" data-name="Path 900820" d="M21,6.8v8.993h1.8V8.6h1.8v5.4h5.4v-1.8H26.4V8.6h5.561a2.7,2.7,0,1,0,0-1.8H26.4V5H24.6V6.8Zm13.489,0a.9.9,0,1,1-.9.9A.9.9,0,0,1,34.489,6.8Z" transform="translate(-3.015 -1.403)"/>
        <path id="Path_900821" data-name="Path 900821" d="M14.4,6.8H10.8V5H9V8.6h5.4Z" transform="translate(-1.806 -1.403)"/>
        <path id="Path_900822" data-name="Path 900822" d="M9,1h1.8V2.8H9Z" transform="translate(-1.806 -1)"/>
        <path id="Path_900823" data-name="Path 900823" d="M21.993,31.5a4.5,4.5,0,1,0-4.5,4.5A4.5,4.5,0,0,0,21.993,31.5Zm-4.5,2.7a2.7,2.7,0,1,1,2.7-2.7A2.7,2.7,0,0,1,17.5,34.194Z" transform="translate(-2.209 -3.619)"/>
        <path id="Path_900824" data-name="Path 900824" d="M25,1h1.8V2.8H25Z" transform="translate(-3.418 -1)"/>
        <path id="Path_900825" data-name="Path 900825" d="M33,13h1.8v1.8H33Z" transform="translate(-4.224 -2.209)"/>
      </g>
    </g>
  </g>
</svg>
