<svg xmlns="http://www.w3.org/2000/svg" xmlns:xlink="http://www.w3.org/1999/xlink" width="109.652" height="109.653" viewBox="0 0 109.652 109.653">
  <defs>
    <filter id="Path_874925" x="0" y="0" width="109.652" height="109.653" filterUnits="userSpaceOnUse">
      <feOffset dy="3" input="SourceAlpha"/>
      <feGaussianBlur stdDeviation="3" result="blur"/>
      <feFlood flood-opacity="0.161"/>
      <feComposite operator="in" in2="blur"/>
      <feComposite in="SourceGraphic"/>
    </filter>
  </defs>
  <g id="Group_1111635" data-name="Group 1111635" transform="translate(-1055.174 -1742.91)">
    <g id="Group_1111414" data-name="Group 1111414" transform="translate(44.443 -1328.09)">
      <g transform="matrix(1, 0, 0, 1, 1010.73, 3071)" filter="url(#Path_874925)">
        <g id="Path_874925-2" data-name="Path 874925" transform="translate(9 6)" fill="#ffd63c">
          <path d="M 45.82614517211914 90.15280151367188 C 39.84149551391602 90.15280151367188 34.03665924072266 88.98104095458984 28.5728702545166 86.67005157470703 C 23.29473304748535 84.43759155273438 18.55415725708008 81.24130249023438 14.48283290863037 77.16998291015625 C 10.41150760650635 73.09866333007812 7.215232849121094 68.35809326171875 4.982757568359375 63.07994079589844 C 2.671770095825195 57.61616897583008 1.500007629394531 51.81131744384766 1.500007629394531 45.82666778564453 C 1.500007629394531 39.84149169921875 2.671770095825195 34.03665542602539 4.982757568359375 28.57286643981934 C 7.215232849121094 23.29472923278809 10.41150760650635 18.55415534973145 14.48283290863037 14.48283004760742 C 18.55415725708008 10.4115047454834 23.29473304748535 7.215229511260986 28.5728702545166 4.982754707336426 C 34.03665924072266 2.671766996383667 39.84149551391602 1.500004529953003 45.82614517211914 1.500004529953003 C 51.81079483032227 1.500004529953003 57.61564636230469 2.671766996383667 63.07942199707031 4.982754707336426 C 68.35756683349609 7.215229511260986 73.09814453125 10.4115047454834 77.16947174072266 14.48283004760742 C 81.24078369140625 18.55415534973145 84.43707275390625 23.29472923278809 86.66954803466797 28.57286643981934 C 88.98052978515625 34.03665542602539 90.15229797363281 39.84149169921875 90.15229797363281 45.82614135742188 C 90.15229797363281 51.81131744384766 88.98052978515625 57.61616897583008 86.66954803466797 63.07994079589844 C 84.43707275390625 68.35809326171875 81.24078369140625 73.09866333007812 77.16947174072266 77.16998291015625 C 73.09814453125 81.24130249023438 68.35756683349609 84.43759155273438 63.07942199707031 86.67005157470703 C 57.61564636230469 88.98104095458984 51.81079483032227 90.15280151367188 45.82614517211914 90.15280151367188 Z" stroke="none"/>
          <path d="M 45.82614517211914 3.000007629394531 C 40.04333114624023 3.000007629394531 34.43508911132812 4.131904602050781 29.15720367431641 6.364265441894531 C 24.05784606933594 8.521102905273438 19.47753143310547 11.60944366455078 15.54348754882812 15.54348754882812 C 11.60944366455078 19.47753143310547 8.521102905273438 24.05784606933594 6.3642578125 29.15720367431641 C 4.131904602050781 34.43508911132812 3 40.0433349609375 3 45.82667541503906 C 3 51.60948944091797 4.131904602050781 57.21773147583008 6.3642578125 62.49562072753906 C 8.521102905273438 67.59497833251953 11.60944366455078 72.17527770996094 15.54348754882812 76.10932922363281 C 19.47753143310547 80.04337310791016 24.05784606933594 83.13170623779297 29.15718841552734 85.28854370117188 C 34.43508911132812 87.52090454101562 40.04333114624023 88.65280151367188 45.82614517211914 88.65280151367188 C 51.60895919799805 88.65280151367188 57.21720123291016 87.52090454101562 62.49510192871094 85.28854370117188 C 67.59444427490234 83.13170623779297 72.17475891113281 80.04337310791016 76.10880279541016 76.10932922363281 C 80.0428466796875 72.17527770996094 83.13118743896484 67.59497833251953 85.28803253173828 62.49562072753906 C 87.5203857421875 57.21773147583008 88.65229034423828 51.60948944091797 88.65229034423828 45.82614898681641 C 88.65229034423828 40.0433349609375 87.5203857421875 34.43508911132812 85.28803253173828 29.15720367431641 C 83.13118743896484 24.05784606933594 80.0428466796875 19.47753143310547 76.10880279541016 15.54348754882812 C 72.17475891113281 11.60944366455078 67.59444427490234 8.521102905273438 62.49508666992188 6.364265441894531 C 57.21720123291016 4.131904602050781 51.60895919799805 3.000007629394531 45.82614517211914 3.000007629394531 M 45.82614517211914 7.62939453125e-06 C 71.13523101806641 7.62939453125e-06 91.65229034423828 20.51705932617188 91.65229034423828 45.82614898681641 L 91.65229034423828 45.82667541503906 C 91.65229034423828 71.13575744628906 71.13523101806641 91.65280151367188 45.82614517211914 91.65280151367188 C 20.51705932617188 91.65280151367188 0 71.13575744628906 0 45.82667541503906 L 0 45.82614898681641 C 0 20.51705932617188 20.51705932617188 7.62939453125e-06 45.82614517211914 7.62939453125e-06 Z" stroke="none" fill="#fff"/>
        </g>
      </g>
    </g>
    <g id="medicion23" transform="translate(1084.412 1768.318)">
      <rect id="Rectangle_404800" data-name="Rectangle 404800" width="9.176" height="8.597" transform="translate(6.06 43.552)" fill="#fd4755"/>
      <rect id="Rectangle_404801" data-name="Rectangle 404801" width="9.173" height="17.198" transform="translate(19.538 34.951)" fill="#99e6fc"/>
      <rect id="Rectangle_404802" data-name="Rectangle 404802" width="9.176" height="26.304" transform="translate(33.014 25.845)" fill="#9be69d"/>
      <path id="Línea_564" data-name="Línea 564" d="M-2.945-5.986h-3.8A.757.757,0,0,1-7.5-6.743.757.757,0,0,1-6.743-7.5h3.8a.757.757,0,0,1,.757.757A.757.757,0,0,1-2.945-5.986Z" transform="translate(53.541 24.497)"/>
      <path id="Path_900599" data-name="Path 900599" d="M178.078,103.088a2.269,2.269,0,0,0,2.251,2.259h5.692a2.259,2.259,0,1,0,0-4.519h-4.115l-2.418.167a2.27,2.27,0,0,0-1.409,2.093Z" transform="translate(-160.105 -89.14)" fill="#ffcebf" fill-rule="evenodd"/>
      <path id="Path_900600" data-name="Path 900600" d="M180.2,145.6a2.259,2.259,0,1,0,0,4.519h4.986a2.259,2.259,0,1,0,0-4.519H180.2Z" transform="translate(-159.976 -129.392)" fill="#ffcebf" fill-rule="evenodd"/>
      <path id="Path_900601" data-name="Path 900601" d="M192.756,190.369h-1.591a2,2,0,1,0,0,4.01h2.562a2.013,2.013,0,0,0,.257-4.01h-1.228Z" transform="translate(-170.066 -169.643)" fill="#ffcebf" fill-rule="evenodd"/>
      <path id="Path_900602" data-name="Path 900602" d="M56,27.469a2.259,2.259,0,1,1,0-4.519A2.259,2.259,0,0,1,55.16,18.6a2.469,2.469,0,0,0,3.53-2.222V13.4l0-1.184a2.819,2.819,0,0,0-3.035-3.035l-5.159,0c-2.5,0-6.372,1.785-8.983,6.608l-1.723,5.369,1.723,7.284c3.827,2.139,4.248,3.044,7.732,3.033h7.628a2,2,0,1,1,0-4.01Z" transform="translate(-35.778 -6.743)" fill="#ffdfcf" fill-rule="evenodd"/>
      <path id="Path_900603" data-name="Path 900603" d="M227.153,60.578a2.259,2.259,0,1,0,0-4.519H217.109v2.463A2.47,2.47,0,0,1,216,60.578Z" transform="translate(-194.197 -48.889)" fill="#ffcebf" fill-rule="evenodd"/>
      <path id="Path_900604" data-name="Path 900604" d="M227.153,60.578a2.259,2.259,0,0,0,.02-4.519,1.72,1.72,0,0,1-1.625,2.7H217.1a2.471,2.471,0,0,1-1.1,1.814Z" transform="translate(-194.197 -48.889)" fill="#ffb09e" fill-rule="evenodd"/>
      <path id="Path_900605" data-name="Path 900605" d="M178.159,117.293a2.256,2.256,0,0,0,2.17,2.854h5.692a2.259,2.259,0,0,0,2.185-2.857c-.265.957-1.147.966-2.184.966h-5.677c-1.017,0-1.914.012-2.185-.963Z" transform="translate(-160.105 -103.94)" fill="#ffb09e" fill-rule="evenodd"/>
      <path id="Path_900606" data-name="Path 900606" d="M180.2,161.025a2.278,2.278,0,0,1-2.1-1.414,2.231,2.231,0,0,0-.164.845,2.268,2.268,0,0,0,2.265,2.259h4.986a2.268,2.268,0,0,0,2.265-2.259,2.233,2.233,0,0,0-.167-.845,2.271,2.271,0,0,1-2.1,1.414Z" transform="translate(-159.976 -141.989)" fill="#ffb09e" fill-rule="evenodd"/>
      <path id="Línea_565" data-name="Línea 565" d="M-2.616-5.986H-6.743A.757.757,0,0,1-7.5-6.743.757.757,0,0,1-6.743-7.5h4.127a.757.757,0,0,1,.757.757A.757.757,0,0,1-2.616-5.986Z" transform="translate(28.543 18.432)"/>
      <path id="Path_900607" data-name="Path 900607" d="M56.4,178.245a8.976,8.976,0,0,1-1.208-.618l-4.663-2.808-.712.747.712,1.8c3.827,2.139,4.248,3.044,7.732,3.033h7.628a2.013,2.013,0,0,1-1.968-1.61,1.962,1.962,0,0,1-.04-.394,1.273,1.273,0,0,1,.006-.149H56.4Z" transform="translate(-44.788 -155.662)" fill="#ffcebf" fill-rule="evenodd"/>
      <path id="Trazado_900608" data-name="Trazado 900608" d="M57.792,197.1c-2.835,0-3.851-.62-5.861-1.846-.6-.364-1.295-.79-2.176-1.282a.757.757,0,1,1,.739-1.322c.9.5,1.616.939,2.226,1.312,1.947,1.188,2.676,1.633,5.135,1.625h7.631a.757.757,0,0,1,0,1.514H57.792Z" transform="translate(-44.385 -171.605)"/>
      <path id="Path_900609" data-name="Path 900609" d="M119.064,35.87c-.164,1.084-1.937,1.817-2.9,1.765-2.285-.121-1.9,2.394,0,2.061A5.027,5.027,0,0,0,121,35.218v2.975a2.473,2.473,0,0,0,2.28,2.455c0-.092-.2-.477-.2-.581a3.8,3.8,0,0,1-.141-1.11V35.729c0-2.777-3.349-3.349-3.876.141Z" transform="translate(-103.027 -28.559)" fill="#ffcebf" fill-rule="evenodd"/>
      <path id="Path_900610" data-name="Path 900610" d="M12.483,72.41V58.963a.885.885,0,0,0-.882-.882H7.5V73.29h4.1a.884.884,0,0,0,.882-.88Z" transform="translate(-6.743 -50.707)" fill="#99e6fc" fill-rule="evenodd"/>
      <path id="Path_900611" data-name="Path 900611" d="M11.6,165.588H7.5v3.567h4.1a.884.884,0,0,0,.882-.88v-3.567a.884.884,0,0,1-.882.88Z" transform="translate(-6.743 -146.572)" fill="#62dbfb" fill-rule="evenodd"/>
      <path id="Trazado_900612" data-name="Trazado 900612" d="M230.318,54.592h-7.04a.757.757,0,0,1,0-1.514h7.04a1.5,1.5,0,1,0,0-3H220.275a.757.757,0,1,1,0-1.514h10.043a3.016,3.016,0,1,1,0,6.033Z" transform="translate(-197.362 -42.146)"/>
      <path id="Trazado_900613" data-name="Trazado 900613" d="M173.457,138.1h4.986a3.016,3.016,0,1,1,0,6.033h-4.986a3.016,3.016,0,1,1,0-6.033Zm4.986,4.519a1.5,1.5,0,1,0,0-3h-4.986a1.5,1.5,0,1,0,0,3Z" transform="translate(-153.233 -122.649)"/>
      <path id="Trazado_900614" data-name="Trazado 900614" d="M179.276,99.362h-.706a.757.757,0,1,1,0-1.514h.706a1.5,1.5,0,1,0,0-3,.757.757,0,0,1,0-1.514,3.016,3.016,0,1,1,0,6.033Zm-5.692,0h-.005a3.028,3.028,0,0,1-3-3.016c0-1.217.692-1.452.9-1.494.9-.182,1.66.755,2.8,3.46a.757.757,0,0,1-.7,1.051Z" transform="translate(-153.361 -82.397)"/>
      <path id="Trazado_900615" data-name="Trazado 900615" d="M64.828,12.854a3.229,3.229,0,0,1-3.2-2.827q-.124.131-.258.258a5.455,5.455,0,0,1-3.882,1.608.757.757,0,1,1,.08-1.512,3.931,3.931,0,0,0,2.76-1.194A3.713,3.713,0,0,0,61.6,6.659a.757.757,0,1,1,1.514,0V9.634a1.713,1.713,0,0,0,3.426,0l0-4.161a2.269,2.269,0,0,0-.579-1.67,2.419,2.419,0,0,0-1.7-.607l-5.16,0c-2.468,0-6,1.925-8.318,6.212a.757.757,0,1,1-1.331-.721c2.8-5.165,6.945-7,9.648-7l5.159,0a3.853,3.853,0,0,1,2.769,1.049,3.768,3.768,0,0,1,1.023,2.743l0,1.7V9.634A3.227,3.227,0,0,1,64.828,12.854Z" transform="translate(-44.385)"/>
      <path id="Trazado_900616" data-name="Trazado 900616" d="M4.858,67.3a.757.757,0,0,1-.748-.872l.882-5.746A.757.757,0,0,1,6.5,60.8v4.866A1.64,1.64,0,0,1,4.858,67.3Zm.882-9.259a.757.757,0,0,1-.757-.757V52.22a.128.128,0,0,0-.125-.125H.757a.757.757,0,0,1,0-1.514h4.1A1.641,1.641,0,0,1,6.5,52.22v5.068A.757.757,0,0,1,5.74,58.045Z" transform="translate(0 -43.964)"/>
      <path id="Trazado_900617" data-name="Trazado 900617" d="M64.627,73.6H16a.757.757,0,0,1,0-1.514H63.87V25.336a.757.757,0,1,1,1.514,0V72.847A.757.757,0,0,1,64.627,73.6Z" transform="translate(-13.708 -20.586)"/>
      <path id="Línea_566" data-name="Línea 566" d="M-2.945-5.986h-3.8A.757.757,0,0,1-7.5-6.743.757.757,0,0,1-6.743-7.5h3.8a.757.757,0,0,1,.757.757A.757.757,0,0,1-2.945-5.986Z" transform="translate(53.541 15.899)"/>
      <path id="Línea_567" data-name="Línea 567" d="M-2.945-5.986h-3.8A.757.757,0,0,1-7.5-6.743.757.757,0,0,1-6.743-7.5h3.8a.757.757,0,0,1,.757.757A.757.757,0,0,1-2.945-5.986Z" transform="translate(53.541 33.097)"/>
      <path id="Línea_568" data-name="Línea 568" d="M-2.945-5.986h-3.8A.757.757,0,0,1-7.5-6.743.757.757,0,0,1-6.743-7.5h3.8a.757.757,0,0,1,.757.757A.757.757,0,0,1-2.945-5.986Z" transform="translate(53.541 41.694)"/>
      <path id="Línea_569" data-name="Línea 569" d="M-2.945-5.986h-3.8A.757.757,0,0,1-7.5-6.743.757.757,0,0,1-6.743-7.5h3.8a.757.757,0,0,1,.757.757A.757.757,0,0,1-2.945-5.986Z" transform="translate(53.541 50.295)"/>
      <rect id="Rectangle_404803" data-name="Rectangle 404803" width="3.516" height="26.304" transform="translate(38.674 25.845)" fill="#6fd7a3"/>
      <rect id="Rectangle_404804" data-name="Rectangle 404804" width="3.513" height="17.198" transform="translate(25.198 34.951)" fill="#62dbfb"/>
      <rect id="Rectangle_404805" data-name="Rectangle 404805" width="3.513" height="8.597" transform="translate(11.723 43.552)" fill="#e94444"/>
      <path id="Rectángulo_404806" data-name="Rectángulo 404806" d="M-6.743-7.5H2.433a.757.757,0,0,1,.757.757v8.6a.757.757,0,0,1-.757.757H-6.743A.757.757,0,0,1-7.5,1.854v-8.6A.757.757,0,0,1-6.743-7.5ZM1.676-5.986H-5.986V1.1H1.676Z" transform="translate(12.803 50.295)"/>
      <path id="Rectángulo_404807" data-name="Rectángulo 404807" d="M-6.743-7.5H2.43a.757.757,0,0,1,.757.757v17.2a.757.757,0,0,1-.757.757H-6.743a.757.757,0,0,1-.757-.757v-17.2A.757.757,0,0,1-6.743-7.5ZM1.673-5.986H-5.986V9.7H1.673Z" transform="translate(26.281 41.694)"/>
      <path id="Trazado_900618" data-name="Trazado 900618" d="M329.531,261.409h-9.176a.757.757,0,0,1-.757-.757V249.031a.757.757,0,1,1,1.514,0v10.864h7.662V235.1h-7.662v10.413a.757.757,0,1,1-1.514,0v-11.17a.757.757,0,0,1,.757-.757h9.176a.757.757,0,0,1,.757.757v26.3A.757.757,0,0,1,329.531,261.409Z" transform="translate(-287.341 -208.503)"/>
      <path id="Path_900619" data-name="Path 900619" d="M193.261,203.806h-2.2a1.887,1.887,0,0,1-1.853-1.066,1.638,1.638,0,0,0-.043.293,1.273,1.273,0,0,0-.006.149,1.963,1.963,0,0,0,.04.394,2.013,2.013,0,0,0,1.968,1.61h2.562a2.026,2.026,0,0,0,2.009-2.021,2,2,0,0,0-.156-.776,1.893,1.893,0,0,1-1.96,1.417h-.36Z" transform="translate(-170.066 -180.45)" fill="#ffb09e" fill-rule="evenodd"/>
      <path id="Trazado_900620" data-name="Trazado 900620" d="M186.984,188.392h-2.562a2.762,2.762,0,1,1,0-5.524.757.757,0,1,1,0,1.514,1.248,1.248,0,1,0,0,2.5h2.562a1.275,1.275,0,0,0,1.252-1.264,1.252,1.252,0,0,0-1.091-1.238.757.757,0,0,1,.193-1.5,2.77,2.77,0,0,1-.353,5.518Z" transform="translate(-163.322 -162.899)"/>
    </g>
  </g>
</svg>
