<svg xmlns="http://www.w3.org/2000/svg" xmlns:xlink="http://www.w3.org/1999/xlink" width="109.652" height="109.653" viewBox="0 0 109.652 109.653">
  <defs>
    <filter id="Path_874925" x="0" y="0" width="109.652" height="109.653" filterUnits="userSpaceOnUse">
      <feOffset dy="3" input="SourceAlpha"/>
      <feGaussianBlur stdDeviation="3" result="blur"/>
      <feFlood flood-opacity="0.161"/>
      <feComposite operator="in" in2="blur"/>
      <feComposite in="SourceGraphic"/>
    </filter>
  </defs>
  <g id="Group_1111632" data-name="Group 1111632" transform="translate(-1062 -1555)">
    <g id="Group_1111386" data-name="Group 1111386" transform="translate(51.27 -1516)">
      <g transform="matrix(1, 0, 0, 1, 1010.73, 3071)" filter="url(#Path_874925)">
        <g id="Path_874925-2" data-name="Path 874925" transform="translate(9 6)" fill="#ffd63c">
          <path d="M 45.82614517211914 90.15280151367188 C 39.84149551391602 90.15280151367188 34.03665924072266 88.98104095458984 28.5728702545166 86.67005157470703 C 23.29473304748535 84.43759155273438 18.55415725708008 81.24130249023438 14.48283290863037 77.16998291015625 C 10.41150760650635 73.09866333007812 7.215232849121094 68.35809326171875 4.982757568359375 63.07994079589844 C 2.671770095825195 57.61616897583008 1.500007629394531 51.81131744384766 1.500007629394531 45.82666778564453 C 1.500007629394531 39.84149169921875 2.671770095825195 34.03665542602539 4.982757568359375 28.57286643981934 C 7.215232849121094 23.29472923278809 10.41150760650635 18.55415534973145 14.48283290863037 14.48283004760742 C 18.55415725708008 10.4115047454834 23.29473304748535 7.215229511260986 28.5728702545166 4.982754707336426 C 34.03665924072266 2.671766996383667 39.84149551391602 1.500004529953003 45.82614517211914 1.500004529953003 C 51.81079483032227 1.500004529953003 57.61564636230469 2.671766996383667 63.07942199707031 4.982754707336426 C 68.35756683349609 7.215229511260986 73.09814453125 10.4115047454834 77.16947174072266 14.48283004760742 C 81.24078369140625 18.55415534973145 84.43707275390625 23.29472923278809 86.66954803466797 28.57286643981934 C 88.98052978515625 34.03665542602539 90.15229797363281 39.84149169921875 90.15229797363281 45.82614135742188 C 90.15229797363281 51.81131744384766 88.98052978515625 57.61616897583008 86.66954803466797 63.07994079589844 C 84.43707275390625 68.35809326171875 81.24078369140625 73.09866333007812 77.16947174072266 77.16998291015625 C 73.09814453125 81.24130249023438 68.35756683349609 84.43759155273438 63.07942199707031 86.67005157470703 C 57.61564636230469 88.98104095458984 51.81079483032227 90.15280151367188 45.82614517211914 90.15280151367188 Z" stroke="none"/>
          <path d="M 45.82614517211914 3.000007629394531 C 40.04333114624023 3.000007629394531 34.43508911132812 4.131904602050781 29.15720367431641 6.364265441894531 C 24.05784606933594 8.521102905273438 19.47753143310547 11.60944366455078 15.54348754882812 15.54348754882812 C 11.60944366455078 19.47753143310547 8.521102905273438 24.05784606933594 6.3642578125 29.15720367431641 C 4.131904602050781 34.43508911132812 3 40.0433349609375 3 45.82667541503906 C 3 51.60948944091797 4.131904602050781 57.21773147583008 6.3642578125 62.49562072753906 C 8.521102905273438 67.59497833251953 11.60944366455078 72.17527770996094 15.54348754882812 76.10932922363281 C 19.47753143310547 80.04337310791016 24.05784606933594 83.13170623779297 29.15718841552734 85.28854370117188 C 34.43508911132812 87.52090454101562 40.04333114624023 88.65280151367188 45.82614517211914 88.65280151367188 C 51.60895919799805 88.65280151367188 57.21720123291016 87.52090454101562 62.49510192871094 85.28854370117188 C 67.59444427490234 83.13170623779297 72.17475891113281 80.04337310791016 76.10880279541016 76.10932922363281 C 80.0428466796875 72.17527770996094 83.13118743896484 67.59497833251953 85.28803253173828 62.49562072753906 C 87.5203857421875 57.21773147583008 88.65229034423828 51.60948944091797 88.65229034423828 45.82614898681641 C 88.65229034423828 40.0433349609375 87.5203857421875 34.43508911132812 85.28803253173828 29.15720367431641 C 83.13118743896484 24.05784606933594 80.0428466796875 19.47753143310547 76.10880279541016 15.54348754882812 C 72.17475891113281 11.60944366455078 67.59444427490234 8.521102905273438 62.49508666992188 6.364265441894531 C 57.21720123291016 4.131904602050781 51.60895919799805 3.000007629394531 45.82614517211914 3.000007629394531 M 45.82614517211914 7.62939453125e-06 C 71.13523101806641 7.62939453125e-06 91.65229034423828 20.51705932617188 91.65229034423828 45.82614898681641 L 91.65229034423828 45.82667541503906 C 91.65229034423828 71.13575744628906 71.13523101806641 91.65280151367188 45.82614517211914 91.65280151367188 C 20.51705932617188 91.65280151367188 0 71.13575744628906 0 45.82667541503906 L 0 45.82614898681641 C 0 20.51705932617188 20.51705932617188 7.62939453125e-06 45.82614517211914 7.62939453125e-06 Z" stroke="none" fill="#fff"/>
        </g>
      </g>
    </g>
    <g id="vacau" transform="translate(1090.009 1581.001)">
      <g id="Group_1111630" data-name="Group 1111630" transform="translate(0.766 0.775)">
        <path id="Path_900544" data-name="Path 900544" d="M56.584,423.432H9.742a2.261,2.261,0,0,1-2.261-2.261h0a2.266,2.266,0,0,1,1.421-2.1c2.64-1.068,3.7-2.725,6.732-3.416h0c.1-.021.191-.042.289-.061,2.514-.489,5.841.394,8.861.142,2.7-.226,5.425-1.649,8.405-1.649s5.7,1.423,8.405,1.649c3.017.253,6.343-.632,8.861-.142,3.2.622,4.322,2.372,6.986,3.469a2.271,2.271,0,0,1,1.41,2.1h0A2.268,2.268,0,0,1,56.584,423.432Z" transform="translate(-7.481 -372.046)" fill="#acd980"/>
        <path id="Path_900545" data-name="Path 900545" d="M29.8,47.483s-.583.779-7.786,3.893-1.557,7.786-1.557,7.786l-3.374,1.557s-5.6-7.786,1.6-10.9,8-4.671,8-4.671Z" transform="translate(-14.232 -41.254)" fill="#7a8fa5"/>
        <path id="Path_900546" data-name="Path 900546" d="M200.981,340.687l-4.536.493a.753.753,0,0,0-.733.677v8.75l3.114,1,3.114-1v-9.244A.805.805,0,0,0,200.981,340.687Z" transform="translate(-176.248 -306.229)" fill="#d4d4ff"/>
        <path id="Path_900547" data-name="Path 900547" d="M199.906,440.419a1.7,1.7,0,0,0-1.7-.222l-.444.222a1.409,1.409,0,0,1-2.04-1.261v-2.482h6.229v2.482A1.409,1.409,0,0,1,199.906,440.419Z" transform="translate(-176.253 -392.298)" fill="#5b778f"/>
        <path id="Path_900548" data-name="Path 900548" d="M66.416,341.456a.634.634,0,0,0-.29-.514c-.386-.273-.233-.21-5.206.331a.751.751,0,0,0-.732.677v8.75l3.114,1.406,3.114-1.406Z" transform="translate(-54.737 -306.322)" fill="#bdbdff"/>
        <path id="Path_900549" data-name="Path 900549" d="M64.376,440.419a1.7,1.7,0,0,0-1.7-.222l-.444.222a1.409,1.409,0,0,1-2.04-1.261v-2.482h6.229v2.482A1.409,1.409,0,0,1,64.376,440.419Z" transform="translate(-54.737 -392.298)" fill="#5b778f"/>
        <path id="Path_900550" data-name="Path 900550" d="M130.4,154.275a32.111,32.111,0,0,1-1.855,7.787l-3.182,3.292-1.856,4.215a6.819,6.819,0,0,0-2.294,4.629l-.156,3.434-2.8,1.405-3.431-1.405V173.3a1.893,1.893,0,0,0-.9-1.475c-.935-.642-1.51-.071-4.789-.1-12.759-6.893-8.964-15.183-5.517-19.555l2.073-1.341,2.465-1.594c14.057.705,2.58-3.31,20.678-.405A49.729,49.729,0,0,1,130.4,154.275Z" transform="translate(-90.697 -133.254)" fill="#efedff"/>
        <path id="Path_900551" data-name="Path 900551" d="M26.829,198.327c-3.3-.025-3.524-.887-4.874-1.551a1.788,1.788,0,0,0-1.9.2l-3.484,3.074a3.517,3.517,0,0,0-1.188,2.635v1.557l-2.953,1.175-3.275-1.175c.779-9.4-.387-13.33-.675-17.168l12.83-8.3,2.073-1.341C21.176,182.347,18.788,191.442,26.829,198.327Z" transform="translate(-8.379 -159.86)" fill="#d4d4ff"/>
        <path id="Path_900552" data-name="Path 900552" d="M245.082,440.42a1.7,1.7,0,0,0-1.7-.222l-.444.222a1.409,1.409,0,0,1-2.04-1.261v-2.482h6.229v2.482A1.409,1.409,0,0,1,245.082,440.42Z" transform="translate(-216.757 -392.299)" fill="#7a8fa5"/>
        <path id="Path_900553" data-name="Path 900553" d="M308.613,286.094a18.133,18.133,0,0,1-4.735,7.251c-.057.05-.113.1-.169.143s-.09.075-.134.114c-1.582-1.974-2.95-3.756-2.273-5.95a2,2,0,0,1,2.249-1.556C305.375,286.092,306.975,286.094,308.613,286.094Z" transform="translate(-270.76 -257.286)" fill="#7a8fa5"/>
        <path id="Path_900554" data-name="Path 900554" d="M97.075,36.929c1.056-.491,3.426-.038,4.878.316a1.03,1.03,0,0,1,.68,1.46c-.665,1.339-1.844,3.444-2.9,3.935a3.15,3.15,0,0,1-2.657-5.712Z" transform="translate(-86.177 -33.693)" fill="#d4d4ff"/>
        <path id="Path_900555" data-name="Path 900555" d="M19.2,440.42a1.7,1.7,0,0,0-1.7-.222l-.444.222a1.409,1.409,0,0,1-2.04-1.261v-2.482H21.24v2.482A1.409,1.409,0,0,1,19.2,440.42Z" transform="translate(-14.232 -392.299)" fill="#7a8fa5"/>
        <path id="Path_900556" data-name="Path 900556" d="M196.088,53.873a10.665,10.665,0,0,1-5.531,5.081c-4.37,2.081-2.066,7.052,1.544,6.419,1.392-.244,3.249-.573,4.213-2.5,1.212-2.429.453-6.371-.226-9Z" transform="translate(-169.487 -49.078)" fill="#9ea2e3"/>
        <path id="Path_900557" data-name="Path 900557" d="M420.363,53.873a10.665,10.665,0,0,0,5.531,5.081,4.161,4.161,0,0,1,2.118,1.992,3.258,3.258,0,0,1-3.662,4.427c-1.392-.244-3.249-.573-4.213-2.5-1.212-2.429-.453-6.371.226-9Z" transform="translate(-376.893 -49.078)" fill="#bdbdff"/>
        <path id="Path_900558" data-name="Path 900558" d="M414.07,11.454a6.739,6.739,0,0,0,3.14-1.465,6.1,6.1,0,0,0,1.662-1.835,1.339,1.339,0,0,1,2.364.124c1.413,2.938.451,6.1-3.134,7.009Z" transform="translate(-372.027 -7.502)" fill="#7a8fa5"/>
        <path id="Path_900559" data-name="Path 900559" d="M210.991,11.454a6.739,6.739,0,0,1-3.14-1.465,6.1,6.1,0,0,1-1.662-1.835,1.339,1.339,0,0,0-2.364.124c-1.413,2.938-.451,6.1,3.134,7.009Z" transform="translate(-182.962 -7.502)" fill="#516980"/>
        <path id="Path_900560" data-name="Path 900560" d="M291.732,37.558c-1.707,4.271-6.32,6.339-10.943,6.545-18.223-7.3-1.516-21.531-1.516-21.531C288.4,22.139,294.546,30.51,291.732,37.558Z" transform="translate(-244.896 -20.999)" fill="#efedff"/>
        <path id="Path_900561" data-name="Path 900561" d="M238.843,44.242c-9.392.48-15.364-6.019-12.721-13.588a12.339,12.339,0,0,1,11.2-7.942C235.166,25.812,228.974,36.4,238.843,44.242Z" transform="translate(-202.95 -21.138)" fill="#d4d4ff"/>
        <path id="Path_900562" data-name="Path 900562" d="M309.679,144.442a7.609,7.609,0,0,1-4.041,2.858c-12.389-.545-8.339-10.613-8.288-10.74h0C304.638,132.7,312.761,139.655,309.679,144.442Z" transform="translate(-266.773 -122.209)" fill="#ffb3c2"/>
        <path id="Path_900563" data-name="Path 900563" d="M275.875,157.023c-6.005,1.953-12.393-1.062-12.393-5.12,0-2.332,1.984-4.495,4.106-5.621C268.077,149.99,270.286,153.852,275.875,157.023Z" transform="translate(-237.01 -131.932)" fill="#ff9eb1"/>
        <path id="Path_900564" data-name="Path 900564" d="M312,183.145c-2.944-.025-1.535-2.462-1.535-2.462A1.558,1.558,0,0,1,312,183.145Z" transform="translate(-278.836 -162.748)" fill="#ff9eb1"/>
        <path id="Path_900565" data-name="Path 900565" d="M303.934,183.413a1.556,1.556,0,1,1-1.535-2.462A12.948,12.948,0,0,0,303.934,183.413Z" transform="translate(-270.767 -163.016)" fill="#ff758f"/>
        <circle id="Ellipse_11798" data-name="Ellipse 11798" cx="1.557" cy="1.557" r="1.557" transform="translate(36.593 17.907)" fill="#ff9eb1"/>
        <path id="Path_900566" data-name="Path 900566" d="M136.6,163.33a4.688,4.688,0,0,1-4.373,4.439c-.066,0-.132.011-.2.022-1.981-4.372,2.5-6.71,2.5-6.71.549.037,1.1.066,1.65.087A4.66,4.66,0,0,1,136.6,163.33Z" transform="translate(-118.7 -145.2)" fill="#7a8fa5"/>
        <path id="Path_900567" data-name="Path 900567" d="M23.725,156.494a26.5,26.5,0,0,0-2.5,6.71,2.161,2.161,0,0,0-1.756,1.659A3.9,3.9,0,0,1,13.5,167.2a2.149,2.149,0,0,0-2.348-.056A4.666,4.666,0,0,1,8,167.817a18.084,18.084,0,0,1,.03-3.474A9.125,9.125,0,0,1,18.092,156C19.606,156.1,21.351,156.339,23.725,156.494Z" transform="translate(-7.889 -140.614)" fill="#5b778f"/>
        <path id="Path_900568" data-name="Path 900568" d="M145.984,295.548c-.182,0-1.608.2-3.649.2-5.107-.992-5.014-7.62-5.014-7.62a3.115,3.115,0,0,1,6.038,1.025,2.062,2.062,0,0,0,1.243,1.863A3.115,3.115,0,0,1,145.984,295.548Z" transform="translate(-123.895 -257.282)" fill="#7a8fa5"/>
        <path id="Path_900569" data-name="Path 900569" d="M127.178,313.441c-3.217,0-3.616-.933-4.874-1.551a1.79,1.79,0,0,0-1.612.013h0a1.809,1.809,0,0,0-.244.153,3.1,3.1,0,0,1,.946-2.762,2.057,2.057,0,0,0,.618-1.862,3.126,3.126,0,0,1,.144-1.611A15.34,15.34,0,0,0,127.178,313.441Z" transform="translate(-108.727 -274.973)" fill="#5b778f"/>
      </g>
      <g id="Group_1111631" data-name="Group 1111631" transform="translate(-0.009 -0.001)">
        <path id="Trazado_900570" data-name="Trazado 900570" d="M118.116,420.8c-.852,0-1.7-.071-2.7-.154-.533-.044-1.114-.093-1.766-.136a.776.776,0,1,1,.1-1.548c.662.044,1.251.093,1.792.138a15.18,15.18,0,0,0,5.755-.265.776.776,0,1,1,.374,1.505A14.117,14.117,0,0,1,118.116,420.8Z" transform="translate(-101.244 -375.502)"/>
        <path id="Trazado_900571" data-name="Trazado 900571" d="M49.869,424.869H3.026a3.037,3.037,0,0,1-1.878-5.419.776.776,0,1,1,.963,1.216,1.486,1.486,0,0,0,.914,2.652H49.869a1.492,1.492,0,0,0,.562-2.874,15.763,15.763,0,0,1-2.828-1.59,10.246,10.246,0,0,0-4.011-1.835,16.959,16.959,0,0,0-4.4.025,26.126,26.126,0,0,1-4.38.128,20.69,20.69,0,0,1-3.764-.8.811.811,0,0,1-.578-.966.742.742,0,0,1,.916-.55l.078.022a19.255,19.255,0,0,0,3.478.75,24.983,24.983,0,0,0,4.118-.128,17.978,17.978,0,0,1,4.826,0,11.671,11.671,0,0,1,4.573,2.065,14.307,14.307,0,0,0,2.561,1.448,3.043,3.043,0,0,1-1.153,5.859Z" transform="translate(0.009 -371.932)"/>
        <path id="Trazado_900572" data-name="Trazado 900572" d="M9.8,75.038a.775.775,0,0,1-.675-.393c-.878-1.549-2.214-4.555-1.3-7.28a6.439,6.439,0,0,1,3.836-3.8c1.783-.77,3.318-1.509,4.564-2.2a.776.776,0,1,1,.749,1.358c-1.289.711-2.869,1.471-4.7,2.261A4.965,4.965,0,0,0,9.3,67.858c-.723,2.155.428,4.7,1.179,6.022A.776.776,0,0,1,9.8,75.038Z" transform="translate(-6.74 -54.934)"/>
        <path id="Trazado_900573" data-name="Trazado 900573" d="M41.451,94.588a.775.775,0,0,1-.647-.347,4.5,4.5,0,0,1-.777-3.806C40.46,88.976,41.8,87.752,44,86.8c1.11-.48,2.062-.9,2.879-1.278a.776.776,0,0,1,.646,1.41c-.825.378-1.788.807-2.909,1.292-1.764.763-2.809,1.656-3.105,2.655a2.985,2.985,0,0,0,.582,2.507.776.776,0,0,1-.645,1.2Z" transform="translate(-35.751 -76.613)"/>
        <path id="Trazado_900574" data-name="Trazado 900574" d="M195.217,379.339h-6.229a.776.776,0,0,1-.776-.776v-5.927a.776.776,0,1,1,1.551,0v5.152h5.454a.776.776,0,1,1,0,1.551Z" transform="translate(-168.749 -333.409)"/>
        <path id="Trazado_900575" data-name="Trazado 900575" d="M193.819,434.637a2.628,2.628,0,0,1-1.213-.357c-.4-.2-.512-.247-.785-.11l-.445.223a2.185,2.185,0,0,1-3.163-1.954v-2.482a.776.776,0,0,1,.776-.776h4.575a.776.776,0,1,1,0,1.551h-3.8v1.706a.634.634,0,0,0,.918.567l.445-.222a2.189,2.189,0,0,1,2.178.112c.4.2.513.247.787.11a.776.776,0,0,1,.7,1.387A2.134,2.134,0,0,1,193.819,434.637Z" transform="translate(-168.749 -384.802)"/>
        <path id="Trazado_900576" data-name="Trazado 900576" d="M59.7,367.728H53.468a.776.776,0,1,1,0-1.551H58.92v-6.491a.776.776,0,1,1,1.551,0v7.266A.776.776,0,0,1,59.7,367.728Z" transform="translate(-47.242 -321.798)"/>
        <path id="Trazado_900577" data-name="Trazado 900577" d="M61.606,434.631a2.111,2.111,0,0,1-.958-.239.776.776,0,0,1,.7-1.387c.264.133.4.09.87-.151l.141-.072a2.3,2.3,0,0,1,2.277.16l.122.062a.634.634,0,0,0,.917-.567v-1.706h-3.8a.776.776,0,1,1,0-1.551h4.574a.776.776,0,0,1,.776.776v2.482a2.185,2.185,0,0,1-3.161,1.954l-.136-.069c-.466-.239-.613-.285-.875-.154l-.127.065A2.835,2.835,0,0,1,61.606,434.631Z" transform="translate(-53.992 -384.802)"/>
        <path id="Trazado_900578" data-name="Trazado 900578" d="M31.521,178.965H25.292a.776.776,0,0,1-.776-.776v-4.334a1.167,1.167,0,0,0-.558-.834c-.286-.2-.361-.2-1.331-.116-.477.043-1.105.1-1.979.131-3.565.128-4.543-.522-5.488-1.152a6.584,6.584,0,0,0-.771-.463,1.015,1.015,0,0,0-1.122.148l-3.4,3.008a2.742,2.742,0,0,0-.926,2.054v1.557a.776.776,0,0,1-.776.776H1.935a.776.776,0,0,1-.773-.84c.043-.515.087-.97.129-1.4a30.149,30.149,0,0,0,.193-3.268,68.3,68.3,0,0,0-.655-9.324,25.507,25.507,0,0,1-.223-7.277,9.855,9.855,0,0,1,10.164-8.473c1.188.045,2.05.141,2.963.241a61.47,61.47,0,0,0,7.877.384.776.776,0,0,1,0,1.551,62.808,62.808,0,0,1-8.047-.393c-.923-.1-1.719-.19-2.851-.233a8.308,8.308,0,0,0-8.57,7.141,24.332,24.332,0,0,0,.227,6.865,69.652,69.652,0,0,1,.667,9.518,31.812,31.812,0,0,1-.2,3.419c-.017.174-.034.352-.052.536h4.6v-.782a4.294,4.294,0,0,1,1.45-3.216l3.4-3.009a2.562,2.562,0,0,1,2.833-.376,8.1,8.1,0,0,1,.945.564c.808.538,1.507,1,4.572.893.837-.031,1.439-.085,1.9-.126a3.018,3.018,0,0,1,2.346.381,2.632,2.632,0,0,1,1.233,2.114v3.558h4.706q.005-.176.011-.351c.079-2.688.161-5.467,2.83-7.651,2.577-2.148,4.691-6.063,5.795-10.738a.776.776,0,0,1,1.51.356c-.693,2.936-2.435,8.343-6.317,11.578-2.127,1.74-2.192,3.946-2.267,6.5-.011.368-.022.741-.039,1.116A.776.776,0,0,1,31.521,178.965Z" transform="translate(-0.381 -133.034)"/>
        <path id="Trazado_900579" data-name="Trazado 900579" d="M238.987,434.622a2.166,2.166,0,0,1-.977-.232l-.145-.074a1.491,1.491,0,0,0-.6-.221.6.6,0,0,0-.267.073l-.444.222a2.166,2.166,0,0,1-.976.232,2.211,2.211,0,0,1-1.521-.616,2.162,2.162,0,0,1-.665-1.57v-2.482a.776.776,0,0,1,.776-.776H240.4a.776.776,0,0,1,.776.776v2.482A2.189,2.189,0,0,1,238.987,434.622Zm-1.721-2.079a2.8,2.8,0,0,1,1.311.394l.127.065a.628.628,0,0,0,.283.069.636.636,0,0,0,.634-.636v-1.706h-4.678v1.706a.615.615,0,0,0,.19.454.638.638,0,0,0,.727.113l.444-.222A2.137,2.137,0,0,1,237.267,432.543Z" transform="translate(-209.258 -384.799)"/>
        <path id="Trazado_900580" data-name="Trazado 900580" d="M299.083,278.593h2.82a.776.776,0,0,1,.724,1.054,18.727,18.727,0,0,1-5.256,7.816.776.776,0,0,1-1.111-.1c-1.511-1.885-3.224-4.023-2.409-6.664a2.785,2.785,0,0,1,2.99-2.1Zm1.664,1.551h-1.664l-2.24,0c-.93,0-1.268.226-1.509,1.009-.475,1.539.294,2.872,1.625,4.59A16.908,16.908,0,0,0,300.746,280.145Z" transform="translate(-263.276 -249.786)"/>
        <path id="Trazado_900581" data-name="Trazado 900581" d="M91.656,29.213a17.334,17.334,0,0,1,3.744.554,1.806,1.806,0,0,1,1.191,2.559c-1.188,2.393-2.287,3.837-3.267,4.293a3.893,3.893,0,0,1-1.654.367,3.941,3.941,0,0,1-3.561-2.27,3.779,3.779,0,0,1,3.548-5.5Zm.013,6.222a2.353,2.353,0,0,0,1-.222c.476-.221,1.391-1.277,2.532-3.577a.255.255,0,0,0-.169-.362,15.85,15.85,0,0,0-3.377-.51,2.441,2.441,0,0,0-.99.143,2.374,2.374,0,0,0-1.151,3.154A2.384,2.384,0,0,0,91.67,35.435Z" transform="translate(-78.666 -26.192)"/>
        <path id="Trazado_900582" data-name="Trazado 900582" d="M9.7,434.622a2.211,2.211,0,0,1-1.521-.616,2.162,2.162,0,0,1-.665-1.57v-2.482a.776.776,0,0,1,.776-.776h6.229a.776.776,0,0,1,.776.776v2.482a2.189,2.189,0,0,1-2.185,2.187,2.166,2.166,0,0,1-.977-.232l-.136-.069a1.552,1.552,0,0,0-.61-.226.57.57,0,0,0-.265.073l-.444.222A2.166,2.166,0,0,1,9.7,434.622Zm-.634-3.893v1.706a.615.615,0,0,0,.19.454.638.638,0,0,0,.727.113l.444-.222a2.133,2.133,0,0,1,.959-.237,2.81,2.81,0,0,1,1.317.4l.122.062a.628.628,0,0,0,.283.069.636.636,0,0,0,.634-.636v-1.706Z" transform="translate(-6.733 -384.799)"/>
        <path id="Trazado_900583" data-name="Trazado 900583" d="M184.7,90.682a3.816,3.816,0,0,1-1.833-.459,3.965,3.965,0,0,1-1.847-5.11,5.234,5.234,0,0,1,2.893-2.573,11.891,11.891,0,0,0,2.027-1.2.776.776,0,1,1,.942,1.233,13.341,13.341,0,0,1-2.274,1.354c-1.054.527-1.75.876-2.171,1.819a2.415,2.415,0,0,0,1.149,3.1,2.894,2.894,0,0,0,2.151.157.776.776,0,1,1,.29,1.524A7.061,7.061,0,0,1,184.7,90.682Z" transform="translate(-162.005 -72.786)"/>
        <path id="Trazado_900584" data-name="Trazado 900584" d="M451.51,90.707a4.484,4.484,0,0,1-.777-.069l-.5-.091a.776.776,0,1,1,.292-1.523l.478.087a2.546,2.546,0,0,0,2.908-1.714c.411-1.287-.274-2.5-1.832-3.241a14.759,14.759,0,0,1-2.7-1.563.776.776,0,1,1,.941-1.233,13.4,13.4,0,0,0,2.427,1.4c2.74,1.306,3.136,3.571,2.643,5.113A4.086,4.086,0,0,1,451.51,90.707Z" transform="translate(-402.635 -72.804)"/>
        <path id="Trazado_900585" data-name="Trazado 900585" d="M415.775,9.325a.776.776,0,0,1-.194-1.526,4.027,4.027,0,0,0,2.807-2.111,4.423,4.423,0,0,0-.218-3.8.57.57,0,0,0-.5-.337.546.546,0,0,0-.5.275A6.881,6.881,0,0,1,415.3,3.891,8.6,8.6,0,0,1,412.386,5.4a.776.776,0,0,1-.36-1.509,7.318,7.318,0,0,0,2.364-1.262,5.341,5.341,0,0,0,1.451-1.6A2.081,2.081,0,0,1,417.746,0a2.133,2.133,0,0,1,1.822,1.214,6.015,6.015,0,0,1,.227,5.126A5.522,5.522,0,0,1,415.97,9.3.778.778,0,0,1,415.775,9.325Z" transform="translate(-368.886 0.001)"/>
        <path id="Trazado_900586" data-name="Trazado 900586" d="M200.149,9.325a.777.777,0,0,1-.195-.025,5.6,5.6,0,0,1-3.827-2.964,5.931,5.931,0,0,1,.228-5.121A2.133,2.133,0,0,1,198.177,0a2.081,2.081,0,0,1,1.906,1.027,5.355,5.355,0,0,0,1.451,1.6A7.3,7.3,0,0,0,203.9,3.894a.776.776,0,1,1-.358,1.509,8.58,8.58,0,0,1-2.911-1.512,6.9,6.9,0,0,1-1.874-2.063.547.547,0,0,0-.5-.276.57.57,0,0,0-.5.336,4.418,4.418,0,0,0-.219,3.8A4.031,4.031,0,0,0,200.343,7.8a.776.776,0,0,1-.194,1.526Z" transform="translate(-175.417 0.001)"/>
        <path id="Trazado_900587" data-name="Trazado 900587" d="M327.713,35.685a.776.776,0,0,1-.451-1.407,8.324,8.324,0,0,0,3.632-7.025,10.183,10.183,0,0,0-3.782-7.871A12.343,12.343,0,0,0,317,16.758a.776.776,0,1,1-.268-1.528,13.89,13.89,0,0,1,11.379,2.964,11.865,11.865,0,0,1,4.336,9.059,9.945,9.945,0,0,1-4.282,8.287A.772.772,0,0,1,327.713,35.685Z" transform="translate(-283.403 -13.458)"/>
        <path id="Trazado_900588" data-name="Trazado 900588" d="M222.939,45.736a.772.772,0,0,1-.45-.144,10,10,0,0,1-4.244-9.339,12.432,12.432,0,0,1,7.421-9.964A.776.776,0,1,1,226.3,27.7a10.878,10.878,0,0,0-6.512,8.7,8.482,8.482,0,0,0,3.6,7.924.776.776,0,0,1-.451,1.407Z" transform="translate(-195.629 -23.509)"/>
        <path id="Trazado_900589" data-name="Trazado 900589" d="M265.584,128.041h0a10.159,10.159,0,0,1,3.66.684,9.483,9.483,0,0,1,4.884,4.062,5.122,5.122,0,0,1,.07,5.256c-1.411,2.4-4.887,4.011-8.651,4.011a12.787,12.787,0,0,1-4.052-.647,8.366,8.366,0,0,1-4.458-3.177,5.192,5.192,0,0,1-.05-5.433A9.9,9.9,0,0,1,265.584,128.041Zm-.036,12.461c3.232,0,6.172-1.3,7.314-3.246a3.54,3.54,0,0,0-.089-3.716,8.025,8.025,0,0,0-4.085-3.368,8.613,8.613,0,0,0-3.1-.58,8.425,8.425,0,0,0-7.234,3.947,3.64,3.64,0,0,0-.008,3.85,6.832,6.832,0,0,0,3.645,2.546A11.239,11.239,0,0,0,265.548,140.5Z" transform="translate(-229.749 -114.801)"/>
        <path id="Línea_564" data-name="Línea 564" d="M-6.724-4.708A.776.776,0,0,1-7.5-5.484V-6.724A.776.776,0,0,1-6.724-7.5a.776.776,0,0,1,.776.776v1.241A.776.776,0,0,1-6.724-4.708Z" transform="translate(36.089 18.716)"/>
        <path id="Línea_565" data-name="Línea 565" d="M-6.724-4.708A.776.776,0,0,1-7.5-5.484V-6.724A.776.776,0,0,1-6.724-7.5a.776.776,0,0,1,.776.776v1.241A.776.776,0,0,1-6.724-4.708Z" transform="translate(49.004 18.716)"/>
        <path id="Elipse_11799" data-name="Elipse 11799" d="M-5.167-7.5A2.335,2.335,0,0,1-2.835-5.167,2.335,2.335,0,0,1-5.167-2.835,2.335,2.335,0,0,1-7.5-5.167,2.335,2.335,0,0,1-5.167-7.5Zm0,3.114a.783.783,0,0,0,.782-.782.783.783,0,0,0-.782-.782.783.783,0,0,0-.782.782A.783.783,0,0,0-5.167-4.386Z" transform="translate(37.863 25.407)"/>
        <path id="Elipse_11800" data-name="Elipse 11800" d="M-5.167-7.5A2.335,2.335,0,0,1-2.835-5.167,2.335,2.335,0,0,1-5.167-2.835,2.335,2.335,0,0,1-7.5-5.167,2.335,2.335,0,0,1-5.167-7.5Zm0,3.114a.783.783,0,0,0,.782-.782.783.783,0,0,0-.782-.782.783.783,0,0,0-.782.782A.783.783,0,0,0-5.167-4.386Z" transform="translate(44.092 25.407)"/>
        <path id="Trazado_900590" data-name="Trazado 900590" d="M2.54,167.254a5.439,5.439,0,0,1-.773-.054.776.776,0,0,1,.22-1.535,3.91,3.91,0,0,0,2.627-.559,2.932,2.932,0,0,1,3.194.068,3.117,3.117,0,0,0,4.484-1.11,3.144,3.144,0,0,0,.291-.763,2.922,2.922,0,0,1,2.659-2.276,3.913,3.913,0,0,0,3.647-3.7,3.861,3.861,0,0,0-.346-1.8.776.776,0,1,1,1.411-.645,5.449,5.449,0,0,1-4.517,7.692l-.117.007a1.376,1.376,0,0,0-1.227,1.084,4.666,4.666,0,0,1-4.574,3.591,4.57,4.57,0,0,1-1.753-.347,4.661,4.661,0,0,1-.821-.44,1.38,1.38,0,0,0-1.5-.044A5.431,5.431,0,0,1,2.54,167.254Z" transform="translate(-0.986 -138.452)"/>
        <path id="Trazado_900591" data-name="Trazado 900591" d="M124.106,289.6a.776.776,0,0,1-.652-1.194,2.315,2.315,0,0,0,.361-1.092,2.353,2.353,0,0,0-1.4-2.309,2.85,2.85,0,0,1-1.708-2.562l-.005-.134a2.339,2.339,0,0,0-3.933-1.533,2.317,2.317,0,0,0-.738,1.705,2.292,2.292,0,0,0,.035.4,2.833,2.833,0,0,1-.852,2.564,2.333,2.333,0,0,0-.734,1.881c0,.064.012.126.022.187a.776.776,0,0,1-1.529.258q-.028-.165-.04-.335a3.876,3.876,0,0,1,1.221-3.123,1.285,1.285,0,0,0,.384-1.163,3.832,3.832,0,0,1-.058-.67,3.905,3.905,0,0,1,1.227-2.836,3.89,3.89,0,0,1,6.543,2.554c.005.073.008.146.009.218a1.28,1.28,0,0,0,.778,1.166,3.888,3.888,0,0,1,1.726,5.659A.775.775,0,0,1,124.106,289.6Z" transform="translate(-101.243 -249.782)"/>
      </g>
    </g>
  </g>
</svg>
