<svg xmlns="http://www.w3.org/2000/svg" xmlns:xlink="http://www.w3.org/1999/xlink" width="109.652" height="109.653" viewBox="0 0 109.652 109.653">
  <defs>
    <filter id="Path_874925" x="0" y="0" width="109.652" height="109.653" filterUnits="userSpaceOnUse">
      <feOffset dy="3" input="SourceAlpha"/>
      <feGaussianBlur stdDeviation="3" result="blur"/>
      <feFlood flood-opacity="0.161"/>
      <feComposite operator="in" in2="blur"/>
      <feComposite in="SourceGraphic"/>
    </filter>
  </defs>
  <g id="Group_1111636" data-name="Group 1111636" transform="translate(-424 -1743)">
    <g id="Group_1111413" data-name="Group 1111413" transform="translate(-586.73 -1328)">
      <g transform="matrix(1, 0, 0, 1, 1010.73, 3071)" filter="url(#Path_874925)">
        <g id="Path_874925-2" data-name="Path 874925" transform="translate(9 6)" fill="#ffd63c">
          <path d="M 45.82614517211914 90.15280151367188 C 39.84149551391602 90.15280151367188 34.03665924072266 88.98104095458984 28.5728702545166 86.67005157470703 C 23.29473304748535 84.43759155273438 18.55415725708008 81.24130249023438 14.48283290863037 77.16998291015625 C 10.41150760650635 73.09866333007812 7.215232849121094 68.35809326171875 4.982757568359375 63.07994079589844 C 2.671770095825195 57.61616897583008 1.500007629394531 51.81131744384766 1.500007629394531 45.82666778564453 C 1.500007629394531 39.84149169921875 2.671770095825195 34.03665542602539 4.982757568359375 28.57286643981934 C 7.215232849121094 23.29472923278809 10.41150760650635 18.55415534973145 14.48283290863037 14.48283004760742 C 18.55415725708008 10.4115047454834 23.29473304748535 7.215229511260986 28.5728702545166 4.982754707336426 C 34.03665924072266 2.671766996383667 39.84149551391602 1.500004529953003 45.82614517211914 1.500004529953003 C 51.81079483032227 1.500004529953003 57.61564636230469 2.671766996383667 63.07942199707031 4.982754707336426 C 68.35756683349609 7.215229511260986 73.09814453125 10.4115047454834 77.16947174072266 14.48283004760742 C 81.24078369140625 18.55415534973145 84.43707275390625 23.29472923278809 86.66954803466797 28.57286643981934 C 88.98052978515625 34.03665542602539 90.15229797363281 39.84149169921875 90.15229797363281 45.82614135742188 C 90.15229797363281 51.81131744384766 88.98052978515625 57.61616897583008 86.66954803466797 63.07994079589844 C 84.43707275390625 68.35809326171875 81.24078369140625 73.09866333007812 77.16947174072266 77.16998291015625 C 73.09814453125 81.24130249023438 68.35756683349609 84.43759155273438 63.07942199707031 86.67005157470703 C 57.61564636230469 88.98104095458984 51.81079483032227 90.15280151367188 45.82614517211914 90.15280151367188 Z" stroke="none"/>
          <path d="M 45.82614517211914 3.000007629394531 C 40.04333114624023 3.000007629394531 34.43508911132812 4.131904602050781 29.15720367431641 6.364265441894531 C 24.05784606933594 8.521102905273438 19.47753143310547 11.60944366455078 15.54348754882812 15.54348754882812 C 11.60944366455078 19.47753143310547 8.521102905273438 24.05784606933594 6.3642578125 29.15720367431641 C 4.131904602050781 34.43508911132812 3 40.0433349609375 3 45.82667541503906 C 3 51.60948944091797 4.131904602050781 57.21773147583008 6.3642578125 62.49562072753906 C 8.521102905273438 67.59497833251953 11.60944366455078 72.17527770996094 15.54348754882812 76.10932922363281 C 19.47753143310547 80.04337310791016 24.05784606933594 83.13170623779297 29.15718841552734 85.28854370117188 C 34.43508911132812 87.52090454101562 40.04333114624023 88.65280151367188 45.82614517211914 88.65280151367188 C 51.60895919799805 88.65280151367188 57.21720123291016 87.52090454101562 62.49510192871094 85.28854370117188 C 67.59444427490234 83.13170623779297 72.17475891113281 80.04337310791016 76.10880279541016 76.10932922363281 C 80.0428466796875 72.17527770996094 83.13118743896484 67.59497833251953 85.28803253173828 62.49562072753906 C 87.5203857421875 57.21773147583008 88.65229034423828 51.60948944091797 88.65229034423828 45.82614898681641 C 88.65229034423828 40.0433349609375 87.5203857421875 34.43508911132812 85.28803253173828 29.15720367431641 C 83.13118743896484 24.05784606933594 80.0428466796875 19.47753143310547 76.10880279541016 15.54348754882812 C 72.17475891113281 11.60944366455078 67.59444427490234 8.521102905273438 62.49508666992188 6.364265441894531 C 57.21720123291016 4.131904602050781 51.60895919799805 3.000007629394531 45.82614517211914 3.000007629394531 M 45.82614517211914 7.62939453125e-06 C 71.13523101806641 7.62939453125e-06 91.65229034423828 20.51705932617188 91.65229034423828 45.82614898681641 L 91.65229034423828 45.82667541503906 C 91.65229034423828 71.13575744628906 71.13523101806641 91.65280151367188 45.82614517211914 91.65280151367188 C 20.51705932617188 91.65280151367188 0 71.13575744628906 0 45.82667541503906 L 0 45.82614898681641 C 0 20.51705932617188 20.51705932617188 7.62939453125e-06 45.82614517211914 7.62939453125e-06 Z" stroke="none" fill="#fff"/>
        </g>
      </g>
    </g>
    <g id="sostenibilidad" transform="translate(426 1736.823)">
      <g id="Group_1111633" data-name="Group 1111633" transform="translate(27.448 40.083)">
        <path id="Path_900570" data-name="Path 900570" d="M258.972,232.7l.011.437.661,15.846H257l.661-15.846.022-.437Z" transform="translate(-231.674 -217.246)" fill="#dd6e42" fill-rule="evenodd"/>
        <path id="Path_900571" data-name="Path 900571" d="M236.92,94.8a12.944,12.944,0,0,1,.168,18.726A12.945,12.945,0,0,1,236.92,94.8Z" transform="translate(-210.361 -94.8)" fill="#718446" fill-rule="evenodd"/>
        <path id="Path_900572" data-name="Path 900572" d="M267.493,103.7a12.746,12.746,0,0,1,3.093,8.326,13.121,13.121,0,0,1-1.2,5.67,12.746,12.746,0,0,1-3.093-8.326A13.12,13.12,0,0,1,267.493,103.7Z" transform="translate(-239.925 -102.703)" fill="#b4c08b" fill-rule="evenodd"/>
        <path id="Path_900573" data-name="Path 900573" d="M135.48,225.111a12.576,12.576,0,0,0-14.68-10.736,12.576,12.576,0,0,0,14.68,10.736Z" transform="translate(-110.737 -200.76)" fill="#718446" fill-rule="evenodd"/>
        <path id="Path_900574" data-name="Path 900574" d="M170.685,225.413a12.393,12.393,0,0,0-4.83-7.15A12.771,12.771,0,0,0,160.7,216a12.341,12.341,0,0,0,4.83,7.15A12.837,12.837,0,0,0,170.685,225.413Z" transform="translate(-146.165 -202.418)" fill="#b4c08b" fill-rule="evenodd"/>
        <path id="Path_900575" data-name="Path 900575" d="M285.9,225.111a12.576,12.576,0,0,1,14.68-10.736,12.591,12.591,0,0,1-14.68,10.736Z" transform="translate(-257.335 -200.76)" fill="#718446" fill-rule="evenodd"/>
        <path id="Path_900576" data-name="Path 900576" d="M287.8,225.413a12.393,12.393,0,0,1,4.83-7.15A12.771,12.771,0,0,1,297.785,216a12.341,12.341,0,0,1-4.83,7.15A12.7,12.7,0,0,1,287.8,225.413Z" transform="translate(-259.022 -202.418)" fill="#b4c08b" fill-rule="evenodd"/>
        <path id="Path_900577" data-name="Path 900577" d="M162.991,343.132l12.562-5.558c2.365-1.053,4.92,2.028,1.524,4.124l-13.089,8.08a5.29,5.29,0,0,1-2.914.773l-12.641.022-4.651-2.051.157-6.04h-.84V335.4h8.214a3.52,3.52,0,0,1,3.407,2.566h7.194a2.7,2.7,0,0,1,1.076,5.166Z" transform="translate(-130.538 -308.438)" fill="#e2bb92" fill-rule="evenodd"/>
        <path id="Path_900578" data-name="Path 900578" d="M182.169,353c1.86.179,3.127,2.589.325,4.326l-13.089,8.08a5.29,5.29,0,0,1-2.914.773l-12.641.022L149.2,364.15l.1-3.833c.482-.818,1.02-1.659,1.614-2.533Q167.909,365.938,182.169,353Z" transform="translate(-135.954 -324.065)" fill="#db9876" fill-rule="evenodd"/>
        <path id="Path_900579" data-name="Path 900579" d="M31,331.1h5.76v14.456H31Z" transform="translate(-31 -304.619)" fill="#d04d4d" fill-rule="evenodd"/>
        <path id="Path_900580" data-name="Path 900580" d="M31,395.7h5.76v7.228H31Z" transform="translate(-31 -361.98)" fill="#c62a29" fill-rule="evenodd"/>
        <path id="Path_900581" data-name="Path 900581" d="M84.619,315.1H89.37a2.224,2.224,0,0,1,2.219,2.219v13.448a2.224,2.224,0,0,1-2.219,2.219H84.619a2.224,2.224,0,0,1-2.219-2.219V317.319a2.224,2.224,0,0,1,2.219-2.219Z" transform="translate(-76.64 -290.413)" fill="#f598a2" fill-rule="evenodd"/>
        <path id="Path_900582" data-name="Path 900582" d="M91.689,395.7v6.645a2.224,2.224,0,0,1-2.219,2.219H84.719a2.224,2.224,0,0,1-2.219-2.219V395.7Z" transform="translate(-76.729 -361.98)" fill="#df5356" fill-rule="evenodd"/>
      </g>
      <path id="Path_900583" data-name="Path 900583" d="M35.427,64.322h4.751A2.7,2.7,0,0,1,42.823,66.6h5.4a3.972,3.972,0,0,1,3.732,2.577h.471l.2-4.7a.441.441,0,0,1-.347.392,13.11,13.11,0,0,1-13.6-6.242,11.868,11.868,0,0,1-1.625-4.852.45.45,0,0,1,.347-.515A13.1,13.1,0,0,1,51,59.514a11.868,11.868,0,0,1,1.625,4.852c0,.022.011.045.011.078l.258-6.253a13.459,13.459,0,0,1,.818-18.412.434.434,0,0,1,.594,0c4.169,3.642,5.323,9.985,3.216,15.061a12.31,12.31,0,0,1-2.208,3.519l.258,6.107a.219.219,0,0,1,.011-.078,11.7,11.7,0,0,1,1.625-4.852,13.109,13.109,0,0,1,13.6-6.253.45.45,0,0,1,.347.515,11.546,11.546,0,0,1-1.625,4.852,13.084,13.084,0,0,1-13.6,6.242.427.427,0,0,1-.347-.392l.2,4.7h3.037a3.144,3.144,0,0,1,2.914,4.3l10.534-4.662a2.763,2.763,0,0,1,2.734.247,2.393,2.393,0,0,1,1.053,2.04,3.345,3.345,0,0,1-1.86,2.633L61.134,81.792a5.662,5.662,0,0,1-3.149.84l-12.641.022a.465.465,0,0,1-.179-.034l-2.533-1.109a2.668,2.668,0,0,1-2.454,1.614H35.427a2.7,2.7,0,0,1-2.465-1.647H27.448A.45.45,0,0,1,27,81.03V66.574a.45.45,0,0,1,.448-.448h5.457a2.682,2.682,0,0,1,2.521-1.8Zm7.43,3.171V80.448a.964.964,0,0,1-.011.179l2.589,1.143,12.54-.022a4.9,4.9,0,0,0,2.678-.706l13.089-8.08c1.177-.728,1.748-1.715,1.255-2.611a1.51,1.51,0,0,0-.5-.56,1.87,1.87,0,0,0-1.86-.157l-12.54,5.547a.41.41,0,0,1-.2.045H50.309a.448.448,0,0,1,0-.9H59.8a2.31,2.31,0,0,0,.908-.8,2.25,2.25,0,0,0-1.883-3.474H51.631a.452.452,0,0,1-.437-.347,3.073,3.073,0,0,0-2.97-2.23H42.857ZM40.19,65.218H35.438a1.774,1.774,0,0,0-1.771,1.771V80.436a1.774,1.774,0,0,0,1.771,1.771H40.19a1.774,1.774,0,0,0,1.771-1.771V66.989A1.774,1.774,0,0,0,40.19,65.218Zm-7.43,1.793H27.9v13.56H32.76Zm20.575,2.152h1.524l-.415-9.985a.439.439,0,0,1-.549-.022c-.045-.045-.09-.078-.134-.123Zm22.043-7.788a.451.451,0,0,1,.874.224,23.225,23.225,0,0,1-2.208,5.536.449.449,0,0,1-.784-.437A21.641,21.641,0,0,0,75.378,61.375ZM33.589,63.493a.447.447,0,0,1-.84.3,23.02,23.02,0,0,1-1.031-3.81L31.37,61a.445.445,0,0,1-.84-.291l.84-2.432A.453.453,0,0,1,32.1,58.1l1.984,1.838a.444.444,0,0,1-.605.65l-.874-.818A20.9,20.9,0,0,0,33.589,63.493ZM77.44,51.524a.449.449,0,0,1,.874.2L77.6,54.763a.444.444,0,0,1-.751.213l-2.219-1.86a.446.446,0,0,1,.572-.684l1.053.885c-2.073-8.864-7.531-16.227-16.7-18.558A21.891,21.891,0,0,0,32.939,50.583a.446.446,0,0,1-.863-.224,22.786,22.786,0,0,1,27.7-16.473c9.447,2.4,15.14,9.951,17.325,19.084ZM57.963,59.963a10.991,10.991,0,0,0-1.457,4.113A12.192,12.192,0,0,0,70.211,54.068,12.23,12.23,0,0,0,57.963,59.963Zm-6.264,4.1A12.184,12.184,0,0,0,37.993,54.057,12.19,12.19,0,0,0,51.7,64.064Zm4.9-19.678a11.36,11.36,0,0,0-2.577-3.7A12.565,12.565,0,0,0,54.186,58.2,12.629,12.629,0,0,0,56.6,44.386Z"/>
    </g>
  </g>
</svg>
