<svg xmlns="http://www.w3.org/2000/svg" xmlns:xlink="http://www.w3.org/1999/xlink" width="109.652" height="109.652" viewBox="0 0 109.652 109.652">
  <defs>
    <filter id="Path_874925" x="0" y="0" width="109.652" height="109.652" filterUnits="userSpaceOnUse">
      <feOffset dy="3" input="SourceAlpha"/>
      <feGaussianBlur stdDeviation="3" result="blur"/>
      <feFlood flood-opacity="0.161"/>
      <feComposite operator="in" in2="blur"/>
      <feComposite in="SourceGraphic"/>
    </filter>
  </defs>
  <g id="Group_1111653" data-name="Group 1111653" transform="translate(-11893 9143)">
    <g id="Group_1111425" data-name="Group 1111425" transform="translate(10882.27 -12214)">
      <g transform="matrix(1, 0, 0, 1, 1010.73, 3071)" filter="url(#Path_874925)">
        <g id="Path_874925-2" data-name="Path 874925" transform="translate(9 6)" fill="#ffd63c">
          <path d="M 45.82614517211914 90.15280151367188 C 39.84149551391602 90.15280151367188 34.03665924072266 88.98104095458984 28.5728702545166 86.67005157470703 C 23.29473304748535 84.43759155273438 18.55415725708008 81.24130249023438 14.48283290863037 77.16998291015625 C 10.41150760650635 73.09866333007812 7.215232849121094 68.35809326171875 4.982757568359375 63.07994079589844 C 2.671770095825195 57.61616897583008 1.500007629394531 51.81131744384766 1.500007629394531 45.82666778564453 C 1.500007629394531 39.84149169921875 2.671770095825195 34.03665542602539 4.982757568359375 28.57286643981934 C 7.215232849121094 23.29472923278809 10.41150760650635 18.55415534973145 14.48283290863037 14.48283004760742 C 18.55415725708008 10.4115047454834 23.29473304748535 7.215229511260986 28.5728702545166 4.982754707336426 C 34.03665924072266 2.671766996383667 39.84149551391602 1.500004529953003 45.82614517211914 1.500004529953003 C 51.81079483032227 1.500004529953003 57.61564636230469 2.671766996383667 63.07942199707031 4.982754707336426 C 68.35756683349609 7.215229511260986 73.09814453125 10.4115047454834 77.16947174072266 14.48283004760742 C 81.24078369140625 18.55415534973145 84.43707275390625 23.29472923278809 86.66954803466797 28.57286643981934 C 88.98052978515625 34.03665542602539 90.15229797363281 39.84149169921875 90.15229797363281 45.82614135742188 C 90.15229797363281 51.81131744384766 88.98052978515625 57.61616897583008 86.66954803466797 63.07994079589844 C 84.43707275390625 68.35809326171875 81.24078369140625 73.09866333007812 77.16947174072266 77.16998291015625 C 73.09814453125 81.24130249023438 68.35756683349609 84.43759155273438 63.07942199707031 86.67005157470703 C 57.61564636230469 88.98104095458984 51.81079483032227 90.15280151367188 45.82614517211914 90.15280151367188 Z" stroke="none"/>
          <path d="M 45.82614517211914 3.000007629394531 C 40.04333114624023 3.000007629394531 34.43508911132812 4.131904602050781 29.15720367431641 6.364265441894531 C 24.05784606933594 8.521102905273438 19.47753143310547 11.60944366455078 15.54348754882812 15.54348754882812 C 11.60944366455078 19.47753143310547 8.521102905273438 24.05784606933594 6.3642578125 29.15720367431641 C 4.131904602050781 34.43508911132812 3 40.0433349609375 3 45.82667541503906 C 3 51.60948944091797 4.131904602050781 57.21773147583008 6.3642578125 62.49562072753906 C 8.521102905273438 67.59497833251953 11.60944366455078 72.17527770996094 15.54348754882812 76.10932922363281 C 19.47753143310547 80.04337310791016 24.05784606933594 83.13170623779297 29.15718841552734 85.28854370117188 C 34.43508911132812 87.52090454101562 40.04333114624023 88.65280151367188 45.82614517211914 88.65280151367188 C 51.60895919799805 88.65280151367188 57.21720123291016 87.52090454101562 62.49510192871094 85.28854370117188 C 67.59444427490234 83.13170623779297 72.17475891113281 80.04337310791016 76.10880279541016 76.10932922363281 C 80.0428466796875 72.17527770996094 83.13118743896484 67.59497833251953 85.28803253173828 62.49562072753906 C 87.5203857421875 57.21773147583008 88.65229034423828 51.60948944091797 88.65229034423828 45.82614898681641 C 88.65229034423828 40.0433349609375 87.5203857421875 34.43508911132812 85.28803253173828 29.15720367431641 C 83.13118743896484 24.05784606933594 80.0428466796875 19.47753143310547 76.10880279541016 15.54348754882812 C 72.17475891113281 11.60944366455078 67.59444427490234 8.521102905273438 62.49508666992188 6.364265441894531 C 57.21720123291016 4.131904602050781 51.60895919799805 3.000007629394531 45.82614517211914 3.000007629394531 M 45.82614517211914 7.62939453125e-06 C 71.13523101806641 7.62939453125e-06 91.65229034423828 20.51705932617188 91.65229034423828 45.82614898681641 L 91.65229034423828 45.82667541503906 C 91.65229034423828 71.13575744628906 71.13523101806641 91.65280151367188 45.82614517211914 91.65280151367188 C 20.51705932617188 91.65280151367188 0 71.13575744628906 0 45.82667541503906 L 0 45.82614898681641 C 0 20.51705932617188 20.51705932617188 7.62939453125e-06 45.82614517211914 7.62939453125e-06 Z" stroke="none" fill="#fff"/>
        </g>
      </g>
    </g>
    <g id="Page-1" transform="translate(11928 -9116)">
      <g id="_014---Plant-Grower" data-name="014---Plant-Grower" transform="translate(0 0)">
        <path id="Shape" d="M39.044,9.21,36.658,2.644A2.5,2.5,0,0,0,34.311,1H22.7a2.5,2.5,0,0,0-2.5,2.5v.835a2.5,2.5,0,0,1-2.5,2.5H6.843L2.467,11.219A5.008,5.008,0,0,0,1,14.76V39.279a17.083,17.083,0,0,0,.726,4.908,17.373,17.373,0,0,0,2.149,4.52,1.624,1.624,0,0,0,1.357.705H7.82a1.68,1.68,0,0,0,1.189-.492l.835-.835a1.664,1.664,0,0,1,2.354,0l.835.835a1.669,1.669,0,0,0,1.182.492H17a1.669,1.669,0,0,0,1.183-.49l.835-.835a1.664,1.664,0,0,1,2.354,0l.835.835a1.669,1.669,0,0,0,1.188.49h2.788a1.669,1.669,0,0,0,1.183-.49l.835-.835a1.664,1.664,0,0,1,2.354,0l.835.835a1.669,1.669,0,0,0,1.188.49h2.588a1.654,1.654,0,0,0,1.386-.743,16.944,16.944,0,0,0,2.846-9.39V11.208a5.843,5.843,0,0,0-.352-2Zm-4.395.972H24.372a.835.835,0,0,1-.835-.835V5.174a.835.835,0,0,1,.835-.835h8.764a.835.835,0,0,1,.785.55l1.514,4.174a.835.835,0,0,1-.785,1.119Z" transform="translate(-0.165 -0.165)" fill="#60a917"/>
        <path id="Shape-2" data-name="Shape" d="M45.145,9.21,42.759,2.644A2.5,2.5,0,0,0,40.412,1h-2.5a2.5,2.5,0,0,1,2.347,1.644L42.641,9.21a5.843,5.843,0,0,1,.352,2V39.279a16.944,16.944,0,0,1-2.846,9.39,1.654,1.654,0,0,1-1.386.743h2.5a1.654,1.654,0,0,0,1.386-.743,16.944,16.944,0,0,0,2.846-9.39V11.208a5.843,5.843,0,0,0-.352-2Z" transform="translate(-6.266 -0.165)" fill="#549414"/>
        <rect id="Rectangle-path" width="30" height="22" rx="3" transform="translate(5 20.082)" fill="#f5f5f5"/>
        <path id="Shape-3" data-name="Shape" d="M38.5,24H36a2.5,2.5,0,0,1,2.5,2.5V43.2A2.5,2.5,0,0,1,36,45.7h2.5a2.5,2.5,0,0,0,2.5-2.5V26.5A2.5,2.5,0,0,0,38.5,24Z" transform="translate(-5.951 -3.967)" fill="#cfd8dc"/>
        <path id="Shape-4" data-name="Shape" d="M21.677,39.492a1.685,1.685,0,0,1-.2.225c-2.028,2.028-5.784,1.561-8.4-1.043A9.591,9.591,0,0,1,10.459,28.7a9.59,9.59,0,0,1,9.966,2.629,8.477,8.477,0,0,1,1.269,1.611c1.369,2.27,1.419,4.9-.017,6.552Z" transform="translate(-1.653 -4.669)" fill="#60a917"/>
        <path id="Shape-5" data-name="Shape" d="M22.1,32.941a8.477,8.477,0,0,0-1.269-1.611,9.725,9.725,0,0,0-8.355-3,10,10,0,0,1,5.851,3A8.477,8.477,0,0,1,19.6,32.941c1.369,2.27,1.419,4.9-.017,6.552a1.685,1.685,0,0,1-.2.225,4.25,4.25,0,0,1-2.045,1.118,4.841,4.841,0,0,0,4.549-1.118,1.685,1.685,0,0,0,.2-.225C23.523,37.84,23.473,35.211,22.1,32.941Z" transform="translate(-2.063 -4.669)" fill="#549414"/>
        <path id="Shape-6" data-name="Shape" d="M32.6,38.674c-2.462,2.462-5.968,3.022-8.063,1.344a3.8,3.8,0,0,1-.334-.292c-.075-.083-.142-.15-.209-.225l-.008-.008c1.436-1.653,1.386-4.282.017-6.552a7.535,7.535,0,0,1,1.252-1.619A9.61,9.61,0,0,1,35.233,28.7,9.624,9.624,0,0,1,32.6,38.674Z" transform="translate(-3.966 -4.669)" fill="#60a917"/>
        <path id="Shape-7" data-name="Shape" d="M35.679,28.7a9.125,9.125,0,0,0-4.126-.371,7.831,7.831,0,0,1,1.622.371,9.624,9.624,0,0,1-2.629,9.975,7.859,7.859,0,0,1-3.861,2.16,7.011,7.011,0,0,0,6.365-2.16A9.624,9.624,0,0,0,35.679,28.7Z" transform="translate(-4.411 -4.668)" fill="#549414"/>
        <path id="Shape-8" data-name="Shape" d="M9.669,1h6.678a1.669,1.669,0,0,1,1.669,1.669V6.843H8V2.669A1.669,1.669,0,0,1,9.669,1Z" transform="translate(-1.322 -0.165)" fill="#f44335"/>
        <path id="Shape-9" data-name="Shape" d="M17.5,1H15a1.669,1.669,0,0,1,1.669,1.669V6.843h2.5V2.669A1.669,1.669,0,0,0,17.5,1Z" transform="translate(-2.479 -0.165)" fill="#c81e1e"/>
        <g id="Group_1111652" data-name="Group 1111652">
          <path id="Shape-10" data-name="Shape" d="M33.38,23H8.339A3.339,3.339,0,0,0,5,26.339V43.033a3.339,3.339,0,0,0,3.339,3.339H33.38a3.339,3.339,0,0,0,3.339-3.339V26.339A3.339,3.339,0,0,0,33.38,23ZM26.425,34.614a.835.835,0,1,0-.751-1.492A16.527,16.527,0,0,0,22.7,34.936a7.881,7.881,0,0,0-.861-2.817,7.345,7.345,0,0,1,.871-1.074,8.807,8.807,0,0,1,8.717-2.552,8.88,8.88,0,0,1-2.548,8.72c-2.1,2.1-5.082,2.671-6.865,1.341.606-1.718,2.081-2.77,4.412-3.94Zm-6.242-2.05.008.013a5.349,5.349,0,0,1,.643,4.458c-1.044-1.87-2.9-2.965-4.792-3.913a.835.835,0,0,0-.751,1.492c2.337,1.169,3.815,2.227,4.418,3.951-1.765,1.329-4.734.78-6.865-1.351A8.794,8.794,0,0,1,10.29,28.5a8.794,8.794,0,0,1,8.718,2.553A7.618,7.618,0,0,1,20.183,32.564ZM35.049,43.033A1.669,1.669,0,0,1,33.38,44.7H21.694V40.6c0-.094.015-.173.018-.264a5.623,5.623,0,0,0,2.61.619,8.3,8.3,0,0,0,5.736-2.565,10.366,10.366,0,0,0,2.809-10.868.835.835,0,0,0-.471-.471,10.368,10.368,0,0,0-10.869,2.81,9.139,9.139,0,0,0-.668.759,9.526,9.526,0,0,0-.668-.751A10.35,10.35,0,0,0,9.325,27.063a.828.828,0,0,0-.468.468A10.35,10.35,0,0,0,11.666,38.4a8.3,8.3,0,0,0,5.744,2.545,5.664,5.664,0,0,0,2.6-.6c0,.091.018.167.018.264v4.1H8.339a1.669,1.669,0,0,1-1.669-1.669V26.339a1.669,1.669,0,0,1,1.669-1.669H33.38a1.669,1.669,0,0,1,1.669,1.669Z" transform="translate(-0.826 -3.802)"/>
          <path id="Shape-11" data-name="Shape" d="M15.025,0H8.347a2.5,2.5,0,0,0-2.5,2.5V6.332L1.711,10.464A5.8,5.8,0,0,0,0,14.595V39.114a17.9,17.9,0,0,0,.764,5.154,18.185,18.185,0,0,0,2.254,4.737,2.449,2.449,0,0,0,2.049,1.077H7.654a2.533,2.533,0,0,0,1.779-.737l.835-.835a.835.835,0,0,1,1.174,0l.835.835a2.489,2.489,0,0,0,1.772.737h2.788a2.489,2.489,0,0,0,1.773-.735l.835-.835a.851.851,0,0,1,1.174,0l.835.835a2.489,2.489,0,0,0,1.778.735h2.788a2.489,2.489,0,0,0,1.773-.735l.835-.835a.835.835,0,0,1,1.174,0l.835.835a2.489,2.489,0,0,0,1.778.735H35a2.485,2.485,0,0,0,2.08-1.114,17.707,17.707,0,0,0,2.987-9.854V11.043a6.672,6.672,0,0,0-.4-2.283L37.278,2.194A3.339,3.339,0,0,0,34.146,0H22.537A3.339,3.339,0,0,0,19.2,3.339v.835a1.669,1.669,0,0,1-1.669,1.669V2.5A2.5,2.5,0,0,0,15.025,0Zm5.843,4.174V3.339a1.669,1.669,0,0,1,1.669-1.669H34.146a1.669,1.669,0,0,1,1.563,1.1L38.095,9.33a5.008,5.008,0,0,1,.3,1.713V39.114a16.045,16.045,0,0,1-2.709,8.931.821.821,0,0,1-.689.367H32.411a.835.835,0,0,1-.593-.245l-.835-.835a2.5,2.5,0,0,0-3.534,0l-.835.835a.835.835,0,0,1-.593.245H23.23a.835.835,0,0,1-.593-.245l-.835-.835a2.5,2.5,0,0,0-3.534,0l-.835.835a.835.835,0,0,1-.593.245H14.048a.835.835,0,0,1-.593-.245l-.835-.835a2.5,2.5,0,0,0-3.534,0l-.835.835a.851.851,0,0,1-.6.25H5.066a.8.8,0,0,1-.664-.334,16.552,16.552,0,0,1-2.043-4.3,16.221,16.221,0,0,1-.69-4.673V14.595a4.146,4.146,0,0,1,1.222-2.951L7.023,7.512H17.529a3.339,3.339,0,0,0,3.339-3.339ZM7.512,5.843V2.5a.835.835,0,0,1,.835-.835h.835V3.339a.835.835,0,1,0,1.669,0V1.669h1.669V3.339a.835.835,0,1,0,1.669,0V1.669h.835a.835.835,0,0,1,.835.835V5.843Z" transform="translate(0 0)"/>
          <path id="Shape-12" data-name="Shape" d="M28.669,11.512H38.947a1.669,1.669,0,0,0,1.569-2.24L39,5.1A1.674,1.674,0,0,0,37.434,4H28.669A1.669,1.669,0,0,0,27,5.669V9.843A1.669,1.669,0,0,0,28.669,11.512Zm0-5.843h8.764l1.514,4.174H28.669Z" transform="translate(-4.463 -0.661)"/>
          <path id="Shape-13" data-name="Shape" d="M8.817,16.952l-2.211-1.77a.835.835,0,1,0-1.043,1.3l2.211,1.769a4.185,4.185,0,0,0,2.609.918H31.418a4.185,4.185,0,0,0,2.608-.918l2.212-1.77a.835.835,0,0,0-1.043-1.3l-2.213,1.771a2.5,2.5,0,0,1-1.564.551H10.383a2.51,2.51,0,0,1-1.566-.552Z" transform="translate(-0.868 -2.479)"/>
        </g>
      </g>
    </g>
  </g>
</svg>
