<svg xmlns="http://www.w3.org/2000/svg" xmlns:xlink="http://www.w3.org/1999/xlink" width="109.652" height="109.653" viewBox="0 0 109.652 109.653">
  <defs>
    <filter id="Path_874925" x="0" y="0" width="109.652" height="109.653" filterUnits="userSpaceOnUse">
      <feOffset dy="3" input="SourceAlpha"/>
      <feGaussianBlur stdDeviation="3" result="blur"/>
      <feFlood flood-opacity="0.161"/>
      <feComposite operator="in" in2="blur"/>
      <feComposite in="SourceGraphic"/>
    </filter>
  </defs>
  <g id="Group_1111644" data-name="Group 1111644" transform="translate(-424 -2474)">
    <g id="Group_1111423" data-name="Group 1111423" transform="translate(-586.73 -597)">
      <g transform="matrix(1, 0, 0, 1, 1010.73, 3071)" filter="url(#Path_874925)">
        <g id="Path_874925-2" data-name="Path 874925" transform="translate(9 6)" fill="#ffd63c">
          <path d="M 45.82614517211914 90.15280151367188 C 39.84149551391602 90.15280151367188 34.03665924072266 88.98104095458984 28.5728702545166 86.67005157470703 C 23.29473304748535 84.43759155273438 18.55415725708008 81.24130249023438 14.48283290863037 77.16998291015625 C 10.41150760650635 73.09866333007812 7.215232849121094 68.35809326171875 4.982757568359375 63.07994079589844 C 2.671770095825195 57.61616897583008 1.500007629394531 51.81131744384766 1.500007629394531 45.82666778564453 C 1.500007629394531 39.84149169921875 2.671770095825195 34.03665542602539 4.982757568359375 28.57286643981934 C 7.215232849121094 23.29472923278809 10.41150760650635 18.55415534973145 14.48283290863037 14.48283004760742 C 18.55415725708008 10.4115047454834 23.29473304748535 7.215229511260986 28.5728702545166 4.982754707336426 C 34.03665924072266 2.671766996383667 39.84149551391602 1.500004529953003 45.82614517211914 1.500004529953003 C 51.81079483032227 1.500004529953003 57.61564636230469 2.671766996383667 63.07942199707031 4.982754707336426 C 68.35756683349609 7.215229511260986 73.09814453125 10.4115047454834 77.16947174072266 14.48283004760742 C 81.24078369140625 18.55415534973145 84.43707275390625 23.29472923278809 86.66954803466797 28.57286643981934 C 88.98052978515625 34.03665542602539 90.15229797363281 39.84149169921875 90.15229797363281 45.82614135742188 C 90.15229797363281 51.81131744384766 88.98052978515625 57.61616897583008 86.66954803466797 63.07994079589844 C 84.43707275390625 68.35809326171875 81.24078369140625 73.09866333007812 77.16947174072266 77.16998291015625 C 73.09814453125 81.24130249023438 68.35756683349609 84.43759155273438 63.07942199707031 86.67005157470703 C 57.61564636230469 88.98104095458984 51.81079483032227 90.15280151367188 45.82614517211914 90.15280151367188 Z" stroke="none"/>
          <path d="M 45.82614517211914 3.000007629394531 C 40.04333114624023 3.000007629394531 34.43508911132812 4.131904602050781 29.15720367431641 6.364265441894531 C 24.05784606933594 8.521102905273438 19.47753143310547 11.60944366455078 15.54348754882812 15.54348754882812 C 11.60944366455078 19.47753143310547 8.521102905273438 24.05784606933594 6.3642578125 29.15720367431641 C 4.131904602050781 34.43508911132812 3 40.0433349609375 3 45.82667541503906 C 3 51.60948944091797 4.131904602050781 57.21773147583008 6.3642578125 62.49562072753906 C 8.521102905273438 67.59497833251953 11.60944366455078 72.17527770996094 15.54348754882812 76.10932922363281 C 19.47753143310547 80.04337310791016 24.05784606933594 83.13170623779297 29.15718841552734 85.28854370117188 C 34.43508911132812 87.52090454101562 40.04333114624023 88.65280151367188 45.82614517211914 88.65280151367188 C 51.60895919799805 88.65280151367188 57.21720123291016 87.52090454101562 62.49510192871094 85.28854370117188 C 67.59444427490234 83.13170623779297 72.17475891113281 80.04337310791016 76.10880279541016 76.10932922363281 C 80.0428466796875 72.17527770996094 83.13118743896484 67.59497833251953 85.28803253173828 62.49562072753906 C 87.5203857421875 57.21773147583008 88.65229034423828 51.60948944091797 88.65229034423828 45.82614898681641 C 88.65229034423828 40.0433349609375 87.5203857421875 34.43508911132812 85.28803253173828 29.15720367431641 C 83.13118743896484 24.05784606933594 80.0428466796875 19.47753143310547 76.10880279541016 15.54348754882812 C 72.17475891113281 11.60944366455078 67.59444427490234 8.521102905273438 62.49508666992188 6.364265441894531 C 57.21720123291016 4.131904602050781 51.60895919799805 3.000007629394531 45.82614517211914 3.000007629394531 M 45.82614517211914 7.62939453125e-06 C 71.13523101806641 7.62939453125e-06 91.65229034423828 20.51705932617188 91.65229034423828 45.82614898681641 L 91.65229034423828 45.82667541503906 C 91.65229034423828 71.13575744628906 71.13523101806641 91.65280151367188 45.82614517211914 91.65280151367188 C 20.51705932617188 91.65280151367188 0 71.13575744628906 0 45.82667541503906 L 0 45.82614898681641 C 0 20.51705932617188 20.51705932617188 7.62939453125e-06 45.82614517211914 7.62939453125e-06 Z" stroke="none" fill="#fff"/>
        </g>
      </g>
    </g>
    <g id="estiercol" transform="translate(451 2498)">
      <path id="Path_900655" data-name="Path 900655" d="M30.5,1h2.566V31.795H30.5Z" transform="translate(-4.41 -0.145)" fill="#965353"/>
      <path id="Path_900656" data-name="Path 900656" d="M46.927,60.4H11l5.988-5.132L23.831,49.4l3.422-2.934L28.964,45l1.711,1.463L34.1,49.4l8.554,7.331Z" transform="translate(-1.591 -6.507)" fill="#ffd2a6"/>
      <path id="Path_900657" data-name="Path 900657" d="M53.891,63.711H.855A.855.855,0,0,1,.855,62H53.891a.855.855,0,0,1,0,1.711Z" transform="translate(0 -8.965)"/>
      <path id="Path_900658" data-name="Path 900658" d="M10.856,61.108a.855.855,0,0,1-.556-1.5l17.964-15.4a.855.855,0,1,1,1.113,1.3L11.412,60.9a.85.85,0,0,1-.556.206Z" transform="translate(-1.446 -6.362)"/>
      <path id="Path_900659" data-name="Path 900659" d="M49.819,61.108a.85.85,0,0,1-.556-.206L31.3,45.5a.855.855,0,0,1,1.113-1.3L50.375,59.6a.855.855,0,0,1-.556,1.5Z" transform="translate(-4.482 -6.362)"/>
      <path id="Path_900660" data-name="Path 900660" d="M25.855,39.422A.855.855,0,0,1,25,38.566,2.569,2.569,0,0,1,27.566,36a.855.855,0,0,1,0,1.711.856.856,0,0,0-.855.855.855.855,0,0,1-.855.855Z" transform="translate(-3.615 -5.205)"/>
      <path id="Path_900661" data-name="Path 900661" d="M25.855,49.241A.855.855,0,0,1,25,48.386V38.855a.855.855,0,0,1,1.711,0v9.531a.855.855,0,0,1-.855.855Z" transform="translate(-3.615 -5.495)"/>
      <path id="Path_900662" data-name="Path 900662" d="M29.855,46.019A.855.855,0,0,1,29,45.164V36.855a.855.855,0,0,1,1.711,0v8.308a.855.855,0,0,1-.855.855Z" transform="translate(-4.193 -5.205)"/>
      <path id="Path_900663" data-name="Path 900663" d="M33.855,46.019A.855.855,0,0,1,33,45.164V36.855a.855.855,0,0,1,1.711,0v8.308a.855.855,0,0,1-.855.855Z" transform="translate(-4.772 -5.205)"/>
      <path id="Path_900664" data-name="Path 900664" d="M37.855,49.241A.855.855,0,0,1,37,48.386V38.855a.855.855,0,0,1,1.711,0v9.531a.855.855,0,0,1-.855.855Z" transform="translate(-5.35 -5.495)"/>
      <path id="Path_900665" data-name="Path 900665" d="M34.7,37.711H27.855a.855.855,0,0,1,0-1.711H34.7a.855.855,0,0,1,0,1.711Z" transform="translate(-3.904 -5.205)"/>
      <path id="Path_900666" data-name="Path 900666" d="M37.566,39.422a.855.855,0,0,1-.855-.855.856.856,0,0,0-.855-.855.855.855,0,0,1,0-1.711,2.569,2.569,0,0,1,2.566,2.566.855.855,0,0,1-.855.855Z" transform="translate(-5.061 -5.205)"/>
      <path id="Path_900667" data-name="Path 900667" d="M32.922,32.505H30.355a.855.855,0,0,1-.855-.855V.855A.855.855,0,0,1,30.355,0h2.566a.855.855,0,0,1,.855.855V31.65a.855.855,0,0,1-.855.855Zm-1.711-1.711h.855V1.711h-.855Z" transform="translate(-4.265 0)"/>
      <path id="Path_900668" data-name="Path 900668" d="M47.855,58.743a.855.855,0,0,1-.788-1.19l1.711-4.032a.856.856,0,0,1,1.575.668l-1.711,4.032a.856.856,0,0,1-.788.521Z" transform="translate(-6.796 -7.663)"/>
      <path id="Path_900669" data-name="Path 900669" d="M17.132,57.422a.847.847,0,0,1-.317-.061L12.538,55.65a.855.855,0,1,1,.635-1.589l4.277,1.711a.855.855,0,0,1-.317,1.65Z" transform="translate(-1.735 -7.808)"/>
      <path id="Path_900670" data-name="Path 900670" d="M23.874,59.711A.855.855,0,0,1,23.866,58h.008a.855.855,0,0,1,0,1.711Z" transform="translate(-3.328 -8.386)"/>
      <path id="Path_900671" data-name="Path 900671" d="M31.874,54.711A.855.855,0,0,1,31.866,53h.008a.855.855,0,0,1,0,1.711Z" transform="translate(-4.484 -7.663)"/>
      <path id="Path_900672" data-name="Path 900672" d="M37.874,59.711A.855.855,0,1,1,37.866,58h.008a.855.855,0,0,1,0,1.711Z" transform="translate(-5.352 -8.386)"/>
      <path id="Path_900673" data-name="Path 900673" d="M45.727,44.108a.866.866,0,0,1-.317-.061.856.856,0,0,1-.478-1.111c.015-.039,1.543-3.972.029-7-1.861-3.722-.1-8.21-.029-8.4a.855.855,0,1,1,1.589.634c-.015.039-1.543,3.972-.029,7,1.861,3.722.1,8.21.029,8.4a.855.855,0,0,1-.794.538Z" transform="translate(-6.378 -3.904)"/>
      <path id="Path_900674" data-name="Path 900674" d="M50.727,44.108a.866.866,0,0,1-.317-.061.856.856,0,0,1-.478-1.111c.015-.039,1.543-3.972.029-7-1.861-3.722-.1-8.21-.029-8.4a.855.855,0,1,1,1.589.634c-.015.039-1.543,3.972-.029,7,1.861,3.722.1,8.21.029,8.4a.855.855,0,0,1-.794.538Z" transform="translate(-7.101 -3.904)"/>
      <path id="Path_900675" data-name="Path 900675" d="M55.726,44.108a.866.866,0,0,1-.317-.061.856.856,0,0,1-.478-1.111c.015-.039,1.543-3.972.029-7-1.861-3.722-.1-8.21-.029-8.4a.855.855,0,0,1,1.589.634c-.015.039-1.543,3.972-.029,7,1.861,3.722.1,8.21.029,8.4a.855.855,0,0,1-.794.538Z" transform="translate(-7.824 -3.904)"/>
      <path id="Path_900676" data-name="Path 900676" d="M7.727,44.108a.866.866,0,0,1-.317-.061.856.856,0,0,1-.478-1.111c.015-.039,1.543-3.972.029-7-1.861-3.722-.1-8.21-.029-8.4a.855.855,0,1,1,1.589.634c-.015.039-1.543,3.972-.029,7,1.861,3.722.1,8.21.029,8.4a.855.855,0,0,1-.794.538Z" transform="translate(-0.883 -3.904)"/>
      <path id="Path_900677" data-name="Path 900677" d="M12.727,44.108a.866.866,0,0,1-.317-.061.856.856,0,0,1-.478-1.111c.015-.039,1.543-3.972.029-7-1.861-3.722-.1-8.21-.029-8.4a.855.855,0,1,1,1.589.634c-.015.039-1.543,3.972-.029,7,1.861,3.722.1,8.21.029,8.4a.855.855,0,0,1-.794.538Z" transform="translate(-1.606 -3.904)"/>
      <path id="Path_900678" data-name="Path 900678" d="M17.726,44.108a.866.866,0,0,1-.317-.061.856.856,0,0,1-.478-1.111c.015-.039,1.543-3.972.029-7-1.861-3.722-.1-8.21-.029-8.4a.855.855,0,1,1,1.589.634c-.015.039-1.543,3.972-.029,7,1.861,3.722.1,8.21.029,8.4a.855.855,0,0,1-.794.538Z" transform="translate(-2.329 -3.904)"/>
    </g>
  </g>
</svg>
