<svg xmlns="http://www.w3.org/2000/svg" xmlns:xlink="http://www.w3.org/1999/xlink" width="109.652" height="109.653" viewBox="0 0 109.652 109.653">
  <defs>
    <filter id="Path_874925" x="0" y="0" width="109.652" height="109.653" filterUnits="userSpaceOnUse">
      <feOffset dy="3" input="SourceAlpha"/>
      <feGaussianBlur stdDeviation="3" result="blur"/>
      <feFlood flood-opacity="0.161"/>
      <feComposite operator="in" in2="blur"/>
      <feComposite in="SourceGraphic"/>
    </filter>
  </defs>
  <g id="Group_1111617" data-name="Group 1111617" transform="translate(-645 -1555)">
    <g id="Group_1111384" data-name="Group 1111384" transform="translate(-365.73 -1516)">
      <g transform="matrix(1, 0, 0, 1, 1010.73, 3071)" filter="url(#Path_874925)">
        <g id="Path_874925-2" data-name="Path 874925" transform="translate(9 6)" fill="#ffd63c">
          <path d="M 45.82614517211914 90.15280151367188 C 39.84149551391602 90.15280151367188 34.03665924072266 88.98104095458984 28.5728702545166 86.67005157470703 C 23.29473304748535 84.43759155273438 18.55415725708008 81.24130249023438 14.48283290863037 77.16998291015625 C 10.41150760650635 73.09866333007812 7.215232849121094 68.35809326171875 4.982757568359375 63.07994079589844 C 2.671770095825195 57.61616897583008 1.500007629394531 51.81131744384766 1.500007629394531 45.82666778564453 C 1.500007629394531 39.84149169921875 2.671770095825195 34.03665542602539 4.982757568359375 28.57286643981934 C 7.215232849121094 23.29472923278809 10.41150760650635 18.55415534973145 14.48283290863037 14.48283004760742 C 18.55415725708008 10.4115047454834 23.29473304748535 7.215229511260986 28.5728702545166 4.982754707336426 C 34.03665924072266 2.671766996383667 39.84149551391602 1.500004529953003 45.82614517211914 1.500004529953003 C 51.81079483032227 1.500004529953003 57.61564636230469 2.671766996383667 63.07942199707031 4.982754707336426 C 68.35756683349609 7.215229511260986 73.09814453125 10.4115047454834 77.16947174072266 14.48283004760742 C 81.24078369140625 18.55415534973145 84.43707275390625 23.29472923278809 86.66954803466797 28.57286643981934 C 88.98052978515625 34.03665542602539 90.15229797363281 39.84149169921875 90.15229797363281 45.82614135742188 C 90.15229797363281 51.81131744384766 88.98052978515625 57.61616897583008 86.66954803466797 63.07994079589844 C 84.43707275390625 68.35809326171875 81.24078369140625 73.09866333007812 77.16947174072266 77.16998291015625 C 73.09814453125 81.24130249023438 68.35756683349609 84.43759155273438 63.07942199707031 86.67005157470703 C 57.61564636230469 88.98104095458984 51.81079483032227 90.15280151367188 45.82614517211914 90.15280151367188 Z" stroke="none"/>
          <path d="M 45.82614517211914 3.000007629394531 C 40.04333114624023 3.000007629394531 34.43508911132812 4.131904602050781 29.15720367431641 6.364265441894531 C 24.05784606933594 8.521102905273438 19.47753143310547 11.60944366455078 15.54348754882812 15.54348754882812 C 11.60944366455078 19.47753143310547 8.521102905273438 24.05784606933594 6.3642578125 29.15720367431641 C 4.131904602050781 34.43508911132812 3 40.0433349609375 3 45.82667541503906 C 3 51.60948944091797 4.131904602050781 57.21773147583008 6.3642578125 62.49562072753906 C 8.521102905273438 67.59497833251953 11.60944366455078 72.17527770996094 15.54348754882812 76.10932922363281 C 19.47753143310547 80.04337310791016 24.05784606933594 83.13170623779297 29.15718841552734 85.28854370117188 C 34.43508911132812 87.52090454101562 40.04333114624023 88.65280151367188 45.82614517211914 88.65280151367188 C 51.60895919799805 88.65280151367188 57.21720123291016 87.52090454101562 62.49510192871094 85.28854370117188 C 67.59444427490234 83.13170623779297 72.17475891113281 80.04337310791016 76.10880279541016 76.10932922363281 C 80.0428466796875 72.17527770996094 83.13118743896484 67.59497833251953 85.28803253173828 62.49562072753906 C 87.5203857421875 57.21773147583008 88.65229034423828 51.60948944091797 88.65229034423828 45.82614898681641 C 88.65229034423828 40.0433349609375 87.5203857421875 34.43508911132812 85.28803253173828 29.15720367431641 C 83.13118743896484 24.05784606933594 80.0428466796875 19.47753143310547 76.10880279541016 15.54348754882812 C 72.17475891113281 11.60944366455078 67.59444427490234 8.521102905273438 62.49508666992188 6.364265441894531 C 57.21720123291016 4.131904602050781 51.60895919799805 3.000007629394531 45.82614517211914 3.000007629394531 M 45.82614517211914 7.62939453125e-06 C 71.13523101806641 7.62939453125e-06 91.65229034423828 20.51705932617188 91.65229034423828 45.82614898681641 L 91.65229034423828 45.82667541503906 C 91.65229034423828 71.13575744628906 71.13523101806641 91.65280151367188 45.82614517211914 91.65280151367188 C 20.51705932617188 91.65280151367188 0 71.13575744628906 0 45.82667541503906 L 0 45.82614898681641 C 0 20.51705932617188 20.51705932617188 7.62939453125e-06 45.82614517211914 7.62939453125e-06 Z" stroke="none" fill="#fff"/>
        </g>
      </g>
    </g>
    <g id="vacuna444" transform="translate(675 1582)">
      <g id="Group_1111616" data-name="Group 1111616" transform="translate(1.759 1.759)">
        <g id="Group_1111590" data-name="Group 1111590" transform="translate(14.429 33.415)">
          <path id="Path_900493" data-name="Path 900493" d="M26.316,46.015v9.1h-.4a5.5,5.5,0,0,1-2.886-.82A5.607,5.607,0,0,1,21,52.076V49.038A5.5,5.5,0,0,1,25.914,46h.4Z" transform="translate(-21 -46)" fill="#ffeaa7"/>
        </g>
        <g id="Group_1111591" data-name="Group 1111591" transform="translate(10.632 36.453)">
          <path id="Path_900494" data-name="Path 900494" d="M19.8,50v3.038H16.759A.762.762,0,0,1,16,52.278V50.759A.762.762,0,0,1,16.759,50Z" transform="translate(-16 -50)" fill="#ffeaa7"/>
        </g>
        <g id="Group_1111592" data-name="Group 1111592" transform="translate(19.745 33.415)">
          <path id="Path_900495" data-name="Path 900495" d="M31.038,46h13.67v9.113H28V46Z" transform="translate(-28 -46)" fill="#ffeaa7"/>
        </g>
        <g id="Group_1111593" data-name="Group 1111593" transform="translate(39.491 36.453)">
          <path id="Path_900496" data-name="Path 900496" d="M54,50h3.038v3.038H54Z" transform="translate(-54 -50)" fill="#aab2bd"/>
        </g>
        <g id="Group_1111594" data-name="Group 1111594" transform="translate(36.453 31.896)">
          <path id="Path_900497" data-name="Path 900497" d="M53.038,51.594v3.8a.762.762,0,0,1-.759.759H50.759A.762.762,0,0,1,50,55.392V44.759A.762.762,0,0,1,50.759,44h1.519a.762.762,0,0,1,.759.759v6.835Z" transform="translate(-50 -44)" fill="#e6e9ed"/>
        </g>
        <g id="Group_1111595" data-name="Group 1111595" transform="translate(42.529 33.415)">
          <path id="Path_900498" data-name="Path 900498" d="M61.038,46.759v7.594a.762.762,0,0,1-.759.759H58.759A.762.762,0,0,1,58,54.354V46.759A.762.762,0,0,1,58.759,46h1.519A.762.762,0,0,1,61.038,46.759Z" transform="translate(-58 -46)" fill="#e6e9ed"/>
        </g>
        <g id="Group_1111596" data-name="Group 1111596" transform="translate(0 37.972)">
          <path id="Path_900499" data-name="Path 900499" d="M21.745,56.557h6.076a3.037,3.037,0,0,1-3.038,3.038H5.038A3.037,3.037,0,0,1,2,56.557V52H12.632v.759a.762.762,0,0,0,.759.759h3.038a5.607,5.607,0,0,0,2.028,2.218,5.5,5.5,0,0,0,2.886.82Z" transform="translate(-2 -52)" fill="#e6e9ed"/>
        </g>
        <g id="Group_1111597" data-name="Group 1111597" transform="translate(0 27.34)">
          <path id="Path_900500" data-name="Path 900500" d="M2,38H27.821v3.038H2Z" transform="translate(-2 -38)" fill="#fcd770"/>
        </g>
        <g id="Group_1111598" data-name="Group 1111598" transform="translate(0 30.378)">
          <path id="Path_900501" data-name="Path 900501" d="M27.821,42v3.038H21.343a5.5,5.5,0,0,0-4.914,3.038H13.392a.762.762,0,0,0-.759.759v.759H2V42Z" transform="translate(-2 -42)" fill="#5cd6b3"/>
        </g>
        <g id="Group_1111599" data-name="Group 1111599" transform="translate(1.519)">
          <path id="Path_900502" data-name="Path 900502" d="M26.783,2.759V7.316a.762.762,0,0,1-.759.759H4.759A.762.762,0,0,1,4,7.316V2.759A.762.762,0,0,1,4.759,2H26.024A.762.762,0,0,1,26.783,2.759Z" transform="translate(-4 -2)" fill="#5cd6b3"/>
        </g>
        <g id="Group_1111600" data-name="Group 1111600" transform="translate(4.557 6.076)">
          <path id="Path_900503" data-name="Path 900503" d="M8,10H24.708v3.038H8Z" transform="translate(-8 -10)" fill="#aab2bd"/>
        </g>
        <g id="Group_1111601" data-name="Group 1111601" transform="translate(0 9.113)">
          <path id="Path_900504" data-name="Path 900504" d="M27.821,20.03v.046H2V20.03A6.064,6.064,0,0,1,5.357,14.6l1.2-.6H23.264l1.2.6a6.054,6.054,0,0,1,2.142,1.785.741.741,0,0,0,.122.159A6.084,6.084,0,0,1,27.821,20.03Z" transform="translate(-2 -14)" fill="#e6e9ed"/>
        </g>
        <g id="Group_1111602" data-name="Group 1111602" transform="translate(0 15.189)">
          <path id="Path_900505" data-name="Path 900505" d="M2,22H27.821v9.045a1.5,1.5,0,0,0-.995.44,1.513,1.513,0,0,0,0,2.142,1.46,1.46,0,0,0,1,.44l-.008.084H2Zm24.3,3.038a1.519,1.519,0,1,0-1.519,1.519A1.523,1.523,0,0,0,26.3,25.038Z" transform="translate(-2 -22)" fill="#5cd6b3"/>
        </g>
        <g id="Group_1111603" data-name="Group 1111603" transform="translate(31.896 6.076)">
          <circle id="Ellipse_11790" data-name="Ellipse 11790" cx="1.5" cy="1.5" r="1.5" transform="translate(0.344 0.25)" fill="#ef7385"/>
        </g>
        <g id="Group_1111604" data-name="Group 1111604" transform="translate(24.382 9.193)">
          <path id="Path_900506" data-name="Path 900506" d="M36.691,14.549a1.514,1.514,0,1,1-2.142,2.142.5.5,0,0,1-.1-.122c-.046-.053-.084-.106-.122-.159a1.514,1.514,0,0,1,2.362-1.861Z" transform="translate(-34.106 -14.105)" fill="#ef7385"/>
        </g>
        <g id="Group_1111605" data-name="Group 1111605" transform="translate(42.529 16.708)">
          <circle id="Ellipse_11791" data-name="Ellipse 11791" cx="1.5" cy="1.5" r="1.5" transform="translate(-0.288 -0.382)" fill="#ef7385"/>
        </g>
        <g id="Group_1111606" data-name="Group 1111606" transform="translate(39.413 9.193)">
          <path id="Path_900507" data-name="Path 900507" d="M56.489,16.691a1.514,1.514,0,1,1,0-2.142A1.5,1.5,0,0,1,56.489,16.691Z" transform="translate(-53.897 -14.105)" fill="#ef7385"/>
        </g>
        <g id="Group_1111607" data-name="Group 1111607" transform="translate(21.264 16.708)">
          <circle id="Ellipse_11792" data-name="Ellipse 11792" cx="1.5" cy="1.5" r="1.5" transform="translate(-0.023 -0.382)" fill="#ef7385"/>
        </g>
        <g id="Group_1111608" data-name="Group 1111608" transform="translate(24.382 24.23)">
          <path id="Path_900508" data-name="Path 900508" d="M36.691,34.349a1.513,1.513,0,0,1-1.139,2.582,1.46,1.46,0,0,1-1-.44,1.513,1.513,0,0,1,0-2.142,1.5,1.5,0,0,1,.995-.44A1.468,1.468,0,0,1,36.691,34.349Z" transform="translate(-34.105 -33.905)" fill="#ef7385"/>
        </g>
        <g id="Group_1111609" data-name="Group 1111609" transform="translate(31.896 27.34)">
          <circle id="Ellipse_11793" data-name="Ellipse 11793" cx="1.5" cy="1.5" r="1.5" transform="translate(0.344 -0.014)" fill="#ef7385"/>
        </g>
        <g id="Group_1111610" data-name="Group 1111610" transform="translate(39.413 24.224)">
          <path id="Path_900509" data-name="Path 900509" d="M56.489,36.489a1.514,1.514,0,1,1,0-2.142A1.513,1.513,0,0,1,56.489,36.489Z" transform="translate(-53.897 -33.898)" fill="#ef7385"/>
        </g>
        <g id="Group_1111611" data-name="Group 1111611" transform="translate(27.34 12.151)">
          <path id="Path_900510" data-name="Path 900510" d="M41.926,21.926a2.278,2.278,0,0,0,0-3.22,2.118,2.118,0,0,0-.243-.213A5.947,5.947,0,0,1,44.076,18a6.067,6.067,0,0,1,6.076,6.06,2.277,2.277,0,0,0-2.316,3.774,2.356,2.356,0,0,0,.623.448.91.91,0,0,1-.084.091,6.089,6.089,0,0,1-4.283,1.777,2.277,2.277,0,0,0-3.774-2.316,2.356,2.356,0,0,0-.448.623.91.91,0,0,1-.091-.084A6.06,6.06,0,0,1,38,24.076a5.974,5.974,0,0,1,.494-2.392,2.119,2.119,0,0,0,.213.243,2.278,2.278,0,0,0,3.22,0Z" transform="translate(-38 -18)" fill="#ed5565"/>
        </g>
        <g id="Group_1111612" data-name="Group 1111612" transform="translate(27.833 12.645)">
          <path id="Path_900511" data-name="Path 900511" d="M42.083,18.863a2.277,2.277,0,0,1-3.22,3.22,2.118,2.118,0,0,1-.213-.243,6,6,0,0,1,3.19-3.19A2.118,2.118,0,0,1,42.083,18.863Z" transform="translate(-38.65 -18.65)" fill="#ef7385"/>
        </g>
        <g id="Group_1111613" data-name="Group 1111613" transform="translate(31.895 14.562)">
          <path id="Path_900512" data-name="Path 900512" d="M46.589,23.768a1.517,1.517,0,1,1,0-2.149A1.513,1.513,0,0,1,46.589,23.768Z" transform="translate(-43.998 -21.175)" fill="#ffeaa7"/>
        </g>
        <g id="Group_1111614" data-name="Group 1111614" transform="translate(36.508 18.098)">
          <path id="Path_900513" data-name="Path 900513" d="M53.055,25.944v.015a6.03,6.03,0,0,1-1.694,4.207,2.356,2.356,0,0,1-.623-.448,2.277,2.277,0,0,1,2.316-3.774Z" transform="translate(-50.073 -25.831)" fill="#ef7385"/>
        </g>
        <g id="Group_1111615" data-name="Group 1111615" transform="translate(29.208 21.319)">
          <path id="Path_900514" data-name="Path 900514" d="M44.128,30.739a2.263,2.263,0,0,1,.554,2.316h-.015a6.03,6.03,0,0,1-4.207-1.694,2.356,2.356,0,0,1,.448-.623A2.278,2.278,0,0,1,44.128,30.739Z" transform="translate(-40.46 -30.073)" fill="#ef7385"/>
        </g>
      </g>
      <path id="Path_900515" data-name="Path 900515" d="M7,29h4.557v1.519H7Z" transform="translate(-1.443 -6.736)"/>
      <path id="Path_900516" data-name="Path 900516" d="M25,29h1.519v1.519H25Z" transform="translate(-5.773 -6.736)"/>
      <path id="Path_900517" data-name="Path 900517" d="M15,29h6.076v1.519H15Z" transform="translate(-3.368 -6.736)"/>
      <path id="Path_900518" data-name="Path 900518" d="M7,25h7.594v1.519H7Z" transform="translate(-1.443 -5.773)"/>
      <path id="Path_900519" data-name="Path 900519" d="M19,25h6.076v1.519H19Z" transform="translate(-4.33 -5.773)"/>
      <path id="Path_900520" data-name="Path 900520" d="M41.965,20.745h1.7a2.278,2.278,0,1,0,0-1.519h-1.7a6.763,6.763,0,0,0-1.452-3.5l1.2-1.2a2.253,2.253,0,0,0,2.587-.439h0a2.279,2.279,0,0,0,0-3.222,2.333,2.333,0,0,0-3.222,0,2.253,2.253,0,0,0-.44,2.588l-1.2,1.2a6.769,6.769,0,0,0-3.5-1.452v-1.7a2.278,2.278,0,1,0-1.519,0v1.7a6.763,6.763,0,0,0-3.5,1.452l-1.2-1.206a2.253,2.253,0,0,0-.439-2.587h0a2.333,2.333,0,0,0-3.222,0,2.253,2.253,0,0,0-.425.608,6.872,6.872,0,0,0-1.059-.671l-.779-.39V8.594H25.3a1.52,1.52,0,0,0,1.519-1.519V2.519A1.52,1.52,0,0,0,25.3,1H4.038A1.52,1.52,0,0,0,2.519,2.519V7.076A1.52,1.52,0,0,0,4.038,8.594H5.557V10.4l-.778.39A6.8,6.8,0,0,0,1,16.906V44.288a3.8,3.8,0,0,0,3.8,3.8H24.543a3.8,3.8,0,0,0,3.72-3.038h9.19a1.52,1.52,0,0,0,1.519,1.519h1.519a1.52,1.52,0,0,0,1.519-1.519V42.01h1.519v1.519a1.52,1.52,0,0,0,1.519,1.519h1.519a1.52,1.52,0,0,0,1.519-1.519V35.934a1.52,1.52,0,0,0-1.519-1.519H45.047a1.52,1.52,0,0,0-1.519,1.519v1.519H42.01V34.415A1.52,1.52,0,0,0,40.491,32.9H38.972a1.52,1.52,0,0,0-1.519,1.519H28.34V29.667a2.246,2.246,0,0,0,1.366-3.138l1.2-1.2a6.766,6.766,0,0,0,3.5,1.452v1.7a2.278,2.278,0,1,0,1.519,0v-1.7a6.769,6.769,0,0,0,3.5-1.452l1.205,1.205a2.274,2.274,0,1,0,3.659-.636,2.337,2.337,0,0,0-2.58-.431l-1.211-1.211a6.774,6.774,0,0,0,1.453-3.506Zm3.083,15.189h1.519v7.594h-1.52Zm-1.519,3.038v1.519H42.01V38.972Zm-4.557-4.557h1.519V45.047h-1.52Zm.5-13.355a1.506,1.506,0,0,1,.977-.429,5.25,5.25,0,0,1-1.016,2.53,1.517,1.517,0,0,1,.039-2.1Zm6.336-1.833a.759.759,0,1,1-.759.759A.761.761,0,0,1,45.807,19.227Zm-3.651-7.3a.759.759,0,1,1,1.074,1.074.777.777,0,0,1-1.074,0,.759.759,0,0,1,0-1.074ZM40.413,19.1a3.028,3.028,0,0,0-2.054,5.132,5.247,5.247,0,0,1-2.3.988,3.028,3.028,0,0,0-5.132-2.054,5.267,5.267,0,0,1-1.066-3.184,5.393,5.393,0,0,1,.115-1.1,2.99,2.99,0,0,0,3.122-.129,2.273,2.273,0,0,0,3.689.691,2.281,2.281,0,0,0,0-3.222,2.329,2.329,0,0,0-2.382-.511,2.989,2.989,0,0,0-.329-.93,5.473,5.473,0,0,1,1.1-.115A5.3,5.3,0,0,1,40.413,19.1ZM26.821,31.378H2.519V29.859h24.3ZM2.519,28.34V17.708h24.3v1.519h-.14a2.278,2.278,0,1,0,0,1.519h.14V25.4a2.167,2.167,0,0,0-.775.492,2.279,2.279,0,0,0-.506,2.447ZM28.633,14.518l1.2,1.2a6.769,6.769,0,0,0-1.452,3.5H28.34V16.906a6.865,6.865,0,0,0-.371-2.19,2.227,2.227,0,0,0,.664-.2Zm3.994.8a1.506,1.506,0,0,1-.137,1.981,1.556,1.556,0,0,1-1.98.136,5.317,5.317,0,0,1,2.117-2.117ZM34.638,17.3a.759.759,0,0,1,1.074,0,.761.761,0,0,1,0,1.075.779.779,0,0,1-1.074,0A.761.761,0,0,1,34.638,17.3ZM25.3,19.986a.759.759,0,1,1-.759-.759A.761.761,0,0,1,25.3,19.986Zm3.038,5.372V20.745h.045a6.763,6.763,0,0,0,1.452,3.5l-1.211,1.211a2.3,2.3,0,0,0-.286-.1ZM32,24.243a1.5,1.5,0,0,1,2.53,1.016A5.258,5.258,0,0,1,32,24.243ZM35.175,8.594a.759.759,0,1,1-.759.759A.761.761,0,0,1,35.175,8.594ZM27.12,11.931a.759.759,0,1,1,1.074,1.074.777.777,0,0,1-1.074,0,.759.759,0,0,1,0-1.074ZM4.038,2.519H25.3V7.076H4.038ZM22.264,8.594v1.519H7.076V8.594ZM5.458,12.152,6.5,11.632H22.844l1.038.519a5.306,5.306,0,0,1,1.876,1.577l.007.009a5.266,5.266,0,0,1,1.006,2.451H2.568a5.283,5.283,0,0,1,2.89-4.037ZM24.543,46.566H4.8a2.281,2.281,0,0,1-2.278-2.278v-3.8h9.113a1.52,1.52,0,0,0,1.519,1.519h2.606A6.207,6.207,0,0,0,21.1,45.047h5.577A2.275,2.275,0,0,1,24.543,46.566ZM16.948,38.4a4.7,4.7,0,0,1,3.8-2.44v7.547a4.7,4.7,0,0,1-3.8-2.44V38.4Zm-1.519,2.092H13.151V38.972h2.278Zm22.024,3.038H22.264V35.934h1.519v4.557H25.3V35.934h1.519v3.038H28.34V35.934h1.519v4.557h1.519V35.934H32.9v3.038h1.519V35.934h3.038ZM21.1,34.415a6.207,6.207,0,0,0-5.347,3.038H13.151a1.52,1.52,0,0,0-1.519,1.519H2.519V32.9h24.3v1.519Zm7.089-6.375a.776.776,0,0,1-1.074,0,.76.76,0,0,1,0-1.074.759.759,0,0,1,1.074,0A.76.76,0,0,1,28.193,28.041Zm6.982,3.337a.759.759,0,1,1,.759-.759A.76.76,0,0,1,35.175,31.378Zm7.518-4.633a.759.759,0,0,1,.537,1.3.775.775,0,0,1-1.073,0,.76.76,0,0,1,0-1.074.751.751,0,0,1,.536-.223Z"/>
    </g>
  </g>
</svg>
