<svg xmlns="http://www.w3.org/2000/svg" xmlns:xlink="http://www.w3.org/1999/xlink" width="109.652" height="109.653" viewBox="0 0 109.652 109.653">
  <defs>
    <filter id="Path_874925" x="0" y="0" width="109.652" height="109.653" filterUnits="userSpaceOnUse">
      <feOffset dy="3" input="SourceAlpha"/>
      <feGaussianBlur stdDeviation="3" result="blur"/>
      <feFlood flood-opacity="0.161"/>
      <feComposite operator="in" in2="blur"/>
      <feComposite in="SourceGraphic"/>
    </filter>
  </defs>
  <g id="Group_1111657" data-name="Group 1111657" transform="translate(-903 -3840)">
    <g id="Group_1111429" data-name="Group 1111429" transform="translate(-107.73 769)">
      <g transform="matrix(1, 0, 0, 1, 1010.73, 3071)" filter="url(#Path_874925)">
        <g id="Path_874925-2" data-name="Path 874925" transform="translate(9 6)" fill="#ffd63c">
          <path d="M 45.82614517211914 90.15280151367188 C 39.84149551391602 90.15280151367188 34.03665924072266 88.98104095458984 28.5728702545166 86.67005157470703 C 23.29473304748535 84.43759155273438 18.55415725708008 81.24130249023438 14.48283290863037 77.16998291015625 C 10.41150760650635 73.09866333007812 7.215232849121094 68.35809326171875 4.982757568359375 63.07994079589844 C 2.671770095825195 57.61616897583008 1.500007629394531 51.81131744384766 1.500007629394531 45.82666778564453 C 1.500007629394531 39.84149169921875 2.671770095825195 34.03665542602539 4.982757568359375 28.57286643981934 C 7.215232849121094 23.29472923278809 10.41150760650635 18.55415534973145 14.48283290863037 14.48283004760742 C 18.55415725708008 10.4115047454834 23.29473304748535 7.215229511260986 28.5728702545166 4.982754707336426 C 34.03665924072266 2.671766996383667 39.84149551391602 1.500004529953003 45.82614517211914 1.500004529953003 C 51.81079483032227 1.500004529953003 57.61564636230469 2.671766996383667 63.07942199707031 4.982754707336426 C 68.35756683349609 7.215229511260986 73.09814453125 10.4115047454834 77.16947174072266 14.48283004760742 C 81.24078369140625 18.55415534973145 84.43707275390625 23.29472923278809 86.66954803466797 28.57286643981934 C 88.98052978515625 34.03665542602539 90.15229797363281 39.84149169921875 90.15229797363281 45.82614135742188 C 90.15229797363281 51.81131744384766 88.98052978515625 57.61616897583008 86.66954803466797 63.07994079589844 C 84.43707275390625 68.35809326171875 81.24078369140625 73.09866333007812 77.16947174072266 77.16998291015625 C 73.09814453125 81.24130249023438 68.35756683349609 84.43759155273438 63.07942199707031 86.67005157470703 C 57.61564636230469 88.98104095458984 51.81079483032227 90.15280151367188 45.82614517211914 90.15280151367188 Z" stroke="none"/>
          <path d="M 45.82614517211914 3.000007629394531 C 40.04333114624023 3.000007629394531 34.43508911132812 4.131904602050781 29.15720367431641 6.364265441894531 C 24.05784606933594 8.521102905273438 19.47753143310547 11.60944366455078 15.54348754882812 15.54348754882812 C 11.60944366455078 19.47753143310547 8.521102905273438 24.05784606933594 6.3642578125 29.15720367431641 C 4.131904602050781 34.43508911132812 3 40.0433349609375 3 45.82667541503906 C 3 51.60948944091797 4.131904602050781 57.21773147583008 6.3642578125 62.49562072753906 C 8.521102905273438 67.59497833251953 11.60944366455078 72.17527770996094 15.54348754882812 76.10932922363281 C 19.47753143310547 80.04337310791016 24.05784606933594 83.13170623779297 29.15718841552734 85.28854370117188 C 34.43508911132812 87.52090454101562 40.04333114624023 88.65280151367188 45.82614517211914 88.65280151367188 C 51.60895919799805 88.65280151367188 57.21720123291016 87.52090454101562 62.49510192871094 85.28854370117188 C 67.59444427490234 83.13170623779297 72.17475891113281 80.04337310791016 76.10880279541016 76.10932922363281 C 80.0428466796875 72.17527770996094 83.13118743896484 67.59497833251953 85.28803253173828 62.49562072753906 C 87.5203857421875 57.21773147583008 88.65229034423828 51.60948944091797 88.65229034423828 45.82614898681641 C 88.65229034423828 40.0433349609375 87.5203857421875 34.43508911132812 85.28803253173828 29.15720367431641 C 83.13118743896484 24.05784606933594 80.0428466796875 19.47753143310547 76.10880279541016 15.54348754882812 C 72.17475891113281 11.60944366455078 67.59444427490234 8.521102905273438 62.49508666992188 6.364265441894531 C 57.21720123291016 4.131904602050781 51.60895919799805 3.000007629394531 45.82614517211914 3.000007629394531 M 45.82614517211914 7.62939453125e-06 C 71.13523101806641 7.62939453125e-06 91.65229034423828 20.51705932617188 91.65229034423828 45.82614898681641 L 91.65229034423828 45.82667541503906 C 91.65229034423828 71.13575744628906 71.13523101806641 91.65280151367188 45.82614517211914 91.65280151367188 C 20.51705932617188 91.65280151367188 0 71.13575744628906 0 45.82667541503906 L 0 45.82614898681641 C 0 20.51705932617188 20.51705932617188 7.62939453125e-06 45.82614517211914 7.62939453125e-06 Z" stroke="none" fill="#fff"/>
        </g>
      </g>
    </g>
    <g id="ecosistema" transform="translate(929 3862.999)">
      <path id="Path_900728" data-name="Path 900728" d="M55.629,48.934l-.975,1.95a7.979,7.979,0,0,0,.753,8.355l1.13,1.506H42l1.13-1.506a7.979,7.979,0,0,0,.753-8.355l-.975-1.95a4.46,4.46,0,0,0,2.33-.66l3.122,5.2,5.768-4.806h0a4.414,4.414,0,0,0,1.5.263Z" transform="translate(-3.748 -4.322)" fill="#c18e59"/>
      <path id="Path_900729" data-name="Path 900729" d="M11.994,21.989l2.726-2.726,4.543-.909V14.72l2.726-2.726L19.263,9.269V5.634L14.72,4.726,11.994,2,9.269,4.726l-4.543.909V9.269L2,11.994,4.726,14.72v3.634l4.543.909Z" transform="translate(-0.091 -0.091)" fill="#f7d881"/>
      <circle id="Ellipse_11813" data-name="Ellipse 11813" cx="5.5" cy="5.5" r="5.5" transform="translate(6 6.333)" fill="#c16b3f"/>
      <path id="Path_900730" data-name="Path 900730" d="M2,60.354l1.441-1.441a4.387,4.387,0,0,1,6.2,0l.156.156a4.387,4.387,0,0,0,6.2,0l.156-.156a4.387,4.387,0,0,1,6.2,0l1.441,1.441V46.726l-1.441-1.441a4.387,4.387,0,0,0-6.2,0L16,45.441a4.387,4.387,0,0,1-6.2,0l-.156-.156a4.387,4.387,0,0,0-6.2,0L2,46.726Z" transform="translate(-0.091 -3.931)" fill="#c7e2fc"/>
      <path id="Path_900731" data-name="Path 900731" d="M2,60.354l1.441-1.441a4.387,4.387,0,0,1,6.2,0l.156.156a4.387,4.387,0,0,0,6.2,0l.156-.156a4.387,4.387,0,0,1,6.2,0l1.441,1.441V46.726l-1.441-1.441a4.387,4.387,0,0,0-6.2,0L16,45.441a4.387,4.387,0,0,1-6.2,0l-.156-.156a4.387,4.387,0,0,0-6.2,0L2,46.726Z" transform="translate(-0.091 -3.931)" fill="#c7e2fc"/>
      <path id="Path_900732" data-name="Path 900732" d="M24.154,50.55a5.3,5.3,0,0,0-7.49,0l-.155.155a3.489,3.489,0,0,1-.843.621l-1.088-.02-.035,1.816,1.307.025a.693.693,0,0,0,.394-.082,5.277,5.277,0,0,0,1.55-1.075l.155-.155a3.562,3.562,0,0,1,4.92,0l1.441,1.44a.905.905,0,0,0,.642.265V51.349Z" transform="translate(-1.238 -4.388)" fill="#ebf7fe"/>
      <path id="Path_900733" data-name="Path 900733" d="M11.086,52.726,9.645,54.167a4.387,4.387,0,0,1-6.2,0L2,52.726l1.441-1.441a4.387,4.387,0,0,1,6.2,0Z" transform="translate(-0.091 -4.48)" fill="#e39854"/>
      <path id="Path_900734" data-name="Path 900734" d="M12,52.726l.81-1.214A3.394,3.394,0,0,1,15.634,50v5.451A3.394,3.394,0,0,1,12.81,53.94Z" transform="translate(-1.006 -4.48)" fill="#efbe9a"/>
      <path id="Path_900735" data-name="Path 900735" d="M27.086,58.726l-1.441,1.441a4.387,4.387,0,0,1-6.2,0L18,58.726l1.441-1.441a4.387,4.387,0,0,1,6.2,0Z" transform="translate(-1.554 -5.028)" fill="#e39854"/>
      <path id="Path_900736" data-name="Path 900736" d="M28,58.726l.81-1.214A3.394,3.394,0,0,1,31.634,56v5.451A3.394,3.394,0,0,1,28.81,59.94Z" transform="translate(-2.468 -5.028)" fill="#efbe9a"/>
      <path id="Path_900737" data-name="Path 900737" d="M55.816,38.415a4.558,4.558,0,0,0-2.427-2.427,4.518,4.518,0,0,0-8.974,0,4.558,4.558,0,0,0-2.427,2.427,4.53,4.53,0,1,0,3.282,8.1,4.506,4.506,0,0,0,7.265,0,4.5,4.5,0,0,0,2.728.931,4.531,4.531,0,0,0,.553-9.03Z" transform="translate(-3.383 -2.834)" fill="#78b75b"/>
      <path id="Path_900738" data-name="Path 900738" d="M57,46.724V44.908A.91.91,0,0,0,57.908,44h1.816A2.729,2.729,0,0,1,57,46.724Z" transform="translate(-5.12 -3.931)" fill="#96cc7f"/>
      <path id="Path_900739" data-name="Path 900739" d="M52.724,36.724H50.908A.909.909,0,0,0,50,35.816V34A2.729,2.729,0,0,1,52.724,36.724Z" transform="translate(-4.48 -3.017)" fill="#96cc7f"/>
      <path id="Path_900740" data-name="Path 900740" d="M58.726,4,56.545,6.907a2.726,2.726,0,1,0,4.361,0Z" transform="translate(-5.028 -0.274)" fill="#c7e2fc"/>
      <path id="Path_900741" data-name="Path 900741" d="M46.726,4,44.545,6.907a2.726,2.726,0,1,0,4.361,0Z" transform="translate(-3.931 -0.274)" fill="#c7e2fc"/>
      <path id="Path_900742" data-name="Path 900742" d="M52.726,12l-2.181,2.907a2.726,2.726,0,1,0,4.361,0Z" transform="translate(-4.48 -1.006)" fill="#c7e2fc"/>
      <g id="Group_1111656" data-name="Group 1111656" transform="translate(10.085 10.085)">
        <path id="Path_900743" data-name="Path 900743" d="M27,11h1.816v1.816H27Z" transform="translate(-12.462 -10.999)" fill="#c1c8d1"/>
        <path id="Path_900744" data-name="Path 900744" d="M31,11h1.816v1.816H31Z" transform="translate(-12.828 -10.999)" fill="#c1c8d1"/>
        <path id="Path_900745" data-name="Path 900745" d="M35,11h1.816v1.816H35Z" transform="translate(-13.193 -10.999)" fill="#c1c8d1"/>
        <path id="Path_900746" data-name="Path 900746" d="M39,11h1.816v1.816H39Z" transform="translate(-13.559 -10.999)" fill="#c1c8d1"/>
        <path id="Path_900747" data-name="Path 900747" d="M51,23h1.816v1.816H51Z" transform="translate(-14.656 -12.096)" fill="#c1c8d1"/>
        <path id="Path_900748" data-name="Path 900748" d="M51,27h1.816v1.816H51Z" transform="translate(-14.656 -12.462)" fill="#c1c8d1"/>
        <path id="Path_900749" data-name="Path 900749" d="M33,51h1.816v1.816H33Z" transform="translate(-13.01 -14.656)" fill="#c1c8d1"/>
        <path id="Path_900750" data-name="Path 900750" d="M37,51h1.816v1.816H37Z" transform="translate(-13.376 -14.656)" fill="#c1c8d1"/>
        <path id="Path_900751" data-name="Path 900751" d="M29,51h1.816v1.816H29Z" transform="translate(-12.645 -14.656)" fill="#c1c8d1"/>
        <path id="Path_900752" data-name="Path 900752" d="M11,28h1.816v1.816H11Z" transform="translate(-10.999 -12.553)" fill="#c1c8d1"/>
        <path id="Path_900753" data-name="Path 900753" d="M11,32h1.816v1.816H11Z" transform="translate(-10.999 -12.919)" fill="#c1c8d1"/>
        <path id="Path_900754" data-name="Path 900754" d="M11,36h1.816v1.816H11Z" transform="translate(-10.999 -13.285)" fill="#c1c8d1"/>
        <path id="Path_900755" data-name="Path 900755" d="M11,40h1.816v1.816H11Z" transform="translate(-10.999 -13.65)" fill="#c1c8d1"/>
      </g>
      <path id="Path_900756" data-name="Path 900756" d="M31.2,24.817a6.37,6.37,0,0,1,6.073,4.469L36.247,28.6l-1.009,1.513,2.726,1.817a.915.915,0,0,0,1.009,0L41.7,30.115,40.691,28.6l-1.472.982a8.177,8.177,0,0,0-15.95-.406l1.763.442a6.35,6.35,0,0,1,6.168-4.8Z" transform="translate(-2.036 -2.011)" fill="#96cc7f"/>
      <path id="Path_900757" data-name="Path 900757" d="M30.943,38.267A6.371,6.371,0,0,1,24.869,33.8l1.027.684L26.9,32.969l-2.725-1.817a.908.908,0,0,0-1.008,0l-2.727,1.817,1.007,1.513,1.472-.981a8.178,8.178,0,0,0,15.937.457L37.1,33.5a6.356,6.356,0,0,1-6.158,4.764Z" transform="translate(-1.778 -2.743)" fill="#78b75b"/>
      <path id="Path_900758" data-name="Path 900758" d="M7,12.451a5.419,5.419,0,0,0,1.026,3.175A8.629,8.629,0,0,0,13.9,7.453c0-.087-.01-.171-.013-.257A5.437,5.437,0,0,0,7,12.451Z" transform="translate(-0.549 -0.548)" fill="#e39854"/>
      <path id="Path_900759" data-name="Path 900759" d="M12.36,18.72A6.36,6.36,0,1,0,6,12.36,6.368,6.368,0,0,0,12.36,18.72Zm0-10.9A4.543,4.543,0,1,1,7.817,12.36,4.548,4.548,0,0,1,12.36,7.817Z" transform="translate(-0.457 -0.457)"/>
      <path id="Path_900760" data-name="Path 900760" d="M3.726,15v3.258a.908.908,0,0,0,.73.89l4.273.854,2.531,2.531a.907.907,0,0,0,1.285,0l2.531-2.531,4.273-.854a.91.91,0,0,0,.73-.891V15l2.46-2.46a.908.908,0,0,0,0-1.285L20.08,8.8V5.543a.908.908,0,0,0-.73-.89L15.077,3.8,12.545,1.267a.908.908,0,0,0-1.285,0L8.729,3.8l-4.273.855a.908.908,0,0,0-.73.89V8.8l-2.46,2.46a.908.908,0,0,0,0,1.285ZM5.277,9.82a.9.9,0,0,0,.266-.642V6.287l3.812-.762a.917.917,0,0,0,.464-.248L11.9,3.193l2.083,2.083a.907.907,0,0,0,.464.248l3.812.762v2.89a.9.9,0,0,0,.266.642L20.613,11.9l-2.083,2.083a.9.9,0,0,0-.266.642v2.89l-3.812.762a.917.917,0,0,0-.464.248L11.9,20.613,9.82,18.529a.907.907,0,0,0-.464-.248l-3.812-.762v-2.89a.9.9,0,0,0-.266-.642L3.193,11.9Z" transform="translate(0)"/>
      <path id="Path_900761" data-name="Path 900761" d="M2.734,44.551,1.293,45.992l1.285,1.285,1.441-1.441a3.479,3.479,0,0,1,4.919,0l.156.156a5.3,5.3,0,0,0,7.488,0l.156-.156a3.479,3.479,0,0,1,4.919,0L23.1,47.277l1.285-1.285-1.441-1.441a5.3,5.3,0,0,0-7.488,0l-.156.156a3.479,3.479,0,0,1-4.919,0l-.156-.156a5.3,5.3,0,0,0-7.488,0Z" transform="translate(-0.027 -3.84)"/>
      <path id="Path_900762" data-name="Path 900762" d="M2.707,54.718a5.3,5.3,0,0,0,7.488,0l.657-.657.194.292a4.3,4.3,0,0,0,3.582,1.916.908.908,0,0,0,.909-.909V52.765a5.228,5.228,0,0,0,1.019-.773l.156-.156a3.479,3.479,0,0,1,4.919,0l1.441,1.441,1.285-1.285-1.441-1.441a5.285,5.285,0,0,0-7.379-.1v-.543A.908.908,0,0,0,14.629,49a4.293,4.293,0,0,0-3.581,1.916l-.194.292-.657-.657a5.3,5.3,0,0,0-7.489,0L1.266,51.992a.908.908,0,0,0,0,1.285Zm9.853-2.793a2.478,2.478,0,0,1,1.16-.936v3.292a2.479,2.479,0,0,1-1.16-.936l-.473-.711Zm-8.568-.089a3.479,3.479,0,0,1,4.919,0l.8.8-.8.8a3.479,3.479,0,0,1-4.919,0l-.8-.8Z" transform="translate(0 -4.388)"/>
      <path id="Path_900763" data-name="Path 900763" d="M29.193,55a4.293,4.293,0,0,0-3.581,1.916l-.194.292-.657-.657a5.3,5.3,0,0,0-7.489,0L15.83,57.992a.9.9,0,0,0-.138,1.077c-.079.07-.164.134-.238.208l-.156.156a3.479,3.479,0,0,1-4.919,0l-.156-.156a5.3,5.3,0,0,0-7.488,0L1.293,60.718,2.578,62l1.441-1.441a3.479,3.479,0,0,1,4.919,0l.156.156a5.3,5.3,0,0,0,7.488,0l.156-.156c.063-.063.134-.117.2-.175l.332.332a5.3,5.3,0,0,0,7.488,0l.657-.657.194.292a4.3,4.3,0,0,0,3.582,1.916.908.908,0,0,0,.909-.909V55.909A.908.908,0,0,0,29.193,55Zm-5.718,4.433a3.479,3.479,0,0,1-4.919,0l-.8-.8.8-.8a3.479,3.479,0,0,1,4.919,0l.8.8Zm4.809.848a2.479,2.479,0,0,1-1.16-.936l-.473-.711.473-.71a2.478,2.478,0,0,1,1.16-.936Z" transform="translate(-0.027 -4.937)"/>
      <path id="Path_900764" data-name="Path 900764" d="M56.341,37.509a5.526,5.526,0,0,0-2.227-2.227,5.424,5.424,0,0,0-10.6,0,5.526,5.526,0,0,0-2.227,2.227,5.438,5.438,0,0,0,.592,10.723l.74,1.478a7.071,7.071,0,0,1-.668,7.4l-1.13,1.506a.909.909,0,0,0,.727,1.455H56.08a.909.909,0,0,0,.727-1.455l-1.13-1.506a7.073,7.073,0,0,1-.668-7.4l.74-1.478a5.438,5.438,0,0,0,.592-10.723ZM43.36,58.257l.04-.054a8.889,8.889,0,0,0,.84-9.307l-.41-.819a5.251,5.251,0,0,0,.6-.2l2.691,4.485a.91.91,0,0,0,.627.429.97.97,0,0,0,.153.013.916.916,0,0,0,.582-.21l5.228-4.358-.33.659a8.891,8.891,0,0,0,.84,9.307l.04.053Zm3.814-9.34a5.412,5.412,0,0,0,1.637.254,5.486,5.486,0,0,0,1.069-.105l-1.744,1.455Zm8-2.471a3.589,3.589,0,0,1-2.179-.747.9.9,0,0,0-.676-.174.91.91,0,0,0-.6.356,3.6,3.6,0,0,1-5.809,0,.913.913,0,0,0-.6-.356.868.868,0,0,0-.128-.009.911.911,0,0,0-.549.184,3.586,3.586,0,0,1-2.179.748,3.623,3.623,0,0,1-.442-7.22.908.908,0,0,0,.727-.549,3.667,3.667,0,0,1,1.942-1.942.905.905,0,0,0,.549-.727,3.609,3.609,0,0,1,7.17,0,.908.908,0,0,0,.549.727,3.667,3.667,0,0,1,1.942,1.942.905.905,0,0,0,.727.549,3.623,3.623,0,0,1-.442,7.22Z" transform="translate(-3.291 -2.743)"/>
      <path id="Path_900765" data-name="Path 900765" d="M57,44.909v1.817A2.729,2.729,0,0,0,59.726,44H57.909A.909.909,0,0,1,57,44.909Z" transform="translate(-5.12 -3.931)"/>
      <path id="Path_900766" data-name="Path 900766" d="M50,34v1.817a.909.909,0,0,1,.909.909h1.817A2.729,2.729,0,0,0,50,34Z" transform="translate(-4.48 -3.017)"/>
      <path id="Path_900767" data-name="Path 900767" d="M58.634,12.088a3.634,3.634,0,0,0,2.907-5.814L59.361,3.366a.941.941,0,0,0-1.454,0L55.726,6.275a3.634,3.634,0,0,0,2.908,5.813ZM57.18,7.363l1.455-1.938,1.454,1.937a1.841,1.841,0,0,1,.363,1.091,1.817,1.817,0,1,1-3.634,0A1.842,1.842,0,0,1,57.18,7.363Z" transform="translate(-4.937 -0.185)"/>
      <path id="Path_900768" data-name="Path 900768" d="M46.634,12.088a3.634,3.634,0,0,0,2.907-5.814L47.361,3.366a.941.941,0,0,0-1.454,0L43.726,6.275a3.634,3.634,0,0,0,2.908,5.813ZM45.18,7.363l1.455-1.938,1.454,1.937a1.841,1.841,0,0,1,.363,1.091,1.817,1.817,0,1,1-3.634,0A1.842,1.842,0,0,1,45.18,7.363Z" transform="translate(-3.84 -0.185)"/>
      <path id="Path_900769" data-name="Path 900769" d="M49,16.454a3.634,3.634,0,1,0,6.542-2.18l-2.181-2.907a.941.941,0,0,0-1.454,0l-2.181,2.908A3.66,3.66,0,0,0,49,16.454Zm2.18-1.09,1.455-1.938,1.454,1.937a1.841,1.841,0,0,1,.363,1.091,1.817,1.817,0,1,1-3.634,0A1.841,1.841,0,0,1,51.18,15.363Z" transform="translate(-4.388 -0.916)"/>
      <path id="Path_900770" data-name="Path 900770" d="M27,11h1.817v1.817H27Z" transform="translate(-2.377 -0.914)"/>
      <path id="Path_900771" data-name="Path 900771" d="M31,11h1.817v1.817H31Z" transform="translate(-2.743 -0.914)"/>
      <path id="Path_900772" data-name="Path 900772" d="M35,11h1.817v1.817H35Z" transform="translate(-3.108 -0.914)"/>
      <path id="Path_900773" data-name="Path 900773" d="M39,11h1.817v1.817H39Z" transform="translate(-3.474 -0.914)"/>
      <path id="Path_900774" data-name="Path 900774" d="M51,23h1.817v1.817H51Z" transform="translate(-4.571 -2.011)"/>
      <path id="Path_900775" data-name="Path 900775" d="M51,27h1.817v1.817H51Z" transform="translate(-4.571 -2.377)"/>
      <path id="Path_900776" data-name="Path 900776" d="M33,51h1.817v1.817H33Z" transform="translate(-2.926 -4.571)"/>
      <path id="Path_900777" data-name="Path 900777" d="M37,51h1.817v1.817H37Z" transform="translate(-3.291 -4.571)"/>
      <path id="Path_900778" data-name="Path 900778" d="M29,51h1.817v1.817H29Z" transform="translate(-2.56 -4.571)"/>
      <path id="Path_900779" data-name="Path 900779" d="M11,28h1.817v1.817H11Z" transform="translate(-0.914 -2.468)"/>
      <path id="Path_900780" data-name="Path 900780" d="M11,32h1.817v1.817H11Z" transform="translate(-0.914 -2.834)"/>
      <path id="Path_900781" data-name="Path 900781" d="M11,36h1.817v1.817H11Z" transform="translate(-0.914 -3.2)"/>
      <path id="Path_900782" data-name="Path 900782" d="M11,40h1.817v1.817H11Z" transform="translate(-0.914 -3.565)"/>
      <path id="Path_900783" data-name="Path 900783" d="M25.034,29.621a6.362,6.362,0,0,1,12.242-.333L36.249,28.6l-1.008,1.512,2.726,1.817a.908.908,0,0,0,1.008,0L41.7,30.116,40.693,28.6l-1.471.98a8.178,8.178,0,0,0-15.951-.405Z" transform="translate(-2.036 -2.011)"/>
      <path id="Path_900784" data-name="Path 900784" d="M38.862,33.958,37.1,33.5A6.361,6.361,0,0,1,24.87,33.8l1.027.684L26.9,32.97l-2.726-1.817a.9.9,0,0,0-1.008,0L20.445,32.97l1.008,1.512,1.471-.98a8.178,8.178,0,0,0,15.938.457Z" transform="translate(-1.778 -2.743)"/>
    </g>
  </g>
</svg>
