<svg xmlns="http://www.w3.org/2000/svg" xmlns:xlink="http://www.w3.org/1999/xlink" width="109.652" height="109.653" viewBox="0 0 109.652 109.653">
  <defs>
    <filter id="Path_874925" x="0" y="0" width="109.652" height="109.653" filterUnits="userSpaceOnUse">
      <feOffset dy="3" input="SourceAlpha"/>
      <feGaussianBlur stdDeviation="3" result="blur"/>
      <feFlood flood-opacity="0.161"/>
      <feComposite operator="in" in2="blur"/>
      <feComposite in="SourceGraphic"/>
    </filter>
  </defs>
  <g id="Group_1111651" data-name="Group 1111651" transform="translate(-1055 -2474)">
    <g id="Group_1111424" data-name="Group 1111424" transform="translate(44.27 -597)">
      <g transform="matrix(1, 0, 0, 1, 1010.73, 3071)" filter="url(#Path_874925)">
        <g id="Path_874925-2" data-name="Path 874925" transform="translate(9 6)" fill="#ffd63c">
          <path d="M 45.82614517211914 90.15280151367188 C 39.84149551391602 90.15280151367188 34.03665924072266 88.98104095458984 28.5728702545166 86.67005157470703 C 23.29473304748535 84.43759155273438 18.55415725708008 81.24130249023438 14.48283290863037 77.16998291015625 C 10.41150760650635 73.09866333007812 7.215232849121094 68.35809326171875 4.982757568359375 63.07994079589844 C 2.671770095825195 57.61616897583008 1.500007629394531 51.81131744384766 1.500007629394531 45.82666778564453 C 1.500007629394531 39.84149169921875 2.671770095825195 34.03665542602539 4.982757568359375 28.57286643981934 C 7.215232849121094 23.29472923278809 10.41150760650635 18.55415534973145 14.48283290863037 14.48283004760742 C 18.55415725708008 10.4115047454834 23.29473304748535 7.215229511260986 28.5728702545166 4.982754707336426 C 34.03665924072266 2.671766996383667 39.84149551391602 1.500004529953003 45.82614517211914 1.500004529953003 C 51.81079483032227 1.500004529953003 57.61564636230469 2.671766996383667 63.07942199707031 4.982754707336426 C 68.35756683349609 7.215229511260986 73.09814453125 10.4115047454834 77.16947174072266 14.48283004760742 C 81.24078369140625 18.55415534973145 84.43707275390625 23.29472923278809 86.66954803466797 28.57286643981934 C 88.98052978515625 34.03665542602539 90.15229797363281 39.84149169921875 90.15229797363281 45.82614135742188 C 90.15229797363281 51.81131744384766 88.98052978515625 57.61616897583008 86.66954803466797 63.07994079589844 C 84.43707275390625 68.35809326171875 81.24078369140625 73.09866333007812 77.16947174072266 77.16998291015625 C 73.09814453125 81.24130249023438 68.35756683349609 84.43759155273438 63.07942199707031 86.67005157470703 C 57.61564636230469 88.98104095458984 51.81079483032227 90.15280151367188 45.82614517211914 90.15280151367188 Z" stroke="none"/>
          <path d="M 45.82614517211914 3.000007629394531 C 40.04333114624023 3.000007629394531 34.43508911132812 4.131904602050781 29.15720367431641 6.364265441894531 C 24.05784606933594 8.521102905273438 19.47753143310547 11.60944366455078 15.54348754882812 15.54348754882812 C 11.60944366455078 19.47753143310547 8.521102905273438 24.05784606933594 6.3642578125 29.15720367431641 C 4.131904602050781 34.43508911132812 3 40.0433349609375 3 45.82667541503906 C 3 51.60948944091797 4.131904602050781 57.21773147583008 6.3642578125 62.49562072753906 C 8.521102905273438 67.59497833251953 11.60944366455078 72.17527770996094 15.54348754882812 76.10932922363281 C 19.47753143310547 80.04337310791016 24.05784606933594 83.13170623779297 29.15718841552734 85.28854370117188 C 34.43508911132812 87.52090454101562 40.04333114624023 88.65280151367188 45.82614517211914 88.65280151367188 C 51.60895919799805 88.65280151367188 57.21720123291016 87.52090454101562 62.49510192871094 85.28854370117188 C 67.59444427490234 83.13170623779297 72.17475891113281 80.04337310791016 76.10880279541016 76.10932922363281 C 80.0428466796875 72.17527770996094 83.13118743896484 67.59497833251953 85.28803253173828 62.49562072753906 C 87.5203857421875 57.21773147583008 88.65229034423828 51.60948944091797 88.65229034423828 45.82614898681641 C 88.65229034423828 40.0433349609375 87.5203857421875 34.43508911132812 85.28803253173828 29.15720367431641 C 83.13118743896484 24.05784606933594 80.0428466796875 19.47753143310547 76.10880279541016 15.54348754882812 C 72.17475891113281 11.60944366455078 67.59444427490234 8.521102905273438 62.49508666992188 6.364265441894531 C 57.21720123291016 4.131904602050781 51.60895919799805 3.000007629394531 45.82614517211914 3.000007629394531 M 45.82614517211914 7.62939453125e-06 C 71.13523101806641 7.62939453125e-06 91.65229034423828 20.51705932617188 91.65229034423828 45.82614898681641 L 91.65229034423828 45.82667541503906 C 91.65229034423828 71.13575744628906 71.13523101806641 91.65280151367188 45.82614517211914 91.65280151367188 C 20.51705932617188 91.65280151367188 0 71.13575744628906 0 45.82667541503906 L 0 45.82614898681641 C 0 20.51705932617188 20.51705932617188 7.62939453125e-06 45.82614517211914 7.62939453125e-06 Z" stroke="none" fill="#fff"/>
        </g>
      </g>
    </g>
    <g id="Fertilizer" transform="translate(1056.015 2500)">
      <g id="Filled" transform="translate(32.777 0.791)">
        <path id="Path_900686" data-name="Path 900686" d="M82.7,182.84l-1.582-2.372s.791-2.372.791-12.652c0-3.645-2.372-15.815-2.372-15.815H43.163s-2.372,12.17-2.372,15.815c0,10.28.791,12.652.791,12.652L40,182.84a1.88,1.88,0,0,0,2.829,1.582s10.614,2.372,18.522,2.372,18.522-2.372,18.522-2.372A1.88,1.88,0,0,0,82.7,182.84Z" transform="translate(-40 -137.766)" fill="#66bb6a"/>
        <path id="Path_900687" data-name="Path 900687" d="M161.406,175.025c0-3.084-1.7-12.269-2.221-15.025H154.9a39.578,39.578,0,0,1-26.681,32.75A82.559,82.559,0,0,0,140.846,194c7.908,0,18.522-2.372,18.522-2.372a1.88,1.88,0,0,0,2.829-1.582l-1.582-2.372S161.406,185.3,161.406,175.025Z" transform="translate(-119.495 -144.975)" fill="#49ad4d"/>
        <rect id="Rectangle_404806" data-name="Rectangle 404806" width="26.886" height="19.769" rx="9.885" transform="translate(7.908 22.932)" fill="#e2dbd5"/>
        <path id="Path_900688" data-name="Path 900688" d="M246,280.319a9.847,9.847,0,0,0-2.479-6.546A39.688,39.688,0,0,1,229.982,290.2h6.13A9.885,9.885,0,0,0,246,280.319Z" transform="translate(-211.203 -247.502)" fill="#d9d1cc"/>
        <path id="Path_900689" data-name="Path 900689" d="M219.213,360a3.954,3.954,0,0,0-3.954,3.954h7.908A3.954,3.954,0,0,0,219.213,360Z" transform="translate(-197.935 -325.206)" fill="#f09b73"/>
        <path id="Path_900690" data-name="Path 900690" d="M104.606,8C98.108,8,88,20.652,88,20.652h33.212S111.1,8,104.606,8Z" transform="translate(-83.255 -8)" fill="#f09b73"/>
        <g id="Group_1111650" data-name="Group 1111650" transform="translate(0 12.652)">
          <rect id="Rectangle_404807" data-name="Rectangle 404807" width="42.702" height="3.163" rx="1.582" fill="#81c784"/>
          <rect id="Rectangle_404808" data-name="Rectangle 404808" width="42.702" height="3.163" rx="1.582" transform="translate(0 3.163)" fill="#81c784"/>
          <path id="Path_900691" data-name="Path 900691" d="M190.448,284.028a3.861,3.861,0,0,1-3.871.315c-1.985-1.064-3.318-4.17-3.318-4.17s3.324-.608,5.309.456A3.861,3.861,0,0,1,190.448,284.028Z" transform="translate(-169.098 -265.766)" fill="#81c784"/>
        </g>
        <path id="Path_900692" data-name="Path 900692" d="M255.26,284.028a3.861,3.861,0,0,0,3.871.315c1.985-1.064,3.318-4.17,3.318-4.17s-3.324-.608-5.309.456A3.861,3.861,0,0,0,255.26,284.028Z" transform="translate(-233.982 -253.114)" fill="#66bb6a"/>
        <path id="Path_900693" data-name="Path 900693" d="M247.053,30.641a18.214,18.214,0,0,1-7.346,10.414h18.217S252.506,34.274,247.053,30.641Z" transform="translate(-219.967 -28.403)" fill="#e58b6c"/>
        <path id="Path_900694" data-name="Path 900694" d="M238.535,363.526a7.937,7.937,0,0,1-3.635,3.605h5.966a3.954,3.954,0,0,0-2.331-3.605Z" transform="translate(-215.635 -328.384)" fill="#e58b6c"/>
        <circle id="Ellipse_11799" data-name="Ellipse 11799" cx="1.582" cy="1.582" r="1.582" transform="translate(16.606 2.372)" fill="#f2bba5"/>
        <circle id="Ellipse_11800" data-name="Ellipse 11800" cx="0.791" cy="0.791" r="0.791" transform="translate(19.769 6.326)" fill="#f2bba5"/>
        <circle id="Ellipse_11801" data-name="Ellipse 11801" cx="1.582" cy="1.582" r="1.582" transform="translate(2.372 21.351)" fill="#c8e6c9"/>
        <circle id="Ellipse_11802" data-name="Ellipse 11802" cx="0.791" cy="0.791" r="0.791" transform="translate(5.535 25.305)" fill="#c8e6c9"/>
      </g>
      <g id="Outline" transform="translate(31.985)">
        <path id="Path_900695" data-name="Path 900695" d="M74.748,245.2c.222-1.031.731-4.287.731-12.5a61.763,61.763,0,0,0-.969-8.035.791.791,0,1,0-1.561.255,61.782,61.782,0,0,1,.949,7.78c0,9.879-.745,12.385-.75,12.4a.791.791,0,0,0,.092.689l1.43,2.145A1.117,1.117,0,0,1,73,248.6a.791.791,0,0,0-.526-.064c-.106.023-10.623,2.353-18.35,2.353s-18.244-2.33-18.349-2.353a.79.79,0,0,0-.526.064,1.118,1.118,0,0,1-1.666-.663c2.915-4.721.772,1.747.772-15.236a61.7,61.7,0,0,1,.949-7.78.791.791,0,1,0-1.561-.255,61.714,61.714,0,0,0-.97,8.035c0,8.216.508,11.473.731,12.5l-1.388,2.083A2.269,2.269,0,0,0,33.2,249.92a2.8,2.8,0,0,0,2.491.211c1.7.368,11.12,2.336,18.441,2.336s16.743-1.968,18.441-2.336a2.8,2.8,0,0,0,2.491-.211,2.269,2.269,0,0,0,1.077-2.637Z" transform="translate(-31.985 -201.857)"/>
        <path id="Path_900696" data-name="Path 900696" d="M73.91,128H34.371a2.374,2.374,0,0,0-1.767,3.954,2.374,2.374,0,0,0,1.767,3.954H73.91a2.374,2.374,0,0,0,1.767-3.954A2.374,2.374,0,0,0,73.91,128Zm-26.886,4.745H73.91a.791.791,0,0,1,0,1.582H34.371a.791.791,0,0,1,0-1.582H40.7a.791.791,0,0,0,0-1.582H34.371a.791.791,0,0,1,0-1.582H73.91a.791.791,0,0,1,0,1.582H47.023a.791.791,0,0,0,0,1.582Z" transform="translate(-31.997 -115.348)"/>
        <path id="Path_900697" data-name="Path 900697" d="M189.563,285.417a.791.791,0,0,0,0-1.582h-1.728a4.755,4.755,0,0,0-3.857-3.848v-1.893a4.25,4.25,0,0,0,3.431-.256c2.2-1.182,3.612-4.418,3.671-4.555a.791.791,0,0,0-.584-1.09c-.147-.027-3.621-.644-5.825.537a4.114,4.114,0,0,0-1.471,1.313,4.114,4.114,0,0,0-1.471-1.312c-2.2-1.181-5.678-.564-5.825-.537a.791.791,0,0,0-.584,1.09c.059.137,1.467,3.373,3.671,4.555a4.246,4.246,0,0,0,3.406.264v1.876a4.755,4.755,0,0,0-3.9,3.857h-1.582a.791.791,0,1,0,0,1.582Zm-.425-11.793c-1.249,2.224-2.865,3.892-5.126,2.783,0-.047-.009-.1-.014-.148C184.384,273.816,186.672,273.439,189.138,273.623Zm-6.749,2.783c-2.264,1.11-3.876-.556-5.126-2.783,2.467-.184,4.755.193,5.141,2.635C182.4,276.31,182.393,276.36,182.389,276.406Zm-2.279,7.429a3.165,3.165,0,0,1,6.107,0Z" transform="translate(-161.094 -245.121)"/>
        <path id="Path_900698" data-name="Path 900698" d="M129.792,253.351a10.675,10.675,0,1,0,0-21.351h-7.117a10.675,10.675,0,0,0,0,21.351Zm-16.211-10.675a9.1,9.1,0,0,1,9.094-9.094h7.117a9.094,9.094,0,1,1,0,18.188h-7.117A9.1,9.1,0,0,1,113.582,242.675Z" transform="translate(-104.091 -209.068)"/>
        <path id="Path_900699" data-name="Path 900699" d="M109.222,10.816c5.5-5.955,10.212-9.235,13.272-9.235s7.774,3.28,13.272,9.235a.791.791,0,0,0,1.162-1.073C132.824,5.3,126.989,0,122.494,0S112.163,5.3,108.06,9.744a.791.791,0,1,0,1.162,1.073Z" transform="translate(-100.351)"/>
        <circle id="Ellipse_11803" data-name="Ellipse 11803" cx="0.791" cy="0.791" r="0.791" transform="translate(11.072 15.815)"/>
        <circle id="Ellipse_11804" data-name="Ellipse 11804" cx="0.791" cy="0.791" r="0.791" transform="translate(17.398 6.326)"/>
        <circle id="Ellipse_11805" data-name="Ellipse 11805" cx="0.791" cy="0.791" r="0.791" transform="translate(19.771 3.163)"/>
        <circle id="Ellipse_11806" data-name="Ellipse 11806" cx="0.791" cy="0.791" r="0.791" transform="translate(21.352 5.535)"/>
        <circle id="Ellipse_11807" data-name="Ellipse 11807" cx="0.791" cy="0.791" r="0.791" transform="translate(23.725 3.954)"/>
        <circle id="Ellipse_11808" data-name="Ellipse 11808" cx="0.791" cy="0.791" r="0.791" transform="translate(25.306 7.117)"/>
        <circle id="Ellipse_11809" data-name="Ellipse 11809" cx="0.791" cy="0.791" r="0.791" transform="translate(28.469 9.489)"/>
        <circle id="Ellipse_11810" data-name="Ellipse 11810" cx="0.791" cy="0.791" r="0.791" transform="translate(22.934 9.489)"/>
        <circle id="Ellipse_11811" data-name="Ellipse 11811" cx="0.791" cy="0.791" r="0.791" transform="translate(18.98 9.489)"/>
        <circle id="Ellipse_11812" data-name="Ellipse 11812" cx="0.791" cy="0.791" r="0.791" transform="translate(14.235 9.489)"/>
      </g>
    </g>
  </g>
</svg>
