<svg xmlns="http://www.w3.org/2000/svg" width="85" height="91" viewBox="0 0 85 91">
  <g id="Group_1111456" data-name="Group 1111456" transform="translate(-1335 -401)">
    <rect id="Rectangle_404482" data-name="Rectangle 404482" width="85" height="91" rx="8" transform="translate(1335 401)" fill="#ac987a"/>
    <g id="vaca" transform="translate(1318.953 373.563)">
      <circle id="Ellipse_11763" data-name="Ellipse 11763" cx="26.191" cy="26.191" r="26.191" transform="translate(35.139 48.162)" fill="#dbeffc"/>
      <g id="Group_1111447" data-name="Group 1111447" transform="translate(61.33 48.162)">
        <path id="Path_900231" data-name="Path 900231" d="M170.44,125.243h-10c-14.6,0-26.443-11.451-26.443-25.576V74h36.44" transform="translate(-132.861 -72.861)" fill="#bf7e68"/>
        <path id="Path_900232" data-name="Path 900232" d="M167.578,123.521h-10c-15.209,0-27.582-11.984-27.582-26.715V71.139A1.139,1.139,0,0,1,131.139,70h36.44a1.139,1.139,0,0,1,0,2.277h-35.3V96.806c0,13.475,11.352,24.437,25.3,24.437h10a1.139,1.139,0,1,1,0,2.277Z" transform="translate(-130 -70)" fill="#4c241d"/>
      </g>
      <g id="Group_1111448" data-name="Group 1111448" transform="translate(34.001 50.438)">
        <path id="Path_900233" data-name="Path 900233" d="M49.387,86.245a3.833,3.833,0,0,0-3.207,2.041c-1.069,2.041-2.138,5.1-7.483,5.1,0,0-2.138-6.122,1.069-9.183a8.673,8.673,0,0,1,7.483-2.041" transform="translate(-36.862 -80.86)" fill="#bf7e68"/>
        <path id="Path_900234" data-name="Path 900234" d="M35.838,91.662a1.139,1.139,0,0,1-1.075-.764c-.1-.278-2.336-6.855,1.358-10.382a9.779,9.779,0,0,1,8.533-2.325,1.139,1.139,0,0,1-.529,2.215,7.466,7.466,0,0,0-6.432,1.757c-2,1.913-1.4,5.579-1,7.191,3.5-.257,4.439-2.122,5.35-3.931l.271-.531a4.978,4.978,0,0,1,4.215-2.651,1.139,1.139,0,0,1,.011,2.277,2.692,2.692,0,0,0-2.209,1.43l-.254.5c-1.045,2.076-2.624,5.214-8.237,5.214Z" transform="translate(-34.003 -77.996)" fill="#4c241d"/>
      </g>
      <g id="Group_1111449" data-name="Group 1111449" transform="translate(63.614 50.439)">
        <path id="Path_900235" data-name="Path 900235" d="M142,86.244a3.833,3.833,0,0,1,3.207,2.041c1.069,2.041,2.138,5.1,7.483,5.1,0,0,2.138-6.122-1.069-9.183a8.673,8.673,0,0,0-7.483-2.041" transform="translate(-140.868 -80.86)" fill="#bf7e68"/>
        <path id="Path_900236" data-name="Path 900236" d="M149.845,91.662c-5.613,0-7.192-3.138-8.238-5.214l-.254-.5a2.689,2.689,0,0,0-2.211-1.43,1.145,1.145,0,0,1-1.119-1.152,1.133,1.133,0,0,1,1.132-1.125,4.979,4.979,0,0,1,4.215,2.651l.271.531c.91,1.809,1.849,3.675,5.354,3.931.4-1.608,1.018-5.26-1.006-7.192a7.452,7.452,0,0,0-6.436-1.755,1.139,1.139,0,0,1-.525-2.216,9.777,9.777,0,0,1,8.533,2.325c3.695,3.527,1.455,10.1,1.358,10.382A1.139,1.139,0,0,1,149.845,91.662Z" transform="translate(-138.024 -77.996)" fill="#4c241d"/>
      </g>
      <g id="Group_1111450" data-name="Group 1111450" transform="translate(34 45.885)">
        <path id="Path_900237" data-name="Path 900237" d="M74.44,70.555H42.555A4.555,4.555,0,0,1,38,66H78.995A4.555,4.555,0,0,1,74.44,70.555Z" transform="translate(-36.861 -64.861)" fill="#6b4f5b"/>
        <path id="Path_900238" data-name="Path 900238" d="M71.578,68.832H39.694A5.7,5.7,0,0,1,34,63.139,1.139,1.139,0,0,1,35.139,62H76.133a1.139,1.139,0,0,1,1.139,1.139A5.7,5.7,0,0,1,71.578,68.832ZM36.473,64.277a3.422,3.422,0,0,0,3.221,2.277H71.578A3.422,3.422,0,0,0,74.8,64.277Z" transform="translate(-34 -62)" fill="#4c241d"/>
      </g>
      <path id="Path_900239" data-name="Path 900239" d="M79.665,66H77.387A11.388,11.388,0,0,0,66,77.387v20.5a11.388,11.388,0,0,0,11.387,11.387h2.277A11.388,11.388,0,0,0,91.052,97.885v-20.5A11.388,11.388,0,0,0,79.665,66Z" transform="translate(-22.89 -18.977)" fill="#fff"/>
      <path id="Path_900240" data-name="Path 900240" d="M66.038,100.923l.287,25.777,2.385-4.665,2.669-2.658,2.245-1.458-.036-15.043L70.7,99.7l-4.519-.217Z" transform="translate(-22.917 -42.93)" fill="#bf7e68"/>
      <path id="Path_900241" data-name="Path 900241" d="M133.624,100.923l-.287,25.777-2.385-4.665-2.669-2.658-2.245-1.458.036-15.043,2.889-3.172,4.519-.217Z" transform="translate(-65.836 -42.93)" fill="#bf7e68"/>
      <g id="Group_1111451" data-name="Group 1111451" transform="translate(35.806 39.471)">
        <circle id="Ellipse_11764" data-name="Ellipse 11764" cx="1.289" cy="1.289" r="1.289" transform="translate(10 60.353)" fill="#4c241d"/>
        <circle id="Ellipse_11765" data-name="Ellipse 11765" cx="1.289" cy="1.289" r="1.289" transform="translate(37.33)" fill="#4c241d"/>
        <path id="Path_900242" data-name="Path 900242" d="M44.7,225.842a1.135,1.135,0,0,1-.805-.334l-3.22-3.22a1.139,1.139,0,1,1,1.61-1.61l3.22,3.22a1.139,1.139,0,0,1-.805,1.944Z" transform="translate(-40.344 -168.853)" fill="#4c241d"/>
        <path id="Path_900243" data-name="Path 900243" d="M41.483,225.842a1.139,1.139,0,0,1-.805-1.944l3.22-3.22a1.139,1.139,0,0,1,1.61,1.61l-3.22,3.22A1.134,1.134,0,0,1,41.483,225.842Z" transform="translate(-40.345 -168.853)" fill="#4c241d"/>
        <path id="Path_900244" data-name="Path 900244" d="M123.139,115.636A1.139,1.139,0,0,1,122,114.5V101.123A7.131,7.131,0,0,1,129.123,94h1.532a1.139,1.139,0,1,1,0,2.277h-1.532a4.851,4.851,0,0,0-4.846,4.846V114.5A1.139,1.139,0,0,1,123.139,115.636Z" transform="translate(-98.754 -78.476)" fill="#4c241d"/>
        <path id="Path_900245" data-name="Path 900245" d="M72.274,115.636a1.139,1.139,0,0,1-1.139-1.139V101.123a4.852,4.852,0,0,0-4.846-4.846H64.766a1.139,1.139,0,0,1,0-2.277h1.524a7.131,7.131,0,0,1,7.123,7.123V114.5A1.139,1.139,0,0,1,72.274,115.636Z" transform="translate(-56.999 -78.476)" fill="#4c241d"/>
        <circle id="Ellipse_11766" data-name="Ellipse 11766" cx="1.139" cy="1.139" r="1.139" transform="translate(10.72 22.356)" fill="#4c241d"/>
        <circle id="Ellipse_11767" data-name="Ellipse 11767" cx="1.139" cy="1.139" r="1.139" transform="translate(26.662 22.356)" fill="#4c241d"/>
        <path id="Path_900246" data-name="Path 900246" d="M76.8,107.55H74.526A12.54,12.54,0,0,1,62,95.023v-20.5A12.54,12.54,0,0,1,74.526,62H76.8A12.54,12.54,0,0,1,89.33,74.526v20.5A12.54,12.54,0,0,1,76.8,107.55ZM74.526,64.277A10.26,10.26,0,0,0,64.277,74.526v20.5a10.26,10.26,0,0,0,10.249,10.249H76.8A10.26,10.26,0,0,0,87.052,95.023v-20.5A10.26,10.26,0,0,0,76.8,64.277Z" transform="translate(-55.835 -55.586)" fill="#4c241d"/>
      </g>
      <g id="Group_1111452" data-name="Group 1111452" transform="translate(43.11 74.354)">
        <path id="Path_900247" data-name="Path 900247" d="M76.832,166c-3.589.454-6.832,4.273-6.832,8.835v1.731c0,2.375,1.686,4.136,3.459,3.613l6.548-2.149a9.853,9.853,0,0,1,2.759.013l6.509,2.053c1.784.563,3.5-1.2,3.5-3.6v-1.66c0-4.562-3.243-8.381-6.832-8.835" transform="translate(-68.861 -164.862)" fill="#f4aeab"/>
        <path id="Path_900248" data-name="Path 900248" d="M69.957,178.548a3.423,3.423,0,0,1-2.07-.712A5.115,5.115,0,0,1,66,173.706v-1.731c0-4.949,3.512-9.419,7.828-9.965a1.139,1.139,0,1,1,.286,2.26c-2.818.356-5.837,3.538-5.837,7.705v1.731a2.888,2.888,0,0,0,.974,2.307,1.124,1.124,0,0,0,1.025.215l6.514-2.139a10.02,10.02,0,0,1,3.456.008l6.51,2.053a1.113,1.113,0,0,0,1.033-.2,2.871,2.871,0,0,0,.986-2.315v-1.66c0-4.168-3.018-7.349-5.837-7.705a1.139,1.139,0,1,1,.286-2.26c4.316.546,7.828,5.016,7.828,9.965v1.66a5.1,5.1,0,0,1-1.917,4.152,3.365,3.365,0,0,1-3.064.534l-6.509-2.053a10.6,10.6,0,0,0-2.121,0L70.953,178.4a3.511,3.511,0,0,1-1,.147Z" transform="translate(-66 -162.002)" fill="#4c241d"/>
      </g>
      <g id="Group_1111453" data-name="Group 1111453" transform="translate(47.669 79.76)">
        <path id="Path_900249" data-name="Path 900249" d="M86,185.285a2.494,2.494,0,0,1,3.416,1.139" transform="translate(-84.866 -183.859)" fill="#b5a19c"/>
        <path id="Path_900250" data-name="Path 900250" d="M86.567,184.7a1.137,1.137,0,0,1-1.02-.629,1.3,1.3,0,0,0-1.9-.624,1.144,1.144,0,0,1-1.517-.529,1.133,1.133,0,0,1,.509-1.513,3.583,3.583,0,0,1,4.944,1.648,1.138,1.138,0,0,1-1.017,1.648Z" transform="translate(-82.016 -180.993)" fill="#4c241d"/>
      </g>
      <g id="Group_1111454" data-name="Group 1111454" transform="translate(57.913 79.76)">
        <path id="Path_900251" data-name="Path 900251" d="M125.416,185.285A2.494,2.494,0,0,0,122,186.423" transform="translate(-120.861 -183.859)" fill="#b5a19c"/>
        <path id="Path_900252" data-name="Path 900252" d="M119.137,184.695a1.139,1.139,0,0,1-1.017-1.648,3.583,3.583,0,0,1,4.944-1.648,1.139,1.139,0,0,1-1.009,2.042,1.3,1.3,0,0,0-1.9.625A1.138,1.138,0,0,1,119.137,184.695Z" transform="translate(-117.999 -180.992)" fill="#4c241d"/>
      </g>
      <g id="Group_1111455" data-name="Group 1111455" transform="translate(45.387 44.746)">
        <path id="Path_900253" data-name="Path 900253" d="M93.373,67.694H80.847a2.847,2.847,0,0,1,0-5.694H93.373a2.847,2.847,0,0,1,0,5.694Z" transform="translate(-76.861 -60.861)" fill="#bf7e68"/>
        <path id="Path_900254" data-name="Path 900254" d="M90.512,65.971H77.986a3.986,3.986,0,0,1,0-7.971H90.512a3.986,3.986,0,0,1,0,7.971ZM77.986,60.277a1.708,1.708,0,1,0,0,3.416H90.512a1.708,1.708,0,0,0,0-3.416Z" transform="translate(-74 -58)" fill="#4c241d"/>
      </g>
    </g>
  </g>
</svg>
