<svg xmlns="http://www.w3.org/2000/svg" xmlns:xlink="http://www.w3.org/1999/xlink" width="109.652" height="109.652" viewBox="0 0 109.652 109.652">
  <defs>
    <filter id="Path_874925" x="0" y="0" width="109.652" height="109.652" filterUnits="userSpaceOnUse">
      <feOffset dy="3" input="SourceAlpha"/>
      <feGaussianBlur stdDeviation="3" result="blur"/>
      <feFlood flood-opacity="0.161"/>
      <feComposite operator="in" in2="blur"/>
      <feComposite in="SourceGraphic"/>
    </filter>
  </defs>
  <g id="Group_1111688" data-name="Group 1111688" transform="translate(-15160 9968.317)">
    <g id="Group_1111440" data-name="Group 1111440" transform="translate(14149.27 -13039.317)">
      <g transform="matrix(1, 0, 0, 1, 1010.73, 3071)" filter="url(#Path_874925)">
        <g id="Path_874925-2" data-name="Path 874925" transform="translate(9 6)" fill="#ffd63c">
          <path d="M 45.82614517211914 90.15280151367188 C 39.84149551391602 90.15280151367188 34.03665924072266 88.98104095458984 28.5728702545166 86.67005157470703 C 23.29473304748535 84.43759155273438 18.55415725708008 81.24130249023438 14.48283290863037 77.16998291015625 C 10.41150760650635 73.09866333007812 7.215232849121094 68.35809326171875 4.982757568359375 63.07994079589844 C 2.671770095825195 57.61616897583008 1.500007629394531 51.81131744384766 1.500007629394531 45.82666778564453 C 1.500007629394531 39.84149169921875 2.671770095825195 34.03665542602539 4.982757568359375 28.57286643981934 C 7.215232849121094 23.29472923278809 10.41150760650635 18.55415534973145 14.48283290863037 14.48283004760742 C 18.55415725708008 10.4115047454834 23.29473304748535 7.215229511260986 28.5728702545166 4.982754707336426 C 34.03665924072266 2.671766996383667 39.84149551391602 1.500004529953003 45.82614517211914 1.500004529953003 C 51.81079483032227 1.500004529953003 57.61564636230469 2.671766996383667 63.07942199707031 4.982754707336426 C 68.35756683349609 7.215229511260986 73.09814453125 10.4115047454834 77.16947174072266 14.48283004760742 C 81.24078369140625 18.55415534973145 84.43707275390625 23.29472923278809 86.66954803466797 28.57286643981934 C 88.98052978515625 34.03665542602539 90.15229797363281 39.84149169921875 90.15229797363281 45.82614135742188 C 90.15229797363281 51.81131744384766 88.98052978515625 57.61616897583008 86.66954803466797 63.07994079589844 C 84.43707275390625 68.35809326171875 81.24078369140625 73.09866333007812 77.16947174072266 77.16998291015625 C 73.09814453125 81.24130249023438 68.35756683349609 84.43759155273438 63.07942199707031 86.67005157470703 C 57.61564636230469 88.98104095458984 51.81079483032227 90.15280151367188 45.82614517211914 90.15280151367188 Z" stroke="none"/>
          <path d="M 45.82614517211914 3.000007629394531 C 40.04333114624023 3.000007629394531 34.43508911132812 4.131904602050781 29.15720367431641 6.364265441894531 C 24.05784606933594 8.521102905273438 19.47753143310547 11.60944366455078 15.54348754882812 15.54348754882812 C 11.60944366455078 19.47753143310547 8.521102905273438 24.05784606933594 6.3642578125 29.15720367431641 C 4.131904602050781 34.43508911132812 3 40.0433349609375 3 45.82667541503906 C 3 51.60948944091797 4.131904602050781 57.21773147583008 6.3642578125 62.49562072753906 C 8.521102905273438 67.59497833251953 11.60944366455078 72.17527770996094 15.54348754882812 76.10932922363281 C 19.47753143310547 80.04337310791016 24.05784606933594 83.13170623779297 29.15718841552734 85.28854370117188 C 34.43508911132812 87.52090454101562 40.04333114624023 88.65280151367188 45.82614517211914 88.65280151367188 C 51.60895919799805 88.65280151367188 57.21720123291016 87.52090454101562 62.49510192871094 85.28854370117188 C 67.59444427490234 83.13170623779297 72.17475891113281 80.04337310791016 76.10880279541016 76.10932922363281 C 80.0428466796875 72.17527770996094 83.13118743896484 67.59497833251953 85.28803253173828 62.49562072753906 C 87.5203857421875 57.21773147583008 88.65229034423828 51.60948944091797 88.65229034423828 45.82614898681641 C 88.65229034423828 40.0433349609375 87.5203857421875 34.43508911132812 85.28803253173828 29.15720367431641 C 83.13118743896484 24.05784606933594 80.0428466796875 19.47753143310547 76.10880279541016 15.54348754882812 C 72.17475891113281 11.60944366455078 67.59444427490234 8.521102905273438 62.49508666992188 6.364265441894531 C 57.21720123291016 4.131904602050781 51.60895919799805 3.000007629394531 45.82614517211914 3.000007629394531 M 45.82614517211914 7.62939453125e-06 C 71.13523101806641 7.62939453125e-06 91.65229034423828 20.51705932617188 91.65229034423828 45.82614898681641 L 91.65229034423828 45.82667541503906 C 91.65229034423828 71.13575744628906 71.13523101806641 91.65280151367188 45.82614517211914 91.65280151367188 C 20.51705932617188 91.65280151367188 0 71.13575744628906 0 45.82667541503906 L 0 45.82614898681641 C 0 20.51705932617188 20.51705932617188 7.62939453125e-06 45.82614517211914 7.62939453125e-06 Z" stroke="none" fill="#fff"/>
        </g>
      </g>
    </g>
    <g id="_22_Falling_Warning" data-name="22 Falling Warning" transform="translate(15185 -9944.29)">
      <path id="Path_900845" data-name="Path 900845" d="M38.254,33.247l-6.477.249a.928.928,0,0,0-.824.578L28.065,41.18a4.523,4.523,0,0,0-.232.742,4.623,4.623,0,0,0,.49,3.3l3.566,6.28a3.621,3.621,0,1,0,6.229-3.693l-2.953-4.841,3.967-8.393a.933.933,0,0,0-.065-.908.893.893,0,0,0-.813-.417Z" transform="translate(-1.791 -2.191)" fill="#ffa91f"/>
      <path id="Path_900846" data-name="Path 900846" d="M56.688,4.4a4.578,4.578,0,0,0-3.573.649,4.7,4.7,0,0,0-1.969,2.855,4.643,4.643,0,0,0,3.507,5.544,4.722,4.722,0,0,0,1.038.116,4.556,4.556,0,0,0,2.536-.769A4.7,4.7,0,0,0,60.2,9.943,4.643,4.643,0,0,0,56.688,4.4Z" transform="translate(-3.48 -0.093)" fill="#ffa91f"/>
      <path id="Path_900847" data-name="Path 900847" d="M54.042,24.417,52,15.783a.928.928,0,0,0-.661-.683,6.421,6.421,0,0,1-4.36-3.907.922.922,0,0,0-.271-.378A5.492,5.492,0,0,0,44.5,9.7L40.14,8.644l.045-2.3a3.277,3.277,0,0,0-2.552-3.259,3.207,3.207,0,0,0-1.286-.028l-.388.069a3.246,3.246,0,0,0-2.652,3.239l.147,7.468a.928.928,0,0,0,.764.9l5.789,1.031-8.24,9.878-9.329.908a4.612,4.612,0,0,0-3.857,2.29l-3.518,5.995a3.619,3.619,0,1,0,6.3,3.56l2.7-4.961,13.306-.517a.928.928,0,0,0,.677-.332l8.4-10.064.319,1.078-3.028,3.738a3.512,3.512,0,0,0-.723,1.469,3.2,3.2,0,0,0,2.419,3.886,3.234,3.234,0,0,0,3.212-1.1l5.207-6.364a.928.928,0,0,0,.186-.8Z" transform="translate(-0.84 0)" fill="#ff9a00"/>
      <path id="Path_900848" data-name="Path 900848" d="M21.551,45H3.928A.928.928,0,0,0,3,45.928V58.913a.928.928,0,0,0,.928.928H22.479a.928.928,0,0,0,.928-.928V46.855A1.855,1.855,0,0,0,21.551,45Z" transform="translate(0 -3.043)" fill="#78777f"/>
      <g id="Group_1111687" data-name="Group 1111687" transform="translate(3 3.001)">
        <path id="Path_900849" data-name="Path 900849" d="M52.005,15.783a.928.928,0,0,0-.661-.683,6.421,6.421,0,0,1-4.36-3.907.922.922,0,0,0-.271-.378A5.492,5.492,0,0,0,44.5,9.7L40.14,8.644l.045-2.3a3.277,3.277,0,0,0-2.552-3.259,3.207,3.207,0,0,0-1.286-.028l-.388.069a3.246,3.246,0,0,0-2.652,3.239l.147,7.468a.928.928,0,0,0,.764.9l5.789,1.031-8.24,9.878-9.329.908a4.612,4.612,0,0,0-3.857,2.29l-3.518,5.995a3.619,3.619,0,1,0,6.3,3.56l2.7-4.961,5.392-.21-2.346,5.775a4.523,4.523,0,0,0-.232.742,4.623,4.623,0,0,0,.49,3.3l3.566,6.28a3.621,3.621,0,1,0,6.229-3.693l-2.953-4.841,3.917-8.289,8.322-9.971.318,1.078-3.028,3.738a3.512,3.512,0,0,0-.723,1.469,3.2,3.2,0,0,0,2.416,3.882,3.234,3.234,0,0,0,3.212-1.1l5.207-6.364a.928.928,0,0,0,.186-.8ZM32.366,41.308l3.218,5.273a1.735,1.735,0,0,1,.22,1.3,1.762,1.762,0,0,1-.779,1.113,1.741,1.741,0,0,1-1.323.232,1.784,1.784,0,0,1-1.155-.847l-3.561-6.266a2.775,2.775,0,0,1-.294-1.978,2.81,2.81,0,0,1,.14-.445l2.662-6.552,4.353-.169-3.525,7.463a.928.928,0,0,0,.044.877ZM47.22,30.4a1.4,1.4,0,0,1-1.376.468,1.349,1.349,0,0,1-1.016-1.663,1.67,1.67,0,0,1,.347-.7l3.339-4.127a.928.928,0,0,0,.169-.846L47.875,20.8l.278-.331a.928.928,0,1,0-1.424-1.188l-.595.711L36.891,31.072l-.737.029-5.327.2h-.02l-7.337.285a.928.928,0,0,0-.778.483L19.735,37.5a1.764,1.764,0,1,1-3.068-1.741l3.516-5.995a2.8,2.8,0,0,1,2.376-1.377l9.766-.943a.928.928,0,0,0,.622-.329l9.509-11.394a.928.928,0,0,0-.549-1.507L35.3,13.03l-.132-6.7A1.421,1.421,0,0,1,35.2,6,1.381,1.381,0,0,1,36.29,4.948l.382-.069A1.411,1.411,0,0,1,38.33,6.3l-.06,3.052a.928.928,0,0,0,.711.919L44.069,11.5a3.635,3.635,0,0,1,1.287.6,8.255,8.255,0,0,0,4.966,4.625l1.81,7.669Z" transform="translate(-3.84 -3.001)" fill="#703700"/>
        <path id="Path_900850" data-name="Path 900850" d="M56.688,4.4a4.578,4.578,0,0,0-3.573.649,4.7,4.7,0,0,0-1.969,2.855,4.643,4.643,0,0,0,3.507,5.544,4.722,4.722,0,0,0,1.038.116,4.556,4.556,0,0,0,2.536-.769A4.7,4.7,0,0,0,60.2,9.943,4.643,4.643,0,0,0,56.688,4.4Zm1.7,5.137A2.833,2.833,0,0,1,57.2,11.256a2.748,2.748,0,0,1-2.139.388,2.791,2.791,0,0,1-2.1-3.328A2.832,2.832,0,0,1,54.143,6.6a2.718,2.718,0,0,1,1.513-.456,2.9,2.9,0,0,1,.627.07,2.79,2.79,0,0,1,2.1,3.328Z" transform="translate(-6.48 -3.094)" fill="#703700"/>
        <path id="Path_900851" data-name="Path 900851" d="M21.551,45H3.928A.928.928,0,0,0,3,45.928V58.913a.928.928,0,0,0,.928.928H22.479a.928.928,0,0,0,.928-.928V46.855A1.855,1.855,0,0,0,21.551,45Zm0,12.986H4.855V46.855h16.7Z" transform="translate(-3 -6.044)" fill="#703700"/>
      </g>
    </g>
  </g>
</svg>
