<svg xmlns="http://www.w3.org/2000/svg" xmlns:xlink="http://www.w3.org/1999/xlink" width="109.652" height="109.653" viewBox="0 0 109.652 109.653">
  <defs>
    <filter id="Path_874925" x="0" y="0" width="109.652" height="109.653" filterUnits="userSpaceOnUse">
      <feOffset dy="3" input="SourceAlpha"/>
      <feGaussianBlur stdDeviation="3" result="blur"/>
      <feFlood flood-opacity="0.161"/>
      <feComposite operator="in" in2="blur"/>
      <feComposite in="SourceGraphic"/>
    </filter>
  </defs>
  <g id="Group_1111655" data-name="Group 1111655" transform="translate(-588 -3840)">
    <g id="Group_1111428" data-name="Group 1111428" transform="translate(-422.73 769)">
      <g transform="matrix(1, 0, 0, 1, 1010.73, 3071)" filter="url(#Path_874925)">
        <g id="Path_874925-2" data-name="Path 874925" transform="translate(9 6)" fill="#ffd63c">
          <path d="M 45.82614517211914 90.15280151367188 C 39.84149551391602 90.15280151367188 34.03665924072266 88.98104095458984 28.5728702545166 86.67005157470703 C 23.29473304748535 84.43759155273438 18.55415725708008 81.24130249023438 14.48283290863037 77.16998291015625 C 10.41150760650635 73.09866333007812 7.215232849121094 68.35809326171875 4.982757568359375 63.07994079589844 C 2.671770095825195 57.61616897583008 1.500007629394531 51.81131744384766 1.500007629394531 45.82666778564453 C 1.500007629394531 39.84149169921875 2.671770095825195 34.03665542602539 4.982757568359375 28.57286643981934 C 7.215232849121094 23.29472923278809 10.41150760650635 18.55415534973145 14.48283290863037 14.48283004760742 C 18.55415725708008 10.4115047454834 23.29473304748535 7.215229511260986 28.5728702545166 4.982754707336426 C 34.03665924072266 2.671766996383667 39.84149551391602 1.500004529953003 45.82614517211914 1.500004529953003 C 51.81079483032227 1.500004529953003 57.61564636230469 2.671766996383667 63.07942199707031 4.982754707336426 C 68.35756683349609 7.215229511260986 73.09814453125 10.4115047454834 77.16947174072266 14.48283004760742 C 81.24078369140625 18.55415534973145 84.43707275390625 23.29472923278809 86.66954803466797 28.57286643981934 C 88.98052978515625 34.03665542602539 90.15229797363281 39.84149169921875 90.15229797363281 45.82614135742188 C 90.15229797363281 51.81131744384766 88.98052978515625 57.61616897583008 86.66954803466797 63.07994079589844 C 84.43707275390625 68.35809326171875 81.24078369140625 73.09866333007812 77.16947174072266 77.16998291015625 C 73.09814453125 81.24130249023438 68.35756683349609 84.43759155273438 63.07942199707031 86.67005157470703 C 57.61564636230469 88.98104095458984 51.81079483032227 90.15280151367188 45.82614517211914 90.15280151367188 Z" stroke="none"/>
          <path d="M 45.82614517211914 3.000007629394531 C 40.04333114624023 3.000007629394531 34.43508911132812 4.131904602050781 29.15720367431641 6.364265441894531 C 24.05784606933594 8.521102905273438 19.47753143310547 11.60944366455078 15.54348754882812 15.54348754882812 C 11.60944366455078 19.47753143310547 8.521102905273438 24.05784606933594 6.3642578125 29.15720367431641 C 4.131904602050781 34.43508911132812 3 40.0433349609375 3 45.82667541503906 C 3 51.60948944091797 4.131904602050781 57.21773147583008 6.3642578125 62.49562072753906 C 8.521102905273438 67.59497833251953 11.60944366455078 72.17527770996094 15.54348754882812 76.10932922363281 C 19.47753143310547 80.04337310791016 24.05784606933594 83.13170623779297 29.15718841552734 85.28854370117188 C 34.43508911132812 87.52090454101562 40.04333114624023 88.65280151367188 45.82614517211914 88.65280151367188 C 51.60895919799805 88.65280151367188 57.21720123291016 87.52090454101562 62.49510192871094 85.28854370117188 C 67.59444427490234 83.13170623779297 72.17475891113281 80.04337310791016 76.10880279541016 76.10932922363281 C 80.0428466796875 72.17527770996094 83.13118743896484 67.59497833251953 85.28803253173828 62.49562072753906 C 87.5203857421875 57.21773147583008 88.65229034423828 51.60948944091797 88.65229034423828 45.82614898681641 C 88.65229034423828 40.0433349609375 87.5203857421875 34.43508911132812 85.28803253173828 29.15720367431641 C 83.13118743896484 24.05784606933594 80.0428466796875 19.47753143310547 76.10880279541016 15.54348754882812 C 72.17475891113281 11.60944366455078 67.59444427490234 8.521102905273438 62.49508666992188 6.364265441894531 C 57.21720123291016 4.131904602050781 51.60895919799805 3.000007629394531 45.82614517211914 3.000007629394531 M 45.82614517211914 7.62939453125e-06 C 71.13523101806641 7.62939453125e-06 91.65229034423828 20.51705932617188 91.65229034423828 45.82614898681641 L 91.65229034423828 45.82667541503906 C 91.65229034423828 71.13575744628906 71.13523101806641 91.65280151367188 45.82614517211914 91.65280151367188 C 20.51705932617188 91.65280151367188 0 71.13575744628906 0 45.82667541503906 L 0 45.82614898681641 C 0 20.51705932617188 20.51705932617188 7.62939453125e-06 45.82614517211914 7.62939453125e-06 Z" stroke="none" fill="#fff"/>
        </g>
      </g>
    </g>
    <g id="vaca23" transform="translate(614.826 3820.143)">
      <path id="Path_900700" data-name="Path 900700" d="M112.444,335.406a3.281,3.281,0,0,1-3.281-3.281v13.489h4.312V335.406Z" transform="translate(-97.223 -252.116)" fill="#d88a55"/>
      <path id="Path_900701" data-name="Path 900701" d="M109.163,332.125v13.489h2.188v-10.4A3.282,3.282,0,0,1,109.163,332.125Z" transform="translate(-97.223 -252.116)" fill="#c57a44"/>
      <path id="Path_900702" data-name="Path 900702" d="M356.106,362.122h4.312V372.33h-4.312Z" transform="translate(-317.157 -278.832)" fill="#d88a55"/>
      <path id="Path_900703" data-name="Path 900703" d="M356.106,362.122h2.188V372.33h-2.187Z" transform="translate(-317.157 -278.832)" fill="#c57a44"/>
      <path id="Path_900704" data-name="Path 900704" d="M356.106,424.2h4.312v3.418h-4.312Z" transform="translate(-317.157 -334.122)" fill="#32569d"/>
      <path id="Path_900705" data-name="Path 900705" d="M356.106,424.2h2.188v3.418h-2.187Z" transform="translate(-317.157 -334.122)" fill="#303a78"/>
      <path id="Path_900706" data-name="Path 900706" d="M141.453,118.24H124.9a4.085,4.085,0,0,1-4.426,1.3l-.143-.046v5.6a8.381,8.381,0,0,1-1.221,4.352,4.02,4.02,0,0,1,.2,1.256v.3a4.067,4.067,0,0,1-4.055,4.055h-6.092v6.57a3.281,3.281,0,0,0,3.281,3.281h4.25a1.094,1.094,0,0,1,1.094,1.094v9.114H122.1v-9.114a1.094,1.094,0,0,1,1.094-1.094H143.7a1.094,1.094,0,0,1,1.094,1.094v9.114h4.312V125.9A7.655,7.655,0,0,0,141.453,118.24Z" transform="translate(-97.222 -61.624)" fill="#ea9b58"/>
      <path id="Path_900707" data-name="Path 900707" d="M112.444,278.629v-6.57h-3.281v6.57a3.281,3.281,0,0,0,3.281,3.281h3.281A3.281,3.281,0,0,1,112.444,278.629Z" transform="translate(-97.223 -198.619)" fill="#d88a55"/>
      <path id="Path_900708" data-name="Path 900708" d="M78.046,60.706v-2.73a1.432,1.432,0,0,0-1.428-1.428H76.51a1.432,1.432,0,0,0-1.428,1.428v2.73Z" transform="translate(-66.87 -6.68)" fill="#e7b795"/>
      <path id="Path_900709" data-name="Path 900709" d="M169.008,60.706v-2.73a1.432,1.432,0,0,0-1.428-1.428h-.107a1.432,1.432,0,0,0-1.428,1.428v2.73Z" transform="translate(-147.884 -6.68)" fill="#e7b795"/>
      <path id="Path_900710" data-name="Path 900710" d="M216.453,94.561h-4.2v3.992a4.2,4.2,0,0,0,5.236-2.532A1.091,1.091,0,0,0,216.453,94.561Z" transform="translate(-189.034 -40.535)" fill="#f6a96c"/>
      <path id="Path_900711" data-name="Path 900711" d="M12.792,94.561h-4.2a1.091,1.091,0,0,0-1.031,1.46,4.2,4.2,0,0,0,5.236,2.532V94.561Z" transform="translate(-6.67 -40.535)" fill="#f6a96c"/>
      <path id="Path_900712" data-name="Path 900712" d="M9.745,96.02a1.091,1.091,0,0,1,1.031-1.46H8.588a1.091,1.091,0,0,0-1.031,1.46,4.2,4.2,0,0,0,5.03,2.593A4.207,4.207,0,0,1,9.745,96.02Z" transform="translate(-6.67 -40.534)" fill="#ea9b58"/>
      <path id="Path_900713" data-name="Path 900713" d="M55.973,94.561v9.446A8.476,8.476,0,0,0,57.26,108.5a4.07,4.07,0,0,1,3.9-2.939h6.726a4.07,4.07,0,0,1,3.9,2.939,8.475,8.475,0,0,0,1.287-4.493V94.561Z" transform="translate(-49.851 -40.535)" fill="#d88a55"/>
      <path id="Path_900714" data-name="Path 900714" d="M59.475,105.93a8.486,8.486,0,0,1-.22-1.923V94.561H55.973v9.446A8.476,8.476,0,0,0,57.26,108.5,4.087,4.087,0,0,1,59.475,105.93Z" transform="translate(-49.851 -40.535)" fill="#c57a44"/>
      <path id="Path_900715" data-name="Path 900715" d="M77.074,203.545H70.348a4.067,4.067,0,0,1-4.055-4.055v-.3a4.067,4.067,0,0,1,4.055-4.055h6.726a4.067,4.067,0,0,1,4.055,4.055v.3A4.066,4.066,0,0,1,77.074,203.545Z" transform="translate(-59.042 -130.105)" fill="#edcab2"/>
      <path id="Path_900716" data-name="Path 900716" d="M68.7,199.491v-.3a4.067,4.067,0,0,1,4.055-4.055H70.348a4.067,4.067,0,0,0-4.055,4.055v.3a4.067,4.067,0,0,0,4.055,4.055h2.406A4.067,4.067,0,0,1,68.7,199.491Z" transform="translate(-59.042 -130.106)" fill="#e7b795"/>
      <path id="Path_900717" data-name="Path 900717" d="M109.163,424.2h4.312v3.418h-4.312Z" transform="translate(-97.223 -334.122)" fill="#32569d"/>
      <path id="Path_900718" data-name="Path 900718" d="M109.163,424.2h2.188v3.418h-2.187Z" transform="translate(-97.223 -334.122)" fill="#303a78"/>
      <path id="Path_900719" data-name="Path 900719" d="M434.961,424.2h4.312v3.418h-4.312Z" transform="translate(-387.387 -334.122)" fill="#32569d"/>
      <path id="Path_900720" data-name="Path 900720" d="M434.961,424.2h2.188v3.418h-2.187Z" transform="translate(-387.387 -334.122)" fill="#303a78"/>
      <path id="Path_900721" data-name="Path 900721" d="M188.018,424.2h4.312v3.418h-4.312Z" transform="translate(-167.453 -334.122)" fill="#32569d"/>
      <path id="Path_900722" data-name="Path 900722" d="M188.018,424.2h2.188v3.418h-2.187Z" transform="translate(-167.453 -334.122)" fill="#303a78"/>
      <path id="Path_900723" data-name="Path 900723" d="M55.18,92.678H52.707V73.689a.82.82,0,0,0-1.641,0V89.26H48.394V84.384A1.916,1.916,0,0,0,46.48,82.47H32.521a.82.82,0,1,0,0,1.641h5.608v8.567H36.985V91.233a.82.82,0,1,0-1.641,0v1.445H34.36V91.233a.82.82,0,1,0-1.641,0v1.445h-.984V91.233a.82.82,0,1,0-1.641,0v1.445h-.984V91.233a.82.82,0,1,0-1.641,0v1.445H25.7V84.384a.274.274,0,0,1,.273-.273H28.62a.82.82,0,1,0,0-1.641H25.971a1.916,1.916,0,0,0-1.914,1.914V89.26H21.385V84.384a1.916,1.916,0,0,0-1.914-1.914h-4.25a2.463,2.463,0,0,1-2.461-2.461V74.26h5.271a4.88,4.88,0,0,0,4.875-4.875v-.3a4.878,4.878,0,0,0-.1-.983,9.3,9.3,0,0,0,1.228-4.626.82.82,0,1,0-1.641,0,7.671,7.671,0,0,1-.478,2.669,4.87,4.87,0,0,0-3.885-1.935H11.305A4.87,4.87,0,0,0,7.42,66.14a7.671,7.671,0,0,1-.478-2.669V54.846H22.394V59.6a.82.82,0,0,0,1.641,0v-.579c.158.015.317.026.478.026a5.037,5.037,0,0,0,3.677-1.608H44.231a6.843,6.843,0,0,1,6.835,6.835v5.553a.82.82,0,1,0,1.641,0V64.271A8.486,8.486,0,0,0,44.231,55.8H29.21l.01-.025A1.9,1.9,0,0,0,29,54.03a1.922,1.922,0,0,0-1.577-.825H21.945V51.3A2.251,2.251,0,0,0,19.7,49.048h-.107A2.251,2.251,0,0,0,17.341,51.3v1.909H12V51.3a2.251,2.251,0,0,0-2.249-2.248H9.64A2.251,2.251,0,0,0,7.392,51.3v1.909H1.918a1.922,1.922,0,0,0-1.577.825,1.9,1.9,0,0,0-.223,1.741,5.039,5.039,0,0,0,4.706,3.273c.162,0,.321-.01.478-.026v4.453A9.3,9.3,0,0,0,6.53,68.1a4.878,4.878,0,0,0-.1.983v.3a4.88,4.88,0,0,0,4.689,4.87V92.678H10.081V91.233a.82.82,0,0,0-1.641,0v1.445H7.784V91.233a.82.82,0,0,0-1.641,0v1.445H5.077a.82.82,0,0,0,0,1.641h50.1a.82.82,0,0,0,0-1.641ZM24.035,54.846h3.384a.279.279,0,0,1,.23.121.245.245,0,0,1,.032.233,3.374,3.374,0,0,1-3.646,2.168ZM18.981,51.3a.609.609,0,0,1,.608-.608H19.7a.609.609,0,0,1,.608.608v1.909H18.982V51.3Zm-9.949,0a.609.609,0,0,1,.608-.608h.107a.609.609,0,0,1,.608.608v1.909H9.033V51.3ZM5.3,57.369A3.374,3.374,0,0,1,1.656,55.2a.246.246,0,0,1,.032-.233.278.278,0,0,1,.23-.121H5.3ZM8.071,69.385v-.3a3.238,3.238,0,0,1,3.234-3.234h6.726a3.238,3.238,0,0,1,3.234,3.234v.3a3.238,3.238,0,0,1-3.234,3.234H11.306a3.238,3.238,0,0,1-3.234-3.234Zm7.361,23.293H12.76V90.9h2.672Zm0-3.418H12.76V83.288a4.08,4.08,0,0,0,2.461.822h.211Zm4.312,3.418H17.073V84.111h2.4a.274.274,0,0,1,.273.273Zm4.312,0H21.385V90.9h2.672Zm18.384,0H39.769V90.9h2.672Zm0-3.418H39.769V84.111h2.672Zm4.312,3.418H44.082V84.111h2.4a.274.274,0,0,1,.273.273Zm4.312,0H48.394V90.9h2.672Z"/>
      <path id="Path_900724" data-name="Path 900724" d="M93.443,143.377v1.649a.82.82,0,0,0,1.641,0v-1.649a.82.82,0,0,0-1.641,0Z" transform="translate(-83.223 -83.282)"/>
      <path id="Path_900725" data-name="Path 900725" d="M159.779,143.377v1.649a.82.82,0,1,0,1.641,0v-1.649a.82.82,0,1,0-1.641,0Z" transform="translate(-142.303 -83.282)"/>
      <path id="Path_900726" data-name="Path 900726" d="M96.747,222.5H95.434a.82.82,0,0,0,0,1.641h1.312a.82.82,0,0,0,0-1.641Z" transform="translate(-84.265 -154.483)"/>
      <path id="Path_900727" data-name="Path 900727" d="M149.562,223.322a.82.82,0,0,0-.82-.82h-1.312a.82.82,0,0,0,0,1.641h1.312A.82.82,0,0,0,149.562,223.322Z" transform="translate(-130.574 -154.483)"/>
    </g>
  </g>
</svg>
