<svg xmlns="http://www.w3.org/2000/svg" xmlns:xlink="http://www.w3.org/1999/xlink" width="109.652" height="109.652" viewBox="0 0 109.652 109.652">
  <defs>
    <filter id="Path_874925" x="0" y="0" width="109.652" height="109.652" filterUnits="userSpaceOnUse">
      <feOffset dy="3" input="SourceAlpha"/>
      <feGaussianBlur stdDeviation="3" result="blur"/>
      <feFlood flood-opacity="0.161"/>
      <feComposite operator="in" in2="blur"/>
      <feComposite in="SourceGraphic"/>
    </filter>
  </defs>
  <g id="Group_1111486" data-name="Group 1111486" transform="translate(3370.596 10553.09)">
    <g id="Group_1111214" data-name="Group 1111214" transform="translate(-4381.326 -13624.09)">
      <g transform="matrix(1, 0, 0, 1, 1010.73, 3071)" filter="url(#Path_874925)">
        <g id="Path_874925-2" data-name="Path 874925" transform="translate(9 6)" fill="#ffd63c">
          <path d="M 45.82614517211914 90.15280151367188 C 39.84149551391602 90.15280151367188 34.03665924072266 88.98104095458984 28.5728702545166 86.67005157470703 C 23.29473304748535 84.43759155273438 18.55415725708008 81.24130249023438 14.48283290863037 77.16998291015625 C 10.41150760650635 73.09866333007812 7.215232849121094 68.35809326171875 4.982757568359375 63.07994079589844 C 2.671770095825195 57.61616897583008 1.500007629394531 51.81131744384766 1.500007629394531 45.82666778564453 C 1.500007629394531 39.84149169921875 2.671770095825195 34.03665542602539 4.982757568359375 28.57286643981934 C 7.215232849121094 23.29472923278809 10.41150760650635 18.55415534973145 14.48283290863037 14.48283004760742 C 18.55415725708008 10.4115047454834 23.29473304748535 7.215229511260986 28.5728702545166 4.982754707336426 C 34.03665924072266 2.671766996383667 39.84149551391602 1.500004529953003 45.82614517211914 1.500004529953003 C 51.81079483032227 1.500004529953003 57.61564636230469 2.671766996383667 63.07942199707031 4.982754707336426 C 68.35756683349609 7.215229511260986 73.09814453125 10.4115047454834 77.16947174072266 14.48283004760742 C 81.24078369140625 18.55415534973145 84.43707275390625 23.29472923278809 86.66954803466797 28.57286643981934 C 88.98052978515625 34.03665542602539 90.15229797363281 39.84149169921875 90.15229797363281 45.82614135742188 C 90.15229797363281 51.81131744384766 88.98052978515625 57.61616897583008 86.66954803466797 63.07994079589844 C 84.43707275390625 68.35809326171875 81.24078369140625 73.09866333007812 77.16947174072266 77.16998291015625 C 73.09814453125 81.24130249023438 68.35756683349609 84.43759155273438 63.07942199707031 86.67005157470703 C 57.61564636230469 88.98104095458984 51.81079483032227 90.15280151367188 45.82614517211914 90.15280151367188 Z" stroke="none"/>
          <path d="M 45.82614517211914 3.000007629394531 C 40.04333114624023 3.000007629394531 34.43508911132812 4.131904602050781 29.15720367431641 6.364265441894531 C 24.05784606933594 8.521102905273438 19.47753143310547 11.60944366455078 15.54348754882812 15.54348754882812 C 11.60944366455078 19.47753143310547 8.521102905273438 24.05784606933594 6.3642578125 29.15720367431641 C 4.131904602050781 34.43508911132812 3 40.0433349609375 3 45.82667541503906 C 3 51.60948944091797 4.131904602050781 57.21773147583008 6.3642578125 62.49562072753906 C 8.521102905273438 67.59497833251953 11.60944366455078 72.17527770996094 15.54348754882812 76.10932922363281 C 19.47753143310547 80.04337310791016 24.05784606933594 83.13170623779297 29.15718841552734 85.28854370117188 C 34.43508911132812 87.52090454101562 40.04333114624023 88.65280151367188 45.82614517211914 88.65280151367188 C 51.60895919799805 88.65280151367188 57.21720123291016 87.52090454101562 62.49510192871094 85.28854370117188 C 67.59444427490234 83.13170623779297 72.17475891113281 80.04337310791016 76.10880279541016 76.10932922363281 C 80.0428466796875 72.17527770996094 83.13118743896484 67.59497833251953 85.28803253173828 62.49562072753906 C 87.5203857421875 57.21773147583008 88.65229034423828 51.60948944091797 88.65229034423828 45.82614898681641 C 88.65229034423828 40.0433349609375 87.5203857421875 34.43508911132812 85.28803253173828 29.15720367431641 C 83.13118743896484 24.05784606933594 80.0428466796875 19.47753143310547 76.10880279541016 15.54348754882812 C 72.17475891113281 11.60944366455078 67.59444427490234 8.521102905273438 62.49508666992188 6.364265441894531 C 57.21720123291016 4.131904602050781 51.60895919799805 3.000007629394531 45.82614517211914 3.000007629394531 M 45.82614517211914 7.62939453125e-06 C 71.13523101806641 7.62939453125e-06 91.65229034423828 20.51705932617188 91.65229034423828 45.82614898681641 L 91.65229034423828 45.82667541503906 C 91.65229034423828 71.13575744628906 71.13523101806641 91.65280151367188 45.82614517211914 91.65280151367188 C 20.51705932617188 91.65280151367188 0 71.13575744628906 0 45.82667541503906 L 0 45.82614898681641 C 0 20.51705932617188 20.51705932617188 7.62939453125e-06 45.82614517211914 7.62939453125e-06 Z" stroke="none" fill="#fff"/>
        </g>
      </g>
    </g>
    <g id="v3" transform="translate(-3348.234 -10614.234)">
      <g id="Group_1111484" data-name="Group 1111484" transform="translate(1.015 94.191)">
        <path id="Path_900301" data-name="Path 900301" d="M32,300h5.076v11.167H32Z" transform="translate(-28.955 -275.638)" fill="#c0805d"/>
        <circle id="Ellipse_11768" data-name="Ellipse 11768" cx="8.121" cy="8.121" r="8.121" transform="translate(3.045 11.167)" fill="#fdcc88"/>
        <path id="Path_900302" data-name="Path 900302" d="M33.341,224.815a8.112,8.112,0,0,0,3.735,11.99,3.463,3.463,0,0,1,1.014-2.449l6.6-6.6Z" transform="translate(-28.955 -209.992)" fill="#f6b87e"/>
        <path id="Path_900303" data-name="Path 900303" d="M44.061,380H40v4.061h6.091Z" transform="translate(-35.939 -345.486)" fill="#615260"/>
        <path id="Path_900304" data-name="Path 900304" d="M240,380h4.061v4.061H240Z" transform="translate(-210.561 -345.486)" fill="#615260"/>
        <path id="Path_900305" data-name="Path 900305" d="M240,292h4.061v11.167H240Z" transform="translate(-210.561 -268.653)" fill="#9e6a5a"/>
        <path id="Path_900306" data-name="Path 900306" d="M63.039,131.382a6.864,6.864,0,0,0-5.3-.787v2.03H53.681l-1.675,1.361H16.79c-4.524,0-7.9,2.811-6.948,7.234l.831,3.876a5.076,5.076,0,0,1-.423,3.333l-1.713,3.427A5.076,5.076,0,0,0,8,154.127v7.938l2.03,1.015,2.03-1.015v-7.349a2.03,2.03,0,0,1,.513-1.349l4.789-5.242,8.112,3.034a22.333,22.333,0,0,0,5.754.754H41.5v10.151l2.03,1.015,2.03-1.015V155.57a5.076,5.076,0,0,1,.945-2.95l.5-.707h.505a8.121,8.121,0,0,0,6.568-3.344l4.169-5.732a5.076,5.076,0,0,1,4.1-2.09h5.536a3.045,3.045,0,0,0,3.045-3.045Z" transform="translate(-8 -127.55)" fill="#9e6a5a"/>
        <path id="Path_900307" data-name="Path 900307" d="M16.79,148A7.106,7.106,0,0,0,9.842,156.6l.831,3.876a5.076,5.076,0,0,1-.423,3.333l-1.713,3.427A5.076,5.076,0,0,0,8,169.5v7.938l2.03,1.015,1.067-.508V169.5a2.041,2.041,0,0,1,.215-.91l1.661-3.425a8.153,8.153,0,0,0,.677-5.334l-.8-3.718a4.248,4.248,0,0,1,.375-2.965,4.043,4.043,0,0,1,3.562-2.1H50.636A3.049,3.049,0,0,0,53.681,148H16.79Z" transform="translate(-8 -142.925)" fill="#845252"/>
        <path id="Path_900308" data-name="Path 900308" d="M14.091,384.062H9.808a1.015,1.015,0,0,1-.985-.769L8,380h4.061Z" transform="translate(-8 -345.486)" fill="#4e3d4d"/>
        <path id="Path_900309" data-name="Path 900309" d="M369.221,108a3.363,3.363,0,0,0,.648,5.261l.835.643a1.842,1.842,0,0,0,2.274-2.9Z" transform="translate(-322.525 -108.001)" fill="#7a4646"/>
        <path id="Path_900310" data-name="Path 900310" d="M276.448,384.062H272V380h4.061l1.3,2.591A1.015,1.015,0,0,1,276.448,384.062Z" transform="translate(-238.501 -345.486)" fill="#4e3d4d"/>
        <path id="Path_900311" data-name="Path 900311" d="M85.652,256.806l-7.293-2.042-2.336,2.628,8.843,2.358a22.332,22.332,0,0,0,5.754.754h10.27v-3.045H90.628A19.3,19.3,0,0,1,85.652,256.806Z" transform="translate(-67.391 -236.141)" fill="#845252"/>
      </g>
      <g id="Group_1111485" data-name="Group 1111485" transform="translate(0 92.184)">
        <path id="Path_900312" data-name="Path 900312" d="M64.612,103.582l-6.8-5.444a8.952,8.952,0,0,0,2.048-2.862.952.952,0,0,0-1.75-.749,6.532,6.532,0,0,1-1.841,2.411,6.012,6.012,0,0,0-.747-.424,5.609,5.609,0,0,0,.257-3.648.952.952,0,0,0-1.825.54,3.529,3.529,0,0,1-.308,2.568,6.038,6.038,0,0,0-1.8.053l-3.528-2.637a.952.952,0,0,0-1.243.089,4.321,4.321,0,0,0,.832,6.761l1.385.831a.952.952,0,0,0,.979-1.632l-1.385-.831a2.421,2.421,0,0,1-.938-3.118l3.1,2.321a.949.949,0,0,0,.815.157h0a4.15,4.15,0,0,1,3.646.767l7.515,6.012a2.1,2.1,0,0,1-2.057,1.677H55.418a6.056,6.056,0,0,0-4.883,2.486l-4.177,5.743A7.208,7.208,0,0,1,42,117.462l2.449-3.429a.952.952,0,1,0-1.549-1.106l-4.139,5.794a6,6,0,0,0-1.125,3.509v5.556H35.471V113.48a.952.952,0,0,0-1.9,0v4.134H24.292a21.433,21.433,0,0,1-5.638-.755l-4.6-1.255a.952.952,0,1,0-.5,1.836l3.76,1.025a7.18,7.18,0,0,1-9.669.618l6.227-7.006a.952.952,0,1,0-1.423-1.264L4.823,119.39a2.983,2.983,0,0,0-.754,1.984v6.412H1.9v-7a4.155,4.155,0,0,1,.436-1.849L4.056,115.5a6.06,6.06,0,0,0,.5-3.965l-.832-3.884a6.169,6.169,0,0,1,6.032-7.461H42.966a.952.952,0,0,0,0-1.9H9.759a8.072,8.072,0,0,0-7.893,9.763l.832,3.884a4.15,4.15,0,0,1-.345,2.715L.637,118.083a6.068,6.068,0,0,0-.637,2.7v7.954H0a.952.952,0,0,0,.028.231l1.017,4.069a.952.952,0,0,0,.923.721h9.155a.952.952,0,0,0,.851-1.377l-1.934-3.868v-6.189a9.1,9.1,0,0,0,9.328-3.335,23.337,23.337,0,0,0,4.923.529H29.5v13.289a.952.952,0,0,0,.952.952H40.622a.952.952,0,0,0,.851-1.377l-1.934-3.868V122.23a4.112,4.112,0,0,1,.77-2.4l.221-.309h.016a9.117,9.117,0,0,0,7.351-3.743l4.177-5.743a4.147,4.147,0,0,1,3.343-1.7h5.548a4.008,4.008,0,0,0,4-4,.952.952,0,0,0-.357-.743Zm-61.9,28.273-.541-2.165H4.432l1.083,2.165Zm4.931,0L6.56,129.689H8.5l1.083,2.165Zm.494-4.069H5.972v-6.412a1.082,1.082,0,0,1,.273-.719l.131-.147a9.049,9.049,0,0,0,1.761,1.135v6.144Zm25.43-8.268v8.268H31.4v-8.268ZM31.4,129.689h2.165v2.165H31.4Zm4.069,2.165v-2.165H38l1.083,2.165Z" transform="translate(0 -92.184)"/>
        <circle id="Ellipse_11769" data-name="Ellipse 11769" cx="0.952" cy="0.952" r="0.952" transform="translate(52.906 8.144)"/>
      </g>
    </g>
  </g>
</svg>
