<svg xmlns="http://www.w3.org/2000/svg" xmlns:xlink="http://www.w3.org/1999/xlink" width="109.652" height="109.653" viewBox="0 0 109.652 109.653">
  <defs>
    <filter id="Path_874925" x="0" y="0" width="109.652" height="109.653" filterUnits="userSpaceOnUse">
      <feOffset dy="3" input="SourceAlpha"/>
      <feGaussianBlur stdDeviation="3" result="blur"/>
      <feFlood flood-opacity="0.161"/>
      <feComposite operator="in" in2="blur"/>
      <feComposite in="SourceGraphic"/>
    </filter>
    <clipPath id="clip-path">
      <path id="path8457" d="M0-682.665H53v53H0Z" transform="translate(0 682.665)"/>
    </clipPath>
  </defs>
  <g id="Group_1111654" data-name="Group 1111654" transform="translate(-273 -3840)">
    <g id="Group_1111211" data-name="Group 1111211" transform="translate(-737.73 769)">
      <g transform="matrix(1, 0, 0, 1, 1010.73, 3071)" filter="url(#Path_874925)">
        <g id="Path_874925-2" data-name="Path 874925" transform="translate(9 6)" fill="#ffd63c">
          <path d="M 45.82614517211914 90.15280151367188 C 39.84149551391602 90.15280151367188 34.03665924072266 88.98104095458984 28.5728702545166 86.67005157470703 C 23.29473304748535 84.43759155273438 18.55415725708008 81.24130249023438 14.48283290863037 77.16998291015625 C 10.41150760650635 73.09866333007812 7.215232849121094 68.35809326171875 4.982757568359375 63.07994079589844 C 2.671770095825195 57.61616897583008 1.500007629394531 51.81131744384766 1.500007629394531 45.82666778564453 C 1.500007629394531 39.84149169921875 2.671770095825195 34.03665542602539 4.982757568359375 28.57286643981934 C 7.215232849121094 23.29472923278809 10.41150760650635 18.55415534973145 14.48283290863037 14.48283004760742 C 18.55415725708008 10.4115047454834 23.29473304748535 7.215229511260986 28.5728702545166 4.982754707336426 C 34.03665924072266 2.671766996383667 39.84149551391602 1.500004529953003 45.82614517211914 1.500004529953003 C 51.81079483032227 1.500004529953003 57.61564636230469 2.671766996383667 63.07942199707031 4.982754707336426 C 68.35756683349609 7.215229511260986 73.09814453125 10.4115047454834 77.16947174072266 14.48283004760742 C 81.24078369140625 18.55415534973145 84.43707275390625 23.29472923278809 86.66954803466797 28.57286643981934 C 88.98052978515625 34.03665542602539 90.15229797363281 39.84149169921875 90.15229797363281 45.82614135742188 C 90.15229797363281 51.81131744384766 88.98052978515625 57.61616897583008 86.66954803466797 63.07994079589844 C 84.43707275390625 68.35809326171875 81.24078369140625 73.09866333007812 77.16947174072266 77.16998291015625 C 73.09814453125 81.24130249023438 68.35756683349609 84.43759155273438 63.07942199707031 86.67005157470703 C 57.61564636230469 88.98104095458984 51.81079483032227 90.15280151367188 45.82614517211914 90.15280151367188 Z" stroke="none"/>
          <path d="M 45.82614517211914 3.000007629394531 C 40.04333114624023 3.000007629394531 34.43508911132812 4.131904602050781 29.15720367431641 6.364265441894531 C 24.05784606933594 8.521102905273438 19.47753143310547 11.60944366455078 15.54348754882812 15.54348754882812 C 11.60944366455078 19.47753143310547 8.521102905273438 24.05784606933594 6.3642578125 29.15720367431641 C 4.131904602050781 34.43508911132812 3 40.0433349609375 3 45.82667541503906 C 3 51.60948944091797 4.131904602050781 57.21773147583008 6.3642578125 62.49562072753906 C 8.521102905273438 67.59497833251953 11.60944366455078 72.17527770996094 15.54348754882812 76.10932922363281 C 19.47753143310547 80.04337310791016 24.05784606933594 83.13170623779297 29.15718841552734 85.28854370117188 C 34.43508911132812 87.52090454101562 40.04333114624023 88.65280151367188 45.82614517211914 88.65280151367188 C 51.60895919799805 88.65280151367188 57.21720123291016 87.52090454101562 62.49510192871094 85.28854370117188 C 67.59444427490234 83.13170623779297 72.17475891113281 80.04337310791016 76.10880279541016 76.10932922363281 C 80.0428466796875 72.17527770996094 83.13118743896484 67.59497833251953 85.28803253173828 62.49562072753906 C 87.5203857421875 57.21773147583008 88.65229034423828 51.60948944091797 88.65229034423828 45.82614898681641 C 88.65229034423828 40.0433349609375 87.5203857421875 34.43508911132812 85.28803253173828 29.15720367431641 C 83.13118743896484 24.05784606933594 80.0428466796875 19.47753143310547 76.10880279541016 15.54348754882812 C 72.17475891113281 11.60944366455078 67.59444427490234 8.521102905273438 62.49508666992188 6.364265441894531 C 57.21720123291016 4.131904602050781 51.60895919799805 3.000007629394531 45.82614517211914 3.000007629394531 M 45.82614517211914 7.62939453125e-06 C 71.13523101806641 7.62939453125e-06 91.65229034423828 20.51705932617188 91.65229034423828 45.82614898681641 L 91.65229034423828 45.82667541503906 C 91.65229034423828 71.13575744628906 71.13523101806641 91.65280151367188 45.82614517211914 91.65280151367188 C 20.51705932617188 91.65280151367188 0 71.13575744628906 0 45.82667541503906 L 0 45.82614898681641 C 0 20.51705932617188 20.51705932617188 7.62939453125e-06 45.82614517211914 7.62939453125e-06 Z" stroke="none" fill="#fff"/>
        </g>
      </g>
    </g>
    <g id="g8451" transform="translate(301 4547.991)">
      <g id="g8453" transform="translate(0 -682.665)">
        <g id="g8455" transform="translate(0 0)" clip-path="url(#clip-path)">
          <g id="g8461" transform="translate(0.776 25.672)">
            <path id="path8463" d="M-574.323-315.447H-619.56a3.106,3.106,0,0,1-3.105-3.105v-20.341A3.106,3.106,0,0,1-619.56-342h45.236a3.106,3.106,0,0,1,3.105,3.105v20.341a3.106,3.106,0,0,1-3.105,3.105" transform="translate(622.665 341.999)" fill="#64cc56"/>
          </g>
          <g id="g8465" transform="translate(46.013 25.672)">
            <path id="path8467" d="M-36.894,0H-40a3.106,3.106,0,0,1,3.105,3.105V23.446A3.106,3.106,0,0,1-40,26.552h3.105a3.106,3.106,0,0,0,3.105-3.105V3.105A3.106,3.106,0,0,0-36.894,0" transform="translate(40)" fill="#5bbd4f"/>
          </g>
          <g id="g8469" transform="translate(10.518 6.004)">
            <path id="path8471" d="M-124.211-62.106a5.228,5.228,0,0,1-5.228,5.228,5.227,5.227,0,0,1-5.228-5.228,5.227,5.227,0,0,1,5.228-5.228,5.228,5.228,0,0,1,5.228,5.228" transform="translate(134.666 67.333)" fill="#ffd54f"/>
          </g>
          <g id="g8473" transform="translate(14.336 6.004)">
            <path id="path8475" d="M-16.745,0a5.228,5.228,0,0,0-1.409.194,5.229,5.229,0,0,1,3.818,5.034,5.229,5.229,0,0,1-3.818,5.034,5.228,5.228,0,0,0,1.409.194,5.228,5.228,0,0,0,5.228-5.228A5.228,5.228,0,0,0-16.745,0" transform="translate(18.155)" fill="#ffca28"/>
          </g>
          <g id="g8477" transform="translate(13.354 5.176)">
            <path id="path8479" d="M-312.373-243.5s-.988-5.049-1.906-6.31-1.906-1.609-2.681-2.774a29.248,29.248,0,0,1-2.743-7.331,5.861,5.861,0,0,0-3.013-3.8,3.161,3.161,0,0,0-2.6,0c-.74.316-1.672,2.3-1.672,2.3A37.351,37.351,0,0,0-329-255.989c-.1,1.114-.217,3.249-.752,4.185s-1.3,2.618-2.74,3.218-3.809,1.041-4.357,1.649a24.539,24.539,0,0,0-1.815,3.433Z" transform="translate(338.666 264)" fill="#90a4ae"/>
          </g>
          <g id="g8481" transform="translate(26.458 5.176)">
            <path id="path8483" d="M-134.031-168.538c-.919-1.261-1.906-1.609-2.681-2.774a29.249,29.249,0,0,1-2.743-7.331,5.861,5.861,0,0,0-3.013-3.8,3.16,3.16,0,0,0-2.6,0,1.042,1.042,0,0,0-.249.16,5.651,5.651,0,0,1,2.752,3.641,29.249,29.249,0,0,0,2.743,7.331c.775,1.164,1.763,1.513,2.681,2.774s1.906,6.31,1.906,6.31h3.105s-.988-5.049-1.906-6.31" transform="translate(145.313 182.724)" fill="#78909c"/>
          </g>
          <g id="g8485" transform="translate(4.502 16.355)">
            <path id="path8487" d="M-81.168-63.837c0,2.828-1.529,3.943-3.416,3.943S-88-61.009-88-63.837s1.529-5.373,3.416-5.373,3.416,2.545,3.416,5.373" transform="translate(88 69.21)" fill="#64cc56"/>
          </g>
          <g id="g8489" transform="translate(6.366 16.355)">
            <path id="path8491" d="M-18.447,0A2.421,2.421,0,0,0-20,.614a6.361,6.361,0,0,1,1.863,4.76c0,1.99-.757,3.13-1.863,3.633a3.742,3.742,0,0,0,1.553.311c1.887,0,3.416-1.115,3.416-3.943S-16.561,0-18.447,0" transform="translate(20)" fill="#5bbd4f"/>
          </g>
          <g id="g8493" transform="translate(41.666 16.355)">
            <path id="path8495" d="M-81.168-63.837c0,2.828-1.529,3.943-3.416,3.943S-88-61.009-88-63.837s1.529-5.373,3.416-5.373,3.416,2.545,3.416,5.373" transform="translate(88 69.21)" fill="#64cc56"/>
          </g>
          <g id="g8497" transform="translate(43.529 16.355)">
            <path id="path8499" d="M-18.447,0A2.421,2.421,0,0,0-20,.614a6.361,6.361,0,0,1,1.863,4.76c0,1.99-.758,3.13-1.863,3.633a3.742,3.742,0,0,0,1.553.311c1.887,0,3.416-1.115,3.416-3.943S-16.561,0-18.447,0" transform="translate(20)" fill="#5bbd4f"/>
          </g>
          <g id="g8501" transform="translate(4.399 29.207)">
            <path id="path8503" d="M-343.482-125.2c0,.434.6,1.191,1.807,1.591,1.393.46,3.767.746,6.773,1.873,1.988.745,4.644,2.68,5.1,5.132a5.949,5.949,0,0,1-.639,3.882h-16.815a11.053,11.053,0,0,0,2.873-.955,6.8,6.8,0,0,0,3.192-2.936c.763-1.667-5.781-4.268-6.989-4.87-2.814-1.4-.541-3.475.915-4.006.578-.211.21-1.209-.389-1.209h-20.527a4.052,4.052,0,0,1-2.976-1.324,4.678,4.678,0,0,1-1.233-3.2,4.373,4.373,0,0,1,4.209-4.521H-332.4a4.055,4.055,0,0,1,2.976,1.324,4.673,4.673,0,0,1,1.233,3.17,4.443,4.443,0,0,1-4.283,4.547h-8.453c-.977,0-2.556.554-2.553,1.5" transform="translate(372.394 135.741)" fill="#bdf9ff"/>
          </g>
          <g id="g8505" transform="translate(41.212 29.207)">
            <path id="path8507" d="M-73.137-15.728a4.055,4.055,0,0,0-2.976-1.324h-3.105a4.055,4.055,0,0,1,2.976,1.324,4.673,4.673,0,0,1,1.233,3.17,4.443,4.443,0,0,1-4.283,4.547h3.105A4.443,4.443,0,0,0-71.9-12.558a4.673,4.673,0,0,0-1.233-3.17" transform="translate(79.293 17.052)" fill="#8cf2ff"/>
          </g>
          <g id="g8509" transform="translate(35.118 41.336)">
            <path id="path8511" d="M-80.472-22.252c-3.006-1.127-5.38-1.413-6.773-1.873,1.988.745,7.965,2.425,8.764,7.005a6.028,6.028,0,0,1-.639,3.882h3.105a5.949,5.949,0,0,0,.639-3.882c-.452-2.452-3.109-4.387-5.1-5.132" transform="translate(87.245 24.125)" fill="#8cf2ff"/>
          </g>
          <g id="g8513" transform="translate(9.742 5.228)">
            <path id="path8515" d="M-138.662-77.333a6.011,6.011,0,0,1,6,6,6.011,6.011,0,0,1-6,6,6.011,6.011,0,0,1-6-6A6.011,6.011,0,0,1-138.662-77.333Zm0,10.455a4.456,4.456,0,0,0,4.451-4.451,4.456,4.456,0,0,0-4.451-4.451,4.456,4.456,0,0,0-4.451,4.451A4.456,4.456,0,0,0-138.662-66.878Z" transform="translate(144.666 77.333)"/>
          </g>
          <g id="g8517" transform="translate(14.969 0)">
            <path id="path8519" d="M-9.224-24.534A.776.776,0,0,1-10-25.311v-1.354a.776.776,0,0,1,.776-.776.776.776,0,0,1,.776.776v1.354A.776.776,0,0,1-9.224-24.534Z" transform="translate(10 27.441)"/>
          </g>
          <g id="g8521" transform="translate(21.404 3.062)">
            <path id="path8523" d="M-21.561-7.489a.774.774,0,0,1-.549-.227.776.776,0,0,1,0-1.1l.958-.958a.776.776,0,0,1,1.1,0,.776.776,0,0,1,0,1.1l-.958.958A.774.774,0,0,1-21.561-7.489Z" transform="translate(22.337 10)"/>
          </g>
          <g id="g8525" transform="translate(4.514 10.455)">
            <path id="path8527" d="M-25.312-8.447h-1.354a.776.776,0,0,1-.776-.776A.776.776,0,0,1-26.666-10h1.354a.776.776,0,0,1,.776.776A.776.776,0,0,1-25.312-8.447Z" transform="translate(27.443 10)"/>
          </g>
          <g id="g8529" transform="translate(7.576 3.062)">
            <path id="path8531" d="M-20.6-19.827a.774.774,0,0,1-.549-.227l-.958-.958a.776.776,0,0,1,0-1.1.776.776,0,0,1,1.1,0l.958.958a.776.776,0,0,1,0,1.1A.774.774,0,0,1-20.6-19.827Z" transform="translate(22.337 22.337)"/>
          </g>
          <g id="g8533" transform="translate(12.577 4.399)">
            <path id="path8535" d="M-235.581-71.368h-26.293a.776.776,0,0,1-.652-.354.776.776,0,0,1-.057-.74,22.441,22.441,0,0,1,1.946-3.635,6.554,6.554,0,0,1,2.816-1.239c.643-.194,1.308-.394,1.819-.606a5.31,5.31,0,0,0,2.149-2.5c.076-.139.148-.27.216-.389a11.317,11.317,0,0,0,.615-3.43l.038-.44a33.748,33.748,0,0,1,2.083-5.673c.325-.692,1.163-2.312,2.077-2.7a3.9,3.9,0,0,1,3.3.051,6.624,6.624,0,0,1,3.371,4.315,20.768,20.768,0,0,0,.629,2.3.776.776,0,0,1-.5.979.776.776,0,0,1-.979-.5,22.294,22.294,0,0,1-.676-2.485,5.085,5.085,0,0,0-2.615-3.264,2.42,2.42,0,0,0-1.927.026,5.985,5.985,0,0,0-1.274,1.919,33.98,33.98,0,0,0-1.948,5.168l-.037.429a11.11,11.11,0,0,1-.814,4.072l-.2.365A6.586,6.586,0,0,1-255.4-76.51c-.584.243-1.288.455-1.968.66a8.941,8.941,0,0,0-2.112.794,14.163,14.163,0,0,0-1.173,2.135h24.121A20.788,20.788,0,0,0-238.115-78a7.075,7.075,0,0,0-1.252-1.274,7.1,7.1,0,0,1-1.448-1.527,14.184,14.184,0,0,1-.992-1.964.776.776,0,0,1,.406-1.02.776.776,0,0,1,1.02.406,12.372,12.372,0,0,0,.859,1.718,5.692,5.692,0,0,0,1.162,1.2,8.564,8.564,0,0,1,1.5,1.542c.991,1.361,1.936,6.084,2.041,6.618a.776.776,0,0,1-.163.643A.776.776,0,0,1-235.581-71.368Z" transform="translate(262.65 93.417)"/>
          </g>
          <g id="g8537" transform="translate(3.726 15.579)">
            <path id="path8539" d="M-93.807-68.341c-2.625,0-4.192-1.764-4.192-4.719,0-3.391,1.881-6.15,4.192-6.15s4.192,2.759,4.192,6.15C-89.615-70.106-91.182-68.341-93.807-68.341Zm0-9.316c-1.382,0-2.64,2.191-2.64,4.6,0,2.072.913,3.167,2.64,3.167s2.64-1.1,2.64-3.167C-91.168-75.467-92.426-77.658-93.807-77.658Z" transform="translate(98 79.21)"/>
          </g>
          <g id="g8541" transform="translate(40.889 15.579)">
            <path id="path8543" d="M-93.807-68.341c-2.625,0-4.192-1.764-4.192-4.719,0-3.391,1.881-6.15,4.192-6.15s4.192,2.759,4.192,6.15C-89.615-70.106-91.182-68.341-93.807-68.341Zm0-9.316c-1.382,0-2.64,2.191-2.64,4.6,0,2.072.913,3.167,2.64,3.167s2.64-1.1,2.64-3.167C-91.168-75.467-92.426-77.658-93.807-77.658Z" transform="translate(98 79.21)"/>
          </g>
          <g id="g8545" transform="translate(0 24.896)">
            <path id="path8547" d="M-623.547-248.377h-45.236a3.886,3.886,0,0,1-3.882-3.882V-272.6a3.886,3.886,0,0,1,3.882-3.882h45.236a3.886,3.886,0,0,1,3.882,3.882v14.251a.776.776,0,0,1-.776.776.776.776,0,0,1-.776-.776V-272.6a2.332,2.332,0,0,0-2.329-2.329h-45.236a2.332,2.332,0,0,0-2.329,2.329v20.341a2.332,2.332,0,0,0,2.329,2.329h45.236a2.332,2.332,0,0,0,2.329-2.329v-2.757a.776.776,0,0,1,.776-.776.776.776,0,0,1,.776.776v2.757A3.886,3.886,0,0,1-623.547-248.377Z" transform="translate(672.665 276.482)"/>
          </g>
          <g id="g8549" transform="translate(3.623 28.431)">
            <path id="path8551" d="M-82.607-101.884H-99.422a.776.776,0,0,1-.773-.7.776.776,0,0,1,.623-.837,10.2,10.2,0,0,0,2.672-.885,5.991,5.991,0,0,0,2.837-2.566c-.053-.315-.862-1.249-5.776-3.46-.374-.168-.672-.3-.853-.393-1.529-.761-1.8-1.734-1.766-2.416a3.749,3.749,0,0,1,2.119-2.718h-12.107a.776.776,0,0,1-.776-.776.776.776,0,0,1,.776-.776h12.625a1.525,1.525,0,0,1,1.433,1.29,1.232,1.232,0,0,1-.778,1.425c-.779.284-1.71,1.063-1.742,1.643-.023.412.559.765.908.938.17.084.448.21.8.367,2.878,1.295,6,2.8,6.575,4.346a1.5,1.5,0,0,1-.024,1.176,6.814,6.814,0,0,1-2.637,2.791h12.2a5.179,5.179,0,0,0,.354-2.964c-.41-2.222-2.979-3.937-4.605-4.546a34.907,34.907,0,0,0-4.787-1.363c-.76-.173-1.417-.322-1.958-.5-1.375-.454-2.337-1.411-2.34-2.326a1.745,1.745,0,0,1,.547-1.247,4.25,4.25,0,0,1,2.782-1.029h8.453a3.373,3.373,0,0,0,2.394-1.029,3.874,3.874,0,0,0,1.113-2.737,3.885,3.885,0,0,0-1.024-2.644,3.271,3.271,0,0,0-2.408-1.077h-35.783a3.6,3.6,0,0,0-3.433,3.744,3.89,3.89,0,0,0,1.025,2.667,3.268,3.268,0,0,0,2.408,1.077h4.745a.776.776,0,0,1,.776.776.776.776,0,0,1-.776.776h-4.745a4.8,4.8,0,0,1-3.545-1.572,5.436,5.436,0,0,1-1.441-3.725,5.154,5.154,0,0,1,4.985-5.3h35.783a4.807,4.807,0,0,1,3.544,1.571,5.433,5.433,0,0,1,1.441,3.695,5.437,5.437,0,0,1-1.565,3.841,4.915,4.915,0,0,1-3.5,1.487h-8.453a2.77,2.77,0,0,0-1.683.573.283.283,0,0,0-.094.146,2.244,2.244,0,0,0,1.275.856c.47.155,1.093.3,1.814.46a36.228,36.228,0,0,1,4.988,1.423c2.345.879,5.094,3.044,5.587,5.718a6.741,6.741,0,0,1-.726,4.4A.776.776,0,0,1-82.607-101.884Z" transform="translate(125.333 126.453)"/>
          </g>
        </g>
      </g>
    </g>
  </g>
</svg>
