<svg xmlns="http://www.w3.org/2000/svg" xmlns:xlink="http://www.w3.org/1999/xlink" width="109.652" height="109.653" viewBox="0 0 109.652 109.653">
  <defs>
    <filter id="Path_874925" x="0" y="0" width="109.652" height="109.653" filterUnits="userSpaceOnUse">
      <feOffset dy="3" input="SourceAlpha"/>
      <feGaussianBlur stdDeviation="3" result="blur"/>
      <feFlood flood-opacity="0.161"/>
      <feComposite operator="in" in2="blur"/>
      <feComposite in="SourceGraphic"/>
    </filter>
  </defs>
  <g id="Group_1111629" data-name="Group 1111629" transform="translate(-850 -1555)">
    <g id="Group_1111385" data-name="Group 1111385" transform="translate(-160.73 -1516)">
      <g transform="matrix(1, 0, 0, 1, 1010.73, 3071)" filter="url(#Path_874925)">
        <g id="Path_874925-2" data-name="Path 874925" transform="translate(9 6)" fill="#ffd63c">
          <path d="M 45.82614517211914 90.15280151367188 C 39.84149551391602 90.15280151367188 34.03665924072266 88.98104095458984 28.5728702545166 86.67005157470703 C 23.29473304748535 84.43759155273438 18.55415725708008 81.24130249023438 14.48283290863037 77.16998291015625 C 10.41150760650635 73.09866333007812 7.215232849121094 68.35809326171875 4.982757568359375 63.07994079589844 C 2.671770095825195 57.61616897583008 1.500007629394531 51.81131744384766 1.500007629394531 45.82666778564453 C 1.500007629394531 39.84149169921875 2.671770095825195 34.03665542602539 4.982757568359375 28.57286643981934 C 7.215232849121094 23.29472923278809 10.41150760650635 18.55415534973145 14.48283290863037 14.48283004760742 C 18.55415725708008 10.4115047454834 23.29473304748535 7.215229511260986 28.5728702545166 4.982754707336426 C 34.03665924072266 2.671766996383667 39.84149551391602 1.500004529953003 45.82614517211914 1.500004529953003 C 51.81079483032227 1.500004529953003 57.61564636230469 2.671766996383667 63.07942199707031 4.982754707336426 C 68.35756683349609 7.215229511260986 73.09814453125 10.4115047454834 77.16947174072266 14.48283004760742 C 81.24078369140625 18.55415534973145 84.43707275390625 23.29472923278809 86.66954803466797 28.57286643981934 C 88.98052978515625 34.03665542602539 90.15229797363281 39.84149169921875 90.15229797363281 45.82614135742188 C 90.15229797363281 51.81131744384766 88.98052978515625 57.61616897583008 86.66954803466797 63.07994079589844 C 84.43707275390625 68.35809326171875 81.24078369140625 73.09866333007812 77.16947174072266 77.16998291015625 C 73.09814453125 81.24130249023438 68.35756683349609 84.43759155273438 63.07942199707031 86.67005157470703 C 57.61564636230469 88.98104095458984 51.81079483032227 90.15280151367188 45.82614517211914 90.15280151367188 Z" stroke="none"/>
          <path d="M 45.82614517211914 3.000007629394531 C 40.04333114624023 3.000007629394531 34.43508911132812 4.131904602050781 29.15720367431641 6.364265441894531 C 24.05784606933594 8.521102905273438 19.47753143310547 11.60944366455078 15.54348754882812 15.54348754882812 C 11.60944366455078 19.47753143310547 8.521102905273438 24.05784606933594 6.3642578125 29.15720367431641 C 4.131904602050781 34.43508911132812 3 40.0433349609375 3 45.82667541503906 C 3 51.60948944091797 4.131904602050781 57.21773147583008 6.3642578125 62.49562072753906 C 8.521102905273438 67.59497833251953 11.60944366455078 72.17527770996094 15.54348754882812 76.10932922363281 C 19.47753143310547 80.04337310791016 24.05784606933594 83.13170623779297 29.15718841552734 85.28854370117188 C 34.43508911132812 87.52090454101562 40.04333114624023 88.65280151367188 45.82614517211914 88.65280151367188 C 51.60895919799805 88.65280151367188 57.21720123291016 87.52090454101562 62.49510192871094 85.28854370117188 C 67.59444427490234 83.13170623779297 72.17475891113281 80.04337310791016 76.10880279541016 76.10932922363281 C 80.0428466796875 72.17527770996094 83.13118743896484 67.59497833251953 85.28803253173828 62.49562072753906 C 87.5203857421875 57.21773147583008 88.65229034423828 51.60948944091797 88.65229034423828 45.82614898681641 C 88.65229034423828 40.0433349609375 87.5203857421875 34.43508911132812 85.28803253173828 29.15720367431641 C 83.13118743896484 24.05784606933594 80.0428466796875 19.47753143310547 76.10880279541016 15.54348754882812 C 72.17475891113281 11.60944366455078 67.59444427490234 8.521102905273438 62.49508666992188 6.364265441894531 C 57.21720123291016 4.131904602050781 51.60895919799805 3.000007629394531 45.82614517211914 3.000007629394531 M 45.82614517211914 7.62939453125e-06 C 71.13523101806641 7.62939453125e-06 91.65229034423828 20.51705932617188 91.65229034423828 45.82614898681641 L 91.65229034423828 45.82667541503906 C 91.65229034423828 71.13575744628906 71.13523101806641 91.65280151367188 45.82614517211914 91.65280151367188 C 20.51705932617188 91.65280151367188 0 71.13575744628906 0 45.82667541503906 L 0 45.82614898681641 C 0 20.51705932617188 20.51705932617188 7.62939453125e-06 45.82614517211914 7.62939453125e-06 Z" stroke="none" fill="#fff"/>
        </g>
      </g>
    </g>
    <g id="informe-medico" transform="translate(822.24 1580)">
      <g id="Group_1111627" data-name="Group 1111627" transform="translate(63.543 0.783)">
        <g id="Group_1111618" data-name="Group 1111618" transform="translate(1.781 1.65)">
          <path id="Path_900521" data-name="Path 900521" d="M124.329,24.393v48.06a1.1,1.1,0,0,1-1.1,1.1H88.411a1.1,1.1,0,0,1-1.1-1.1V24.393a1.1,1.1,0,0,1,1.1-1.1H123.23a1.1,1.1,0,0,1,1.1,1.1Z" transform="translate(-87.311 -23.293)" fill="#fcb44d"/>
          <path id="Path_900522" data-name="Path 900522" d="M123.23,23.294H119.4a1.1,1.1,0,0,1,1.1,1.1v5.934a1.1,1.1,0,0,0-1.1-1.1H92.316a1.1,1.1,0,0,0-1.1,1.1V55.989H87.311v7.539a5.676,5.676,0,0,0,3.922,1.564h23.689l-.071,0a5.7,5.7,0,0,0,4.685-2.528c.608-.907.963-.14.963-.14V72.454a1.1,1.1,0,0,1-1.1,1.1h3.831a1.1,1.1,0,0,0,1.1-1.1V24.394a1.1,1.1,0,0,0-1.1-1.1Z" transform="translate(-87.311 -23.294)" fill="#fb9927"/>
        </g>
        <g id="Group_1111622" data-name="Group 1111622" transform="translate(0 4.914)">
          <g id="Group_1111620" data-name="Group 1111620" transform="translate(5.686)">
            <path id="Path_900523" data-name="Path 900523" d="M153.985,55.645v29.06a5.7,5.7,0,0,1-5.7,5.7H124.7V55.645a1.1,1.1,0,0,1,1.1-1.1h27.083A1.1,1.1,0,0,1,153.985,55.645Z" transform="translate(-124.702 -54.545)" fill="#eff5f6"/>
            <g id="Group_1111619" data-name="Group 1111619" transform="translate(5.408)">
              <path id="Path_900524" data-name="Path 900524" d="M194.869,54.545v3.2a1.1,1.1,0,0,1-1.1,1.1H177.576a1.1,1.1,0,0,1-1.1-1.1v-3.2Z" transform="translate(-176.476 -54.545)" fill="#deecf0"/>
              <path id="Path_900525" data-name="Path 900525" d="M326.684,55.645v29.06a5.7,5.7,0,0,1-5.7,5.7h-3.439a5.7,5.7,0,0,0,5.7-5.7V55.645a1.1,1.1,0,0,0-1.1-1.1h3.438A1.1,1.1,0,0,1,326.684,55.645Z" transform="translate(-302.809 -54.545)" fill="#deecf0"/>
            </g>
          </g>
          <g id="Group_1111621" data-name="Group 1111621" transform="translate(0 26.76)">
            <path id="Path_900526" data-name="Path 900526" d="M75.963,319.861a5.7,5.7,0,0,1-5.7-5.7v-2.3a1.1,1.1,0,0,1,1.1-1.1H92.849a1.1,1.1,0,0,1,1.1,1.1v2.3a5.7,5.7,0,0,0,5.7,5.7Z" transform="translate(-70.26 -310.758)" fill="#deecf0"/>
            <path id="Path_900527" data-name="Path 900527" d="M262.773,319.866h-3.564a5.7,5.7,0,0,1-5.7-5.7v-2.3a1.1,1.1,0,0,0-1.1-1.1h3.564a1.1,1.1,0,0,1,1.1,1.1v2.3A5.7,5.7,0,0,0,262.773,319.866Z" transform="translate(-233.381 -310.763)" fill="#cbe5e7"/>
          </g>
        </g>
        <path id="Path_900528" data-name="Path 900528" d="M193.767,14.36H177.573a1.1,1.1,0,0,1-1.1-1.1V8.6a1.1,1.1,0,0,1,1.1-1.1h16.194a1.1,1.1,0,0,1,1.1,1.1V13.26a1.1,1.1,0,0,1-1.1,1.1Z" transform="translate(-165.38 -7.5)" fill="#7da2b0"/>
        <path id="Path_900529" data-name="Path 900529" d="M317.475,8.6V13.26a1.1,1.1,0,0,1-1.1,1.1h-2.994a1.1,1.1,0,0,0,1.1-1.1V8.6a1.1,1.1,0,0,0-1.1-1.1h2.994A1.1,1.1,0,0,1,317.475,8.6Z" transform="translate(-287.989 -7.499)" fill="#688d97"/>
        <g id="Group_1111626" data-name="Group 1111626" transform="translate(11.704 11.802)">
          <path id="Path_900530" data-name="Path 900530" d="M232.118,170.57a2.278,2.278,0,0,0-4.512.113,2.529,2.529,0,0,1-.847,1.623,2.278,2.278,0,0,0,2.334,3.829,2.539,2.539,0,0,1,1.844,0,2.278,2.278,0,0,0,2.179-3.955A2.5,2.5,0,0,1,232.118,170.57Z" transform="translate(-221.428 -163.627)" fill="#5bbd93"/>
          <g id="Group_1111625" data-name="Group 1111625">
            <path id="Path_900531" data-name="Path 900531" d="M253.448,174.221a2.28,2.28,0,0,1-3.094,1.913l-.025-.009a2.274,2.274,0,0,0-.258-3.437,2.5,2.5,0,0,1-1-1.612,2.27,2.27,0,0,0-.767-1.367,2.244,2.244,0,0,0-.633-.383c.039-.04.08-.078.123-.116a2.277,2.277,0,0,1,3.74,1.357,2.508,2.508,0,0,0,1,1.612A2.278,2.278,0,0,1,253.448,174.221Z" transform="translate(-240.846 -163.625)" fill="#2db181"/>
            <g id="Group_1111623" data-name="Group 1111623" transform="translate(4.07)">
              <circle id="Ellipse_11794" data-name="Ellipse 11794" cx="1.626" cy="1.626" r="1.626" fill="#2db181"/>
              <circle id="Ellipse_11795" data-name="Ellipse 11795" cx="1.626" cy="1.626" r="1.626" transform="translate(5.781)" fill="#2db181"/>
            </g>
            <g id="Group_1111624" data-name="Group 1111624" transform="translate(0 3.913)">
              <circle id="Ellipse_11796" data-name="Ellipse 11796" cx="1.626" cy="1.626" r="1.626" fill="#2db181"/>
              <circle id="Ellipse_11797" data-name="Ellipse 11797" cx="1.626" cy="1.626" r="1.626" transform="translate(13.92)" fill="#2db181"/>
            </g>
          </g>
        </g>
      </g>
      <g id="Group_1111628" data-name="Group 1111628" transform="translate(62.76 0)">
        <path id="Path_900532" data-name="Path 900532" d="M102.343,43.236a.783.783,0,0,0,.783-.783V3.533a1.885,1.885,0,0,0-1.883-1.883H93.8A1.885,1.885,0,0,0,91.93,0H88.449a.783.783,0,1,0,0,1.567H91.93a.317.317,0,0,1,.316.316V6.544a.317.317,0,0,1-.316.316H75.737a.317.317,0,0,1-.316-.316V1.883a.317.317,0,0,1,.316-.316H84.7A.783.783,0,1,0,84.7,0h-8.96a1.885,1.885,0,0,0-1.867,1.65H66.424a1.885,1.885,0,0,0-1.883,1.883V31.679a1.884,1.884,0,0,0-1.781,1.878v2.3a6.461,6.461,0,0,0,1.781,4.458V51.593a1.885,1.885,0,0,0,1.883,1.883h34.819a1.885,1.885,0,0,0,1.883-1.883V46.2a.783.783,0,0,0-1.567,0v5.388a.317.317,0,0,1-.316.316H66.424a.317.317,0,0,1-.316-.316V41.531a6.445,6.445,0,0,0,3.139.812H92.935a.8.8,0,0,0,.084,0A6.484,6.484,0,0,0,99.3,35.857V6.8a1.885,1.885,0,0,0-1.883-1.883h-3.6v-1.7h7.429a.317.317,0,0,1,.316.316v38.92a.783.783,0,0,0,.783.783Zm-33.1-2.459a4.925,4.925,0,0,1-4.92-4.92v-2.3a.317.317,0,0,1,.316-.316H86.132a.317.317,0,0,1,.316.316v2.3a6.474,6.474,0,0,0,2.264,4.92ZM97.413,6.48a.317.317,0,0,1,.316.316v29.06a4.946,4.946,0,0,1-4.811,4.919H92.91a4.927,4.927,0,0,1-4.5-2.984h2.381a.783.783,0,1,0,0-1.567H88.03c-.009-.122-.015-.244-.015-.368v-.882h2.779a.783.783,0,1,0,0-1.567H88.007a1.884,1.884,0,0,0-1.876-1.734H70.012V26.443a.783.783,0,0,0-1.567,0v5.231H66.108V3.533a.317.317,0,0,1,.316-.316h7.429v1.7H70.329A1.885,1.885,0,0,0,68.446,6.8V22.69a.783.783,0,0,0,1.567,0V6.8a.317.317,0,0,1,.316-.316h3.525v.064a1.885,1.885,0,0,0,1.883,1.883H91.93a1.885,1.885,0,0,0,1.883-1.883V6.48Z" transform="translate(-62.76 0)"/>
        <path id="Path_900533" data-name="Path 900533" d="M220.109,163.886a1.752,1.752,0,0,1-.587,1.122,3.041,3.041,0,0,0-1.024,2.541,3.074,3.074,0,0,0,2.835,2.806q.11.008.219.008a3.036,3.036,0,0,0,1.107-.208,1.756,1.756,0,0,1,1.276,0,3.041,3.041,0,0,0,1.323.2,3.079,3.079,0,0,0,2.835-2.773,3.048,3.048,0,0,0-1.228-2.742,1.717,1.717,0,0,1-.691-1.106,3.061,3.061,0,0,0-6.065.152Zm2.065-.8a1.494,1.494,0,0,1,2.453.891,3.275,3.275,0,0,0,1.305,2.117,1.495,1.495,0,0,1-1.429,2.6,3.318,3.318,0,0,0-2.412,0,1.494,1.494,0,0,1-1.531-2.513,3.316,3.316,0,0,0,1.107-2.125A1.493,1.493,0,0,1,222.174,163.091Z" transform="translate(-202.223 -144.33)"/>
        <path id="Path_900534" data-name="Path 900534" d="M216.193,117.811a2.41,2.41,0,1,0-2.41-2.41A2.412,2.412,0,0,0,216.193,117.811Zm0-3.252a.843.843,0,1,1-.843.843A.844.844,0,0,1,216.193,114.559Z" transform="translate(-198.009 -101.191)"/>
        <path id="Path_900535" data-name="Path 900535" d="M271.538,117.811a2.41,2.41,0,1,0-2.41-2.41A2.412,2.412,0,0,0,271.538,117.811Zm0-3.252a.843.843,0,1,1-.843.843A.844.844,0,0,1,271.538,114.559Z" transform="translate(-247.574 -101.191)"/>
        <path id="Path_900536" data-name="Path 900536" d="M177.226,155.278a2.41,2.41,0,1,0-2.41-2.41A2.412,2.412,0,0,0,177.226,155.278Zm0-3.253a.843.843,0,1,1-.843.843A.844.844,0,0,1,177.226,152.026Z" transform="translate(-163.112 -134.744)"/>
        <path id="Path_900537" data-name="Path 900537" d="M308.094,152.868a2.41,2.41,0,1,0,2.41-2.41A2.412,2.412,0,0,0,308.094,152.868Zm2.41-.843a.843.843,0,1,1-.843.843A.844.844,0,0,1,310.5,152.025Z" transform="translate(-282.47 -134.743)"/>
        <path id="Path_900538" data-name="Path 900538" d="M348.636,97.579a.783.783,0,0,0,.783.783h1.672a.783.783,0,1,0,0-1.567h-1.672A.783.783,0,0,0,348.636,97.579Z" transform="translate(-318.778 -86.686)"/>
        <path id="Path_900539" data-name="Path 900539" d="M198.313,32.84h0a.783.783,0,0,0,0,1.567h.015a.783.783,0,0,0,0-1.567Z" transform="translate(-183.45 -29.41)"/>
        <path id="Path_900540" data-name="Path 900540" d="M317.206,34.408h0a.783.783,0,0,0,0-1.567H317.2a.783.783,0,0,0,0,1.567Z" transform="translate(-289.922 -29.411)"/>
        <path id="Path_900541" data-name="Path 900541" d="M174.781,266.926H152.857a.783.783,0,1,0,0,1.567h21.923a.783.783,0,1,0,0-1.567Z" transform="translate(-142.746 -239.047)"/>
        <path id="Path_900542" data-name="Path 900542" d="M121.737,463.509a.783.783,0,1,0,0,1.567h1.647a.783.783,0,1,0,0-1.567Z" transform="translate(-114.876 -415.098)"/>
        <path id="Path_900543" data-name="Path 900543" d="M129.772,436.2a.783.783,0,0,0-.783-.783h-7.252a.783.783,0,0,0,0,1.567h7.252A.783.783,0,0,0,129.772,436.2Z" transform="translate(-114.875 -389.943)"/>
      </g>
    </g>
  </g>
</svg>
