<svg xmlns="http://www.w3.org/2000/svg" xmlns:xlink="http://www.w3.org/1999/xlink" width="109.652" height="109.652" viewBox="0 0 109.652 109.652">
  <defs>
    <filter id="Path_874925" x="0" y="0" width="109.652" height="109.652" filterUnits="userSpaceOnUse">
      <feOffset dy="3" input="SourceAlpha"/>
      <feGaussianBlur stdDeviation="3" result="blur"/>
      <feFlood flood-opacity="0.161"/>
      <feComposite operator="in" in2="blur"/>
      <feComposite in="SourceGraphic"/>
    </filter>
  </defs>
  <g id="Group_1111701" data-name="Group 1111701" transform="translate(-15795 9968)">
    <g id="Group_1111442" data-name="Group 1111442" transform="translate(14784.27 -13039)">
      <g transform="matrix(1, 0, 0, 1, 1010.73, 3071)" filter="url(#Path_874925)">
        <g id="Path_874925-2" data-name="Path 874925" transform="translate(9 6)" fill="#ffd63c">
          <path d="M 45.82614517211914 90.15280151367188 C 39.84149551391602 90.15280151367188 34.03665924072266 88.98104095458984 28.5728702545166 86.67005157470703 C 23.29473304748535 84.43759155273438 18.55415725708008 81.24130249023438 14.48283290863037 77.16998291015625 C 10.41150760650635 73.09866333007812 7.215232849121094 68.35809326171875 4.982757568359375 63.07994079589844 C 2.671770095825195 57.61616897583008 1.500007629394531 51.81131744384766 1.500007629394531 45.82666778564453 C 1.500007629394531 39.84149169921875 2.671770095825195 34.03665542602539 4.982757568359375 28.57286643981934 C 7.215232849121094 23.29472923278809 10.41150760650635 18.55415534973145 14.48283290863037 14.48283004760742 C 18.55415725708008 10.4115047454834 23.29473304748535 7.215229511260986 28.5728702545166 4.982754707336426 C 34.03665924072266 2.671766996383667 39.84149551391602 1.500004529953003 45.82614517211914 1.500004529953003 C 51.81079483032227 1.500004529953003 57.61564636230469 2.671766996383667 63.07942199707031 4.982754707336426 C 68.35756683349609 7.215229511260986 73.09814453125 10.4115047454834 77.16947174072266 14.48283004760742 C 81.24078369140625 18.55415534973145 84.43707275390625 23.29472923278809 86.66954803466797 28.57286643981934 C 88.98052978515625 34.03665542602539 90.15229797363281 39.84149169921875 90.15229797363281 45.82614135742188 C 90.15229797363281 51.81131744384766 88.98052978515625 57.61616897583008 86.66954803466797 63.07994079589844 C 84.43707275390625 68.35809326171875 81.24078369140625 73.09866333007812 77.16947174072266 77.16998291015625 C 73.09814453125 81.24130249023438 68.35756683349609 84.43759155273438 63.07942199707031 86.67005157470703 C 57.61564636230469 88.98104095458984 51.81079483032227 90.15280151367188 45.82614517211914 90.15280151367188 Z" stroke="none"/>
          <path d="M 45.82614517211914 3.000007629394531 C 40.04333114624023 3.000007629394531 34.43508911132812 4.131904602050781 29.15720367431641 6.364265441894531 C 24.05784606933594 8.521102905273438 19.47753143310547 11.60944366455078 15.54348754882812 15.54348754882812 C 11.60944366455078 19.47753143310547 8.521102905273438 24.05784606933594 6.3642578125 29.15720367431641 C 4.131904602050781 34.43508911132812 3 40.0433349609375 3 45.82667541503906 C 3 51.60948944091797 4.131904602050781 57.21773147583008 6.3642578125 62.49562072753906 C 8.521102905273438 67.59497833251953 11.60944366455078 72.17527770996094 15.54348754882812 76.10932922363281 C 19.47753143310547 80.04337310791016 24.05784606933594 83.13170623779297 29.15718841552734 85.28854370117188 C 34.43508911132812 87.52090454101562 40.04333114624023 88.65280151367188 45.82614517211914 88.65280151367188 C 51.60895919799805 88.65280151367188 57.21720123291016 87.52090454101562 62.49510192871094 85.28854370117188 C 67.59444427490234 83.13170623779297 72.17475891113281 80.04337310791016 76.10880279541016 76.10932922363281 C 80.0428466796875 72.17527770996094 83.13118743896484 67.59497833251953 85.28803253173828 62.49562072753906 C 87.5203857421875 57.21773147583008 88.65229034423828 51.60948944091797 88.65229034423828 45.82614898681641 C 88.65229034423828 40.0433349609375 87.5203857421875 34.43508911132812 85.28803253173828 29.15720367431641 C 83.13118743896484 24.05784606933594 80.0428466796875 19.47753143310547 76.10880279541016 15.54348754882812 C 72.17475891113281 11.60944366455078 67.59444427490234 8.521102905273438 62.49508666992188 6.364265441894531 C 57.21720123291016 4.131904602050781 51.60895919799805 3.000007629394531 45.82614517211914 3.000007629394531 M 45.82614517211914 7.62939453125e-06 C 71.13523101806641 7.62939453125e-06 91.65229034423828 20.51705932617188 91.65229034423828 45.82614898681641 L 91.65229034423828 45.82667541503906 C 91.65229034423828 71.13575744628906 71.13523101806641 91.65280151367188 45.82614517211914 91.65280151367188 C 20.51705932617188 91.65280151367188 0 71.13575744628906 0 45.82667541503906 L 0 45.82614898681641 C 0 20.51705932617188 20.51705932617188 7.62939453125e-06 45.82614517211914 7.62939453125e-06 Z" stroke="none" fill="#fff"/>
        </g>
      </g>
    </g>
    <g id="Page-1" transform="translate(15830 -9942)">
      <g id="_024---Power-Station" data-name="024---Power-Station" transform="translate(0 0)">
        <path id="Shape" d="M38.25,55a1.693,1.693,0,0,1,0,3.386H2.693a1.693,1.693,0,0,1,0-3.386Z" transform="translate(-0.153 -8.437)" fill="#607d8b"/>
        <path id="Shape-2" data-name="Shape" d="M44.54,55H42a1.693,1.693,0,0,1,0,3.386h2.54a1.693,1.693,0,0,0,0-3.386Z" transform="translate(-6.443 -8.437)" fill="#37474f"/>
        <path id="Shape-3" data-name="Shape" d="M38.25,22.386H2.693a1.693,1.693,0,1,1,0-3.386H38.25a1.693,1.693,0,0,1,0,3.386Z" transform="translate(-0.153 -2.915)" fill="#607d8b"/>
        <path id="Shape-4" data-name="Shape" d="M44.54,19H42a1.693,1.693,0,0,1,0,3.386h2.54a1.693,1.693,0,0,0,0-3.386Z" transform="translate(-6.443 -2.915)" fill="#37474f"/>
        <path id="Rectangle-path" d="M5,23H37.171V50.091H5Z" transform="translate(-0.767 -3.528)" fill="#ff9801"/>
        <path id="Rectangle-path-2" data-name="Rectangle-path" d="M40,23h2.54V50.091H40Z" transform="translate(-6.136 -3.528)" fill="#f57c00"/>
        <path id="Shape-5" data-name="Shape" d="M20.1,31.032,11.406,44.1a2.354,2.354,0,0,0,1.9,3.674H30.709a2.354,2.354,0,0,0,1.9-3.674L23.911,31.032a2.269,2.269,0,0,0-3.81,0Z" transform="translate(-1.688 -4.601)" fill="#ffdc00"/>
        <path id="Rectangle-path-3" data-name="Rectangle-path" d="M8,15h3.386v3.386H8Z" transform="translate(-1.227 -2.301)" fill="#37474f"/>
        <path id="Shape-6" data-name="Shape" d="M10.925,11l2.294,1.939a.847.847,0,0,1-.6,1.448H5.846a.847.847,0,0,1-.6-1.448L7.539,11Z" transform="translate(-0.766 -1.687)" fill="#d84315"/>
        <path id="Shape-7" data-name="Shape" d="M10.925,7,13.22,8.939a.847.847,0,0,1-.6,1.448H5.846a.847.847,0,0,1-.6-1.448L7.539,7Z" transform="translate(-0.766 -1.074)" fill="#ff5722"/>
        <path id="Shape-8" data-name="Shape" d="M10.612,3a.847.847,0,0,1,.55.2L13.22,4.939a.847.847,0,0,1-.6,1.448H5.846a.847.847,0,0,1-.6-1.448L7.3,3.246A.847.847,0,0,1,7.852,3Z" transform="translate(-0.766 -0.46)" fill="#ff9801"/>
        <path id="Rectangle-path-4" data-name="Rectangle-path" d="M36,15h3.386v3.386H36Z" transform="translate(-5.522 -2.301)" fill="#37474f"/>
        <path id="Shape-9" data-name="Shape" d="M38.925,11l2.294,1.939a.847.847,0,0,1-.6,1.448H33.846a.847.847,0,0,1-.6-1.448L35.539,11Z" transform="translate(-5.061 -1.687)" fill="#d84315"/>
        <path id="Shape-10" data-name="Shape" d="M38.925,7,41.22,8.939a.847.847,0,0,1-.6,1.448H33.846a.847.847,0,0,1-.6-1.448L35.539,7Z" transform="translate(-5.061 -1.074)" fill="#ff5722"/>
        <path id="Shape-11" data-name="Shape" d="M38.612,3a.847.847,0,0,1,.55.2L41.22,4.939a.847.847,0,0,1-.6,1.448H33.846a.847.847,0,0,1-.6-1.448L35.3,3.246A.847.847,0,0,1,35.852,3Z" transform="translate(-5.061 -0.46)" fill="#ff9801"/>
        <path id="Rectangle-path-5" data-name="Rectangle-path" d="M22,15h3.386v3.386H22Z" transform="translate(-3.375 -2.301)" fill="#37474f"/>
        <path id="Shape-12" data-name="Shape" d="M24.925,11l2.294,1.939a.847.847,0,0,1-.6,1.448H19.846a.847.847,0,0,1-.6-1.448L21.539,11Z" transform="translate(-2.914 -1.687)" fill="#d84315"/>
        <path id="Shape-13" data-name="Shape" d="M24.925,7,27.22,8.939a.847.847,0,0,1-.6,1.448H19.846a.847.847,0,0,1-.6-1.448L21.539,7Z" transform="translate(-2.914 -1.074)" fill="#ff5722"/>
        <path id="Shape-14" data-name="Shape" d="M24.612,3a.847.847,0,0,1,.55.2L27.22,4.939a.847.847,0,0,1-.6,1.448H19.846a.847.847,0,0,1-.6-1.448L21.3,3.246A.847.847,0,0,1,21.852,3Z" transform="translate(-2.914 -0.46)" fill="#ff9801"/>
        <g id="Group_1111700" data-name="Group 1111700">
          <path id="Shape-15" data-name="Shape" d="M24.462,30.406a3.124,3.124,0,0,0-5.215,0l-8.7,13.071a3.242,3.242,0,0,0-.152,3.3,3.1,3.1,0,0,0,2.76,1.693H30.557a3.1,3.1,0,0,0,2.76-1.693,3.242,3.242,0,0,0-.152-3.327ZM31.827,46a1.422,1.422,0,0,1-1.27.779H13.151A1.422,1.422,0,0,1,11.881,46a1.524,1.524,0,0,1,.076-1.583l8.695-13.071a1.431,1.431,0,0,1,2.4,0l8.695,13.071A1.524,1.524,0,0,1,31.827,46Z" transform="translate(-1.536 -4.449)"/>
          <path id="Shape-16" data-name="Shape" d="M25.081,40.221H22.347l1.769-2.955a.847.847,0,1,0-1.456-.847l-2.54,4.233a.847.847,0,0,0,.728,1.261h2.735l-1.769,2.955a.846.846,0,1,0,1.456.864l2.54-4.233a.847.847,0,0,0-.728-1.278Z" transform="translate(-3.07 -5.51)"/>
          <path id="Shape-17" data-name="Shape" d="M25.271,5.731a1.693,1.693,0,0,0-.423-1.9L22.8,2.1a1.693,1.693,0,0,0-1.1-.406h-.533V.847a.847.847,0,0,0-1.693,0v.847h-.533a1.693,1.693,0,0,0-1.1.4l-2.1,1.795a1.693,1.693,0,0,0,.677,2.8l-.677.584a1.693,1.693,0,0,0,.677,2.8l-.677.584a1.693,1.693,0,0,0,1.194,2.887h.847v1.693H11.006V13.546h.847A1.689,1.689,0,0,0,13,10.608l-.626-.533A1.682,1.682,0,0,0,13,7.221l-.626-.533A1.682,1.682,0,0,0,13,3.835L10.947,2.1a1.693,1.693,0,0,0-1.1-.406H9.313V.847a.847.847,0,0,0-1.693,0v.847H7.086a1.693,1.693,0,0,0-1.1.4l-2.1,1.795a1.693,1.693,0,0,0,.677,2.8l-.677.584a1.693,1.693,0,0,0,.677,2.8l-.677.584A1.693,1.693,0,0,0,5.08,13.546h.847v1.693H2.54a2.54,2.54,0,0,0,0,5.08h.847v25.4H2.54a2.54,2.54,0,0,0,0,5.08H38.1a2.54,2.54,0,0,0,0-5.08H37.25v-25.4H38.1a2.54,2.54,0,0,0,0-5.08H34.711V13.546h.847A1.689,1.689,0,0,0,36.7,10.608l-.626-.533A1.682,1.682,0,0,0,36.7,7.221l-.626-.533A1.682,1.682,0,0,0,36.7,3.835L34.651,2.1a1.693,1.693,0,0,0-1.1-.406h-.533V.847a.847.847,0,0,0-1.693,0v.847h-.533a1.693,1.693,0,0,0-1.1.4l-2.1,1.795a1.693,1.693,0,0,0,.677,2.8l-.677.584a1.693,1.693,0,0,0,.677,2.8l-.677.584a1.693,1.693,0,0,0,1.194,2.887h.847v1.693H22.858V13.546H23.7a1.689,1.689,0,0,0,1.143-2.938l-.626-.533a1.682,1.682,0,0,0,.626-2.853l-.626-.533a1.693,1.693,0,0,0,1.05-.957ZM18.938,3.386H21.7L23.7,5.08l-6.824.051ZM23.7,8.466l-6.824.051,2.057-1.744H21.7ZM5.029,8.517,7.086,6.773h2.76l2.006,1.693Zm2.057-5.13h2.76L11.852,5.08,5.029,5.13ZM5.029,11.9l2.057-1.744h2.76l2.006,1.693Zm2.591,1.642H9.313v1.693H7.619ZM35.557,45.716H13.546a.847.847,0,0,0,0,1.693H38.1a.847.847,0,0,1,0,1.693H2.54a.847.847,0,1,1,0-1.693H9.313a.847.847,0,0,0,0-1.693H5.08v-25.4h2.54v1.693a.847.847,0,0,0,1.693,0V20.318H19.472v1.693a.847.847,0,0,0,1.693,0V20.318H31.324v1.693a.847.847,0,0,0,1.693,0V20.318h2.54Zm3.386-27.938a.847.847,0,0,1-.847.847H2.54a.847.847,0,0,1,0-1.693H38.1A.847.847,0,0,1,38.944,17.779ZM28.734,8.517l2.057-1.744h2.76l2.006,1.693Zm2.057-5.13h2.76L35.557,5.08l-6.824.051ZM28.734,11.9l2.057-1.744h2.76l2.006,1.693c-2.6,0-2.057,0-6.824.051Zm2.591,1.642h1.693v1.693H31.324ZM21.165,15.239H19.472V13.546h1.693ZM16.881,11.9l2.057-1.744H21.7L23.7,11.852c-2.6,0-2.057,0-6.824.051Z" transform="translate(0 0)"/>
        </g>
      </g>
    </g>
  </g>
</svg>
