<svg xmlns="http://www.w3.org/2000/svg" xmlns:xlink="http://www.w3.org/1999/xlink" width="109.652" height="109.652" viewBox="0 0 109.652 109.652">
  <defs>
    <filter id="Path_874925" x="0" y="0" width="109.652" height="109.652" filterUnits="userSpaceOnUse">
      <feOffset dy="3" input="SourceAlpha"/>
      <feGaussianBlur stdDeviation="3" result="blur"/>
      <feFlood flood-opacity="0.161"/>
      <feComposite operator="in" in2="blur"/>
      <feComposite in="SourceGraphic"/>
    </filter>
  </defs>
  <g id="Group_1111522" data-name="Group 1111522" transform="translate(-1164 -1367)">
    <g id="Group_1111359" data-name="Group 1111359" transform="translate(153.27 -1704)">
      <g transform="matrix(1, 0, 0, 1, 1010.73, 3071)" filter="url(#Path_874925)">
        <g id="Path_874925-2" data-name="Path 874925" transform="translate(9 6)" fill="#ffd63c">
          <path d="M 45.82614517211914 90.15280151367188 C 39.84149551391602 90.15280151367188 34.03665924072266 88.98104095458984 28.5728702545166 86.67005157470703 C 23.29473304748535 84.43759155273438 18.55415725708008 81.24130249023438 14.48283290863037 77.16998291015625 C 10.41150760650635 73.09866333007812 7.215232849121094 68.35809326171875 4.982757568359375 63.07994079589844 C 2.671770095825195 57.61616897583008 1.500007629394531 51.81131744384766 1.500007629394531 45.82666778564453 C 1.500007629394531 39.84149169921875 2.671770095825195 34.03665542602539 4.982757568359375 28.57286643981934 C 7.215232849121094 23.29472923278809 10.41150760650635 18.55415534973145 14.48283290863037 14.48283004760742 C 18.55415725708008 10.4115047454834 23.29473304748535 7.215229511260986 28.5728702545166 4.982754707336426 C 34.03665924072266 2.671766996383667 39.84149551391602 1.500004529953003 45.82614517211914 1.500004529953003 C 51.81079483032227 1.500004529953003 57.61564636230469 2.671766996383667 63.07942199707031 4.982754707336426 C 68.35756683349609 7.215229511260986 73.09814453125 10.4115047454834 77.16947174072266 14.48283004760742 C 81.24078369140625 18.55415534973145 84.43707275390625 23.29472923278809 86.66954803466797 28.57286643981934 C 88.98052978515625 34.03665542602539 90.15229797363281 39.84149169921875 90.15229797363281 45.82614135742188 C 90.15229797363281 51.81131744384766 88.98052978515625 57.61616897583008 86.66954803466797 63.07994079589844 C 84.43707275390625 68.35809326171875 81.24078369140625 73.09866333007812 77.16947174072266 77.16998291015625 C 73.09814453125 81.24130249023438 68.35756683349609 84.43759155273438 63.07942199707031 86.67005157470703 C 57.61564636230469 88.98104095458984 51.81079483032227 90.15280151367188 45.82614517211914 90.15280151367188 Z" stroke="none"/>
          <path d="M 45.82614517211914 3.000007629394531 C 40.04333114624023 3.000007629394531 34.43508911132812 4.131904602050781 29.15720367431641 6.364265441894531 C 24.05784606933594 8.521102905273438 19.47753143310547 11.60944366455078 15.54348754882812 15.54348754882812 C 11.60944366455078 19.47753143310547 8.521102905273438 24.05784606933594 6.3642578125 29.15720367431641 C 4.131904602050781 34.43508911132812 3 40.0433349609375 3 45.82667541503906 C 3 51.60948944091797 4.131904602050781 57.21773147583008 6.3642578125 62.49562072753906 C 8.521102905273438 67.59497833251953 11.60944366455078 72.17527770996094 15.54348754882812 76.10932922363281 C 19.47753143310547 80.04337310791016 24.05784606933594 83.13170623779297 29.15718841552734 85.28854370117188 C 34.43508911132812 87.52090454101562 40.04333114624023 88.65280151367188 45.82614517211914 88.65280151367188 C 51.60895919799805 88.65280151367188 57.21720123291016 87.52090454101562 62.49510192871094 85.28854370117188 C 67.59444427490234 83.13170623779297 72.17475891113281 80.04337310791016 76.10880279541016 76.10932922363281 C 80.0428466796875 72.17527770996094 83.13118743896484 67.59497833251953 85.28803253173828 62.49562072753906 C 87.5203857421875 57.21773147583008 88.65229034423828 51.60948944091797 88.65229034423828 45.82614898681641 C 88.65229034423828 40.0433349609375 87.5203857421875 34.43508911132812 85.28803253173828 29.15720367431641 C 83.13118743896484 24.05784606933594 80.0428466796875 19.47753143310547 76.10880279541016 15.54348754882812 C 72.17475891113281 11.60944366455078 67.59444427490234 8.521102905273438 62.49508666992188 6.364265441894531 C 57.21720123291016 4.131904602050781 51.60895919799805 3.000007629394531 45.82614517211914 3.000007629394531 M 45.82614517211914 7.62939453125e-06 C 71.13523101806641 7.62939453125e-06 91.65229034423828 20.51705932617188 91.65229034423828 45.82614898681641 L 91.65229034423828 45.82667541503906 C 91.65229034423828 71.13575744628906 71.13523101806641 91.65280151367188 45.82614517211914 91.65280151367188 C 20.51705932617188 91.65280151367188 0 71.13575744628906 0 45.82667541503906 L 0 45.82614898681641 C 0 20.51705932617188 20.51705932617188 7.62939453125e-06 45.82614517211914 7.62939453125e-06 Z" stroke="none" fill="#fff"/>
        </g>
      </g>
    </g>
    <g id="vaca-a" transform="translate(1190.993 1373.828)">
      <g id="Group_1111519" data-name="Group 1111519" transform="translate(0.747 19.995)">
        <path id="Path_900368" data-name="Path 900368" d="M18.492,109.467a3.107,3.107,0,0,0-3.924-1.962,5.609,5.609,0,0,0-3.293,2.124,6.135,6.135,0,0,1-3.663,2.129,1.1,1.1,0,0,0-.688,1.664c1.274,1.977,3.946,4.981,7.438,2.653C19.318,112.772,18.492,109.467,18.492,109.467Z" transform="translate(-6.748 -98.535)" fill="#5f7080"/>
        <path id="Path_900369" data-name="Path 900369" d="M309.577,384.068h5.782v-9.086h-7.434Z" transform="translate(-274.884 -336.77)" fill="#ffe0b7"/>
        <path id="Path_900370" data-name="Path 900370" d="M119.594,362.98v10.4h-5.783l-.933-5.871s2-1.289-.72-4.532Z" transform="translate(-100.595 -326.085)" fill="#ffe0b7"/>
        <path id="Path_900371" data-name="Path 900371" d="M119.594,362.98v3.892a17.692,17.692,0,0,1-6.715.64l-.72-4.532Z" transform="translate(-100.595 -326.085)" fill="#ffd9a0"/>
        <path id="Path_900372" data-name="Path 900372" d="M151.116,189.671h-5.089l-1.038-5.708a1.1,1.1,0,0,0-1.079-.9H130.468a.963.963,0,0,0-.962.962v5.647h-5.783l-1.038-5.708a1.1,1.1,0,0,0-1.078-.9h-1.782a7.667,7.667,0,0,1-7.666-7.666V156.63c6.336,5.675,19.819.063,19.819.063l0-.063H135.6l15.777,15.375a62.9,62.9,0,0,0,.317,16.982A.591.591,0,0,1,151.116,189.671Z" transform="translate(-100.595 -142.373)" fill="#ffebce"/>
        <path id="Path_900373" data-name="Path 900373" d="M131.981,156.63c0,.021,0,.042,0,.063,0,.066,0,.132-.005.2,0,.034,0,.067-.005.1-.005.07-.012.139-.021.208l-.01.086c-.014.093-.03.185-.048.278a.055.055,0,0,0,0,.013c-.021.1-.045.191-.071.285-.009.031-.019.063-.029.093-.019.063-.038.124-.06.185l-.043.113q-.031.081-.066.161c-.018.039-.034.079-.053.117s-.05.1-.077.154-.038.076-.058.113c-.035.063-.072.124-.11.184-.013.022-.025.045-.04.067q-.337.523-.7.994a13.355,13.355,0,0,1-.988,1.169c-.147.154-.3.3-.445.445.029.129.056.26.081.392a14.737,14.737,0,0,1,.247,1.982c.015.285.024.57.024.858v9.087c0,.023,0,.047,0,.07s0,.068,0,.1A6.616,6.616,0,0,1,128.4,177.8c-1.783,2.738-5.348,4.306-8.474,5.267h-.1a7.667,7.667,0,0,1-7.666-7.666V156.63Z" transform="translate(-100.595 -142.373)" fill="#ffe0b7"/>
        <path id="Path_900374" data-name="Path 900374" d="M155.283,109.467a3.107,3.107,0,0,1,3.924-1.962,5.609,5.609,0,0,1,3.293,2.124,6.135,6.135,0,0,0,3.663,2.129,1.1,1.1,0,0,1,.688,1.664c-1.274,1.977-3.946,4.981-7.438,2.653C154.457,112.772,155.283,109.467,155.283,109.467Z" transform="translate(-138.942 -98.535)" fill="#6b7d8e"/>
        <path id="Path_900375" data-name="Path 900375" d="M73.542,67.441a8.428,8.428,0,0,0-6.111-7.676,1.1,1.1,0,0,0-1.23,1.672c1.759,2.526,4,6.618,2.385,9.308C66.108,74.875,73.542,67.441,73.542,67.441Z" transform="translate(-59.5 -56.085)" fill="#fad989"/>
        <path id="Path_900376" data-name="Path 900376" d="M134.748,67.441a8.428,8.428,0,0,1,6.111-7.676,1.1,1.1,0,0,1,1.23,1.672c-1.759,2.526-4,6.618-2.385,9.308C142.182,74.875,134.748,67.441,134.748,67.441Z" transform="translate(-120.706 -56.085)" fill="#fce3a0"/>
        <path id="Path_900377" data-name="Path 900377" d="M218.293,219.483a4.13,4.13,0,1,1-6.22-3.789,3.3,3.3,0,1,1,4.573-3.135c0,.027,0,.056,0,.084s0,.081,0,.122a3.259,3.259,0,0,1-.086.635,3.582,3.582,0,0,0,.086,1.913,4.021,4.021,0,0,0,.724,1.329A4.111,4.111,0,0,1,218.293,219.483Z" transform="translate(-187.737 -189.3)" fill="#6b7d8e"/>
        <path id="Path_900378" data-name="Path 900378" d="M216.645,212.558V220.9c0,.023,0,.047,0,.07s0,.068,0,.1a6.453,6.453,0,0,1-.206,1.62,4.127,4.127,0,1,1-4.366-7,3.3,3.3,0,1,1,4.573-3.135Z" transform="translate(-187.737 -189.3)" fill="#5f7080"/>
        <path id="Path_900379" data-name="Path 900379" d="M84.628,138.074v9.087H72.558c-15.374-10.048-.975-20.557-.975-20.557a11.571,11.571,0,0,1,13.045,11.47Z" transform="translate(-59.022 -115.557)" fill="#fff4e5"/>
        <path id="Path_900380" data-name="Path 900380" d="M40.4,147.927H29.339V138.84a11.567,11.567,0,0,1,10.083-11.47C38.4,132.548,37.457,141.1,40.4,147.927Z" transform="translate(-26.861 -116.323)" fill="#ffebce"/>
        <path id="Path_900381" data-name="Path 900381" d="M116.6,261.291c0,3.056-4.336,4.912-7.7,5.891h0c-11.965-3.022-6.081-12.594-6.081-12.594.716-.053,1.457-.078,2.215-.078C111.422,254.51,116.6,256.3,116.6,261.291Z" transform="translate(-90.993 -229.515)" fill="#eaaa83"/>
        <path id="Path_900382" data-name="Path 900382" d="M44.769,267.814a14,14,0,0,1-7.733,0c-3.361-.98-7.7-2.835-7.7-5.891,0-4.4,4.022-6.311,9.349-6.7C39.286,259.927,40.989,264.561,44.769,267.814Z" transform="translate(-26.861 -230.147)" fill="#e4996d"/>
        <path id="Path_900383" data-name="Path 900383" d="M166.518,296.289h0a1.652,1.652,0,0,0,1.652-1.652v-.826a1.652,1.652,0,0,0-1.652-1.652h0a1.652,1.652,0,0,0-1.652,1.652v.826A1.652,1.652,0,0,0,166.518,296.289Z" transform="translate(-147.52 -263.034)" fill="#6b7d8e"/>
        <path id="Path_900384" data-name="Path 900384" d="M68.635,296.289h0a1.652,1.652,0,0,0,1.652-1.652v-.826a1.652,1.652,0,0,0-1.652-1.652h0a1.652,1.652,0,0,0-1.652,1.652v.826A1.652,1.652,0,0,0,68.635,296.289Z" transform="translate(-60.375 -263.034)" fill="#5f7080"/>
        <path id="Path_900385" data-name="Path 900385" d="M407.194,454.407h4.292a1.646,1.646,0,0,0,1.646-1.646v-1.936a.549.549,0,0,0-.549-.549H408.55a2.743,2.743,0,0,0-2.743,2.743h0A1.387,1.387,0,0,0,407.194,454.407Z" transform="translate(-362.028 -403.805)" fill="#6b7d8e"/>
        <path id="Path_900386" data-name="Path 900386" d="M309.312,454.407h4.4a1.646,1.646,0,0,0,1.646-1.646v-1.936a.549.549,0,0,0-.549-.549h-4.143a2.743,2.743,0,0,0-2.743,2.743h0A1.387,1.387,0,0,0,309.312,454.407Z" transform="translate(-274.884 -403.805)" fill="#6b7d8e"/>
        <path id="Path_900387" data-name="Path 900387" d="M203.9,454.407h4.4a1.646,1.646,0,0,0,1.646-1.646v-1.936a.549.549,0,0,0-.549-.549h-4.143a2.743,2.743,0,0,0-2.743,2.743h0A1.387,1.387,0,0,0,203.9,454.407Z" transform="translate(-181.036 -403.805)" fill="#6b7d8e"/>
        <path id="Path_900388" data-name="Path 900388" d="M113.547,454.407h4.4a1.646,1.646,0,0,0,1.646-1.646v-1.936a.549.549,0,0,0-.549-.549H114.9a2.743,2.743,0,0,0-2.743,2.743h0A1.387,1.387,0,0,0,113.547,454.407Z" transform="translate(-100.596 -403.805)" fill="#6b7d8e"/>
        <path id="Path_900389" data-name="Path 900389" d="M340.909,168.951l-.133.874q-.166,1.088-.294,2.18c-.274.1-.538.178-.789.249a5.2,5.2,0,0,1-6.08-2.822,8.533,8.533,0,0,0-.992-1.591,6.826,6.826,0,0,0-3.681-2.341c-4.5-1.164-4.631-5.9-4.236-8.871h3.883A12.321,12.321,0,0,1,340.909,168.951Z" transform="translate(-289.696 -142.373)" fill="#6b7d8e"/>
        <path id="Path_900390" data-name="Path 900390" d="M318.088,284.634a2.494,2.494,0,0,1,2.286,2.05l0,.024a.635.635,0,0,0,.791.522,3.3,3.3,0,1,1-2.374,3.675q-.022-.152-.031-.3a1.082,1.082,0,0,0-1.01-1.023l-.029,0a2.478,2.478,0,0,1,.362-4.943Z" transform="translate(-281.587 -256.33)" fill="#6b7d8e"/>
        <path id="Path_900391" data-name="Path 900391" d="M442.043,28.11a9.335,9.335,0,0,0-2.729-1.335,1.646,1.646,0,0,0-2.11,2.11,9.336,9.336,0,0,0,1.335,2.729,2.478,2.478,0,1,0,3.5-3.5Z" transform="translate(-389.889 -26.672)" fill="#6b7d8e"/>
      </g>
      <g id="Group_1111521" data-name="Group 1111521" transform="translate(0.007 19.172)">
        <path id="Trazado_900392" data-name="Trazado 900392" d="M451.064,79.893a.823.823,0,0,1-.5-1.476c.043-.033,4.315-3.357,4.731-7.665a7.786,7.786,0,0,0-2.218-6,.823.823,0,0,1,1.233-1.09,9.361,9.361,0,0,1,2.623,7.254c-.49,5.025-5.169,8.652-5.368,8.8A.819.819,0,0,1,451.064,79.893Z" transform="translate(-400.848 -58.537)"/>
        <path id="Trazado_900393" data-name="Trazado 900393" d="M4.223,107.7a.82.82,0,0,1-.346-.077,9.246,9.246,0,0,1-3.564-3.412,1.919,1.919,0,0,1,1.206-2.914A5.348,5.348,0,0,0,4.7,99.474a6.432,6.432,0,0,1,3.778-2.435,5.754,5.754,0,0,1,1.058-.131.823.823,0,1,1,.041,1.645,4.109,4.109,0,0,0-.754.095,4.786,4.786,0,0,0-2.809,1.815A6.953,6.953,0,0,1,1.866,102.9a.264.264,0,0,0-.192.161.269.269,0,0,0,.023.254,7.653,7.653,0,0,0,2.873,2.81.823.823,0,0,1-.347,1.569Z" transform="translate(-0.007 -88.38)"/>
        <path id="Trazado_900394" data-name="Trazado 900394" d="M369.76,395.322a.823.823,0,0,1-.823-.823v-6.609a.823.823,0,1,1,1.646,0V394.5A.823.823,0,0,1,369.76,395.322Z" transform="translate(-328.463 -346.708)"/>
        <path id="Línea_564" data-name="Línea 564" d="M-5.579.2a.823.823,0,0,1-.809-.676l-1.1-6.055a.823.823,0,0,1,.662-.957.823.823,0,0,1,.957.662l1.1,6.055a.823.823,0,0,1-.662.957A.828.828,0,0,1-5.579.2Z" transform="translate(40.992 47.861)"/>
        <path id="Línea_565" data-name="Línea 565" d="M-5.2,2.882a.823.823,0,0,1-.81-.685L-7.489-6.541a.823.823,0,0,1,.674-.949.823.823,0,0,1,.949.674l1.481,8.737a.823.823,0,0,1-.674.949A.829.829,0,0,1-5.2,2.882Z" transform="translate(19.141 45.177)"/>
        <path id="Trazado_900395" data-name="Trazado 900395" d="M174,395.251a.823.823,0,0,1-.823-.823v-6.617a.823.823,0,0,1,1.646,0v6.617A.823.823,0,0,1,174,395.251Z" transform="translate(-154.179 -346.636)"/>
        <path id="Trazado_900396" data-name="Trazado 900396" d="M125.666,366.071h-.38a.823.823,0,0,1-.26-.042.832.832,0,0,1-.53-1.044.816.816,0,0,1,.875-.559h.295a.823.823,0,1,1,0,1.646Z" transform="translate(-110.802 -326.543)"/>
        <path id="Trazado_900397" data-name="Trazado 900397" d="M134.713,374.623a.823.823,0,0,1-.809-.676l-.936-5.154a.275.275,0,0,0-.27-.225h-1.647c-.135,0-.269,0-.4-.01a8.568,8.568,0,0,1-5.9-2.73.823.823,0,0,1,1.177-1.149l0,0a6.954,6.954,0,0,0,4.795,2.232c.109,0,.218.008.329.008H132.7a1.92,1.92,0,0,1,1.889,1.575l.936,5.155a.823.823,0,0,1-.811.97Z" transform="translate(-110.865 -326.563)"/>
        <path id="Trazado_900398" data-name="Trazado 900398" d="M279.08,169.72h-.01a.823.823,0,0,1-.813-.833,63.95,63.95,0,0,1,.43-6.658q.128-1.1.3-2.208l.123-.811a11.512,11.512,0,0,0-11.5-11.437H256.8a.823.823,0,0,1,0-1.646h10.809a13.159,13.159,0,0,1,13.144,13.144.828.828,0,0,1-.009.123l-.133.874q-.164,1.074-.29,2.151a62.308,62.308,0,0,0-.419,6.487A.823.823,0,0,1,279.08,169.72Z" transform="translate(-227.896 -132.2)"/>
        <path id="Trazado_900399" data-name="Trazado 900399" d="M460.985,384.908a.823.823,0,0,1-.812-.7,64,64,0,0,1-.681-7.055.823.823,0,1,1,1.644-.067,62.332,62.332,0,0,0,.663,6.873.824.824,0,0,1-.814.947Z" transform="translate(-409.083 -337.119)"/>
        <path id="Trazado_900400" data-name="Trazado 900400" d="M264.35,395.322a.823.823,0,0,1-.823-.823v-5.512a1.922,1.922,0,0,1,1.92-1.92h13.306a1.918,1.918,0,0,1,1.889,1.577l.937,5.153a.823.823,0,1,1-1.619.294l-.937-5.154a.274.274,0,0,0-.27-.225H265.447a.275.275,0,0,0-.274.274V394.5A.823.823,0,0,1,264.35,395.322Z" transform="translate(-234.617 -346.708)"/>
        <path id="Trazado_900401" data-name="Trazado 900401" d="M182.612,107.7a.823.823,0,0,1-.347-1.569,7.653,7.653,0,0,0,2.874-2.81.268.268,0,0,0,.023-.254.264.264,0,0,0-.193-.161,6.953,6.953,0,0,1-4.147-2.438,4.781,4.781,0,0,0-2.809-1.815,4.109,4.109,0,0,0-.754-.095.823.823,0,0,1,.041-1.645,5.754,5.754,0,0,1,1.058.131,6.426,6.426,0,0,1,3.778,2.435,5.348,5.348,0,0,0,3.178,1.818,1.918,1.918,0,0,1,1.206,2.915,9.245,9.245,0,0,1-3.564,3.411A.82.82,0,0,1,182.612,107.7Z" transform="translate(-157.099 -88.38)"/>
        <path id="Trazado_900402" data-name="Trazado 900402" d="M63.165,59.068a.823.823,0,0,1-.817-.732,14.928,14.928,0,0,0-2.761-6.1,1.919,1.919,0,0,1,2.157-2.925A9.26,9.26,0,0,1,68.4,57.281a.823.823,0,1,1-1.638.163,7.643,7.643,0,0,0-5.52-6.571.249.249,0,0,0-.3.1.261.261,0,0,0-.007.322,16.476,16.476,0,0,1,3.046,6.863.823.823,0,0,1-.819.913Z" transform="translate(-52.74 -45.916)"/>
        <path id="Trazado_900403" data-name="Trazado 900403" d="M166.651,59.069a.823.823,0,0,1-.819-.913,16.476,16.476,0,0,1,3.046-6.863.261.261,0,0,0-.007-.322.249.249,0,0,0-.3-.1,9.239,9.239,0,0,0-1.833.81.823.823,0,1,1-.831-1.42,10.887,10.887,0,0,1,2.16-.956,1.919,1.919,0,0,1,2.157,2.925,14.929,14.929,0,0,0-2.762,6.1A.823.823,0,0,1,166.651,59.069Z" transform="translate(-147.348 -45.916)"/>
        <path id="Trazado_900404" data-name="Trazado 900404" d="M129.05,82.954q-.041,0-.082,0a.823.823,0,0,1-.737-.9,9.387,9.387,0,0,1,1.848-4.693.823.823,0,1,1,1.308,1,7.839,7.839,0,0,0-1.519,3.858A.823.823,0,0,1,129.05,82.954Z" transform="translate(-114.16 -70.685)"/>
        <path id="Trazado_900405" data-name="Trazado 900405" d="M229.443,214.523a4.937,4.937,0,0,1-1.817-.344.823.823,0,0,1,.6-1.531,3.308,3.308,0,0,0,3.779-5.167,4.571,4.571,0,0,1-.972-3.95,2.5,2.5,0,0,0,.065-.569,2.481,2.481,0,0,0-2.642-2.477.846.846,0,0,1-.9-.742.8.8,0,0,1,.691-.891l.1-.009a4.091,4.091,0,0,1,3.088,1.109,4.138,4.138,0,0,1,1.194,3.954,2.94,2.94,0,0,0,.645,2.533,4.952,4.952,0,0,1-3.695,8.081Z" transform="translate(-202.191 -179.125)"/>
        <path id="Trazado_900406" data-name="Trazado 900406" d="M23.41,138.3a.823.823,0,0,1-.823-.823V128.4a12.387,12.387,0,1,1,24.774,0v9.086H45.713l0-9.086a10.741,10.741,0,1,0-21.483,0v9.086A.823.823,0,0,1,23.41,138.3Z" transform="translate(-20.11 -105.385)"/>
        <path id="Trazado_900407" data-name="Trazado 900407" d="M34.973,258.873a14.645,14.645,0,0,1-4.1-.577c-5.423-1.58-8.29-3.89-8.29-6.682,0-4.9,4.4-7.6,12.387-7.6s12.387,2.7,12.387,7.6c0,2.792-2.867,5.1-8.29,6.682A14.645,14.645,0,0,1,34.973,258.873Zm0-13.216c-4.9,0-10.742,1.034-10.742,5.957,0,2.638,4.451,4.329,7.1,5.1a13.179,13.179,0,0,0,7.274,0c2.653-.773,7.1-2.463,7.1-5.1C45.715,246.69,39.873,245.657,34.973,245.657Z" transform="translate(-20.109 -219.345)"/>
        <g id="Group_1111520" data-name="Group 1111520" transform="translate(5.783 20.536)">
          <path id="Trazado_900408" data-name="Trazado 900408" d="M179.6,209.521a.823.823,0,0,1-.823-.823.687.687,0,1,0-1.375,0,.823.823,0,0,1-1.646,0,2.333,2.333,0,0,1,4.666,0A.823.823,0,0,1,179.6,209.521Z" transform="translate(-162.263 -206.365)"/>
          <path id="Trazado_900409" data-name="Trazado 900409" d="M56.56,209.521a.823.823,0,0,1-.823-.823.687.687,0,1,0-1.375,0,.823.823,0,0,1-1.646,0,2.333,2.333,0,1,1,4.666,0A.823.823,0,0,1,56.56,209.521Z" transform="translate(-52.717 -206.365)"/>
        </g>
        <path id="Trazado_900410" data-name="Trazado 900410" d="M160.591,287.435a2.478,2.478,0,0,1-2.475-2.475v-.826a2.475,2.475,0,0,1,4.95,0v.826A2.478,2.478,0,0,1,160.591,287.435Zm0-4.13a.83.83,0,0,0-.829.829v.826a.829.829,0,1,0,1.659,0v-.826A.83.83,0,0,0,160.591,283.3Z" transform="translate(-140.771 -252.863)"/>
        <path id="Trazado_900411" data-name="Trazado 900411" d="M62.708,287.435a2.478,2.478,0,0,1-2.475-2.475v-.826a2.475,2.475,0,1,1,4.95,0v.826A2.478,2.478,0,0,1,62.708,287.435Zm0-4.13a.83.83,0,0,0-.829.829v.826a.829.829,0,1,0,1.659,0v-.826A.83.83,0,0,0,62.708,283.3Z" transform="translate(-53.626 -252.863)"/>
        <path id="Trazado_900412" data-name="Trazado 900412" d="M307.786,445.553h-4.4a2.213,2.213,0,0,1-2.21-2.21,3.569,3.569,0,0,1,3.565-3.565h4.692a.823.823,0,0,1,.823.823v2.485A2.471,2.471,0,0,1,307.786,445.553Zm-3.046-4.13a1.922,1.922,0,0,0-1.92,1.92.565.565,0,0,0,.565.565h4.4a.824.824,0,0,0,.823-.823v-1.662Z" transform="translate(-268.135 -393.634)"/>
        <path id="Trazado_900413" data-name="Trazado 900413" d="M405.5,445.553h-4.4a2.213,2.213,0,0,1-2.21-2.21,3.569,3.569,0,0,1,3.565-3.565h4.143a1.373,1.373,0,0,1,1.371,1.371v1.936A2.471,2.471,0,0,1,405.5,445.553Zm-3.046-4.13a1.922,1.922,0,0,0-1.92,1.92.565.565,0,0,0,.565.565h4.4a.824.824,0,0,0,.823-.823v-1.662Z" transform="translate(-355.126 -393.634)"/>
        <path id="Trazado_900414" data-name="Trazado 900414" d="M202.374,445.553h-4.4a2.213,2.213,0,0,1-2.21-2.21,3.569,3.569,0,0,1,3.565-3.565h4.692a.823.823,0,0,1,.823.823v2.485A2.471,2.471,0,0,1,202.374,445.553Zm-3.046-4.13a1.922,1.922,0,0,0-1.92,1.92.565.565,0,0,0,.565.565h4.4a.824.824,0,0,0,.823-.823v-1.662Z" transform="translate(-174.287 -393.634)"/>
        <path id="Trazado_900415" data-name="Trazado 900415" d="M112.021,445.553h-4.4a2.213,2.213,0,0,1-2.21-2.21,3.569,3.569,0,0,1,3.565-3.565h4.692a.823.823,0,0,1,.823.823v2.485A2.471,2.471,0,0,1,112.021,445.553Zm-3.046-4.13a1.922,1.922,0,0,0-1.92,1.92.565.565,0,0,0,.565.565h4.4a.824.824,0,0,0,.823-.823v-1.662Z" transform="translate(-93.847 -393.634)"/>
        <path id="Trazado_900416" data-name="Trazado 900416" d="M332.354,163.591a6.066,6.066,0,0,1-5.444-3.48,7.738,7.738,0,0,0-.9-1.439,5.966,5.966,0,0,0-3.24-2.053c-3.829-.991-5.55-4.463-4.845-9.776a.823.823,0,0,1,1.631.217c-.412,3.1-.117,7,3.626,7.966a7.6,7.6,0,0,1,4.121,2.629,9.39,9.39,0,0,1,1.087,1.744,4.374,4.374,0,0,0,5.113,2.385c.236-.067.484-.145.743-.235a.823.823,0,1,1,.541,1.554c-.29.1-.569.188-.835.263A5.869,5.869,0,0,1,332.354,163.591Z" transform="translate(-282.912 -132.201)"/>
        <path id="Trazado_900417" data-name="Trazado 900417" d="M312,274.13q.1,0,.206.006a3.333,3.333,0,0,1,3.015,2.576,3.992,3.992,0,0,1,1.2-.094,4.163,4.163,0,0,1,3.836,3.966,4.127,4.127,0,0,1-4.124,4.278,4.242,4.242,0,0,1-.5-.029,4.117,4.117,0,0,1-3.585-3.485q-.028-.189-.038-.375a.26.26,0,0,0-.246-.25,3.317,3.317,0,0,1-3.06-3.115,3.275,3.275,0,0,1,.9-2.449A3.315,3.315,0,0,1,312,274.13Zm3.069,4.269a1.458,1.458,0,0,1-1.436-1.234,1.675,1.675,0,0,0-1.528-1.387l-.105,0a1.656,1.656,0,0,0-1.653,1.746,1.677,1.677,0,0,0,1.513,1.559,1.92,1.92,0,0,1,1.793,1.8q.007.114.023.229a2.482,2.482,0,0,0,4.933-.466,2.482,2.482,0,0,0-3.151-2.3A1.442,1.442,0,0,1,315.073,278.4Z" transform="translate(-274.837 -246.159)"/>
        <path id="Trazado_900418" data-name="Trazado 900418" d="M430.809,19.172h0a2.488,2.488,0,0,1,.853.152,8.264,8.264,0,0,1,3.03,1.526,3.3,3.3,0,0,1-4.668,4.668,8.264,8.264,0,0,1-1.526-3.03,2.432,2.432,0,0,1,.293-2.255A2.472,2.472,0,0,1,430.809,19.172Zm1.549,5.668a1.655,1.655,0,0,0,1.17-2.826,7.806,7.806,0,0,0-2.429-1.143.819.819,0,0,0-.961.307.8.8,0,0,0-.094.748,7.8,7.8,0,0,0,1.143,2.429A1.644,1.644,0,0,0,432.358,24.84Z" transform="translate(-381.354 -19.172)"/>
      </g>
    </g>
  </g>
</svg>
