<svg xmlns="http://www.w3.org/2000/svg" xmlns:xlink="http://www.w3.org/1999/xlink" width="109.652" height="109.653" viewBox="0 0 109.652 109.653">
  <defs>
    <filter id="Path_874925" x="0" y="0" width="109.652" height="109.653" filterUnits="userSpaceOnUse">
      <feOffset dy="3" input="SourceAlpha"/>
      <feGaussianBlur stdDeviation="3" result="blur"/>
      <feFlood flood-opacity="0.161"/>
      <feComposite operator="in" in2="blur"/>
      <feComposite in="SourceGraphic"/>
    </filter>
  </defs>
  <g id="Group_1111535" data-name="Group 1111535" transform="translate(-1165.174 -1125)">
    <g id="Group_1111387" data-name="Group 1111387" transform="translate(154.443 -1946)">
      <g transform="matrix(1, 0, 0, 1, 1010.73, 3071)" filter="url(#Path_874925)">
        <g id="Path_874925-2" data-name="Path 874925" transform="translate(9 6)" fill="#ffd63c">
          <path d="M 45.82614517211914 90.15280151367188 C 39.84149551391602 90.15280151367188 34.03665924072266 88.98104095458984 28.5728702545166 86.67005157470703 C 23.29473304748535 84.43759155273438 18.55415725708008 81.24130249023438 14.48283290863037 77.16998291015625 C 10.41150760650635 73.09866333007812 7.215232849121094 68.35809326171875 4.982757568359375 63.07994079589844 C 2.671770095825195 57.61616897583008 1.500007629394531 51.81131744384766 1.500007629394531 45.82666778564453 C 1.500007629394531 39.84149169921875 2.671770095825195 34.03665542602539 4.982757568359375 28.57286643981934 C 7.215232849121094 23.29472923278809 10.41150760650635 18.55415534973145 14.48283290863037 14.48283004760742 C 18.55415725708008 10.4115047454834 23.29473304748535 7.215229511260986 28.5728702545166 4.982754707336426 C 34.03665924072266 2.671766996383667 39.84149551391602 1.500004529953003 45.82614517211914 1.500004529953003 C 51.81079483032227 1.500004529953003 57.61564636230469 2.671766996383667 63.07942199707031 4.982754707336426 C 68.35756683349609 7.215229511260986 73.09814453125 10.4115047454834 77.16947174072266 14.48283004760742 C 81.24078369140625 18.55415534973145 84.43707275390625 23.29472923278809 86.66954803466797 28.57286643981934 C 88.98052978515625 34.03665542602539 90.15229797363281 39.84149169921875 90.15229797363281 45.82614135742188 C 90.15229797363281 51.81131744384766 88.98052978515625 57.61616897583008 86.66954803466797 63.07994079589844 C 84.43707275390625 68.35809326171875 81.24078369140625 73.09866333007812 77.16947174072266 77.16998291015625 C 73.09814453125 81.24130249023438 68.35756683349609 84.43759155273438 63.07942199707031 86.67005157470703 C 57.61564636230469 88.98104095458984 51.81079483032227 90.15280151367188 45.82614517211914 90.15280151367188 Z" stroke="none"/>
          <path d="M 45.82614517211914 3.000007629394531 C 40.04333114624023 3.000007629394531 34.43508911132812 4.131904602050781 29.15720367431641 6.364265441894531 C 24.05784606933594 8.521102905273438 19.47753143310547 11.60944366455078 15.54348754882812 15.54348754882812 C 11.60944366455078 19.47753143310547 8.521102905273438 24.05784606933594 6.3642578125 29.15720367431641 C 4.131904602050781 34.43508911132812 3 40.0433349609375 3 45.82667541503906 C 3 51.60948944091797 4.131904602050781 57.21773147583008 6.3642578125 62.49562072753906 C 8.521102905273438 67.59497833251953 11.60944366455078 72.17527770996094 15.54348754882812 76.10932922363281 C 19.47753143310547 80.04337310791016 24.05784606933594 83.13170623779297 29.15718841552734 85.28854370117188 C 34.43508911132812 87.52090454101562 40.04333114624023 88.65280151367188 45.82614517211914 88.65280151367188 C 51.60895919799805 88.65280151367188 57.21720123291016 87.52090454101562 62.49510192871094 85.28854370117188 C 67.59444427490234 83.13170623779297 72.17475891113281 80.04337310791016 76.10880279541016 76.10932922363281 C 80.0428466796875 72.17527770996094 83.13118743896484 67.59497833251953 85.28803253173828 62.49562072753906 C 87.5203857421875 57.21773147583008 88.65229034423828 51.60948944091797 88.65229034423828 45.82614898681641 C 88.65229034423828 40.0433349609375 87.5203857421875 34.43508911132812 85.28803253173828 29.15720367431641 C 83.13118743896484 24.05784606933594 80.0428466796875 19.47753143310547 76.10880279541016 15.54348754882812 C 72.17475891113281 11.60944366455078 67.59444427490234 8.521102905273438 62.49508666992188 6.364265441894531 C 57.21720123291016 4.131904602050781 51.60895919799805 3.000007629394531 45.82614517211914 3.000007629394531 M 45.82614517211914 7.62939453125e-06 C 71.13523101806641 7.62939453125e-06 91.65229034423828 20.51705932617188 91.65229034423828 45.82614898681641 L 91.65229034423828 45.82667541503906 C 91.65229034423828 71.13575744628906 71.13523101806641 91.65280151367188 45.82614517211914 91.65280151367188 C 20.51705932617188 91.65280151367188 0 71.13575744628906 0 45.82667541503906 L 0 45.82614898681641 C 0 20.51705932617188 20.51705932617188 7.62939453125e-06 45.82614517211914 7.62939453125e-06 Z" stroke="none" fill="#fff"/>
        </g>
      </g>
    </g>
    <g id="granjero333" transform="translate(1120.992 1150)">
      <path id="Path_900420" data-name="Path 900420" d="M120.223,337.564l-4.208-1.4H95.395l-4.208,1.4a5.155,5.155,0,0,0-3.525,4.891V354.2h36.086v-11.75A5.155,5.155,0,0,0,120.223,337.564Z" transform="translate(-6.697 -300.131)" fill="#ffdc64"/>
      <rect id="Rectangle_404795" data-name="Rectangle 404795" width="12.029" height="10.31" transform="translate(92.994 27.438)" fill="#f5af73"/>
      <path id="Path_900421" data-name="Path 900421" d="M199.888,268.254a11.068,11.068,0,0,0,12.029,0v-4.238H199.888Z" transform="translate(-106.894 -235.718)" fill="#f5965f"/>
      <rect id="Rectangle_404796" data-name="Rectangle 404796" width="3.436" height="4.296" transform="translate(106.74 14.551)" fill="#9b735a"/>
      <path id="Path_900422" data-name="Path 900422" d="M166.116,139.2h-.859a1.718,1.718,0,0,1-1.718-1.718v-1.718H148.073v1.718a1.718,1.718,0,0,1-1.718,1.718H145.5a1.718,1.718,0,0,0-1.718,1.718v1.607a1.8,1.8,0,0,0,1.373,1.794,1.688,1.688,0,0,0,1.235-.219,9.439,9.439,0,0,0,18.841,0,1.688,1.688,0,0,0,1.235.219,1.8,1.8,0,0,0,1.373-1.794v-1.607A1.719,1.719,0,0,0,166.116,139.2Z" transform="translate(-56.798 -121.208)" fill="#f5c882"/>
      <rect id="Rectangle_404797" data-name="Rectangle 404797" width="3.436" height="4.296" transform="translate(87.838 14.551)" fill="#9b735a"/>
      <path id="Path_900423" data-name="Path 900423" d="M148.072,135.757v2.577a.859.859,0,0,1-.859.859h-1.718a1.718,1.718,0,0,0-1.718,1.718v1.607a1.8,1.8,0,0,0,1.373,1.794,1.688,1.688,0,0,0,1.235-.219,9.424,9.424,0,0,0,11.148,8.684,9.448,9.448,0,0,1-7.741-9.289v-3.437a1.718,1.718,0,0,1,1.718-1.718h12.029v-2.577Z" transform="translate(-56.797 -121.206)" fill="#f5af73"/>
      <path id="Path_900424" data-name="Path 900424" d="M129.3,17.81l-2.089-8.358a2.578,2.578,0,0,0-2.5-1.952H112.577a2.577,2.577,0,0,0-2.542,2.154l-1.359,8.156-5.883,2.615a.43.43,0,0,0,.174.822H135a.43.43,0,0,0,.174-.822Z" transform="translate(-19.977 -6.696)" fill="#ffdc64"/>
      <path id="Path_900425" data-name="Path 900425" d="M221.114,223.935a.864.864,0,0,0-.739,1.307,4.3,4.3,0,0,0,7.42,0,.864.864,0,0,0-.739-1.307h-5.943Z" transform="translate(-125.077 -199.933)" fill="#fff"/>
      <path id="Path_900426" data-name="Path 900426" d="M102.966,107.13H135a.43.43,0,0,0,.174-.822l-5.883-2.615h-20.62l-5.883,2.615A.43.43,0,0,0,102.966,107.13Z" transform="translate(-19.976 -92.579)" fill="#ffc850"/>
      <path id="Path_900427" data-name="Path 900427" d="M160.38,71.629l-.573,3.437h20.62l-.859-3.437Z" transform="translate(-71.109 -63.952)" fill="#9b735a"/>
      <g id="Group_1111532" data-name="Group 1111532" transform="translate(80.965 0.804)">
        <path id="Path_900428" data-name="Path 900428" d="M169.905,14.373l.533-5.326a1.718,1.718,0,0,1,1.71-1.547H168.48a2.578,2.578,0,0,0-2.542,2.154l-.787,4.72Z" transform="translate(-156.846 -7.5)" fill="#ffc850"/>
        <path id="Path_900429" data-name="Path 900429" d="M93.676,341.506l-2.489.83a5.155,5.155,0,0,0-3.525,4.891v11.75h6.014Z" transform="translate(-87.662 -305.707)" fill="#ffc850"/>
        <path id="Path_900430" data-name="Path 900430" d="M368.226,341.506l2.489.83a5.155,5.155,0,0,1,3.525,4.891v11.75h-6.014v-17.47Z" transform="translate(-338.155 -305.707)" fill="#ffc850"/>
      </g>
      <g id="Group_1111533" data-name="Group 1111533" transform="translate(86.979 36.03)">
        <path id="Path_900431" data-name="Path 900431" d="M147.212,336.161h-1.718l-1.718.573v12.315h3.437Z" transform="translate(-143.775 -336.161)" fill="#a0d755"/>
        <path id="Path_900432" data-name="Path 900432" d="M336.162,336.161h1.718l1.718.573v12.315h-3.437Z" transform="translate(-315.542 -336.161)" fill="#a0d755"/>
      </g>
      <path id="Path_900433" data-name="Path 900433" d="M163.695,309.085l6.423,3.568-3.091,3.71a1.718,1.718,0,0,1-2.535.115l-4.684-4.684,1.678-2.238A1.719,1.719,0,0,1,163.695,309.085Z" transform="translate(-71.109 -275.763)" fill="#fff082"/>
      <path id="Línea_564" data-name="Línea 564" d="M-5.994-4.031A1.988,1.988,0,0,1-7.983-6.016,1.981,1.981,0,0,1-6-8h.009A1.984,1.984,0,0,1-4.009-6.016,1.984,1.984,0,0,1-5.994-4.031Z" transform="translate(96.419 56.652)" fill="#464646"/>
      <g id="Group_1111534" data-name="Group 1111534" transform="translate(84.402 45.481)">
        <path id="Path_900434" data-name="Path 900434" d="M122.3,432.931h-2.577v-6.873a1.718,1.718,0,0,1,1.718-1.718h.859Z" transform="translate(-119.727 -424.339)" fill="#e1a546"/>
        <path id="Path_900435" data-name="Path 900435" d="M370.8,432.931h-2.578v-8.592h.859a1.718,1.718,0,0,1,1.718,1.718Z" transform="translate(-341.592 -424.339)" fill="#e1a546"/>
      </g>
      <rect id="Rectangle_404798" data-name="Rectangle 404798" width="24.057" height="6.874" transform="translate(86.979 47.2)" fill="#b4e66e"/>
      <path id="Path_900436" data-name="Path 900436" d="M262.424,309.085,256,312.653l3.091,3.71a1.718,1.718,0,0,0,2.535.115l4.684-4.684-1.678-2.238A1.719,1.719,0,0,0,262.424,309.085Z" transform="translate(-156.993 -275.763)" fill="#fff082"/>
      <path id="Path_900437" data-name="Path 900437" d="M160.38,71.629l-.573,3.437h4.976l.351-3.437Z" transform="translate(-71.109 -63.952)" fill="#8c5f50"/>
      <path id="Path_900438" data-name="Path 900438" d="M209.224,170.8a.8.8,0,0,0,.8-.8v-.859a.8.8,0,0,0-1.608,0V170A.8.8,0,0,0,209.224,170.8Z" transform="translate(-114.512 -150.295)"/>
      <path id="Path_900439" data-name="Path 900439" d="M289.386,170.8a.8.8,0,0,0,.8-.8v-.859a.8.8,0,1,0-1.608,0V170A.8.8,0,0,0,289.386,170.8Z" transform="translate(-186.082 -150.295)"/>
      <path id="Path_900440" data-name="Path 900440" d="M212.963,217.27a1.66,1.66,0,0,0,.008,1.682,5.1,5.1,0,0,0,8.808,0,1.661,1.661,0,0,0,.008-1.682,1.643,1.643,0,0,0-1.441-.834H214.4A1.644,1.644,0,0,0,212.963,217.27Zm1.395.8a.045.045,0,0,1,.046-.027h5.943a.045.045,0,0,1,.046.027.064.064,0,0,1,0,.071,3.492,3.492,0,0,1-6.032,0A.064.064,0,0,1,214.357,218.07Z" transform="translate(-118.367 -193.238)"/>
      <path id="Path_900441" data-name="Path 900441" d="M169.188,464.936h-.009a.808.808,0,1,0,.009,0Z" transform="translate(-78.764 -415.103)"/>
      <path id="Path_900442" data-name="Path 900442" d="M113.78,36.67l-3.97-1.323-1.528-2.037a2.532,2.532,0,0,0-2.457-.967V29.934a10.247,10.247,0,0,0,3.3-5.995,2.476,2.476,0,0,0,.71-.049,2.617,2.617,0,0,0,2-2.589v-1.6a2.516,2.516,0,0,0-.859-1.894V15.354h6.07a.8.8,0,0,0,.326-1.538L110,10.538l-1.994-7.977A3.376,3.376,0,0,0,104.728,0H92.6a3.371,3.371,0,0,0-3.335,2.826l-1.288,7.73-7.337,3.261a.8.8,0,0,0,.326,1.538h6.07v2.457a2.516,2.516,0,0,0-.859,1.894v1.6a2.617,2.617,0,0,0,2,2.589,2.475,2.475,0,0,0,.71.049,10.247,10.247,0,0,0,3.3,5.995v2.409a2.532,2.532,0,0,0-2.457.967l-1.528,2.037-3.97,1.323a5.952,5.952,0,0,0-4.075,5.653V54.073a.8.8,0,1,0,1.608,0V42.323A4.346,4.346,0,0,1,84.744,38.2l1.431-.477V54.073a.8.8,0,1,0,1.608,0V48h13.8a.8.8,0,1,0,0-1.608H91.22V39.689l1.593,1.593a2.529,2.529,0,0,0,1.784.739l.114,0a2.528,2.528,0,0,0,1.823-.9l1.67-2v4.653a.8.8,0,0,0,1.608,0V39.11l1.67,2a2.528,2.528,0,0,0,1.823.9l.114,0a2.529,2.529,0,0,0,1.784-.739l1.593-1.593V46.4h-1.774a.8.8,0,1,0,0,1.608h5.211v6.069a.8.8,0,0,0,1.608,0V37.718l1.431.477a4.346,4.346,0,0,1,2.975,4.128v11.75a.8.8,0,0,0,1.608,0V42.323A5.951,5.951,0,0,0,113.78,36.67Zm-4.407-19.485H107.6a.055.055,0,0,1-.055-.055V15.355h1.829ZM92.6,1.608h12.128a1.771,1.771,0,0,1,1.721,1.344l.98,3.922H90.219L90.85,3.09A1.768,1.768,0,0,1,92.6,1.608Zm-3.731,10.31h13.576a.8.8,0,1,0,0-1.608h-12.8l.3-1.829h17.88l.457,1.829h-2.407a.8.8,0,1,0,0,1.608h3.266l4.115,1.829H84.753Zm-.226,3.437h1.829v1.774a.055.055,0,0,1-.055.055H88.642v-1.83Zm1.718,6.929a.8.8,0,0,0-1.608,0v.053a.863.863,0,0,1-.24-.018,1.018,1.018,0,0,1-.73-1.017v-1.6a.916.916,0,0,1,.914-.914h1.718a1.665,1.665,0,0,0,1.663-1.663V15.354h13.858v1.774a1.665,1.665,0,0,0,1.663,1.663h1.718a.916.916,0,0,1,.914.914v1.6a1.018,1.018,0,0,1-.73,1.017.866.866,0,0,1-.24.018v-.053a.8.8,0,0,0-1.608,0,8.647,8.647,0,1,1-17.294,0Zm8.647,10.255a10.193,10.193,0,0,0,5.21-1.425v1.962l-5.21,2.895L93.8,33.075V31.113A10.193,10.193,0,0,0,99.008,32.538ZM89.612,46.4H87.783V37.182l.7-.232,1.132,1.132V46.4h0ZM95.3,40.084a.915.915,0,0,1-1.349.061l-4.191-4.191,1.26-1.68a.918.918,0,0,1,1.176-.251h0l5.574,3.1Zm8.767.061a.914.914,0,0,1-1.349-.061l-2.47-2.964,5.574-3.1h0a.918.918,0,0,1,1.176.251l1.26,1.68Zm6.167,6.25H108.4V38.082l1.132-1.132.7.232V46.4h0Z"/>
      <path id="Path_900443" data-name="Path 900443" d="M329.386,464.936a.8.8,0,0,0,0,1.608h.009a.8.8,0,1,0-.009-1.608Z" transform="translate(-221.795 -415.103)"/>
    </g>
  </g>
</svg>
