<svg xmlns="http://www.w3.org/2000/svg" xmlns:xlink="http://www.w3.org/1999/xlink" width="109.652" height="109.653" viewBox="0 0 109.652 109.653">
  <defs>
    <filter id="Path_874925" x="0" y="0" width="109.652" height="109.653" filterUnits="userSpaceOnUse">
      <feOffset dy="3" input="SourceAlpha"/>
      <feGaussianBlur stdDeviation="3" result="blur"/>
      <feFlood flood-opacity="0.161"/>
      <feComposite operator="in" in2="blur"/>
      <feComposite in="SourceGraphic"/>
    </filter>
  </defs>
  <g id="Group_1111550" data-name="Group 1111550" transform="translate(-848.674 -1298)">
    <g id="Group_1111389" data-name="Group 1111389" transform="translate(-162.057 -1773)">
      <g transform="matrix(1, 0, 0, 1, 1010.73, 3071)" filter="url(#Path_874925)">
        <g id="Path_874925-2" data-name="Path 874925" transform="translate(9 6)" fill="#ffd63c">
          <path d="M 45.82614517211914 90.15280151367188 C 39.84149551391602 90.15280151367188 34.03665924072266 88.98104095458984 28.5728702545166 86.67005157470703 C 23.29473304748535 84.43759155273438 18.55415725708008 81.24130249023438 14.48283290863037 77.16998291015625 C 10.41150760650635 73.09866333007812 7.215232849121094 68.35809326171875 4.982757568359375 63.07994079589844 C 2.671770095825195 57.61616897583008 1.500007629394531 51.81131744384766 1.500007629394531 45.82666778564453 C 1.500007629394531 39.84149169921875 2.671770095825195 34.03665542602539 4.982757568359375 28.57286643981934 C 7.215232849121094 23.29472923278809 10.41150760650635 18.55415534973145 14.48283290863037 14.48283004760742 C 18.55415725708008 10.4115047454834 23.29473304748535 7.215229511260986 28.5728702545166 4.982754707336426 C 34.03665924072266 2.671766996383667 39.84149551391602 1.500004529953003 45.82614517211914 1.500004529953003 C 51.81079483032227 1.500004529953003 57.61564636230469 2.671766996383667 63.07942199707031 4.982754707336426 C 68.35756683349609 7.215229511260986 73.09814453125 10.4115047454834 77.16947174072266 14.48283004760742 C 81.24078369140625 18.55415534973145 84.43707275390625 23.29472923278809 86.66954803466797 28.57286643981934 C 88.98052978515625 34.03665542602539 90.15229797363281 39.84149169921875 90.15229797363281 45.82614135742188 C 90.15229797363281 51.81131744384766 88.98052978515625 57.61616897583008 86.66954803466797 63.07994079589844 C 84.43707275390625 68.35809326171875 81.24078369140625 73.09866333007812 77.16947174072266 77.16998291015625 C 73.09814453125 81.24130249023438 68.35756683349609 84.43759155273438 63.07942199707031 86.67005157470703 C 57.61564636230469 88.98104095458984 51.81079483032227 90.15280151367188 45.82614517211914 90.15280151367188 Z" stroke="none"/>
          <path d="M 45.82614517211914 3.000007629394531 C 40.04333114624023 3.000007629394531 34.43508911132812 4.131904602050781 29.15720367431641 6.364265441894531 C 24.05784606933594 8.521102905273438 19.47753143310547 11.60944366455078 15.54348754882812 15.54348754882812 C 11.60944366455078 19.47753143310547 8.521102905273438 24.05784606933594 6.3642578125 29.15720367431641 C 4.131904602050781 34.43508911132812 3 40.0433349609375 3 45.82667541503906 C 3 51.60948944091797 4.131904602050781 57.21773147583008 6.3642578125 62.49562072753906 C 8.521102905273438 67.59497833251953 11.60944366455078 72.17527770996094 15.54348754882812 76.10932922363281 C 19.47753143310547 80.04337310791016 24.05784606933594 83.13170623779297 29.15718841552734 85.28854370117188 C 34.43508911132812 87.52090454101562 40.04333114624023 88.65280151367188 45.82614517211914 88.65280151367188 C 51.60895919799805 88.65280151367188 57.21720123291016 87.52090454101562 62.49510192871094 85.28854370117188 C 67.59444427490234 83.13170623779297 72.17475891113281 80.04337310791016 76.10880279541016 76.10932922363281 C 80.0428466796875 72.17527770996094 83.13118743896484 67.59497833251953 85.28803253173828 62.49562072753906 C 87.5203857421875 57.21773147583008 88.65229034423828 51.60948944091797 88.65229034423828 45.82614898681641 C 88.65229034423828 40.0433349609375 87.5203857421875 34.43508911132812 85.28803253173828 29.15720367431641 C 83.13118743896484 24.05784606933594 80.0428466796875 19.47753143310547 76.10880279541016 15.54348754882812 C 72.17475891113281 11.60944366455078 67.59444427490234 8.521102905273438 62.49508666992188 6.364265441894531 C 57.21720123291016 4.131904602050781 51.60895919799805 3.000007629394531 45.82614517211914 3.000007629394531 M 45.82614517211914 7.62939453125e-06 C 71.13523101806641 7.62939453125e-06 91.65229034423828 20.51705932617188 91.65229034423828 45.82614898681641 L 91.65229034423828 45.82667541503906 C 91.65229034423828 71.13575744628906 71.13523101806641 91.65280151367188 45.82614517211914 91.65280151367188 C 20.51705932617188 91.65280151367188 0 71.13575744628906 0 45.82667541503906 L 0 45.82614898681641 C 0 20.51705932617188 20.51705932617188 7.62939453125e-06 45.82614517211914 7.62939453125e-06 Z" stroke="none" fill="#fff"/>
        </g>
      </g>
    </g>
    <g id="agenda-444" transform="translate(879.692 1304.398)">
      <g id="Group_1111542" data-name="Group 1111542" transform="translate(0.741 23.069)">
        <path id="Path_900471" data-name="Path 900471" d="M29.121,117.756H8.741A1.241,1.241,0,0,1,7.5,116.515V77.779H30.363v38.736A1.241,1.241,0,0,1,29.121,117.756Z" transform="translate(-7.5 -73.039)" fill="#d8ecfe"/>
        <g id="Group_1111538" data-name="Group 1111538" transform="translate(26.269 23.897)">
          <path id="Path_900472" data-name="Path 900472" d="M294.848,292.375h-20.38a1.241,1.241,0,0,1-1.241-1.241V272.8a1.241,1.241,0,0,1,1.241-1.241h20.38a1.241,1.241,0,0,1,1.241,1.241v18.338A1.241,1.241,0,0,1,294.848,292.375Z" transform="translate(-273.227 -271.554)" fill="#6ed5a1"/>
        </g>
        <g id="Group_1111539" data-name="Group 1111539" transform="translate(26.269 0.045)">
          <path id="Path_900473" data-name="Path 900473" d="M294.848,51.109h-20.38a1.241,1.241,0,0,1-1.241-1.241V31.529a1.241,1.241,0,0,1,1.241-1.241h20.38a1.241,1.241,0,0,1,1.241,1.241V49.867A1.241,1.241,0,0,1,294.848,51.109Z" transform="translate(-273.227 -30.288)" fill="#fe7c66"/>
        </g>
        <g id="Group_1111540" data-name="Group 1111540" transform="translate(46.015 23.897)">
          <path id="Path_900474" data-name="Path 900474" d="M476.084,272.8v18.338a1.241,1.241,0,0,1-1.241,1.241h-1.875a1.241,1.241,0,0,0,1.241-1.241V272.8a1.241,1.241,0,0,0-1.241-1.241h1.875A1.241,1.241,0,0,1,476.084,272.8Z" transform="translate(-472.967 -271.554)" fill="#46cc8d"/>
        </g>
        <g id="Group_1111541" data-name="Group 1111541" transform="translate(46.015 0.046)">
          <path id="Path_900475" data-name="Path 900475" d="M476.084,31.533V49.871a1.241,1.241,0,0,1-1.241,1.241h-1.875a1.241,1.241,0,0,0,1.241-1.241V31.533a1.241,1.241,0,0,0-1.241-1.241h1.875A1.241,1.241,0,0,1,476.084,31.533Z" transform="translate(-472.967 -30.292)" fill="#fe6c55"/>
        </g>
        <path id="Path_900476" data-name="Path 900476" d="M30.363,34.568H7.5v-3.5a1.241,1.241,0,0,1,1.241-1.241h20.38a1.241,1.241,0,0,1,1.241,1.241Z" transform="translate(-7.5 -29.828)" fill="#3c87d0"/>
        <path id="Path_900477" data-name="Path 900477" d="M209.423,77.774V116.51a1.241,1.241,0,0,1-1.241,1.241H206.2a1.241,1.241,0,0,0,1.241-1.241V77.774Z" transform="translate(-186.56 -73.034)" fill="#b3dafe"/>
        <path id="Path_900478" data-name="Path 900478" d="M209.423,31.073v3.5h-1.978v-3.5a1.241,1.241,0,0,0-1.241-1.241h1.978A1.241,1.241,0,0,1,209.423,31.073Z" transform="translate(-186.56 -29.832)" fill="#0078c8"/>
        <path id="Path_900479" data-name="Path 900479" d="M71.71,399.073H63.155a1.833,1.833,0,0,1-1.833-1.833h0a1.833,1.833,0,0,1,1.833-1.833H71.71a1.833,1.833,0,0,1,1.833,1.833h0A1.833,1.833,0,0,1,71.71,399.073Z" transform="translate(-56.001 -359.265)" fill="#fe7c66"/>
        <path id="Path_900480" data-name="Path 900480" d="M148.061,397.236a1.834,1.834,0,0,1-1.834,1.834h-2.212a1.834,1.834,0,1,0,0-3.667h2.212A1.834,1.834,0,0,1,148.061,397.236Z" transform="translate(-130.519 -359.262)" fill="#fe6c55"/>
        <circle id="Ellipse_11784" data-name="Ellipse 11784" cx="7.437" cy="7.437" r="7.437" transform="translate(30.263 26.87)" fill="#d8ecfe"/>
        <path id="Path_900481" data-name="Path 900481" d="M372.666,309.3a7.441,7.441,0,0,1-10.03,6.972q.3.025.614.026a7.438,7.438,0,0,0,2.593-14.409A7.438,7.438,0,0,1,372.666,309.3Z" transform="translate(-327.528 -274.993)" fill="#b3dafe"/>
      </g>
      <g id="Group_1111549" data-name="Group 1111549" transform="translate(0 22.328)">
        <path id="Trazado_900482" data-name="Trazado 900482" d="M23.6,28.551H.741A.741.741,0,0,1,0,27.81v-3.5a1.985,1.985,0,0,1,1.983-1.983h20.38a1.985,1.985,0,0,1,1.983,1.983v3.5A.741.741,0,0,1,23.6,28.551ZM1.483,27.068h21.38V24.311a.5.5,0,0,0-.5-.5H1.983a.5.5,0,0,0-.5.5Z" transform="translate(0 -22.328)"/>
        <path id="Trazado_900483" data-name="Trazado 900483" d="M22.363,111.739H8.645a.741.741,0,1,1,0-1.483H22.363a.5.5,0,0,0,.5-.5V71.762H1.483v37.994a.5.5,0,0,0,.5.5h3.2a.741.741,0,1,1,0,1.483h-3.2A1.985,1.985,0,0,1,0,109.756V71.02a.741.741,0,0,1,.741-.741H23.6a.741.741,0,0,1,.741.741v38.736A1.985,1.985,0,0,1,22.363,111.739Z" transform="translate(0 -65.539)"/>
        <g id="Group_1111543" data-name="Group 1111543" transform="translate(26.269 0.045)">
          <path id="Trazado_900484" data-name="Trazado 900484" d="M288.09,45.092H267.71a1.985,1.985,0,0,1-1.983-1.983V24.771a1.985,1.985,0,0,1,1.983-1.983h20.38a1.985,1.985,0,0,1,1.983,1.983v4.753a.741.741,0,1,1-1.483,0V24.771a.5.5,0,0,0-.5-.5H267.71a.5.5,0,0,0-.5.5V43.109a.5.5,0,0,0,.5.5h20.38a.5.5,0,0,0,.5-.5V32.971a.741.741,0,1,1,1.483,0V43.109A1.985,1.985,0,0,1,288.09,45.092Z" transform="translate(-265.727 -22.788)"/>
        </g>
        <g id="Group_1111544" data-name="Group 1111544" transform="translate(26.269 23.897)">
          <path id="Trazado_900485" data-name="Trazado 900485" d="M288.09,286.358H267.71a1.985,1.985,0,0,1-1.983-1.983V266.037a1.985,1.985,0,0,1,1.983-1.983h20.38a1.985,1.985,0,0,1,1.983,1.983v18.338A1.985,1.985,0,0,1,288.09,286.358Zm-20.38-20.821a.5.5,0,0,0-.5.5v18.338a.5.5,0,0,0,.5.5h20.38a.5.5,0,0,0,.5-.5V266.037a.5.5,0,0,0-.5-.5Z" transform="translate(-265.727 -264.054)"/>
        </g>
        <g id="Group_1111547" data-name="Group 1111547" transform="translate(31.441 4.166)">
          <g id="Group_1111545" data-name="Group 1111545">
            <path id="Trazado_900486" data-name="Trazado 900486" d="M320.45,78.535a.741.741,0,0,1-.741-.741V65.956h-.923a.741.741,0,1,1,0-1.483h1.664a.741.741,0,0,1,.741.741V77.793A.741.741,0,0,1,320.45,78.535Z" transform="translate(-318.044 -64.473)"/>
          </g>
          <g id="Group_1111546" data-name="Group 1111546" transform="translate(4.62 0.001)">
            <path id="Trazado_900487" data-name="Trazado 900487" d="M371.779,78.546h-.007a.741.741,0,0,1-.735-.748c.008-.913.016-1.927.023-2.965h-5.544a.741.741,0,0,1-.649-1.1c.431-.782,4.235-7.664,4.947-8.538a1.526,1.526,0,0,1,1.673-.654,1.643,1.643,0,0,1,1.062,1.494c.038.458.024,4.162,0,7.315h.862a.741.741,0,0,1,0,1.483h-.872c-.01,1.471-.02,2.634-.023,2.977A.741.741,0,0,1,371.779,78.546Zm-5-5.2h4.3c.022-3.48.032-6.824,0-7.191a.585.585,0,0,0-.022-.121,1.1,1.1,0,0,0-.086.095C370.547,66.644,368.381,70.462,366.775,73.351Z" transform="translate(-364.775 -64.486)"/>
          </g>
        </g>
        <path id="Trazado_900488" data-name="Trazado 900488" d="M64.951,393.056H56.4a2.575,2.575,0,0,1,0-5.15h8.554a2.575,2.575,0,0,1,0,5.15ZM56.4,389.389a1.092,1.092,0,0,0,0,2.184h8.554a1.092,1.092,0,0,0,0-2.184Z" transform="translate(-48.501 -351.765)"/>
        <g id="Group_1111548" data-name="Group 1111548" transform="translate(3.93 9.44)">
          <path id="Línea_564" data-name="Línea 564" d="M8.244-6.017h-15A.741.741,0,0,1-7.5-6.759.741.741,0,0,1-6.759-7.5h15a.741.741,0,0,1,.741.741A.741.741,0,0,1,8.244-6.017Z" transform="translate(7.5 7.5)"/>
          <path id="Línea_565" data-name="Línea 565" d="M8.244-6.017h-15A.741.741,0,0,1-7.5-6.759.741.741,0,0,1-6.759-7.5h15a.741.741,0,0,1,.741.741A.741.741,0,0,1,8.244-6.017Z" transform="translate(7.5 11.167)"/>
          <path id="Línea_566" data-name="Línea 566" d="M8.244-6.017h-15A.741.741,0,0,1-7.5-6.759.741.741,0,0,1-6.759-7.5h15a.741.741,0,0,1,.741.741A.741.741,0,0,1,8.244-6.017Z" transform="translate(7.5 14.834)"/>
          <path id="Línea_567" data-name="Línea 567" d="M8.244-6.017h-15A.741.741,0,0,1-7.5-6.759.741.741,0,0,1-6.759-7.5h15a.741.741,0,0,1,.741.741A.741.741,0,0,1,8.244-6.017Z" transform="translate(7.5 22.167)"/>
          <path id="Línea_568" data-name="Línea 568" d="M8.244-6.017h-15A.741.741,0,0,1-7.5-6.759.741.741,0,0,1-6.759-7.5h15a.741.741,0,0,1,.741.741A.741.741,0,0,1,8.244-6.017Z" transform="translate(7.5 25.834)"/>
          <path id="Línea_569" data-name="Línea 569" d="M8.244-6.017h-15A.741.741,0,0,1-7.5-6.759.741.741,0,0,1-6.759-7.5h15a.741.741,0,0,1,.741.741A.741.741,0,0,1,8.244-6.017Z" transform="translate(7.5 18.5)"/>
          <path id="Línea_570" data-name="Línea 570" d="M.743-6.017h-7.5A.741.741,0,0,1-7.5-6.759.741.741,0,0,1-6.759-7.5h7.5a.741.741,0,0,1,.741.741A.741.741,0,0,1,.743-6.017Z" transform="translate(7.5 29.501)"/>
        </g>
        <path id="Elipse_11785" data-name="Elipse 11785" d="M.679-7.5A8.188,8.188,0,0,1,8.858.679,8.188,8.188,0,0,1,.679,8.858,8.188,8.188,0,0,1-7.5.679,8.188,8.188,0,0,1,.679-7.5Zm0,14.875a6.7,6.7,0,0,0,6.7-6.7,6.7,6.7,0,0,0-6.7-6.7,6.7,6.7,0,0,0-6.7,6.7A6.7,6.7,0,0,0,.679,7.375Z" transform="translate(37.763 34.37)"/>
        <path id="Trazado_900489" data-name="Trazado 900489" d="M365.516,331.241a.742.742,0,0,1-.4-1.364l1.3-.841v-3.67a.741.741,0,0,1,1.483,0v4.074a.741.741,0,0,1-.339.623l-1.64,1.06A.738.738,0,0,1,365.516,331.241Z" transform="translate(-328.713 -294.74)"/>
      </g>
    </g>
  </g>
</svg>
