<svg xmlns="http://www.w3.org/2000/svg" xmlns:xlink="http://www.w3.org/1999/xlink" width="109.652" height="109.653" viewBox="0 0 109.652 109.653">
  <defs>
    <filter id="Path_874925" x="0" y="0" width="109.652" height="109.653" filterUnits="userSpaceOnUse">
      <feOffset dy="3" input="SourceAlpha"/>
      <feGaussianBlur stdDeviation="3" result="blur"/>
      <feFlood flood-opacity="0.161"/>
      <feComposite operator="in" in2="blur"/>
      <feComposite in="SourceGraphic"/>
    </filter>
    <clipPath id="clip-path">
      <path id="path2329" d="M0-682.665H56.156v56.156H0Z" transform="translate(0 682.665)"/>
    </clipPath>
  </defs>
  <g id="Group_1111531" data-name="Group 1111531" transform="translate(-957 -1125)">
    <g id="Group_1111386" data-name="Group 1111386" transform="translate(-53.73 -1946)">
      <g transform="matrix(1, 0, 0, 1, 1010.73, 3071)" filter="url(#Path_874925)">
        <g id="Path_874925-2" data-name="Path 874925" transform="translate(9 6)" fill="#ffd63c">
          <path d="M 45.82614517211914 90.15280151367188 C 39.84149551391602 90.15280151367188 34.03665924072266 88.98104095458984 28.5728702545166 86.67005157470703 C 23.29473304748535 84.43759155273438 18.55415725708008 81.24130249023438 14.48283290863037 77.16998291015625 C 10.41150760650635 73.09866333007812 7.215232849121094 68.35809326171875 4.982757568359375 63.07994079589844 C 2.671770095825195 57.61616897583008 1.500007629394531 51.81131744384766 1.500007629394531 45.82666778564453 C 1.500007629394531 39.84149169921875 2.671770095825195 34.03665542602539 4.982757568359375 28.57286643981934 C 7.215232849121094 23.29472923278809 10.41150760650635 18.55415534973145 14.48283290863037 14.48283004760742 C 18.55415725708008 10.4115047454834 23.29473304748535 7.215229511260986 28.5728702545166 4.982754707336426 C 34.03665924072266 2.671766996383667 39.84149551391602 1.500004529953003 45.82614517211914 1.500004529953003 C 51.81079483032227 1.500004529953003 57.61564636230469 2.671766996383667 63.07942199707031 4.982754707336426 C 68.35756683349609 7.215229511260986 73.09814453125 10.4115047454834 77.16947174072266 14.48283004760742 C 81.24078369140625 18.55415534973145 84.43707275390625 23.29472923278809 86.66954803466797 28.57286643981934 C 88.98052978515625 34.03665542602539 90.15229797363281 39.84149169921875 90.15229797363281 45.82614135742188 C 90.15229797363281 51.81131744384766 88.98052978515625 57.61616897583008 86.66954803466797 63.07994079589844 C 84.43707275390625 68.35809326171875 81.24078369140625 73.09866333007812 77.16947174072266 77.16998291015625 C 73.09814453125 81.24130249023438 68.35756683349609 84.43759155273438 63.07942199707031 86.67005157470703 C 57.61564636230469 88.98104095458984 51.81079483032227 90.15280151367188 45.82614517211914 90.15280151367188 Z" stroke="none"/>
          <path d="M 45.82614517211914 3.000007629394531 C 40.04333114624023 3.000007629394531 34.43508911132812 4.131904602050781 29.15720367431641 6.364265441894531 C 24.05784606933594 8.521102905273438 19.47753143310547 11.60944366455078 15.54348754882812 15.54348754882812 C 11.60944366455078 19.47753143310547 8.521102905273438 24.05784606933594 6.3642578125 29.15720367431641 C 4.131904602050781 34.43508911132812 3 40.0433349609375 3 45.82667541503906 C 3 51.60948944091797 4.131904602050781 57.21773147583008 6.3642578125 62.49562072753906 C 8.521102905273438 67.59497833251953 11.60944366455078 72.17527770996094 15.54348754882812 76.10932922363281 C 19.47753143310547 80.04337310791016 24.05784606933594 83.13170623779297 29.15718841552734 85.28854370117188 C 34.43508911132812 87.52090454101562 40.04333114624023 88.65280151367188 45.82614517211914 88.65280151367188 C 51.60895919799805 88.65280151367188 57.21720123291016 87.52090454101562 62.49510192871094 85.28854370117188 C 67.59444427490234 83.13170623779297 72.17475891113281 80.04337310791016 76.10880279541016 76.10932922363281 C 80.0428466796875 72.17527770996094 83.13118743896484 67.59497833251953 85.28803253173828 62.49562072753906 C 87.5203857421875 57.21773147583008 88.65229034423828 51.60948944091797 88.65229034423828 45.82614898681641 C 88.65229034423828 40.0433349609375 87.5203857421875 34.43508911132812 85.28803253173828 29.15720367431641 C 83.13118743896484 24.05784606933594 80.0428466796875 19.47753143310547 76.10880279541016 15.54348754882812 C 72.17475891113281 11.60944366455078 67.59444427490234 8.521102905273438 62.49508666992188 6.364265441894531 C 57.21720123291016 4.131904602050781 51.60895919799805 3.000007629394531 45.82614517211914 3.000007629394531 M 45.82614517211914 7.62939453125e-06 C 71.13523101806641 7.62939453125e-06 91.65229034423828 20.51705932617188 91.65229034423828 45.82614898681641 L 91.65229034423828 45.82667541503906 C 91.65229034423828 71.13575744628906 71.13523101806641 91.65280151367188 45.82614517211914 91.65280151367188 C 20.51705932617188 91.65280151367188 0 71.13575744628906 0 45.82667541503906 L 0 45.82614898681641 C 0 20.51705932617188 20.51705932617188 7.62939453125e-06 45.82614517211914 7.62939453125e-06 Z" stroke="none" fill="#fff"/>
        </g>
      </g>
    </g>
    <g id="g2319" transform="translate(984 1832.665)">
      <g id="g2321" transform="translate(3.132 -647.999)">
        <path id="path2323" d="M0-55.052l4.935-4.935,15.719,15.73-4.935,4.935Z" transform="translate(0 59.987)" fill="#99e6fc"/>
      </g>
      <g id="g2325" transform="translate(0 -682.665)">
        <g id="g2327" clip-path="url(#clip-path)">
          <g id="g2333" transform="translate(3.132 34.665)">
            <path id="path2335" d="M-193.813-212.114l-1.654,1.652-15.718-15.73,4.934-4.935,1.652,1.654-.946.946a3.3,3.3,0,0,0,0,4.673Z" transform="translate(211.185 231.126)" fill="#62dbfb"/>
          </g>
          <g id="g2337" transform="translate(9.555 33.808)">
            <path id="path2339" d="M-132.9-159.079l2.346-2.347-11.912-11.912-2.346,2.346Z" transform="translate(144.813 173.338)" fill="#f2fbff"/>
          </g>
          <g id="g2341" transform="translate(9.555 33.808)">
            <path id="path2343" d="M-145.191-146.788l-1.1,1.1L-158.2-157.6l2.347-2.347,1.1,1.1-.076.076a1.652,1.652,0,0,0,0,2.337Z" transform="translate(158.205 159.945)" fill="#dff6fd"/>
          </g>
          <g id="g2345" transform="translate(20.363 0.826)">
            <path id="path2347" d="M-286.738-136.789a7.181,7.181,0,0,0,2.073-5.055,7.206,7.206,0,0,0-7.206-7.206,7.206,7.206,0,0,0-6.681,4.507,7.206,7.206,0,0,0-6.681-4.507,7.206,7.206,0,0,0-7.206,7.206,7.182,7.182,0,0,0,2.073,5.055h0l0,0,.073.073L-298.552-125l11.738-11.717.073-.073,0,0Z" transform="translate(312.439 149.05)" fill="#fd8087"/>
          </g>
          <g id="g2349" transform="translate(20.363 0.826)">
            <path id="path2351" d="M-60.851-137.645l10.085,10.067-1.653,1.649-11.737-11.716-.073-.073,0,0a7.182,7.182,0,0,1-2.072-5.056,7.205,7.205,0,0,1,7.206-7.2,7.215,7.215,0,0,1,1.651.191A7.207,7.207,0,0,0-63-142.777a7.182,7.182,0,0,0,2.072,5.056l0,0Z" transform="translate(66.305 149.982)" fill="#fe646f"/>
          </g>
          <g id="g2353" transform="translate(29.282 7.668)">
            <path id="path2355" d="M-114.534-38.178h-3.422V-41.6h-3.422v3.422H-124.8v3.422h3.422v3.422h3.422v-3.422h3.422Z" transform="translate(124.8 41.6)" fill="#f2fbff"/>
          </g>
          <g id="g2357" transform="translate(14.299 26.541)">
            <path id="path2359" d="M0-107.821s3.377-7.108,10.007-7.108a10.264,10.264,0,0,1,3.7.69l2.625,1.014h5.2a2.2,2.2,0,0,1,2.2,2.2,4.221,4.221,0,0,1-.1.644h0l4.175-2.41,7.619-4.4a2.2,2.2,0,0,1,3,.806,2.277,2.277,0,0,1-.8,3L23.7-102.494a5.476,5.476,0,0,1-3.376,1.163H6.49Z" transform="translate(0 117.485)" fill="#fed2a4"/>
          </g>
          <g id="g2361" transform="translate(14.299 29.097)">
            <path id="path2363" d="M-57.8-100.225l4.614,4.614h-3.3l-6.49-6.49s3.377-7.108,10.006-7.108a10.217,10.217,0,0,1,1.7.142,11.535,11.535,0,0,0-6.8,4.48,3.3,3.3,0,0,0,.276,4.361" transform="translate(62.979 109.209)" fill="#ffbd86"/>
          </g>
          <g id="g2365" transform="translate(19.536 0)">
            <path id="path2367" d="M-25.869-152.57l4.552,4.543a.826.826,0,0,0,1.168,0,.826.826,0,0,0,0-1.168l-4.55-4.541a6.343,6.343,0,0,1-1.835-4.476,6.386,6.386,0,0,1,6.38-6.379,6.352,6.352,0,0,1,5.914,3.99.826.826,0,0,0,.766.517h0a.826.826,0,0,0,.766-.517,6.355,6.355,0,0,1,5.916-3.99,6.386,6.386,0,0,1,6.38,6.379,6.342,6.342,0,0,1-1.835,4.476l-11.227,11.206-4.127-4.119a.826.826,0,0,0-1.168,0,.826.826,0,0,0,0,1.168l4.711,4.7c.488.446.708.446,1.167,0L-1.08-152.57l.009-.009a7.985,7.985,0,0,0,2.31-5.635,8.041,8.041,0,0,0-8.032-8.031,7.994,7.994,0,0,0-6.681,3.57,7.991,7.991,0,0,0-6.681-3.57,8.041,8.041,0,0,0-8.032,8.031,7.985,7.985,0,0,0,2.31,5.635l.009.009" transform="translate(28.188 166.245)"/>
          </g>
          <g id="g2369" transform="translate(28.456 6.841)">
            <path id="path2371" d="M-114.534-56.615v1.769h-2.6a.826.826,0,0,0-.826.826v2.6h-1.769v-2.6a.826.826,0,0,0-.826-.826h-2.6v-1.769h2.6a.826.826,0,0,0,.826-.826v-2.6h1.769v2.6a.826.826,0,0,0,.826.826Zm-2.6-5.075h-3.422a.826.826,0,0,0-.826.826v2.6h-2.6a.826.826,0,0,0-.826.826v3.422a.826.826,0,0,0,.826.826h2.6v2.6a.826.826,0,0,0,.826.826h3.422a.826.826,0,0,0,.826-.826v-2.6h2.6a.826.826,0,0,0,.826-.826v-3.422a.826.826,0,0,0-.826-.826h-2.6v-2.6a.826.826,0,0,0-.826-.826" transform="translate(124.8 61.689)"/>
          </g>
          <g id="g2373" transform="translate(2.305 25.713)">
            <path id="path2375" d="M-213.783-236.357-224.527-247.1l1.178-1.178,10.744,10.744Zm31.978-19.669a3.039,3.039,0,0,0-4.133-1.109l-10.562,6.1a3.032,3.032,0,0,0-2.924-2.244h-5.043a16.93,16.93,0,0,0-6.479-1.7,11.074,11.074,0,0,0-8.091,3.814,17.066,17.066,0,0,0-2.1,2.764l-1.625-1.625a.826.826,0,0,0-1.168,0l-1.762,1.762-.9-.905a.826.826,0,0,0-1.169,0l-4.934,4.935a.826.826,0,0,0,0,1.168l3.112,3.114a.826.826,0,0,0,1.168,0,.826.826,0,0,0,0-1.169l-2.528-2.53,3.766-3.767,14.551,14.562-3.767,3.766-9.476-9.483a.826.826,0,0,0-1.168,0,.826.826,0,0,0,0,1.168l10.06,10.068a.826.826,0,0,0,.584.242h0a.826.826,0,0,0,.584-.242l4.936-4.934a.826.826,0,0,0,0-1.168l-1.739-1.74,1.767-1.767a.826.826,0,0,0,0-1.168l-1.615-1.615h4.7a.826.826,0,0,0,.826-.826.826.826,0,0,0-.826-.826h-6.351l-5.813-5.813c.888-1.549,3.945-6.132,8.988-6.132a15.888,15.888,0,0,1,6.027,1.649.825.825,0,0,0,.3.056h5.2a1.374,1.374,0,1,1,0,2.747H-209.4a.826.826,0,0,0-.826.826.826.826,0,0,0,.826.826h9.977a3.006,3.006,0,0,0,2.771-1.812l11.541-6.664a1.38,1.38,0,0,1,1.278,2.444l-13.928,10.886a4.67,4.67,0,0,1-2.866.988h-3.541a.826.826,0,0,0-.826.826.826.826,0,0,0,.826.826h3.541a6.329,6.329,0,0,0,3.884-1.339l13.886-10.853a3.074,3.074,0,0,0,1.053-4.1" transform="translate(232.945 257.542)"/>
          </g>
        </g>
      </g>
    </g>
  </g>
</svg>
