<svg xmlns="http://www.w3.org/2000/svg" xmlns:xlink="http://www.w3.org/1999/xlink" width="109.652" height="109.653" viewBox="0 0 109.652 109.653">
  <defs>
    <filter id="Path_874925" x="0" y="0" width="109.652" height="109.653" filterUnits="userSpaceOnUse">
      <feOffset dy="3" input="SourceAlpha"/>
      <feGaussianBlur stdDeviation="3" result="blur"/>
      <feFlood flood-opacity="0.161"/>
      <feComposite operator="in" in2="blur"/>
      <feComposite in="SourceGraphic"/>
    </filter>
  </defs>
  <g id="Group_1111526" data-name="Group 1111526" transform="translate(-540.174 -1125)">
    <g id="Group_1111384" data-name="Group 1111384" transform="translate(-470.557 -1946)">
      <g transform="matrix(1, 0, 0, 1, 1010.73, 3071)" filter="url(#Path_874925)">
        <g id="Path_874925-2" data-name="Path 874925" transform="translate(9 6)" fill="#ffd63c">
          <path d="M 45.82614517211914 90.15280151367188 C 39.84149551391602 90.15280151367188 34.03665924072266 88.98104095458984 28.5728702545166 86.67005157470703 C 23.29473304748535 84.43759155273438 18.55415725708008 81.24130249023438 14.48283290863037 77.16998291015625 C 10.41150760650635 73.09866333007812 7.215232849121094 68.35809326171875 4.982757568359375 63.07994079589844 C 2.671770095825195 57.61616897583008 1.500007629394531 51.81131744384766 1.500007629394531 45.82666778564453 C 1.500007629394531 39.84149169921875 2.671770095825195 34.03665542602539 4.982757568359375 28.57286643981934 C 7.215232849121094 23.29472923278809 10.41150760650635 18.55415534973145 14.48283290863037 14.48283004760742 C 18.55415725708008 10.4115047454834 23.29473304748535 7.215229511260986 28.5728702545166 4.982754707336426 C 34.03665924072266 2.671766996383667 39.84149551391602 1.500004529953003 45.82614517211914 1.500004529953003 C 51.81079483032227 1.500004529953003 57.61564636230469 2.671766996383667 63.07942199707031 4.982754707336426 C 68.35756683349609 7.215229511260986 73.09814453125 10.4115047454834 77.16947174072266 14.48283004760742 C 81.24078369140625 18.55415534973145 84.43707275390625 23.29472923278809 86.66954803466797 28.57286643981934 C 88.98052978515625 34.03665542602539 90.15229797363281 39.84149169921875 90.15229797363281 45.82614135742188 C 90.15229797363281 51.81131744384766 88.98052978515625 57.61616897583008 86.66954803466797 63.07994079589844 C 84.43707275390625 68.35809326171875 81.24078369140625 73.09866333007812 77.16947174072266 77.16998291015625 C 73.09814453125 81.24130249023438 68.35756683349609 84.43759155273438 63.07942199707031 86.67005157470703 C 57.61564636230469 88.98104095458984 51.81079483032227 90.15280151367188 45.82614517211914 90.15280151367188 Z" stroke="none"/>
          <path d="M 45.82614517211914 3.000007629394531 C 40.04333114624023 3.000007629394531 34.43508911132812 4.131904602050781 29.15720367431641 6.364265441894531 C 24.05784606933594 8.521102905273438 19.47753143310547 11.60944366455078 15.54348754882812 15.54348754882812 C 11.60944366455078 19.47753143310547 8.521102905273438 24.05784606933594 6.3642578125 29.15720367431641 C 4.131904602050781 34.43508911132812 3 40.0433349609375 3 45.82667541503906 C 3 51.60948944091797 4.131904602050781 57.21773147583008 6.3642578125 62.49562072753906 C 8.521102905273438 67.59497833251953 11.60944366455078 72.17527770996094 15.54348754882812 76.10932922363281 C 19.47753143310547 80.04337310791016 24.05784606933594 83.13170623779297 29.15718841552734 85.28854370117188 C 34.43508911132812 87.52090454101562 40.04333114624023 88.65280151367188 45.82614517211914 88.65280151367188 C 51.60895919799805 88.65280151367188 57.21720123291016 87.52090454101562 62.49510192871094 85.28854370117188 C 67.59444427490234 83.13170623779297 72.17475891113281 80.04337310791016 76.10880279541016 76.10932922363281 C 80.0428466796875 72.17527770996094 83.13118743896484 67.59497833251953 85.28803253173828 62.49562072753906 C 87.5203857421875 57.21773147583008 88.65229034423828 51.60948944091797 88.65229034423828 45.82614898681641 C 88.65229034423828 40.0433349609375 87.5203857421875 34.43508911132812 85.28803253173828 29.15720367431641 C 83.13118743896484 24.05784606933594 80.0428466796875 19.47753143310547 76.10880279541016 15.54348754882812 C 72.17475891113281 11.60944366455078 67.59444427490234 8.521102905273438 62.49508666992188 6.364265441894531 C 57.21720123291016 4.131904602050781 51.60895919799805 3.000007629394531 45.82614517211914 3.000007629394531 M 45.82614517211914 7.62939453125e-06 C 71.13523101806641 7.62939453125e-06 91.65229034423828 20.51705932617188 91.65229034423828 45.82614898681641 L 91.65229034423828 45.82667541503906 C 91.65229034423828 71.13575744628906 71.13523101806641 91.65280151367188 45.82614517211914 91.65280151367188 C 20.51705932617188 91.65280151367188 0 71.13575744628906 0 45.82667541503906 L 0 45.82614898681641 C 0 20.51705932617188 20.51705932617188 7.62939453125e-06 45.82614517211914 7.62939453125e-06 Z" stroke="none" fill="#fff"/>
        </g>
      </g>
    </g>
    <g id="vaca-al" transform="translate(562.016 1138.826)">
      <g id="Group_1111525" data-name="Group 1111525" transform="translate(9.755 35.439)">
        <path id="Path_900392" data-name="Path 900392" d="M28.288,385.277a4.245,4.245,0,0,0-2.887,1.46,7.69,7.69,0,0,1,1.459-5.057,7.322,7.322,0,0,0-3.481,2.736,23.658,23.658,0,0,1,1.844-7.39c-1.8.969-3.3,3.095-4.212,5.87-.923-3.256-2.276-5.732-3.858-6.941a43.933,43.933,0,0,1,1.731,9.034,7.848,7.848,0,0,0-2.847-1.421,7.576,7.576,0,0,1,1.991,5.362c2.7,0,5.9.145,8.85.145A5.369,5.369,0,0,1,28.288,385.277Z" transform="translate(-16.036 -362.283)" fill="#afe269" fill-rule="evenodd"/>
        <g id="Group_1111524" data-name="Group 1111524" transform="translate(17.856)">
          <path id="Path_900394" data-name="Path 900394" d="M384.011,408.522H377.8a3.225,3.225,0,0,0,.354,2.512l-.135.128a.763.763,0,0,0,1.046,1.112l.168-.158a3.2,3.2,0,0,0,.907.377l-.006.207a.762.762,0,0,0,1.524.042l.007-.247a3.222,3.222,0,0,0,2.348-3.972Z" transform="translate(-356.012 -391.29)" fill="#efc7a4" fill-rule="evenodd"/>
          <path id="Path_900395" data-name="Path 900395" d="M252.653,301.516h14.459a4.839,4.839,0,0,1,4.824,4.824v14.552a1.885,1.885,0,0,1-1.882,1.882h-.409a1.885,1.885,0,0,1-1.882-1.882v-4.724a2.131,2.131,0,0,0-2.127-2.127H254.451a2.131,2.131,0,0,0-2.127,2.127v4.724a1.885,1.885,0,0,1-1.882,1.882h-.731a1.885,1.885,0,0,1-1.882-1.882V306.34A4.838,4.838,0,0,1,252.653,301.516Z" transform="translate(-240.349 -295.98)" fill="#e7eaed" fill-rule="evenodd"/>
          <path id="Path_900396" data-name="Path 900396" d="M247.828,315.867v-4.5a2.25,2.25,0,1,1,0,4.5Zm8.9-14.351h10.383a4.8,4.8,0,0,1,2.921.992,6.678,6.678,0,0,1-13.306-.819q0-.087,0-.173Zm3.165,12.525h-6.122a3.171,3.171,0,1,1,6.122,0Z" transform="translate(-240.349 -295.98)" fill="#424852" fill-rule="evenodd"/>
          <path id="Path_900397" data-name="Path 900397" d="M206.385,251.338a3.917,3.917,0,0,1-.509,2.524,6.611,6.611,0,0,1-1.974,2.177.571.571,0,0,1-.8-.134l-.76-1.07a.571.571,0,0,1,.134-.8l.04-.027a7.96,7.96,0,0,0,1.867-1.521,6.513,6.513,0,0,0,.928-1.316.572.572,0,0,1,1.069.163ZM195.4,253.862a3.939,3.939,0,0,1-.509-2.524.572.572,0,0,1,1.069-.163,6.511,6.511,0,0,0,.928,1.316c.043.048,1.866,1.522,1.866,1.522l.041.026a.571.571,0,0,1,.134.8l-.76,1.07a.571.571,0,0,1-.8.134A6.613,6.613,0,0,1,195.4,253.862Z" transform="translate(-193.161 -250.868)" fill="#636c77" fill-rule="evenodd"/>
          <path id="Path_900398" data-name="Path 900398" d="M194.359,281.988a3.173,3.173,0,0,1-3.155,2.953h-8.648a3.173,3.173,0,0,1-3.155-2.953Z" transform="translate(-179.4 -278.586)" fill="#f4f6f8" fill-rule="evenodd"/>
          <path id="Path_900399" data-name="Path 900399" d="M216.485,275.5h1.479a3.025,3.025,0,0,1,3.016,3.016v4.04a3.025,3.025,0,0,1-3.016,3.016h-1.479a3.025,3.025,0,0,1-3.016-3.016v-4.04A3.025,3.025,0,0,1,216.485,275.5Z" transform="translate(-209.745 -272.807)" fill="#f7f9fb" fill-rule="evenodd"/>
          <path id="Path_900400" data-name="Path 900400" d="M223.2,338.452a3.034,3.034,0,0,1-2.228,1.649h-2.435a1.812,1.812,0,1,1,.478-3.337h1.479A3.026,3.026,0,0,1,223.2,338.452Z" transform="translate(-212.276 -327.375)" fill="#efc7a4" fill-rule="evenodd"/>
          <path id="Path_900401" data-name="Path 900401" d="M229.127,313.222a.589.589,0,1,1-.589.589A.589.589,0,0,1,229.127,313.222Zm-3.815,0a.589.589,0,1,1-.589.589A.589.589,0,0,1,225.312,313.222Z" transform="translate(-219.769 -306.406)" fill="#424852" fill-rule="evenodd"/>
        </g>
      </g>
      <path id="Path_900402" data-name="Path 900402" d="M33.153,42.255a.589.589,0,1,1-.591.589A.588.588,0,0,1,33.153,42.255Zm29.831,9.352v-.058c-.041-.873-.494-8.435-4.65-9.685a5.575,5.575,0,0,0-3.966-1.654H43.007a3.9,3.9,0,0,0,.324-1.319.783.783,0,0,0-.206-.574.761.761,0,0,0-.561-.242H40.5a3.686,3.686,0,0,0,.334-2.167.573.573,0,0,0-1.07-.163,7.125,7.125,0,0,1-1.893,2.22,3.77,3.77,0,0,0-2.042-.6H34.346a3.759,3.759,0,0,0-1.97.557,6.353,6.353,0,0,1-1.965-2.177.574.574,0,0,0-1.07.163,3.767,3.767,0,0,0,.334,2.167H27.608a.778.778,0,0,0-.561.242.759.759,0,0,0-.2.574,3.934,3.934,0,0,0,3.719,3.662v2.634a3.785,3.785,0,0,0,3.755,3.78V60.352A2.651,2.651,0,0,0,36.969,63h.73a2.651,2.651,0,0,0,2.649-2.647V55.627a1.364,1.364,0,0,1,1.363-1.361h6.877a3.921,3.921,0,0,0,.591,1.456l-.463.431a.766.766,0,0,0,.525,1.324.754.754,0,0,0,.52-.206l.5-.465a4.077,4.077,0,0,0,.916.459,4.667,4.667,0,0,0,.535.148l-.021.642a.766.766,0,0,0,.741.79h.026a.767.767,0,0,0,.766-.739l.021-.675a3.855,3.855,0,0,0,1.013-.336v3.257A2.651,2.651,0,0,0,56.9,63h.406a2.651,2.651,0,0,0,2.649-2.647V45.8c0-.166-.01-.329-.021-.492a16.852,16.852,0,0,1,1.512,6.308.77.77,0,0,0,.766.732h.036a.766.766,0,0,0,.73-.74ZM36.377,42.843a.589.589,0,1,1,.586.589A.588.588,0,0,1,36.377,42.843Zm-3.528,8.123a.766.766,0,0,1,0,1.082l-2.608,2.6a.751.751,0,0,1-.54.224.765.765,0,0,1-.54-1.306l1.3-1.3H21.2a.765.765,0,1,1,0-1.53h9.258l-1.3-1.3a.764.764,0,0,1,1.08-1.082ZM16.776,46.614l.005-9.259-1.3,1.3a.765.765,0,0,1-1.08-1.082l2.6-2.6a.77.77,0,0,1,1.085,0l2.6,2.6A.766.766,0,0,1,19.6,38.654l-1.3-1.3v9.259a.766.766,0,0,1-1.533,0ZM58.432,60.351a1.121,1.121,0,0,1-1.121,1.117H56.9a1.116,1.116,0,0,1-1.116-1.117V55.627A2.894,2.894,0,0,0,52.9,52.735H48.027a3.936,3.936,0,1,0-7.838.435,2.892,2.892,0,0,0-1.373,2.457v4.725A1.116,1.116,0,0,1,37.7,61.468h-.73a1.116,1.116,0,0,1-1.116-1.117V56.006a2.79,2.79,0,0,0,1.476-.879,3.109,3.109,0,0,0,.746-2.051,2.917,2.917,0,0,0-2.222-2.93V48.968a3.785,3.785,0,0,0,3.755-3.78V42.553a3.906,3.906,0,0,0,2.2-.813h1.44a7.437,7.437,0,0,0,7.417,6.851,7.457,7.457,0,0,0,7.062-5.079,4.027,4.027,0,0,1,.71,2.287V60.351Zm-7.638-5.069c-.005,0-.005-.009-.01-.014a.5.5,0,0,0-.067-.061,2.34,2.34,0,0,1-.561-.942H52.9a1.36,1.36,0,0,1,1.312,1.009,2.407,2.407,0,0,1-2.525.546A2.512,2.512,0,0,1,50.794,55.282ZM42.184,51.2A2.4,2.4,0,0,1,46,51.2a2.418,2.418,0,0,1,.5,1.531H41.685a2.39,2.39,0,0,1,.5-1.531Zm-6.331.567a1.455,1.455,0,0,1,.689,1.3,1.6,1.6,0,0,1-.365,1.043,1.184,1.184,0,0,1-.324.262Zm-3.317-5.254a2.267,2.267,0,0,1,1.81-.924h1.481a2.267,2.267,0,0,1,1.81.924,2.242,2.242,0,0,1-1.81.921H34.346a2.249,2.249,0,0,1-1.81-.921Zm-3.96-6.911h2.32a3.815,3.815,0,0,0-.324,1.414A2.406,2.406,0,0,1,28.575,39.606Zm7.252-.709H34.346A2.252,2.252,0,0,0,32.1,41.147v3.669a3.778,3.778,0,0,1,2.248-.753h1.481a3.794,3.794,0,0,1,2.253.753V41.147A2.256,2.256,0,0,0,35.827,38.9ZM39.6,41.02a3.714,3.714,0,0,0-.324-1.414H41.6A2.414,2.414,0,0,1,39.6,41.02Zm16.855,1.3a5.91,5.91,0,0,1-10.024,2.957,5.832,5.832,0,0,1-1.651-3.537h9.587a4.018,4.018,0,0,1,2.088.58ZM21.246,16.164a5.1,5.1,0,1,1-5.1,5.1A5.1,5.1,0,0,1,21.246,16.164Zm0,11.724a6.627,6.627,0,1,0-6.625-6.627,6.638,6.638,0,0,0,6.625,6.627ZM12.733,18.98a4.385,4.385,0,0,1-1.461,2.28,4.45,4.45,0,0,1,1.337,4.986A4.44,4.44,0,0,1,16.262,29.9a4.316,4.316,0,0,1,1.533-.279,4.553,4.553,0,0,1,1.173.156,4.411,4.411,0,0,1,2.279,1.459A4.443,4.443,0,0,1,26.23,29.9a4.458,4.458,0,0,1,3.652-3.65,4.468,4.468,0,0,1,1.337-4.983,4.45,4.45,0,0,1-1.337-4.986,4.456,4.456,0,0,1-3.652-3.651,4.477,4.477,0,0,1-4.984-1.335,4.445,4.445,0,0,1-4.984,1.338,4.442,4.442,0,0,1-3.652,3.649,4.4,4.4,0,0,1,.123,2.7Zm-3.251,3A2.889,2.889,0,0,1,10.7,26.521a.765.765,0,0,0,.715,1.242,2.89,2.89,0,0,1,3.328,3.326.764.764,0,0,0,1.24.717,2.9,2.9,0,0,1,4.547,1.217.763.763,0,0,0,1.43,0,2.892,2.892,0,0,1,4.547-1.217.764.764,0,0,0,1.24-.717,2.89,2.89,0,0,1,3.328-3.326.765.765,0,0,0,.715-1.242,2.9,2.9,0,0,1,1.219-4.543.765.765,0,0,0,0-1.434A2.889,2.889,0,0,1,31.79,16a.765.765,0,0,0-.715-1.242,2.89,2.89,0,0,1-3.328-3.326.764.764,0,0,0-1.24-.717A2.9,2.9,0,0,1,21.961,9.5a.763.763,0,0,0-1.43,0,2.891,2.891,0,0,1-4.547,1.217.764.764,0,0,0-1.24.717,2.89,2.89,0,0,1-3.328,3.326A.765.765,0,0,0,10.7,16a2.9,2.9,0,0,1-1.219,4.543.765.765,0,0,0,0,1.434ZM19.852,61.465c-1.276-.009-2.587-.041-3.863-.072-1.219-.029-2.386-.058-3.492-.067a8.152,8.152,0,0,0-.689-2.816c.108.076.211.154.314.235a.765.765,0,0,0,1.24-.669,48.248,48.248,0,0,0-.833-5.606,20.024,20.024,0,0,1,1.461,3.791.767.767,0,0,0,.72.556h.015a.765.765,0,0,0,.73-.527,12.661,12.661,0,0,1,1.738-3.5,26.54,26.54,0,0,0-.859,4.712.765.765,0,0,0,1.389.509,7.305,7.305,0,0,1,.988-1.144,11.461,11.461,0,0,0-.36,3.009.767.767,0,0,0,1.327.54,5.187,5.187,0,0,1,.545-.519,5.917,5.917,0,0,0-.37,1.569Zm2.011-3.785a6.817,6.817,0,0,0-1.877.556,6.272,6.272,0,0,1,1.229-2.977.766.766,0,0,0-.9-1.143,7.568,7.568,0,0,0-2.134,1.193,21.552,21.552,0,0,1,1.456-4.816.763.763,0,0,0-1.059-.985A9.4,9.4,0,0,0,14.8,53.82,11.872,11.872,0,0,0,11.335,48.5a.767.767,0,0,0-1.2.837,41.279,41.279,0,0,1,1.533,7.306,8.791,8.791,0,0,0-1.718-.66.766.766,0,0,0-.771,1.247,6.859,6.859,0,0,1,1.8,4.823.756.756,0,0,0,.211.561.766.766,0,0,0,.55.235c1.312,0,2.721.033,4.207.069,1.538.037,3.127.076,4.644.076a.757.757,0,0,0,.55-.235.78.78,0,0,0,.216-.56,4.6,4.6,0,0,1,1.214-3.262.763.763,0,0,0-.71-1.261Z" fill-rule="evenodd"/>
    </g>
  </g>
</svg>
