<svg xmlns="http://www.w3.org/2000/svg" xmlns:xlink="http://www.w3.org/1999/xlink" width="109.652" height="109.653" viewBox="0 0 109.652 109.653">
  <defs>
    <filter id="Path_874925" x="0" y="0" width="109.652" height="109.653" filterUnits="userSpaceOnUse">
      <feOffset dy="3" input="SourceAlpha"/>
      <feGaussianBlur stdDeviation="3" result="blur"/>
      <feFlood flood-opacity="0.161"/>
      <feComposite operator="in" in2="blur"/>
      <feComposite in="SourceGraphic"/>
    </filter>
  </defs>
  <g id="Group_1111530" data-name="Group 1111530" transform="translate(-745.174 -1125)">
    <g id="Group_1111385" data-name="Group 1111385" transform="translate(-265.557 -1946)">
      <g transform="matrix(1, 0, 0, 1, 1010.73, 3071)" filter="url(#Path_874925)">
        <g id="Path_874925-2" data-name="Path 874925" transform="translate(9 6)" fill="#ffd63c">
          <path d="M 45.82614517211914 90.15280151367188 C 39.84149551391602 90.15280151367188 34.03665924072266 88.98104095458984 28.5728702545166 86.67005157470703 C 23.29473304748535 84.43759155273438 18.55415725708008 81.24130249023438 14.48283290863037 77.16998291015625 C 10.41150760650635 73.09866333007812 7.215232849121094 68.35809326171875 4.982757568359375 63.07994079589844 C 2.671770095825195 57.61616897583008 1.500007629394531 51.81131744384766 1.500007629394531 45.82666778564453 C 1.500007629394531 39.84149169921875 2.671770095825195 34.03665542602539 4.982757568359375 28.57286643981934 C 7.215232849121094 23.29472923278809 10.41150760650635 18.55415534973145 14.48283290863037 14.48283004760742 C 18.55415725708008 10.4115047454834 23.29473304748535 7.215229511260986 28.5728702545166 4.982754707336426 C 34.03665924072266 2.671766996383667 39.84149551391602 1.500004529953003 45.82614517211914 1.500004529953003 C 51.81079483032227 1.500004529953003 57.61564636230469 2.671766996383667 63.07942199707031 4.982754707336426 C 68.35756683349609 7.215229511260986 73.09814453125 10.4115047454834 77.16947174072266 14.48283004760742 C 81.24078369140625 18.55415534973145 84.43707275390625 23.29472923278809 86.66954803466797 28.57286643981934 C 88.98052978515625 34.03665542602539 90.15229797363281 39.84149169921875 90.15229797363281 45.82614135742188 C 90.15229797363281 51.81131744384766 88.98052978515625 57.61616897583008 86.66954803466797 63.07994079589844 C 84.43707275390625 68.35809326171875 81.24078369140625 73.09866333007812 77.16947174072266 77.16998291015625 C 73.09814453125 81.24130249023438 68.35756683349609 84.43759155273438 63.07942199707031 86.67005157470703 C 57.61564636230469 88.98104095458984 51.81079483032227 90.15280151367188 45.82614517211914 90.15280151367188 Z" stroke="none"/>
          <path d="M 45.82614517211914 3.000007629394531 C 40.04333114624023 3.000007629394531 34.43508911132812 4.131904602050781 29.15720367431641 6.364265441894531 C 24.05784606933594 8.521102905273438 19.47753143310547 11.60944366455078 15.54348754882812 15.54348754882812 C 11.60944366455078 19.47753143310547 8.521102905273438 24.05784606933594 6.3642578125 29.15720367431641 C 4.131904602050781 34.43508911132812 3 40.0433349609375 3 45.82667541503906 C 3 51.60948944091797 4.131904602050781 57.21773147583008 6.3642578125 62.49562072753906 C 8.521102905273438 67.59497833251953 11.60944366455078 72.17527770996094 15.54348754882812 76.10932922363281 C 19.47753143310547 80.04337310791016 24.05784606933594 83.13170623779297 29.15718841552734 85.28854370117188 C 34.43508911132812 87.52090454101562 40.04333114624023 88.65280151367188 45.82614517211914 88.65280151367188 C 51.60895919799805 88.65280151367188 57.21720123291016 87.52090454101562 62.49510192871094 85.28854370117188 C 67.59444427490234 83.13170623779297 72.17475891113281 80.04337310791016 76.10880279541016 76.10932922363281 C 80.0428466796875 72.17527770996094 83.13118743896484 67.59497833251953 85.28803253173828 62.49562072753906 C 87.5203857421875 57.21773147583008 88.65229034423828 51.60948944091797 88.65229034423828 45.82614898681641 C 88.65229034423828 40.0433349609375 87.5203857421875 34.43508911132812 85.28803253173828 29.15720367431641 C 83.13118743896484 24.05784606933594 80.0428466796875 19.47753143310547 76.10880279541016 15.54348754882812 C 72.17475891113281 11.60944366455078 67.59444427490234 8.521102905273438 62.49508666992188 6.364265441894531 C 57.21720123291016 4.131904602050781 51.60895919799805 3.000007629394531 45.82614517211914 3.000007629394531 M 45.82614517211914 7.62939453125e-06 C 71.13523101806641 7.62939453125e-06 91.65229034423828 20.51705932617188 91.65229034423828 45.82614898681641 L 91.65229034423828 45.82667541503906 C 91.65229034423828 71.13575744628906 71.13523101806641 91.65280151367188 45.82614517211914 91.65280151367188 C 20.51705932617188 91.65280151367188 0 71.13575744628906 0 45.82667541503906 L 0 45.82614898681641 C 0 20.51705932617188 20.51705932617188 7.62939453125e-06 45.82614517211914 7.62939453125e-06 Z" stroke="none" fill="#fff"/>
        </g>
      </g>
    </g>
    <g id="vaca-r" transform="translate(770.871 1107.924)">
      <path id="Path_900403" data-name="Path 900403" d="M11.166,301.219a1.749,1.749,0,0,0-1.634-1.845A1.749,1.749,0,0,0,7.9,301.219c0,1.019.732,2.792,1.634,2.792S11.166,302.237,11.166,301.219Z" transform="translate(-6.999 -222.948)" fill="#4a5058"/>
      <circle id="Ellipse_11779" data-name="Ellipse 11779" cx="5.769" cy="5.769" r="5.769" transform="translate(10.339 78.366)" fill="#edbcb9"/>
      <path id="Path_900404" data-name="Path 900404" d="M96.631,316.422a5.768,5.768,0,0,0-4.712,9.1h9.425a5.768,5.768,0,0,0-4.712-9.1Z" transform="translate(-80.523 -238.056)" opacity="0.1"/>
      <path id="Path_900405" data-name="Path 900405" d="M257.325,350.065h-6a.618.618,0,0,1-.618-.618V336.425h7.241v13.022A.618.618,0,0,1,257.325,350.065Z" transform="translate(-222.176 -255.783)" fill="#e8e8e8"/>
      <path id="Path_900406" data-name="Path 900406" d="M257.325,427.62h-6A.618.618,0,0,1,250.7,427v-3.065h7.241V427A.618.618,0,0,1,257.325,427.62Z" transform="translate(-222.176 -333.338)" fill="#7d7060"/>
      <path id="Path_900407" data-name="Path 900407" d="M257.325,350.065h-6a.618.618,0,0,1-.618-.618V336.425h7.241v13.022A.618.618,0,0,1,257.325,350.065Z" transform="translate(-222.176 -255.783)" opacity="0.2"/>
      <path id="Path_900408" data-name="Path 900408" d="M79.253,221.728H65.6a9.921,9.921,0,0,0-9.921,9.921V247.8a.618.618,0,0,0,.618.618h6a.618.618,0,0,0,.618-.618v-7.516a8.811,8.811,0,0,0,1.529.136h8.193V247.8a.618.618,0,0,0,.618.618h6a.618.618,0,0,0,.618-.618v-7.543a9.922,9.922,0,0,0,8.144-9.76h0A8.771,8.771,0,0,0,79.253,221.728Z" transform="translate(-49.34 -154.137)" fill="#e8e8e8"/>
      <path id="Path_900409" data-name="Path 900409" d="M147.049,221.728H133.393a10.009,10.009,0,0,0-1.217.077c1.1,7.047,8.753,12.5,18.024,12.5a22.825,22.825,0,0,0,5.075-.565,9.9,9.9,0,0,0,.545-3.244h0A8.771,8.771,0,0,0,147.049,221.728Z" transform="translate(-117.136 -154.137)" opacity="0.05"/>
      <path id="Path_900410" data-name="Path 900410" d="M64.245,223.556a9.927,9.927,0,0,0-7.807,8.419,6.159,6.159,0,0,0,7.807-8.419Z" transform="translate(-50.016 -155.757)" fill="#4a5058"/>
      <g id="Group_1111527" data-name="Group 1111527" transform="translate(21.502 48.701)">
        <path id="Path_900411" data-name="Path 900411" d="M188.969,57.068l0,4.4a.778.778,0,0,0,.712.776h0A5.5,5.5,0,0,0,195.13,59.1h0a.778.778,0,0,0-.316-1L191,55.894A1.356,1.356,0,0,0,188.969,57.068Z" transform="translate(-188.967 -55.711)" fill="#7d7060"/>
        <path id="Path_900412" data-name="Path 900412" d="M366.78,57.068l0,4.4a.778.778,0,0,1-.712.776h0a5.5,5.5,0,0,1-5.451-3.147h0a.778.778,0,0,1,.316-1l3.812-2.2A1.356,1.356,0,0,1,366.78,57.068Z" transform="translate(-341.022 -55.711)" fill="#7d7060"/>
      </g>
      <g id="Group_1111528" data-name="Group 1111528" transform="translate(11.402 56.267)">
        <path id="Path_900413" data-name="Path 900413" d="M110.4,122.21l-4.061,1.009a8.988,8.988,0,0,0-5.884,4.727h0a2.378,2.378,0,0,0,2,3.432h0a5.709,5.709,0,0,0,5.576-3.5Z" transform="translate(-100.207 -122.21)" fill="#a4a8ab"/>
        <path id="Path_900414" data-name="Path 900414" d="M414.513,122.21l4.061,1.009a8.988,8.988,0,0,1,5.884,4.727h0a2.378,2.378,0,0,1-2,3.432h0a5.709,5.709,0,0,1-5.576-3.5Z" transform="translate(-378.75 -122.21)" fill="#a4a8ab"/>
      </g>
      <ellipse id="Ellipse_11780" data-name="Ellipse 11780" cx="18.161" cy="14.264" rx="18.161" ry="14.264" transform="translate(16.22 49.743)" fill="#e8e8e8"/>
      <path id="Path_900415" data-name="Path 900415" d="M197.711,65.13a20.441,20.441,0,0,0-12.125,4.493A6.767,6.767,0,0,0,197.721,65.5C197.721,65.376,197.717,65.253,197.711,65.13Z" transform="translate(-164.469 -15.358)" fill="#4a5058"/>
      <path id="Path_900416" data-name="Path 900416" d="M176.1,166.845c-7.841,0-14.414,3.893-16.186,9.137,3,4.622,9.124,7.788,16.186,7.788s13.182-3.165,16.186-7.788C190.51,170.738,183.936,166.845,176.1,166.845Z" transform="translate(-141.714 -105.499)" fill="#edbcb9"/>
      <ellipse id="Ellipse_11781" data-name="Ellipse 11781" cx="2.191" cy="3.747" rx="2.191" ry="3.747" transform="translate(27.359 65.907)" opacity="0.2"/>
      <ellipse id="Ellipse_11782" data-name="Ellipse 11782" cx="2.191" cy="3.747" rx="2.191" ry="3.747" transform="translate(37.021 65.907)" opacity="0.2"/>
      <g id="Group_1111529" data-name="Group 1111529" transform="translate(6.335 90.599)">
        <path id="Path_900417" data-name="Path 900417" d="M211.378,427.62h-6a.618.618,0,0,1-.618-.618v-3.065H212V427A.618.618,0,0,1,211.378,427.62Z" transform="translate(-187.792 -423.937)" fill="#7d7060"/>
        <path id="Path_900418" data-name="Path 900418" d="M62.3,427.62h-6a.618.618,0,0,1-.618-.618v-3.065h7.241V427A.618.618,0,0,1,62.3,427.62Z" transform="translate(-55.674 -423.937)" fill="#7d7060"/>
      </g>
      <circle id="Ellipse_11783" data-name="Ellipse 11783" cx="2.163" cy="2.163" r="2.163" transform="translate(19.424 79.119)" fill="#4a5058"/>
      <path id="Path_900419" data-name="Path 900419" d="M24.62,58.228a2.3,2.3,0,0,0-2.3,2.3.9.9,0,0,0,1.8,0,.5.5,0,1,1,1,0,.9.9,0,1,0,1.8,0A2.3,2.3,0,0,0,24.62,58.228ZM57.915,61.6a9.87,9.87,0,0,0-6.472-5.2l-.68-.169a16.161,16.161,0,0,0-2.6-2.712l0-3.465a2.254,2.254,0,0,0-3.381-1.952L41.57,49.955a23.841,23.841,0,0,0-14.378,0l-3.206-1.849A2.254,2.254,0,0,0,20.6,50.058l0,3.465A16.17,16.17,0,0,0,18,56.235l-.68.169a9.871,9.871,0,0,0-6.472,5.2,3.277,3.277,0,0,0,2.758,4.729q.176.01.352.009a6.642,6.642,0,0,0,1.552-.187q.049.279.111.556A10.794,10.794,0,0,0,8.34,70.145c-3.555.728-6,2.793-6.574,5.511A2.734,2.734,0,0,0,0,78.27c0,1.253.894,3.69,2.533,3.69s2.533-2.438,2.533-3.69a2.766,2.766,0,0,0-1.482-2.5,5.116,5.116,0,0,1,3.047-3.2,10.754,10.754,0,0,0-1.194,4.938V93.664A1.519,1.519,0,0,0,6.953,95.18h6a1.519,1.519,0,0,0,1.517-1.517V90.6q.123.031.247.058v.3a.9.9,0,1,0,1.8,0v-.171a6.708,6.708,0,0,0,1.019-.14v.072a.9.9,0,0,0,1.8,0v-.746a6.635,6.635,0,0,0,2.7-2.794H22.4v6.482a1.519,1.519,0,0,0,1.517,1.517H35.149a1.519,1.519,0,0,0,1.517-1.517V83.75a10.787,10.787,0,0,0,2.668-5.1A20.556,20.556,0,0,0,47.779,74.8a14.2,14.2,0,0,0,5.474-8.644,6.643,6.643,0,0,0,1.552.187q.176,0,.352-.009A3.277,3.277,0,0,0,57.915,61.6ZM2.533,80.138A3.052,3.052,0,0,1,1.8,78.27a.873.873,0,0,1,.735-.946.873.873,0,0,1,.735.946A3.053,3.053,0,0,1,2.533,80.138ZM45.675,49.662a.457.457,0,0,1,.686.4v2.148a19.83,19.83,0,0,0-2.631-1.423Zm-23.273.4a.457.457,0,0,1,.686-.4l1.944,1.121A19.851,19.851,0,0,0,22.4,52.206ZM15.321,64.007c0,.113,0,.226.005.339a4.826,4.826,0,0,1-1.623.192A1.48,1.48,0,0,1,12.458,62.4a8.071,8.071,0,0,1,4.133-3.868A12.486,12.486,0,0,0,15.321,64.007ZM12.677,93.383H7.233V91.5h5.444Zm3.431-4.377a4.829,4.829,0,0,1-1.634-.281V87.16q.317.021.631.021h4.806A4.846,4.846,0,0,1,16.108,89.006Zm13.532,4.377H24.2V91.5h5.444Zm5.228,0H31.438V91.5h3.431Zm0-3.683H31.438V86.845a10.773,10.773,0,0,0,3.431-1.552Zm-4.489-4.464a.9.9,0,0,0-.739.884V89.7H24.2V86.283a.9.9,0,0,0-.9-.9H15.105a7.953,7.953,0,0,1-1.374-.122.9.9,0,0,0-1.054.885V89.7H7.233V77.512a9.032,9.032,0,0,1,8.928-9.02A14.927,14.927,0,0,0,20.984,74.8a21.7,21.7,0,0,0,13.4,4.37,24.2,24.2,0,0,0,3.014-.188A9.011,9.011,0,0,1,30.379,85.237Zm4-7.865c-6.55,0-12.259-2.839-15.184-7.01a11.783,11.783,0,0,1,5.261-5.634,20.255,20.255,0,0,1,9.922-2.483A20.255,20.255,0,0,1,44.3,64.728a11.782,11.782,0,0,1,5.261,5.634C46.641,74.533,40.931,77.372,34.381,77.372Zm16.274-8.905c-2.642-4.8-9.021-8.019-16.274-8.019s-13.631,3.22-16.274,8.019a10.646,10.646,0,0,1-.99-4.46c0-7.369,7.744-13.365,17.263-13.365s17.263,6,17.263,13.365A10.646,10.646,0,0,1,50.655,68.467Zm5.6-4.661a1.456,1.456,0,0,1-1.2.732,4.832,4.832,0,0,1-1.623-.192c0-.113.005-.226.005-.339a12.488,12.488,0,0,0-1.27-5.473A8.073,8.073,0,0,1,56.305,62.4,1.456,1.456,0,0,1,56.258,63.806ZM44.143,58.228a2.3,2.3,0,0,0-2.3,2.3.9.9,0,0,0,1.8,0,.5.5,0,1,1,1,0,.9.9,0,1,0,1.8,0A2.3,2.3,0,0,0,44.143,58.228Z" transform="translate(0 0)"/>
    </g>
  </g>
</svg>
